<?xml version="1.0" encoding="UTF-8"?>
<svg id="_レイヤー_1" data-name="レイヤー 1" xmlns="http://www.w3.org/2000/svg" width="240" height="240" viewBox="0 0 240 240">
  <defs>
    <style>
      .cls-1 {
        fill: #c6a655;
      }

      .cls-2 {
        fill: #f9df80;
      }

      .cls-3 {
        fill: #f5e9ac;
      }

      .cls-4 {
        fill: #f3e193;
      }

      .cls-5 {
        fill: #b6a194;
      }

      .cls-6 {
        fill: #4f3b44;
      }

      .cls-7 {
        fill: #fdee94;
      }

      .cls-8 {
        fill: #dab95d;
      }

      .cls-9 {
        fill: #b68530;
      }

      .cls-10 {
        fill: #eebec1;
      }

      .cls-11 {
        fill: #fdf4a4;
      }

      .cls-12 {
        fill: #fce68a;
      }

      .cls-13 {
        fill: #fceb9c;
      }

      .cls-14 {
        fill: #f2d572;
      }

      .cls-15 {
        fill: #eed87f;
      }

      .cls-16 {
        fill: #e8cc6c;
      }
    </style>
  </defs>
  <path class="cls-3" d="M122.272,75.778c-.116.235-.553.346-.941.217-1.665-.553-3.619.051-4.197,1.795-.716,2.159-2.08,1.633-1.988,2.383.019.154.22.315.421.343-.007.079-.013.221.021.293l-.783,1.37c-.178.325-.697.361-.669.745-.085-.005-.187-.044-.241-.076-.862-.54-2.725,1.871-2.896,2.714-.607-.313-1.454-.368-1.925.137-.444.475-.631,1.211-.232,1.839.191.302.59.221.807.226.614,1.445-.627,2.938-1.889,4.148-.296-.567-.777-.623-1.187-.598-.487.029-.82.268-1.092.75-.258.458-.308.943-.008,1.337.247.324.667.54,1.098.587l-.101.253c.108.535-.097.963-.513,1.412-.629.679-1.054,1.606-1.866,1.989l-.505-.313c-.243-.571-.937-.625-1.506-.408-.464.177-1.065.724-.906,1.349l.254,1.017c-.635-.028-1.258-.324-1.973-.255l-1.281.124c-.274.026-.447-.148-.658-.096-.184.045-.365.266-.426.487-.747-.09-1.471.046-2.132.419,0-.111-.041-.241-.095-.298-.236-.253-2.741.259-4.141.878-.371.164-.627.317-.573.698l-1.668-.076c.003-.091-.017-.236-.071-.303-.196-.245-2.994.623-3.986,1.529-.342.313-.563.793-1.221.743-.141.305.134.565.222.715.246,1.657-1.645,1.643-1.63,2.388l-.624.361c-.775.447-1.563.946-1.805,1.74l-1.421.055c-.765.029-.87.991-.719,1.572-.338-.109-.671-.378-1.156-.383-1.365,1.317-.572,4.784.293,5.916.16.209.033.474-.12.543-.596-.376-.557-1.173-.812-1.806-1.424-3.526-.454-7.381,2.615-9.566,3.148-2.24,6.499-3.609,10.28-4.367l8.582-1.721c4.222-.846,6.026-3.515,7.883-6.988l2.67-4.995c1.154-2.159,2.249-4.36,3.991-6.074l2.778-2.732c1.606-1.58,3.807-2.485,6.099-2.483l1.942.467Z"/>
  <path class="cls-15" d="M128.697,80.842l2.7,3.768,3.008,5.387c1.758,3.149,3.098,6.529,6.796,7.892.33,1.135,1.871.571,2.023,1.657-.277.056-.537.275-.759.449-1.127-.346-1.462-1.465-3.352-1.922l-.288-.069c-.086-.504-.508-.896-.884-1.133-.464-.291-.932-.16-1.414.04-.024-1.106-.179-2.147-.795-2.997-.252-.348-.408-.713-1.066-.666.527-.806-.445-1.344-.551-1.848-.225-1.066-.419-1.879-1.194-2.83-.228-.28-.32-.884-.837-.861.063-.237.08-.538-.041-.729-.126-.199-.461-.233-.674-.177.045-.426-.012-.907-.341-1.209-.32-.293-.901-.541-1.347-.43.375-.95-.15-1.652-.641-2.477-.434-.729-.907-1.429-1.688-1.548-.154-.306-.421-.593-.724-.786-.25-.16-.385-.325-.731-.335.149-1.337-1.385-1.544-1.426-2.586.447.219.993.531,1.466.895l1.094.843,1.665,1.673Z"/>
  <path class="cls-4" d="M122.272,75.778c2.218.534,5.148,2.938,6.426,5.065l-1.665-1.673-1.094-.843c-.473-.364-1.019-.677-1.466-.895-.9-.44-2.627-.255-2.817,0-.127.171-.117.525-.058.737h-.501c-.005-.435-.216-.684-.74-.752-.903-.118-1.79.262-1.906,1.24-.062.525.142,1.039.251,1.459-1.03.226-2.079.489-3.135.401-.201-.028-.403-.189-.421-.343-.092-.751,1.272-.224,1.988-2.383.578-1.744,2.533-2.347,4.197-1.795.388.129.825.018.941-.217Z"/>
  <path class="cls-15" d="M157.723,102.442l.167.023c.522.709,1.41,1.169,2.26,1.127l.248-.012c.056.074.148.204.237.237.672.251,1.191.733,1.713,1.159-.027.166-.044.353-.003.473l-2.553-.564-.822-.338-.46-.011c-.051-.53-.406-.888-.895-.956-.507-.071-1.207.046-1.461.513l-2.948-.909c.005-.559-.327-.884-.73-.795-.045-.098-.179-.16-.234-.223l-.192-.491-.013-.688c1.319-.064,2.366.415,3.501.967l2.183.489Z"/>
  <path class="cls-8" d="M158.505,123.737c.15-1.249,1.138-1.983,1.946-2.894,1.771-1.999,2.911-4.616,3.806-7.177.142-.406-.28-3.09-.325-3.181-.089-.176-.413-.262-.66-.215-.035-.107-.159-.205-.217-.274l-.24-1.394c.322-.148.618-.41.696-.666.106-.347-.022-.73-.209-1.018l-.957-1.47c-.042-.119-.024-.307.003-.473,1.04.849,1.881,1.859,2.231,3.282.785,1.5.767,3.247.364,4.901-.849,3.481-2.641,6.482-5.053,9.084-.493.531-.76,1.217-1.385,1.494Z"/>
  <path class="cls-4" d="M157.723,102.442l-2.183-.489c-1.135-.551-2.182-1.031-3.501-.967l.013.688c-.158-.074-.379-.13-.515-.255-.497-.454-1.25-.26-1.918-.265.371-.953-1.387-1.351-3.406-1.395l-.752-.016c-.151-.003-.257.297-.173.49-.135-.064-.37-.126-.468-.239-.379-.46-1.014-.563-1.595-.447-.152-1.085-1.694-.522-2.023-1.657,1.222.45,2.479.857,3.919,1.102,4.006.682,7.916,1.468,11.756,2.811.41.143.744.318.847.639Z"/>
  <path class="cls-4" d="M160.15,103.592c-.85.042-1.739-.419-2.26-1.127.811.111,1.745.475,2.26,1.127Z"/>
  <path class="cls-4" d="M160.636,103.817c-.089-.033-.181-.163-.237-.237.115-.006.219.123.237.237Z"/>
  <path class="cls-10" d="M162.327,108.669c-.084,1.024-1.084,1.895-2.112,1.604-.081-.023-.22.035-.294.033.026-.378-.07-.901.045-1.241.268-.476.685-.873,1.08-.939.591-.099,1.133.01,1.282.543Z"/>
  <path class="cls-5" d="M162.816,108.603l.24,1.394c-.187.468-.577.869-.936.966-.641.173-1.261.063-1.734-.195-.084-.169-.174-.305-.17-.494,1.028.291,2.028-.58,2.112-1.604.157.003.344,0,.489-.066Z"/>
  <path class="cls-8" d="M159.966,109.064c-.115.34-.019.863-.045,1.241l-.231-.007-.274.01c-.152-.259-.399-.285-.679-.287l-.579-1.925c.835.149,1.184.742,1.808.968Z"/>
  <path class="cls-9" d="M163.272,110.27c.071.387.052,1.002-.433,1.269-.891.49-2.053.033-2.454-.772.473.259,1.093.368,1.734.195.36-.097.749-.498.936-.966.058.069.182.166.217.274Z"/>
  <path class="cls-16" d="M124.472,77.431c.04,1.042,1.575,1.249,1.426,2.586-.537-.015-1.052.032-1.284.585-.191.454-.206.952.066,1.404l.243.403c.058.096.104.299.217.354-.131-.009-.566.182-.445.437.22.467.781.97,1.213,1.105,1.962,2.625,3.555,5.421,5.12,8.362l1.428,2.685-1.021.631c-1.862,1.134-1.411.199-3.352-.152-.671-.839-1.914-1.069-3.243-.883,1.289-3.504-2.389-4.405-2.124-6.474l.411-3.21c-.168-.968-.261-1.571.328-2.434.237-.347-.453-.657-.734-.811-1.593-.876-3.629-1.003-5.302-.076-1.242.688-2.412,1.389-3.36,2.651l-2.247,2.991-1.493,2.586-2.177,4.151c-.546-.385-1.142-.297-1.671-.083l.101-.253c.173-.432,1.134-.545,1.189-2.075,1.262-1.21,2.503-2.703,1.889-4.148.896.022,1.474-.775,1.376-1.641,1.397.107,1.471-1.483,2.073-2.027.417-.376.805-.681.797-1.248.053.032.156.071.241.076.33.021.956.154,1.315-.092.53-.546.42-1.459.137-2.023-.035-.072-.028-.214-.021-.293,1.056.088,2.105-.176,3.135-.401.252-.055.639-.072.862.033.373.513,1.425.219,1.735-.192.42-.556.457-1.208.297-1.788-.058-.212-.069-.566.058-.737.19-.255,1.917-.44,2.817,0Z"/>
  <path class="cls-2" d="M108.141,94.323c-1.04,1.983-2.042,4.091-3.947,5.555-2.19,1.683-4.857,2.432-7.571,2.926l-2.812.512-.962.275c.03-.148.006-.299-.057-.365-.35-.369-1.504.426-2.022-1.13l-.156-.467c1.647.522,2.664,1.206,4.56.283.149-.048.373-.019.532.007.399.396,1.059.284,1.502-.037s.608-.894.55-1.461c1.076.25,2.139.492,3.283.189.596-.158.846-.623,1.161-.824.387-.247,1.167-.175,1.518-.515.493-.477.331-1.135.37-1.629.812-.383,1.237-1.31,1.866-1.989.416-.45.621-.877.513-1.412.529-.214,1.125-.303,1.671.083Z"/>
  <path class="cls-4" d="M88.481,101.168c-.404.426-.896.929-.691,1.668.112.406.493.679.649.939-2.336.006-2.85,1.323-4.08,1-.08-.064-.204-.15-.254-.236-.125-.319-.353-.569-.68-.689-.088-.149-.364-.409-.222-.715.658.051.878-.43,1.221-.743.992-.906,3.791-1.774,3.986-1.529.054.067.074.212.071.303Z"/>
  <path class="cls-4" d="M94.958,99.966c-.293.662-.334,1.375.217,1.947-1.896.923-2.913.239-4.56-.283l-.466-.386c-.053-.381.202-.534.573-.698,1.4-.619,3.905-1.131,4.141-.878.054.058.095.187.095.298Z"/>
  <path class="cls-14" d="M82.416,106.222l.902.81c-.412.269-1.051.781-1.354,1.289l-.887,1.487c-.548-.325-.872-.852-1.459-1.004l-.253-.465c.242-.795,1.03-1.293,1.805-1.74l.624-.361c.167-.096.43-.032.621-.017Z"/>
  <path class="cls-4" d="M101.427,99.287l.645.028.131.471c-.315.201-.565.666-1.161.824-1.144.303-2.207.061-3.283-.189l-.611-.279-.059-.596c.061-.221.241-.442.426-.487.211-.052.384.123.658.096l1.281-.124c.715-.069,1.338.227,1.973.255Z"/>
  <path class="cls-10" d="M90.149,101.244l.466.386.156.467-.822,1.065c-.305.404-1.066.612-1.509.613-.157-.26-.537-.534-.649-.939-.205-.739.287-1.242.691-1.668l1.668.076Z"/>
  <path class="cls-10" d="M79.366,108.339l.253.465c.184,1.06-.349,1.874-1.202,2.474-1.262-.277-1.055-.791-1.191-1.313-.151-.581-.046-1.542.719-1.572l1.421-.055Z"/>
  <path class="cls-10" d="M107.76,91.912c-.056,1.53-1.017,1.643-1.189,2.075-.43-.047-.851-.262-1.098-.587-.3-.394-.25-.878.008-1.337.271-.483.605-.721,1.092-.75.41-.024.891.032,1.187.598Z"/>
  <path class="cls-10" d="M111,85.563c-.034.166.007.395.025.561.097.866-.48,1.663-1.376,1.641-.216-.005-.615.076-.807-.226-.398-.628-.211-1.364.232-1.839.471-.505,1.318-.45,1.925-.137Z"/>
  <path class="cls-10" d="M103.586,97.329c.033.923-.608,1.797-1.514,1.986l-.645-.028-.254-1.017c-.158-.625.443-1.172.906-1.349.569-.217,1.263-.163,1.506.408Z"/>
  <path class="cls-10" d="M97.09,99.547l.059.596c.094.858-.665,1.424-1.441,1.777-.16-.025-.384-.055-.532-.007-.551-.572-.51-1.285-.217-1.947.66-.373,1.384-.509,2.132-.419Z"/>
  <path class="cls-4" d="M113.896,82.848c.008.568-.381.872-.797,1.248-.602.544-.676,2.133-2.073,2.027-.019-.166-.059-.395-.025-.561.17-.843,2.034-3.254,2.896-2.714Z"/>
  <path class="cls-16" d="M104.091,97.642c-.039.495.123,1.153-.37,1.629-.351.34-1.131.268-1.518.515l-.131-.471c.906-.189,1.546-1.063,1.514-1.986l.505.313Z"/>
  <path class="cls-5" d="M84.105,104.539c-.342.784-.801,1.534-1.689,1.683-.192-.016-.454-.08-.621.017-.015-.745,1.876-.731,1.63-2.388.327.12.555.37.68.689Z"/>
  <path class="cls-8" d="M114.136,82.924c-.028-.383.491-.42.669-.745l.783-1.37c.283.564.393,1.477-.137,2.023-.359.246-.985.113-1.315.092Z"/>
  <path class="cls-16" d="M142.465,99.995c-.107.737.01,1.347.681,1.705.442.236.891.311,1.455.076.45-.187.785-.608.727-1.155.343.109.725.39.963.733.469.674,1.108.794,1.761,1.155.544.301.917.762,1.566.597.2-.051.498.009.7-.031l.051.311c.01.06.012.248.133.304.508.201,1.297.25,1.807-.059.292-.302.203-.931.169-1.244.404-.089.735.236.73.795l2.948.909c-.201.371-.156,1.098.009,1.55.112.308.467.315.62.369.324.677,1.718.699,2.236.039.352-.448.036-1.108-.05-1.504l.822.338,2.553.564.957,1.47c.187.288.315.67.209,1.018-.078.256-.374.518-.696.666-.145.067-.332.07-.489.066-.148-.533-.691-.643-1.282-.543-.395.066-.812.463-1.08.939-.624-.225-.973-.819-1.808-.968l.579,1.925-.959-.006-.892-.214c-.008.392-.088.781-.329.968l-2.531,1.965c-.534.415-.736.618-1.108,1.146-.392.557-.849.793-.706,1.728.09.589-.796,1.548-1.278,1.28l-.516-.287c-.145-.081-.419.141-.632.344l-1.205,1.144-.779,3.109c-.188.75-.577,1.301-.075,2.109-1.476,1.467-1.994,2.567-1.092,4.553.796-.369,1.436-.423,2.14-.075-2.01,2.195-2.81,5.903-2.429,9.079-.399-.013-.987-.121-1.388.232l-.538,1.289-1.652,1.557c.422.824-.02,1.443-.6,1.823.52.885.93,1.84.606,2.884l-.52,1.679c-.271.875.057,2.224-.629,2.963l-1.959,2.108-1.422,1.291c-1.32.101-2.345-.607-3.295-.551l-2.183-.944c-1.554-.195-2.883-.283-4.186-1.177-1.274-.873-3.139-.272-3.67,1.102l-2.401-.64-1.159-.354c.431-.393.784-.747,1.127-1.328l1.185-.489c.882-.829,2.432-1.82,3.609-1.344.739.299,1.011.111,1.817.138.676.022,1.935.54,2.627.72,1.108.74,1.853,1.855,3.321,2.015l1.382-.218c.017.473.027.815.226,1.181.775-.247,1.386-.278,2.028-.283l.146-.1c-.039-.165-.054-.428.05-.612.096-.17.443-.33.81-.361.169-.324-.062-.735-.135-1.006.342-.662.022-1.182-.534-1.578.551-.725.999-1.535,1.276-2.506l.624-2.189-.584-2.369c.415-.753,1.075-1.315.932-2.347l1.242-1.258c-.219-.947.023-1.567.518-2.304.279-.415.281-1.066.854-1.463-1.136-3.074,1.077-5.346,1.177-7.233.099-1.855,1.654-3.142,1.381-4.545l-.165-.845c-.043-.22.37-.47.772-.753-.273-.485-.725-1.014-1.144-1.228.31-.061.617-.158.738-.33.296-.419.122-2.166-1.06-2.815.508-.966,1.26-1.337,1.978-1.9l1.748-1.372.197,1.056c.053.283.774.369.928.166.377-.498-.055-1.074-.184-1.435-.256-.714.679-.923.924-1.237.527-.673,1.008-1.028,1.638-1.542l1.152-1.781c.586.148,1.124.281,1.673.838.27.049.58-.232.543-.603-1.715-1.467-3.854-2.151-6.036-2.633l-6.742-1.489c-1.334-.295-2.658-.634-3.956-1.014.16-.427.134-.827-.2-1.213-.769-.888.999-1.706-.14-2.157l.021-.286c1.89.456,2.225,1.575,3.352,1.922ZM139.113,150.625l-.321.103c-.002.575.737.386.321-.103Z"/>
  <path class="cls-1" d="M128.761,86.307c-.059.645.29,1.179,1.026,1.389.313.089.771.128,1.097-.047.243-.131.391-.502.485-.847.213-.056.548-.022.674.177.121.191.104.491.041.729-.18.532-.751.749-1.373.839-.158,1.204.434,2.551,1.477,3.106-.201.746-.059,1.64.647,1.968.645.299,1.601.268,1.832-.373.658-.047.815.318,1.066.666-.541-.09-.508.651-.697.822-.333.301-.99.219-1.148.465-.583.905.636,1.738.603,2.924l-.39-.1-1.647-2.671-1.428-2.685c-1.564-2.941-3.158-5.737-5.12-8.362,1.764.553,1.962,2.273,2.855,2.001Z"/>
  <path class="cls-8" d="M135.733,93.913c.616.851.771,1.892.795,2.997.007.34-.392.731-.406,1.044-.023.547.136.824.509,1.107.359.272.67.652,1.153.655.454.004.949-.109,1.225-.544.17-.269.123-.608.084-.813,1.139.451-.628,1.269.14,2.157.334.386.36.786.2,1.213-1.609-.472-3.027-1.308-4.236-2.514-.259-.258-.699-.699-.707-1.092.033-1.187-1.187-2.019-.603-2.924.159-.246.816-.164,1.148-.465.189-.171.156-.913.697-.822Z"/>
  <path class="cls-8" d="M129.682,85.163c-.493.123-.877.666-.921,1.144-.893.271-1.091-1.448-2.855-2.001-.431-.135-.993-.638-1.213-1.105-.12-.255.314-.446.445-.437,1.402.456,2.602.204,2.619-.651.003-.166-.161-.358-.41-.348l.005-.626c.781.119,1.254.819,1.688,1.548.491.825,1.016,1.527.641,2.477Z"/>
  <path class="cls-8" d="M134.115,91.4c-.725-.168-1.362-.052-1.927.253-1.042-.555-1.635-1.902-1.477-3.106.622-.09,1.194-.307,1.373-.839.517-.022.608.581.837.861.775.952.968,1.765,1.194,2.83Z"/>
  <path class="cls-10" d="M131.369,86.802c-.094.344-.242.716-.485.847-.326.176-.784.136-1.097.047-.736-.209-1.085-.743-1.026-1.389.044-.478.428-1.021.921-1.144.446-.111,1.027.137,1.347.43.328.301.386.783.341,1.209Z"/>
  <path class="cls-5" d="M134.115,91.4c.107.504,1.078,1.042.551,1.848-.231.642-1.187.672-1.832.373-.706-.327-.847-1.222-.647-1.968.565-.306,1.202-.421,1.927-.253Z"/>
  <path class="cls-10" d="M138.826,98.004c-.179.974-1.284,1.217-2.195,1.057-.373-.283-.532-.559-.509-1.107.013-.313.413-.705.406-1.044.482-.2.951-.331,1.414-.04.377.237.798.629.884,1.133Z"/>
  <path class="cls-10" d="M144.819,99.993c-.071.45-.216,1.178-.74,1.377-.341.129-.749.084-.932.331-.671-.358-.787-.968-.681-1.705.222-.175.482-.394.759-.449.581-.117,1.216-.013,1.595.447Z"/>
  <path class="cls-3" d="M125.898,80.017c.346.01.481.175.731.335-.229.959-.927,1.831-1.949,1.654-.272-.452-.257-.95-.066-1.404.233-.553.747-.601,1.284-.585Z"/>
  <path class="cls-5" d="M127.353,81.139l-.005.626c-.655.675-1.526.997-2.425.645l-.243-.403c1.022.176,1.72-.695,1.949-1.654.303.194.57.48.724.786Z"/>
  <path class="cls-1" d="M139.093,98.36c.038.205.086.545-.084.813-.276.435-.77.548-1.225.544-.483-.004-.795-.383-1.153-.655.912.16,2.016-.083,2.195-1.057l.288.069-.021.286Z"/>
  <path class="cls-8" d="M81.077,109.808c-.299.501-.483,1.202-.481,1.761v.157c-.663.003-1.317-.071-1.954-.239-.075-.037-.166-.14-.226-.209.853-.601,1.386-1.415,1.202-2.474.587.153.91.679,1.459,1.004Z"/>
  <path class="cls-16" d="M92.537,145.36l-.127,2.325c-.095,1.745.124,3.347.644,4.883.289.852.587,1.811,1.727,2.218l.295-1.633c.118-.654,1.891.527,3.986-3.31.164-.3.664-.567.794-1.14l3.105.329c1.027.109,2.105-.331,3.264-.059,1.62.379,1.345-1.578,2.726-1.679l2.838-.206c.674.604,1.526.82,2.266.313.822-.564,1.315.092,1.955.293,1.385.435,4.002-.002,4.714,2.37l-2.032.079c-1.442.056-2.851.647-4.07,1.24.02-.6-.081-1.291-.501-1.629-.67-.539-3.271-.303-4.592.688-.31-.725-.731-1.076-1.267-1.083-1.194-.016-1.08,1.278-2.926,1.965l-.687-.355c-.299-.154-.414.497-.595.565l-2.759,1.041c-.691.261-.886.636-1.735.795-.411.077-.881.64-1.526.551-1.115-.154-1.369,1.438-3.037,2.164,1.068.553,1.609,1.101,1.659,2.139l-1.019-.167c.003-.24-.184-.371-.227-.513-.099-.328-.476-.428-.699-.537-.232-.377-.676-.714-1.2-.633.043-.459-.12-.875-.53-1.211l-.999-.818.325-1.376c.137-.576-.237-.956-.706-.969l-.215-.696.006-2.906c0-.397-.132-.706-.287-.946.845-.509.69-1.09.679-2.155l.75.062Z"/>
  <path class="cls-10" d="M121.096,78.167c-.462.686-.5,1.501-1.532,1.981-.223-.105-.61-.088-.862-.033-.109-.421-.314-.935-.251-1.459.116-.978,1.003-1.358,1.906-1.24.523.069.735.317.74.751Z"/>
  <path class="cls-5" d="M121.597,78.168c.159.58.122,1.232-.297,1.788-.31.411-1.362.705-1.735.192,1.032-.48,1.07-1.296,1.532-1.981h.501Z"/>
  <path class="cls-3" d="M158.512,104.536c.042.437-.186.838-.478,1.121-.336.326-.807.343-1.249.355-.154-.054-.508-.061-.62-.369-.165-.452-.211-1.179-.009-1.55.254-.467.954-.584,1.461-.513.49.068.844.427.895.956Z"/>
  <path class="cls-1" d="M158.972,104.546c.086.396.402,1.056.05,1.504-.518.66-1.912.638-2.236-.039.442-.012.913-.029,1.249-.355.291-.283.52-.684.478-1.121l.46.011Z"/>
  <path class="cls-1" d="M152.478,102.388c.034.313.124.942-.169,1.244-.51.31-1.3.26-1.807.059-.121-.056-.123-.243-.133-.304.949.159,1.595-.305,1.874-1.223.055.063.19.124.234.223Z"/>
  <path class="cls-5" d="M152.052,101.674l.192.491c-.279.918-.925,1.382-1.874,1.223l-.051-.311c.597-.44,1.328-.836,1.219-1.658.137.125.358.181.515.255Z"/>
  <path class="cls-15" d="M149.619,101.154c-.242.623-.369,1.318,0,1.954-.649.164-1.022-.296-1.566-.597-.652-.361-1.291-.48-1.761-1.155-.239-.343-.62-.623-.963-.733l-.041-.39c-.084-.193.022-.493.173-.49l.752.016c2.019.044,3.777.441,3.406,1.395Z"/>
  <path class="cls-10" d="M151.536,101.419c.109.822-.621,1.217-1.219,1.658-.202.04-.499-.02-.7.031-.369-.636-.241-1.331,0-1.954.667.005,1.421-.189,1.918.265Z"/>
  <path class="cls-5" d="M145.287,100.232l.041.39c.057.547-.277.967-.727,1.155-.564.235-1.013.159-1.455-.076.183-.246.592-.201.932-.331.525-.199.67-.927.74-1.377.099.113.333.175.468.239Z"/>
  <path class="cls-8" d="M146.346,136.864l.334,2.779.56,3.578c-.626-.187-1.182-.432-1.911-.272-.427,1.215-.632,2.479-.493,3.781.078.729-.201,1.143-.402,1.833-.25.862-.063,2.422-.923,3.052-.639.468-1.125.676-1.584,1.427-.342.559-1.648,1.186-2.316,1.113-1.067-.116-1.458.312-2.333.658l-2.102.831c-1.718-.363-3.179-1.215-4.753-1.95l-5.514-2.574c.531-1.374,2.396-1.976,3.67-1.102,1.303.894,2.632.982,4.186,1.177l2.183.944c.95-.056,1.975.652,3.295.551l1.422-1.291,1.959-2.108c.686-.739.358-2.088.629-2.963l.52-1.679c.323-1.044-.086-1.999-.606-2.884.581-.38,1.022-.999.6-1.823l1.652-1.557.538-1.289c.401-.353.989-.244,1.388-.232Z"/>
  <path class="cls-8" d="M157.778,110.016c.223.818.046,1.54-.398,2.259l-.92,1.488c-.818,1.323-1.174,3.019-2.366,4.113-.826.758-2.28,3.011-2.792,4.212l-.331.777c-.124.292.231.866.542.634.735-.549,1.24-1.223,2.201-1.018l-3.393,3.616-1.545,1.687c-.704-.348-1.344-.294-2.14.075-.902-1.985-.385-3.086,1.092-4.553-.502-.808-.113-1.358.075-2.109l.779-3.109,1.205-1.144c.213-.202.487-.424.632-.344l.516.287c.482.268,1.368-.691,1.278-1.28-.143-.935.315-1.171.706-1.728.371-.528.573-.731,1.108-1.146l2.531-1.965c.241-.187.322-.576.329-.968l.892.214Z"/>
  <path class="cls-1" d="M158.737,110.022c.28.002.527.028.679.287-.423.471-.046,1.095-.019,1.685.167,3.671-3.151,7.788-5.683,10.486-.961-.205-1.466.469-2.201,1.018-.31.232-.666-.342-.542-.634l.331-.777c.512-1.201,1.966-3.454,2.792-4.212,1.192-1.094,1.547-2.79,2.366-4.113l.92-1.488c.445-.719.621-1.441.398-2.259l.959.006Z"/>
  <path class="cls-3" d="M117.418,81.944c.842,1.459,1.269,3.289.632,4.983l-1.963,3.259c-.353.586-.518,1.263-1.196,1.394-.239.046-.694.277-.62.702.405,2.323-1.649,4.204-1.738,5.619l-.141,2.227c-.059.937-1.163,1.483-1.634,2.229-1.888,2.986-.043,6.385-3.211,6.392.202-.687.49-1.401.069-1.788l-1.77.075c-.822.035-1.342-.008-2.078.003-1.091.017-2.197.91-3.267,1.108l-2.192.407c-.086-.58-.818-1.102-.866-1.633-.047-.517.075-1.329.077-1.835.01-.234.569-.564.316-.913-.172-.236-.524-.468-.91-.309-.777.32-1.432.022-2.261-.02l-.755-.038c-.157-.008-.221-.31-.1-.49l2.812-.512c2.713-.494,5.38-1.243,7.571-2.926,1.905-1.464,2.907-3.572,3.947-5.555l2.177-4.151,1.493-2.586,2.247-2.991c.948-1.262,2.118-1.963,3.36-2.651Z"/>
  <path class="cls-4" d="M122.719,82.02c.035.391-.239.755-.678.931-1.402.563-.072,2.471-1.549,4.735-.152.232-.827.454-.532.957.114.195.392.469.416.685.029.27-.123.529-.296.778-.389.558.016,1.045.203,1.596l-.138,1.618-.254,1.686c-.427-.012-.731.241-.924.699l-.627,1.49c-.291.691-.456,1.208-1.111,1.377.115-.667.078-1.813-.717-2.159-.592-.027-.661.902-.84,1.245l-.837,1.605c-.237.453-.627.896-1.171.674l.305-1.561c-.753-1.557.043-2.437.541-3.279.238-.403.369-1.158.513-1.669.163-.578-.31-1.304-.134-1.85.678-.131.843-.808,1.196-1.394l1.963-3.259c.637-1.694.21-3.524-.632-4.983,1.672-.927,3.708-.8,5.302.076Z"/>
  <path class="cls-15" d="M128.081,95.832c-.197,1.025.216,1.916.76,2.71-.529-.174-1.087.164-1.549.469l-2.404-1.305c-.577-.313-1.011-.292-1.488-.827-.176-.197-.669-.313-.681-.63-.007-.19.34-.716.274-.917-.352-1.075-1.721-2.054-2.846-2.011l.138-1.618c-.187-.552-.592-1.038-.203-1.596.173-.249.325-.508.296-.778-.024-.216-.301-.49-.416-.685-.295-.503.38-.725.532-.957,1.477-2.264.147-4.172,1.549-4.735.439-.177.713-.54.678-.931.28.154.971.463.734.811-.589.863-.496,1.466-.328,2.434l-.411,3.21c-.265,2.069,3.414,2.97,2.124,6.474,1.329-.186,2.572.045,3.243.883Z"/>
  <path class="cls-14" d="M134.1,98.024c-.415.093-.415.391-.596.724-.45.826-1.338,1.763-2.313,1.929-.295-.564-.679-1.191-1.502-.898l-.849-1.238c-.544-.794-.956-1.685-.76-2.71,1.94.351,1.49,1.285,3.352.152l1.021-.631,1.647,2.671Z"/>
  <path class="cls-1" d="M125.139,82.764c-.113-.055-.159-.258-.217-.354.9.352,1.77.03,2.425-.645.25-.01.413.182.41.348-.016.855-1.217,1.107-2.619.651Z"/>
  <path class="cls-13" d="M117.23,98.574c-.447.84-.62,1.762-.784,2.799l-.185,1.171c-.867.561-1.06,1.689-.67,2.739.021.601-.328,1.277-.488,1.842-.204.097-.54.084-.701,0l-.479-1.437.328-2.56c-.291-.603-1.356-.166-1.688.318l-1.272,1.853c-.608.887-.995,1.848-.563,2.888.906,2.181-1.054,3.724,1.18,3.884.45.586,1.171,1.109,1.998,1.397.302.105.853.738,1.161.266-.249-1.294.387-1.733,1.356-2.149,1.789-.767,3.946-2.203,4.846-1.299-.219.334-.68.718-1.168.687-.664-.043-.899.397-1.405.57l-2.46.843c-1.243.426-.248,1.56-1.142,2.105-.504.307-.846.019-1.341-.323-.465-.322-.987.422-1.191.744-.265.417-.061.981.096,1.434l-.863.026c-1.095-1.899-3.175-3.01-5.362-2.863s-4.1,1.526-4.93,3.555l-1.025-1.537c-.627-.988,1.934-.872,2.191-.991.177-.082.211-.436.076-.731-.272-.594-.64-.891-1.197-.877-1.098.027-1.113,1.436-1.949,1.606-.486.099-.727-.359-1.11-.626-1.121-.782-3.034.061-3.07,1.343-.468.234-.755.541-1.578.664.069-.714-.343-1.017-.675-1.497-.579-.835.461-2.267,1.433-2.141.38.148.489.774.589,1.148.206-.073.384-.205.749-.141.006-.596.075-1.245-.136-1.817l-.548.189c-.499.173-.163-.996-.454-1.067-.383-.095-.672.561-1.145.614-.354.04-.273-.328-.272-.476-.259-.725-.42-1.134-.347-1.923-.565.131-.985.067-1.361-.147-.264-.15-.118-.973-.363-1.22-.424-.428-1.123-.405-1.172-1.271-.012-.211-.396-.323-.594-.227-.939.459.471,1.61-1.375,3.123l-1.016.833c-.555.455-.789.992-.917,1.521-1.172.903-2.873.699-3.989-.218l-1.656.371c-.002-.559.182-1.26.481-1.761l.887-1.487c.303-.508.942-1.02,1.354-1.289.497-.324,1.1-.753,1.614-1,2.522-1.21,5.19-1.95,7.916-2.44l.962-.275c-.121.18-.058.482.1.49l.755.038c.829.042,1.483.34,2.261.02.386-.159.738.072.91.309.253.348-.306.678-.316.913-.002.506-.124,1.318-.077,1.835.048.531.779,1.053.866,1.633l2.192-.407c1.07-.199,2.175-1.092,3.267-1.108.736-.011,1.255.031,2.078-.003l1.77-.075c.421.387.133,1.101-.069,1.788,3.168-.007,1.323-3.406,3.211-6.392.471-.745,1.575-1.292,1.634-2.229l.141-2.227c.09-1.414,2.144-3.295,1.738-5.619-.074-.425.38-.656.62-.702-.176.546.297,1.272.134,1.85-.144.511-.275,1.266-.513,1.669-.498.843-1.294,1.722-.541,3.279l-.305,1.561c.545.222.935-.221,1.171-.674l.837-1.605c.179-.343.248-1.272.84-1.245.795.346.832,1.492.717,2.159Z"/>
  <path class="cls-14" d="M90.77,102.097c.517,1.556,1.672.761,2.022,1.13.062.066.086.217.057.365-2.726.49-5.394,1.23-7.916,2.44-.285-.467-.591-.801-.573-1.257,1.23.323,1.744-.994,4.08-1,.443-.001,1.204-.21,1.509-.613l.822-1.065Z"/>
  <path class="cls-16" d="M97.759,100.421c.058.567-.109,1.141-.55,1.461s-1.102.433-1.502.037c.775-.353,1.535-.919,1.441-1.777l.611.279Z"/>
  <path class="cls-8" d="M84.36,104.775c-.018.457.288.79.573,1.257-.514.247-1.117.675-1.614,1l-.902-.81c.888-.149,1.347-.899,1.689-1.683.05.086.174.172.254.236Z"/>
  <path class="cls-14" d="M145.893,117.823c.419.214.871.743,1.144,1.228-.402.282-.815.533-.772.753l.165.845c.273,1.402-1.282,2.69-1.381,4.545-.1,1.888-2.313,4.159-1.177,7.233-.573.397-.575,1.048-.854,1.463-.496.737-.737,1.357-.518,2.304l-1.242,1.258c.143,1.032-.516,1.594-.932,2.347l.584,2.369-.624,2.189c-.277.971-.725,1.781-1.276,2.506.556.396.876.916.534,1.578.073.271.304.682.135,1.006-.367.032-.714.191-.81.361-.104.184-.089.447-.05.612.037.082.122.179.295.205.416.489-.323.678-.321.103,0-.073-.041-.161-.121-.207-.642.005-1.253.036-2.028.283-.199-.367-.208-.708-.226-1.181l-1.382.218c-1.467-.16-2.213-1.276-3.321-2.015-.692-.18-1.952-.697-2.627-.72-.807-.027-1.079.161-1.817-.138-1.177-.476-2.727.514-3.609,1.344l-1.185.489c-.343.581-.696.935-1.127,1.328-.156-.048-.449-.07-.623-.063-.712-2.372-3.329-1.935-4.714-2.37-.641-.201-1.133-.857-1.955-.293-.74.507-1.592.291-2.266-.313l-2.838.206c-1.381.1-1.106,2.058-2.726,1.679-1.16-.271-2.238.168-3.264.059l-3.105-.329c-.131.573-.631.84-.794,1.14-.18-.027-.294-.234-.197-.39.806-1.305.527-2.878,1.276-3.242.211-.103.557.261.614.612.495.012.773-.625,1.024-.975.93-.125,1.808.908,2.362.824.571-.087.603-1.131,1.456-1.201.196.316.695,1.035,1.125.973l3.521-.509c1.072-.155,1.897-.923,2.613-1.694l.449.822c.163.299.713.154,1.055.266l2.615.854c.799-.079,1.443.27,1.949.455.936-.105,1.639-.278,2.577.216l1.943.107c.632.035.957-.74,1.299-.86l2.388-.835c1.241-.434,2.543-.509,3.691-1.247s2.323-.966,3.717-.956c.749.005.806-1.242,1.028-1.699.501-1.033.632-1.907.709-3.007l.519-1.834c.157-.553,1.671-.635,3.05-1.97.278-.35.294-1.479.041-1.851-.443-.651-1.29-.881-1.81-1.348.561-.484,1.353-.365,2.147-.514,1.039-.194,2.378-1.712,1.742-2.702-.186-.29-.644-.366-.967-.397-1.03-2.092-4.09-2.313-6.465-1.341-.264-1.326-2.25-.185-1.93-1.456.578.114,1.156.032,1.727-.067-.212,1.386,4.136.17,4.593-1.047l.713-1.896c.378-1.004-.049-3.399-.324-3.625-.109-.089-.34-.104-.455-.085-.169-.74-.387-1.476-.698-2.223,1.215.033,1.234,1.66,2.233,1.749,1.012.09,1.815-1.518,1.298-3.116.477-.125.773.152,1.069.64.341.091.804.003,1.252.278l-.682,1.201c.27.392.897.209,1.124.334l1.44.735Z"/>
  <path class="cls-15" d="M90.805,118.202c.136.228.197.487.603.699,1.965,1.029,1.898,1.908,1.408,4.289,1.775,1.081.914,3.883.095,4.136-.385.119-.832.218-1.363-.078-.186.024-.286.427-.219.609l-2.253-2.595-2.926-3.06-2.328-2.595c.147.022.721-.215.607-.456l-1.139-2.417c-.238-.505-.254-1.238-.492-1.654.201-.966,1.32-1.032,2.07-.734.657.261.74-.668.971-.93l2.239-2.538c.172-1.031.377-2.025,1.569-2.324l-.186,1.2c.985.753,1.107,1.89.769,2.986l-.685,2.222c-.491,1.592-.053,2.47,1.261,3.24Z"/>
  <path class="cls-2" d="M94.24,130.745c-1.107-1.127-1.189-2.853-2.163-1.978l-.468-.212c-.027-.272-.111-.503-.28-.698-.067-.182.033-.585.219-.609.531.296.979.197,1.363.078.819-.253,1.68-3.056-.095-4.136.49-2.38.557-3.26-1.408-4.289-.406-.212-.467-.471-.603-.699.495-.134,1.162.35,1.607.408.637-1.003,1.404-.109,2.823-1.194,1.272.977.593,2.389,1.527,2.43.578.025.737-.826,1.423-.962.307-.061.513.242.532.599l.111,2.001c.471.507,1.005.906,1.107,1.487.344,1.956-1.897,2.182-1.251,3.525.147.306.107.994-.297,1.098-.894.231-1.25.742-1.75,1.443-.33.463-.853.792-.807,1.545l-1.59.164Z"/>
  <path class="cls-4" d="M95.421,115.25c.497.528-.878,1.634-.186,2.166-1.419,1.085-2.186.192-2.823,1.194-.445-.058-1.112-.542-1.607-.408-1.313-.77-1.752-1.648-1.261-3.24l.685-2.222c.338-1.096.216-2.233-.769-2.986l.186-1.2c-1.192.299-1.397,1.293-1.569,2.324l-2.239,2.538c-.231.262-.314,1.191-.971.93-.75-.298-1.869-.232-2.07.734.239.416.255,1.15.492,1.654l1.139,2.417c.114.241-.46.478-.607.456l-2.01-3.14c-.927-1.447-1.212-3.125-1.216-4.741v-.157s1.655-.371,1.655-.371c1.116.917,2.817,1.121,3.989.218.128-.529.362-1.066.917-1.521l1.016-.833c1.845-1.513.436-2.664,1.375-3.123.198-.097.582.015.594.227.05.865.749.843,1.172,1.271.244.247.098,1.069.363,1.22.376.214.796.278,1.361.147-.072.789.089,1.198.347,1.923-.002.148-.082.516.272.476.472-.053.761-.708,1.145-.614.291.072-.046,1.24.454,1.067l.548-.189c.211.572.142,1.221.136,1.817-.365-.063-.543.069-.749.141-.101-.373-.209-.999-.589-1.148-.972-.126-2.013,1.306-1.433,2.141.332.479.744.782.675,1.497.823-.123,1.11-.43,1.578-.664Z"/>
  <path class="cls-12" d="M119.892,95.007c-.115.764-.083,1.092-.623,1.753-.367.449-.127,1.59-.005,2.1.482.194.801.17,1.282.216-.052,1.193.452,2.101.949,3.088.416-.295.584-.466,1.07-.646l.45,1.324c.09.266.217.38.382.423.567.148.627-1.662,2.709-1.222.083.848.425,1.116,1.032,1.472.786.461,1.535.452,2.169-.416.487-.021,1.253.119,1.683-.137.825-.563,1.565-.81,2.486-.203.926.61.929-.819,2.151-1.837l-1.335-.992c-.149-.111-.041-.61.115-.653.209-.057.53-.003.792-.06,1.21,1.206,2.627,2.042,4.236,2.514,1.298.381,2.622.719,3.956,1.014-.363.172-.57.493-.494.87-.484-.175-1.05.122-1.148.715-.174,1.054-1.697-.594-2.363.077-.358.361-.571,1.342-1.316,1.301-.888-.049-1.442.212-1.969.912-.494.655-.583,1.404.087,2.013,1.106,1.006-.518,2.394.153,2.922.658.517,1.48.834,2.306,1.075l1.453-.406c-.274,1.767-.827,2.916-2.514,3.145-.71-.667-1.555-1.488-2.551-1.47-.275-.342-.697-.544-1.252-.5l-1.892.149c-.011-.412.232-.711.713-.866-.387-.996-.328-1.854.016-2.86-.234-.309-.652-.574-.712-1.023-.028-.546.229-1.405-.313-1.802-1.586.26-1.992-.655-2.477-.612-.581.052-1.116.805-1.902.736-.217-.019-.355-.507-.604-.703-.632-.494-1.662-.243-2.323.106-1.097.58-2.121.276-3.113.356-1.321.108-2.156.12-3.321-.574-.727-.433-1.472-.596-1.305-1.839l-.285-1.923.185-1.171c.164-1.036.337-1.958.784-2.799.655-.17.82-.686,1.111-1.377l.627-1.49c.193-.459.497-.712.924-.699Z"/>
  <path class="cls-15" d="M153.951,106.632l-1.152,1.781c-.63.515-1.111.869-1.638,1.542-.245.313-1.18.522-.924,1.237.129.361.561.937.184,1.435-.154.203-.875.117-.928-.166l-.197-1.056-1.748,1.372c-.718.563-1.47.934-1.978,1.9,1.182.649,1.356,2.396,1.06,2.815-.121.172-.429.269-.738.33l-1.44-.735c-.227-.126-.853.058-1.124-.334l.682-1.201c-.448-.275-.911-.188-1.252-.278-.295-.488-.592-.765-1.069-.64-.822-.833,1.164-.664,2.263-1.912-.673-.773-.666-1.677.088-2.252,1.674-1.279.44-2.911,1.563-3.716.305-.218.521-.518.616-.815,1.638.334,2.883-.875,3.152-.366l.382.722c.58.451,1.739-.285,4.197.337Z"/>
  <path class="cls-4" d="M153.951,106.632c-2.458-.622-3.617.115-4.197-.337l-.382-.722c-.269-.509-1.513.7-3.152.366-.458-1.763-2.042-1.862-3.325-2.325-.075-.377.131-.698.494-.87l6.742,1.489c2.182.482,4.321,1.166,6.036,2.633.037.371-.272.652-.543.603-.549-.557-1.087-.689-1.673-.838Z"/>
  <path class="cls-2" d="M128.841,98.542l.849,1.238c.824-.293,1.207.334,1.502.898.975-.166,1.863-1.104,2.313-1.929.181-.333.181-.631.596-.724l.39.1c.007.393.448.834.707,1.092-.262.057-.583.003-.792.06-.156.043-.264.542-.115.653l1.335.992c-1.222,1.018-1.225,2.448-2.151,1.837-.921-.607-1.661-.36-2.486.203-.43.256-1.195.116-1.683.137-.635.868-1.383.877-2.169.416-.607-.356-.95-.624-1.032-1.472-2.082-.44-2.142,1.37-2.709,1.222-.165-.043-.292-.157-.382-.423l-.45-1.324c-.486.18-.653.352-1.07.646-.497-.987-1.001-1.895-.949-3.088-.481-.046-.8-.021-1.282-.216-.122-.51-.362-1.65.005-2.1.54-.662.508-.989.623-1.753l.254-1.686c1.125-.042,2.494.937,2.846,2.011.066.201-.281.727-.274.917.012.317.505.433.681.63.477.535.912.514,1.488.827l2.404,1.305c.462-.305,1.02-.643,1.549-.469Z"/>
  <path class="cls-15" d="M99.507,138.825c.217.808,1.129.805,1.677,1.67,2.179.895,3.974,2.849,4.414,4.975-.853.07-.886,1.114-1.456,1.201-.554.084-1.433-.949-2.362-.824-.25.35-.529.987-1.024.975-.057-.351-.403-.715-.614-.612-.748.364-.469,1.938-1.276,3.242-.097.156.017.363.197.39-2.096,3.837-3.868,2.656-3.986,3.31l-.295,1.633c-1.14-.408-1.439-1.366-1.727-2.218.407-.134.711-.513.693-1.044l-.072-2.179c-.015-.457.683-1.194.957-.864l.522.627c.135.162,1.63-.127,1.756-.825.193-1.071-1.45-.573-1.252-1.775l.341-2.074c1.256-.108,1.554-.888,1.732-1.909.16-.919.363-1.689.396-2.521.857-.06.489-1.19,1.38-1.177Z"/>
  <path class="cls-12" d="M101.505,117.062c-.825,2.015-.439,4.324.996,5.961-.673.069-.737.575-1.071.945l-.632.7c-.195.215.002.555.14.814.066.171.038.439.056.637-.838.129-1.697.552-1.94,1.427-.313,1.126.262,1.964,1.138,2.212l.941.666c.176.125.16.52.669.614,2.293.422,5.289-.433,5.367-2.452.132-.062.384-.026.44.076.01.019-.089,2.208-1.013,2.602-.427.183-.818.274-.983.614-.193.399.041.794.043,1.254.003.773-.297,1.721.284,2.383.738.841,1.8.492,2.561-.169.589-.511,2.116-.798,2.785-.434,1.43.778,3.276,1.592,4.395,1.116,2.781-.077,3.243,1.216,4.476,1.831.747.373,1.429,1.166,2.36,1.208.582.026.914-.577,1.253-.908,1.202-1.174,3.276.287,3.422-.787l.127-.937c1.125.06,2.147-.269,3.219-.663l.932-3.884c-.769-.914-1.225-2.352-.524-3.343.276-.39.693-.499.484-1.245l-.758-2.703,1.932.346c-.32,1.271,1.666.13,1.93,1.456-.76.311-1.29,1.127-1.206,1.963.082.815.836,1.442,1.636,1.591l-.015.245.23,1.242c.279,1.507-.447,2.923-.8,4.352-.316,1.28-.92,2.135-2.172,2.706l-3.088,1.409-2.442.628c-.515.958-1.271,1.308-2.295,1.641l-1.926,2.333c-1.23.761-2.719.152-3.721-.663-.572-.465-1.536-.155-2.168-.275-1.565-.298-.641-3.03-1.698-2.812-.709.146-1.01,1.018-1.305,1.627-1.545.856-3.226,1.587-3.798.5.175-.875,1.219-2.062.899-3.03-.505-1.528-2.556-1.586-3.731-.871l-1.583.963c-.412.251-1.608.147-1.912-.212-.37-.727-.799-1.094-1.783-.897.05-.509.144-.98-.083-1.413-.197-.375-1.162-.495-1.491-.176-.424.411-.418,1.147-.577,1.576-.89-.013-.522,1.116-1.38,1.177.076-1.907,1.809-4.038,1.54-5.77l-1.896.964-.344.445c-.078.101-.488.036-.581-.175.331-.438.645-.828.784-1.517l-2.351-1.033c-.072-1.365-.899-1.464-1.039-2.171l1.59-.164c-.045-.753.477-1.082.807-1.545.5-.701.856-1.212,1.75-1.443.404-.104.445-.792.297-1.098-.646-1.342,1.595-1.568,1.251-3.525-.102-.581-.635-.98-1.107-1.487l-.111-2.001c-.02-.356-.226-.659-.532-.599-.686.136-.845.987-1.423.962-.934-.04-.255-1.453-1.527-2.43-.692-.532.683-1.638.186-2.166.037-1.282,1.949-2.125,3.07-1.343.382.267.623.725,1.11.626.836-.17.851-1.579,1.949-1.606.557-.014.925.283,1.197.877.135.295.101.649-.076.731-.257.119-2.818.003-2.191.991l1.025,1.537Z"/>
  <path class="cls-11" d="M121.729,110.305c.99.042,1.605.169,2.368.838.816.716,3.108,1.386,3.375,1.863l1.409,2.379c-1.513,1.947-1.511,3.828-1.099,6.169-1.453,1.17-1.306,2.848-2.828,2.672l-.338-.039c-.052-.327-.32-.415-.503-.369-1.317.334-1.561,2.474-3.898,2.544-1.363.041-2.616-.571-3.263-1.885-.277-.563-1.54-.858-1.742-.196-.444,1.455.873,2.671,1.994,3.246.847.435,1.705.96,2.639.892-.014.373.165.715.604.74l1.092.06c.274.457.851.023,1.178.037,1.236.053,2.027-.059,2.86-1.02,1.085,1.224-.794,2.244.846,3.349.329.222.246.914.059,1.216-.51.823-1.484.493-2.396,1.364-.468.448-1.221.315-1.765.396-.914.135-1.175-.402-1.861-.629l-3.226-1.067c-.462-.153-.74-.86-1.276-.945-1.066-.168-2.56-.05-3.293-.965-.5-.624-.865-1.628-1.389-2.213.793-1.665-.051-2.796,1.753-3.745.179-1.14.54-2.322.473-3.397-.112-1.785-.252-3.56-.842-5.255-.158-.453-.361-1.017-.096-1.434.205-.322.726-1.065,1.191-.744.495.342.837.63,1.341.323.894-.545-.101-1.679,1.142-2.105l2.46-.843c.506-.173.741-.613,1.405-.57.488.031.949-.352,1.168-.687l.458.02Z"/>
  <path class="cls-7" d="M116.261,102.544l.285,1.923c-.166,1.243.579,1.406,1.305,1.839,1.165.694,1.999.682,3.321.574.992-.081,2.016.224,3.113-.356.661-.35,1.691-.601,2.323-.106.25.195.388.683.604.703.786.07,1.321-.684,1.902-.736.485-.043.892.872,2.477.612.542.397.285,1.256.313,1.802.06.449.478.714.712,1.023-.344,1.006-.403,1.864-.016,2.86-.481.154-.724.454-.713.866-.222.018-.665.136-.852.266l-1.223-.533c-.046-.779-.512-1.14-.974-1.635-1.306-1.4-2.477.461-2.886-.432-.35-.764-.917-.804-1.587-1.145-.498-.254-.75-.904-1.418-.635-.457.184-1.093.263-1.218.873l-.458-.02c-.9-.905-3.058.532-4.846,1.299-.969.416-1.606.854-1.356,2.149-.309.472-.859-.162-1.161-.266-.827-.288-1.548-.811-1.998-1.397-2.234-.16-.275-1.703-1.18-3.884-.432-1.04-.046-2.002.563-2.888l1.272-1.853c.332-.483,1.398-.921,1.688-.318l-.328,2.56.479,1.437c.16.084.496.098.701,0,.159-.565.508-1.241.488-1.842-.39-1.05-.197-2.178.67-2.739Z"/>
  <path class="cls-7" d="M112.66,116.344c.59,1.695.73,3.47.842,5.255-.275.228-.533.399-.84.452l.318-1.94c.078-.479-.124-.899-.415-.929-.01-.988-.274-1.956-.767-2.812l.863-.026Z"/>
  <path class="cls-2" d="M135.664,130.269c.054.006.14-.02.188-.027.09.201.263.362.438.462.132.473.57.796,1.098.733l.689-.082c.52.467,1.367.697,1.81,1.348.253.372.237,1.502-.041,1.851-1.379,1.335-2.894,1.417-3.05,1.97l-.519,1.834c-.077,1.1-.207,1.974-.709,3.007-.221.457-.278,1.704-1.028,1.699-1.393-.01-2.563.214-3.717.956s-2.45.813-3.691,1.247l-2.388.835c-.342.12-.667.895-1.299.86l-1.943-.107c-.939-.494-1.641-.321-2.577-.216-.506-.185-1.149-.534-1.949-.455l-2.615-.854c-.342-.112-.892.033-1.055-.266l-.449-.822c-.716.772-1.541,1.539-2.613,1.694l-3.521.509c-.43.062-.929-.657-1.125-.973-.441-2.126-2.235-4.08-4.414-4.975-.548-.865-1.46-.862-1.677-1.67.159-.429.153-1.164.577-1.576.329-.319,1.294-.199,1.491.176.227.432.133.904.083,1.413.984-.197,1.412.17,1.783.897.303.359,1.5.463,1.912.212l1.583-.963c1.175-.714,3.226-.657,3.731.871.32.968-.724,2.155-.899,3.03.572,1.087,2.253.356,3.798-.5.295-.609.596-1.482,1.305-1.627,1.058-.217.134,2.515,1.698,2.812.632.12,1.596-.19,2.168.275,1.003.815,2.492,1.424,3.721.663l1.926-2.333c1.024-.334,1.78-.684,2.295-1.641l2.442-.628,3.088-1.409c1.252-.571,1.856-1.426,2.172-2.706.353-1.429,1.08-2.845.8-4.352l-.23-1.242.715.07Z"/>
  <path class="cls-2" d="M142.895,103.614c1.283.463,2.867.562,3.325,2.325-.095.297-.311.596-.616.815-1.123.805.111,2.437-1.563,3.716-.754.576-.76,1.48-.088,2.252-1.099,1.248-3.085,1.078-2.263,1.912.517,1.598-.286,3.206-1.298,3.116-.999-.089-1.018-1.716-2.233-1.749-.35-.01-.41-.477-.576-.633,1.687-.23,2.24-1.378,2.514-3.145l-1.453.406c-.825-.242-1.648-.558-2.306-1.075-.671-.528.952-1.916-.153-2.922-.67-.609-.581-1.358-.087-2.013.527-.699,1.081-.96,1.969-.912.745.041.958-.941,1.316-1.301.666-.67,2.19.977,2.363-.077.098-.593.664-.89,1.148-.715Z"/>
  <path class="cls-16" d="M134.329,124.877c3.157-.547,5.177-3.818,4.528-6.653.115-.019.346-.004.455.085.275.226.701,2.622.324,3.625l-.713,1.896c-.458,1.217-4.806,2.432-4.593,1.047Z"/>
  <path class="cls-7" d="M112.649,122.662c.243,1.071-.487,1.772-1.194,2.451-.947.91-1.617,1.457-3.144,1.252-.36-.048-.545.718-.47,1.038.092.392.518.502.724.938l1.151,2.434c.368.779,1.165,1.38,1.85,1.926.515.085,1.236-.15,1.797.227.161.157.246.66.556.819l1.623.423,1.058-.166.738.633c.373.32,1.023.072,1.552.11.55.732,1.213,1.474,2.194,1.395.804-.065,1.797,0,2.467-.379l2.032-1.153c.92-.522,2.686-1.262,2.742-2.49-.118-1.225-.769-2.34.016-3.56.419-.65.854-1.668.962-2.49.099-.75-.436-1.667.313-2.267.25.241.912.289,1.053.794l.758,2.703c.209.747-.208.855-.484,1.245-.701.991-.245,2.429.524,3.343l-.932,3.884c-1.072.395-2.094.723-3.219.663l-.127.937c-.145,1.074-2.22-.387-3.422.787-.339.331-.671.934-1.253.908-.931-.042-1.613-.835-2.36-1.208-1.234-.615-1.695-1.908-4.476-1.831-1.119.475-2.965-.338-4.395-1.116-.669-.364-2.197-.078-2.785.434-.761.661-1.823,1.01-2.561.169-.581-.662-.281-1.61-.284-2.383-.001-.46-.236-.855-.043-1.254.165-.339.556-.431.983-.614.923-.395,1.023-2.583,1.013-2.602-.056-.103-.308-.138-.44-.076.029-.492-.195-.784-.508-1.083-.211-.202-.351-.552-.684-.695l-.473-.203-.26-.581c-.053-.118-.289-.239-.397.083l-.533-.029c-.023-.589-.416-.871-.976-1.035-.586-.172-1.093.173-1.226.813l-.442-.026c.142-.216.046-.388-.159-.378l-.573.032c-.138-.259-.334-.598-.14-.814l.632-.7c.334-.37.397-.877,1.071-.945.838.956,1.969,1.608,3.217,1.852-.063.137.026.663.332.685,2.623.185,4.144.253,5.919-2.065.235-.307.233-.8.681-.834Z"/>
  <path class="cls-13" d="M121.54,129.218l1.062-.496c.132-.033.365-.024.51-.004.576.08,1.164-.141,1.61-.651.797-.91,1.62-.669,1.839-1.18.216-.503-.499-1.822-1.197-1.978-.089-.17-.227-.36-.398-.419l-.011-.264c1.522.176,1.375-1.502,2.828-2.672l.525.049c-.062.044-.044.112-.045.158-.002.225.147.377.227.551.263.571.676,1.055,1.128,1.491-.749.6-.214,1.516-.313,2.267-.108.822-.544,1.84-.962,2.49-.785,1.22-.135,2.335-.016,3.56-.056,1.229-1.822,1.968-2.742,2.49l-2.032,1.153c-.67.38-1.663.315-2.467.379-.981.079-1.645-.664-2.194-1.395-.529-.038-1.179.21-1.552-.11l-.738-.633-1.058.166-1.623-.423c-.31-.159-.395-.663-.556-.819-.562-.377-1.282-.142-1.797-.227-.685-.546-1.482-1.147-1.85-1.926l-1.151-2.434c-.206-.436-.633-.546-.724-.938-.075-.32.11-1.086.47-1.038,1.527.205,2.197-.342,3.144-1.252.707-.679,1.437-1.38,1.194-2.451-.036-.159-.017-.432.012-.611.307-.053.566-.225.84-.452.067,1.075-.294,2.257-.473,3.397-1.804.948-.96,2.08-1.753,3.745.524.585.889,1.589,1.389,2.213.733.915,2.227.797,3.293.965.536.085.814.792,1.276.945l3.226,1.067c.687.227.947.764,1.861.629.544-.08,1.297.053,1.765-.396.911-.872,1.885-.541,2.396-1.364.187-.301.27-.994-.059-1.216-1.64-1.105.239-2.124-.846-3.349-.833.961-1.624,1.073-2.86,1.02-.326-.014-.904.42-1.178-.037Z"/>
  <path class="cls-13" d="M131.036,113.812c-.666.46-1.663.94-2.154,1.573l-1.409-2.379c-.268-.477-2.56-1.147-3.375-1.863-.763-.669-1.378-.796-2.368-.838.125-.611.761-.689,1.218-.873.668-.269.92.381,1.418.635.67.341,1.237.381,1.587,1.145.409.893,1.581-.968,2.886.432.462.495.928.857.974,1.635l1.223.533Z"/>
  <g>
    <path class="cls-6" d="M135.032,113.898c.996-.018,1.841.803,2.551,1.47.166.156.226.623.576.633.311.746.528,1.483.698,2.223.649,2.835-1.371,6.107-4.528,6.653-.571.099-1.149.181-1.727.067l-1.932-.346c-.141-.504-.803-.553-1.053-.794-.452-.436-.865-.92-1.128-1.491.058-.228-.018-.458-.227-.551,0-.046-.017-.114.045-.158-.386-1.313-.482-2.668.121-3.979.319.533.203,1.121.457,1.242.325.154.789.032.929-.32.494-1.24,1.393-2.243,2.321-3.202-.216-.565-.896-.538-1.55-.471.474-.378.956-.915,1.55-.926l2.896-.051ZM137.237,116.969c0-1.042-.844-1.886-1.886-1.886s-1.886.844-1.886,1.886.844,1.886,1.886,1.886,1.886-.844,1.886-1.886ZM130.835,122.578c.67-.388.812-1.052.45-1.517-.298-.383-.939-.453-1.332-.118-.357.304-.347.893-.029,1.36.243.357.433.551.911.274Z"/>
    <path class="cls-5" d="M135.032,113.898l-2.896.051c-.594.011-1.076.547-1.55.926.653-.067,1.334-.094,1.55.471-.928.959-1.827,1.962-2.321,3.202-.14.352-.604.474-.929.32-.255-.121-.138-.709-.457-1.242-.604,1.311-.507,2.666-.121,3.979l-.525-.049c-.411-2.341-.414-4.222,1.099-6.169.492-.633,1.488-1.113,2.154-1.573.187-.129.63-.248.852-.266l1.892-.149c.555-.044.977.159,1.252.5Z"/>
    <circle class="cls-10" cx="135.351" cy="116.969" r="1.886"/>
    <path class="cls-10" d="M130.835,122.578c-.478.277-.668.083-.911-.274-.318-.467-.327-1.057.029-1.36.393-.335,1.034-.266,1.332.118.362.465.22,1.129-.45,1.517Z"/>
    <path class="cls-5" d="M128.49,122.313c-.08-.174-.229-.326-.227-.551.209.093.284.323.227.551Z"/>
  </g>
  <g>
    <path class="cls-1" d="M160.215,110.273c-.004.189.086.325.17.494.402.805,1.564,1.261,2.454.772.485-.267.504-.881.433-1.269.246-.047.57.039.66.215.046.09.467,2.774.325,3.181-.895,2.561-2.035,5.178-3.806,7.177-.808.912-1.796,1.646-1.946,2.894-.041.338-.258.581-.555.886l-3.186,3.273-1.799,2.031c-1.068,1.206-1.614,2.502-2.089,3.967-.557,1.717.176,5.823.557,8.349l.822,5.446c.547,3.626.208,9.135-1.635,12.028-2.726,4.278-7.843,3.711-12.565,2.406-.569-.157-1.195-.171-1.481-.636.018-.072.019-.191-.028-.237-.059-.058-.214-.16-.461-.102-.53.129-.55-.617-.013-.484,1.389.022,2.458.813,2.877.233.079-.11.123-.306.128-.481l.203-.013c.355.384.936.307,1.431.416.285.063.766.214,1.077-.125.309-.336.254-1.205.045-1.675-.155-.346-.688-.579-1.141-.764-.071-.029-.167-.016-.238-.022-.056-1.232,2.629.575,4.343-.792,0,.546-.071,1.236.368,1.655.494.472,1.364.524,1.923.126.433-.309,1.015-.899.796-1.626l-.648-.986c.245-1.14.432-2.318,1.276-2.692.37.505,1.443.201,1.86-.137.501-.407.565-1.374.213-1.921-.417-.649-1.208-.68-1.888-.505-.368-.271-.129-.663-.132-1.038-.007-.962-.363-1.841-.047-2.826.081-.251.681-.326.93-.281.674.123,1.454-.362,1.536-1.149.075-.719-.497-1.7-1.335-1.504l-1.243.276c-.181-1.542-.514-3.027-.587-4.588.617.371,1.485.424,1.974-.15.45-.528.329-1.354-.155-1.894-.425-.473-1.156-.426-1.689-.144-.666-.528-.396-1.126-.303-1.921.104-.888.022-2.002,1.044-2.262.579-.148,1.143-.171,1.473-.88.249-.534.233-1.356-.311-1.791l1.346-1.837c.299-.402.722-.614.82-1.08.672-.046,1.864-.42,1.796-1.192l-.062-1.174c.706-.193,1.018-1.011,1.71-1.372.613-.32.984-.836,1.168-1.292.483-.037,1.033-.211,1.422-.593.472-.464.459-1.027.419-1.575.55.003.69-.469,1.012-.957l1.143-1.729.796-.936c.422-.496.945-.856.866-1.544-.087-.763-.596-1.334-1.362-1.309l-1.231-4.315.231.007c.074.002.213-.056.294-.033Z"/>
    <path class="cls-8" d="M127.072,153.423c-.248-.039-.77-.1-1.021.191-.375.436-.326,1.141.019,1.633.225.32.811.519,1.262.609.196.725,1.139.215,2.532.794.818.34,1.716.282,2.415-.081l-.153.936c-.091.518.339.593.435.778.206.398.797.432,1.146.5.281.262.555.555,1.098.329,1.064-.442.309-2.012,1.385-1.876,1.122.142,2.275.348,3.09.968-.572.652-.672,1.521-.207,2.213-.004.175-.049.371-.128.481-.418.581-1.487-.21-2.877-.233-.537-.132-.517.613.013.484.247-.058.402.044.461.102.047.046.046.165.028.237-.264.096-.563.059-.901-.083l-3.233-1.359-8.501-4.153c-2.534-1.238-5.334-1.251-7.881.002l-9.765,4.808-1.58.591c-.51.191-.917.305-1.377.306l-.289.005c-.099-.447.324-.553.759-.731l2.725-1.113c1.681-.687,3.422-1.224,4.881-2.313,1.446-1.079,3.19-1.399,4.739-2.241l2.821-1.534,2.05-.162.336.148c1.471,0,2.933.953,3.615.33.548-.501,1.026-1.068,1.864-1.011.15.01.271.346.234.446Z"/>
    <path class="cls-1" d="M118.468,152.952c.22.099.376.468.504.721l-2.821,1.534c-1.548.842-3.293,1.163-4.739,2.241-1.46,1.089-3.201,1.626-4.881,2.313l-2.725,1.113c-.435.178-.859.284-.759.731l.054.232c-.103-.022-.269-.124-.35-.182-1.232-.362-2.47.566-3.771.59l-3.844.072c.013-.382.262-.666.742-.766l1.959-.409c.307-.064.66-.034.835-.249.088-.108.14-.315.139-.491l.171.004c.531.62,1.421.44,1.947-.13.534-.579.535-1.406-.009-1.994.206-.278.518-.322.954-.318l3.412.029c.155.64.712.73,1.278.783.52.049.93-.358,1.292-.475.59-.056.946-.03,1.407-.647.679-.909,2.597-.969,2.451-2.339.455.466,1.05.686,1.702.435.62-.238.998-.901.857-1.603.409.058.712-.214,1.182-.345l1.092-.305c.619-.492,1.244-.714,1.922-.546Z"/>
    <path class="cls-15" d="M79.342,117.657l.292.022c-.007.098.014.26.066.331.109.149.332.236.605.195l1.657-.253c.37.529.254,1.09.355,1.7l.699.692c-.607-.042-1.094.264-1.359.752-.275.506-.21,1.199.365,1.371.05.256.16.591.441.668.249.068.492.08.734.057.067.492.658.968,1.053.926.706-.076.908-.63.888-1.46,1.17.239,2.247,1.597,1.838,2.738-.148.412-.941.582-.703,1.5.102.395.145.95.538,1.02l.935.167c.293.172.604.338.977.257.114.055.305.149.448.157-.186,1.197.57,1.664.71,2.426-.591,1.534-1.376-.746-2.597-.983-.285-.055-.349-.36-.5-.442-.126-.704-.557-1.193-1.214-1.423l-.67-.714c-.181-.804-.644-1.587-1.457-1.754-.085-.017-.189-.143-.243-.213.043-.153-.006-.362-.144-.441-.098-.056-.246-.055-.346-.034-.016-.077-.112-.189-.221-.221.015-.859-.859-1.243-1.231-1.832-.647-1.022-.96-1.972-1.8-2.895-.183-1.306-1.117-1.695-.589-2.26.157-.055.315-.066.474-.054Z"/>
    <path class="cls-4" d="M77.226,109.966c.136.522-.071,1.036,1.191,1.313.06.069.15.172.226.209.006.333.317.649.466.99.082.339-.364.712-.484.928.091.465.24.817.186,1.192-.498.165-.832.538-.975,1.015-.164.548-.013.997.491,1.249l.542.85c-.527.565.406.953.589,2.26.839.923,1.153,1.873,1.8,2.895.372.588,1.247.972,1.231,1.832-.813-.463-1.375-1.293-1.989-2.112l-3.086-4.121-.327-1.086c-.163-.494-.423-.762-.85-.845l.008-.491c.153-.069.28-.334.12-.543-.866-1.132-1.658-4.599-.293-5.916.484.005.818.274,1.156.383Z"/>
    <path class="cls-15" d="M91.985,154.346l.999.818c.41.336.574.752.53,1.211-.528.082-1.029.481-1.161.869-.238.702-.125,1.464.415,1.734.079.198.14.506.307.686-.611.406-1.334.945-1.504,1.704l-.503.018c-.529-.516-1.176-.945-1.396-1.713-.024-.082-.17-.183-.238-.234l-.005-.242-.182-1.189c-.09-.589-.127-1.261.049-1.921l.604-2.211.196.053c.489.49,1.239.512,1.889.418Z"/>
    <path class="cls-3" d="M90.112,138.408l.057,1.599c-.55.01-.503.434-.614.885-.484,1.968-1.264,4.071-.369,4.179l.067,1.865c-.18-.078-.794-.046-.828.246-.375,3.229-.307,6.423.258,9.618.087.49.23.961.564,1.208l.182,1.189c-.247-.044-.31-.243-.433-.49-1.186-2.38-1.598-6.554-1.326-9.384l.295-3.068.951-5.762.532-4.312-.505-3.105c1.052.502.484,1.922,1.189,3.414l-.38,1.176c-.059.183-.029.37.005.494.034.12.216.213.355.249Z"/>
    <path class="cls-4" d="M89.88,130.921l.513.022-.516.896c-.486.821.221,1.926,1.074,1.934.025.138.22.242.304.319l1.422,2.185c.441.678.121,1.62-.083,2.243l-.305-.004c-.165-.384-.544-.633-.851-.67-.59-.07-.98.221-1.324.56-.139-.036-.322-.129-.355-.249-.035-.124-.065-.311-.005-.494l.38-1.176c-.705-1.492-.137-2.911-1.189-3.414l.01-.248c.009-.217-.145-.311-.249-.483l-.812-1.342c-.236-.39-.635-.642-.608-1.065,1.222.237,2.006,2.516,2.597.983Z"/>
    <path class="cls-5" d="M91.571,161.369l1.612.787c.635.31,1.353.172,1.954.161l3.844-.072c1.301-.025,2.539-.952,3.771-.59-.341.642-1.097.541-1.739.718-3.422.942-7.646,1.253-9.944-.985l.503-.018Z"/>
    <path class="cls-4" d="M84.899,127.359c-.498-.531-1.357-.919-1.457-1.754.813.167,1.276.95,1.457,1.754Z"/>
    <path class="cls-4" d="M86.783,129.496c-.563-.305-.816-.999-1.214-1.423.657.23,1.088.719,1.214,1.423Z"/>
    <path class="cls-3" d="M77.413,118.464l-1.178-1.931c.427.084.688.352.85.845l.327,1.086Z"/>
    <path class="cls-4" d="M83.199,125.392c-.155.017-.33-.043-.411-.165-.063-.095-.061-.224-.078-.309.099-.022.248-.022.346.034.138.079.187.287.144.441Z"/>
    <path class="cls-3" d="M88.952,132.828c-.187-.083-.264-.284-.249-.483.104.172.258.266.249.483Z"/>
    <path class="cls-3" d="M89.672,159.674c-.115-.022-.236-.118-.238-.234.068.05.215.152.238.234Z"/>
    <path class="cls-5" d="M103.101,161.836l-.054-.232.289-.005c.037.155-.098.267-.234.237Z"/>
    <path class="cls-9" d="M160.921,114.614c-.631.021-1.087.506-1.191,1.234-.075.525.01,1.051.366,1.341.345.281.865.303,1.322.278l-.796.936-1.143,1.729c-.322.488-.462.959-1.012.957-.407-.372-.972-.643-1.474-.424-.514.224-.872.732-.935,1.372-.056.563.082,1.015.568,1.22-.184.456-.555.972-1.168,1.292-.692.361-1.004,1.179-1.71,1.372-.712-.509-1.536-.314-1.992.314-.486.669-.248,1.482.259,2.052-.098.466-.521.679-.82,1.08l-1.346,1.837c-.628-.502-1.515-.069-1.884.565-.449.772-.056,1.636.722,2.106-1.021.26-.939,1.374-1.044,2.262-.093.795-.363,1.392.303,1.921-.465.705-.162,1.51-.13,2.187.074,1.56.406,3.046.587,4.588.105.9.021,1.901,1.043,2.377-.249-.045-.85.03-.93.281-.317.986.04,1.864.047,2.826.003.375-.236.767.132,1.038-.615.64-.727,1.823-.185,2.563-.844.374-1.03,1.552-1.276,2.692-1.063-.336-1.74.274-2.439.831-1.715,1.368-4.4-.44-4.343.792l-.424-.034c.019-.111.015-.442-.169-.51l-2.267-.849c1.966-.009,3.85.511,5.677-.178,4.928-1.857,4.729-8.606,3.971-13.442l-.56-3.578-.334-2.779c-.381-3.176.419-6.885,2.429-9.079l1.545-1.687,3.393-3.616c2.532-2.699,5.851-6.815,5.683-10.486-.027-.59-.403-1.215.019-1.685l.274-.01,1.231,4.315Z"/>
    <path class="cls-5" d="M147.233,156.609l.648.986c.219.727-.363,1.317-.796,1.626-.559.399-1.429.347-1.923-.126-.439-.419-.367-1.109-.368-1.655.699-.557,1.376-1.167,2.439-.831Z"/>
    <path class="cls-5" d="M148.509,153.917c-.543-.74-.43-1.923.185-2.563.68-.175,1.471-.143,1.888.505.351.546.288,1.514-.213,1.921-.417.338-1.49.642-1.86.137Z"/>
    <path class="cls-5" d="M160.921,114.614c.767-.026,1.275.545,1.362,1.309.079.688-.444,1.048-.866,1.544-.457.025-.977.003-1.322-.278-.356-.29-.441-.816-.366-1.341.105-.728.56-1.213,1.191-1.234Z"/>
    <path class="cls-5" d="M149.848,131.203c.544.435.56,1.257.311,1.791-.33.71-.894.733-1.473.88-.779-.47-1.171-1.334-.722-2.106.369-.635,1.256-1.067,1.884-.565Z"/>
    <path class="cls-5" d="M149.445,147.209c-1.022-.476-.938-1.477-1.043-2.377l1.243-.276c.838-.196,1.41.785,1.335,1.504-.082.787-.862,1.272-1.536,1.149Z"/>
    <path class="cls-5" d="M147.815,140.245c-.032-.677-.335-1.482.13-2.187.533-.282,1.264-.329,1.689.144.485.539.606,1.365.155,1.894-.489.574-1.357.521-1.974.15Z"/>
    <path class="cls-5" d="M158.467,121.089c.04.548.053,1.111-.419,1.575-.388.382-.938.556-1.422.593-.486-.205-.625-.658-.568-1.22.064-.64.422-1.148.935-1.372.502-.219,1.067.052,1.474.424Z"/>
    <path class="cls-5" d="M153.747,125.921l.062,1.174c.069.772-1.123,1.146-1.796,1.192-.507-.57-.745-1.383-.259-2.052.456-.628,1.28-.822,1.992-.314Z"/>
    <path class="cls-10" d="M140.027,158.199l.424.034c.071.006.167-.007.238.022-.01.067-.023.165-.002.248.22.878-.555,1.845-1.409,1.9l-.203.013c-.465-.692-.365-1.561.207-2.213l.746-.004Z"/>
    <path class="cls-5" d="M140.708,160.818c-.494-.108-1.076-.032-1.431-.416.854-.055,1.629-1.022,1.409-1.9.549.119.925.681.702,1.34-.145.427-.429.728-.68.976Z"/>
    <path class="cls-9" d="M140.708,160.818c.251-.248.535-.549.68-.976.223-.659-.153-1.22-.702-1.34-.021-.083-.007-.18.002-.248.453.185.986.417,1.141.764.21.47.265,1.339-.045,1.675-.311.338-.792.187-1.077.125Z"/>
    <path class="cls-1" d="M147.24,143.221c.757,4.836.956,11.585-3.971,13.442-1.827.688-3.711.169-5.677.178l2.267.849c.184.069.187.4.169.51l-.746.004c-.816-.62-1.968-.826-3.09-.968-1.076-.136-.321,1.434-1.385,1.876-.543.226-.817-.067-1.098-.329.622-.038.872-.473.994-.963.156-.624-.165-1.003-.668-1.314-.563-.348-1.169-.241-1.754.063-.699.363-1.597.421-2.415.081-1.393-.578-2.336-.069-2.532-.794.555-.305.985-.775.924-1.326-.081-.728-.486-1.194-1.185-1.106.037-.101-.084-.436-.234-.446-.838-.056-1.316.51-1.864,1.011-.683.624-2.144-.329-3.615-.33.139-.462.354-1.014-.028-1.398l.012-.224c.012-.233-.053-.538.086-.75.182-.277.858-.157,1.022-.419.055-.087.072-.28.058-.387l2.401.64,5.514,2.574c1.574.735,3.035,1.587,4.753,1.95l2.102-.831c.875-.346,1.266-.774,2.333-.658.668.073,1.974-.554,2.316-1.113.459-.751.946-.959,1.584-1.427.86-.63.673-2.189.923-3.052.2-.69.479-1.103.402-1.833-.139-1.302.066-2.566.493-3.781.729-.161,1.284.084,1.911.272Z"/>
    <path class="cls-5" d="M121.342,152.036l-.012.224c.043.441-.047.879-.308,1.25l-2.05.162c-.128-.253-.283-.621-.504-.721-.119-.789.384-1.491,1.078-1.65.759-.174,1.366.174,1.795.734Z"/>
    <path class="cls-5" d="M127.072,153.423c.698-.088,1.104.378,1.185,1.106.061.551-.369,1.021-.924,1.326-.451-.09-1.037-.289-1.262-.609-.345-.492-.395-1.197-.019-1.633.25-.291.772-.229,1.021-.191Z"/>
    <path class="cls-10" d="M134.033,156.505c.05.842-.657,1.576-1.472,1.777-.096-.185-.526-.26-.435-.778l.153-.936c.585-.304,1.191-.411,1.754-.063Z"/>
    <path class="cls-5" d="M133.707,158.781c-.349-.067-.94-.102-1.146-.5.815-.201,1.522-.935,1.472-1.777.504.311.824.69.668,1.314-.123.491-.372.925-.994.963Z"/>
    <path class="cls-9" d="M121.358,153.659l-.336-.148c.26-.371.35-.809.308-1.25.382.385.167.937.028,1.398Z"/>
    <path class="cls-8" d="M114.624,151.383l-5.493,2.672c-.078-.545.085-.929.622-1.418-1.4-.917-2.8-1.334-3.622-.195-.753-.19-1.292.588-1.799.771-1.553.561-2.984,1.096-4.538,1.754l-2.056.871c-.285.121-.506.868-1.138.658.237.818.708.627,1.153.781l.557.193c-.029.106-.043.306.015.397.1.159.361.183.529.119l.138.254c-.575.634-.577,1.424-.182,2.162.001.177-.051.383-.139.491-.175.215-.528.185-.835.249l-1.959.409c-.48.1-.729.384-.742.766-.601.011-1.318.149-1.954-.161l-1.612-.787c.171-.759.894-1.298,1.504-1.704.25-.051.715-.052.954.024.305.262,1.077.43,1.433.017.37-.429.172-1.202.178-1.648l1.019.167c-.049-1.038-.591-1.586-1.659-2.139,1.669-.726,1.922-2.318,3.037-2.164.645.089,1.115-.474,1.526-.551.849-.16,1.044-.535,1.735-.795l2.759-1.041c.181-.068.296-.72.595-.565l.687.355c1.846-.686,1.732-1.981,2.926-1.965.537.007.957.358,1.267,1.083,1.321-.992,3.923-1.228,4.592-.688.42.338.521,1.029.501,1.629Z"/>
    <path class="cls-9" d="M120.726,150.064c.174-.007.468.015.623.063l1.159.354c.013.107-.004.3-.058.387-.164.261-.841.142-1.022.419-.139.212-.074.517-.086.75-.429-.56-1.036-.908-1.795-.734-.694.159-1.197.861-1.078,1.65-.678-.169-1.303.054-1.922.546l-1.092.305c-.469.131-.772.403-1.182.345-.073-.365-.38-.693-.869-.725-.568-.037-.996.166-1.322.493-.358.359-.421.898-.368,1.4.146,1.37-1.771,1.43-2.451,2.339-.461.617-.817.591-1.407.647.087-.54.157-1.236-.262-1.674-.485-.505-1.164-.345-1.688-.032-.471.281-.768.786-.62,1.398l-3.412-.029c-.435-.004-.748.04-.954.318l-.91-.1-1.017.057-.138-.254c-.039-.295-.259-.417-.544-.516l-.557-.193c1.273-.548,3.488.048,5.832-.924l5.546-2.298,5.493-2.672c1.219-.593,2.628-1.184,4.07-1.24l2.032-.079Z"/>
    <path class="cls-5" d="M107.856,158.301c-.362.117-.772.524-1.292.475-.566-.054-1.123-.144-1.278-.783-.149-.612.149-1.117.62-1.398.524-.313,1.203-.473,1.688.032.42.437.349,1.134.262,1.674Z"/>
    <path class="cls-5" d="M114.273,154.147c.141.703-.237,1.365-.857,1.603-.652.251-1.247.031-1.702-.435-.054-.501.01-1.041.368-1.4.326-.327.754-.529,1.322-.493.489.031.796.36.869.725Z"/>
    <path class="cls-10" d="M100.01,158.183c-.001.227.306.577.44.814-.143.735-.824,1.293-1.468,1.41l-.171-.004c-.395-.738-.392-1.528.182-2.162l1.017-.057Z"/>
    <path class="cls-5" d="M100.92,158.282c.545.588.543,1.414.009,1.994-.526.57-1.416.75-1.947.13.644-.117,1.325-.675,1.468-1.41-.135-.237-.442-.586-.44-.814l.91.1Z"/>
    <path class="cls-16" d="M80.597,111.726c.004,1.616.29,3.294,1.216,4.741l2.01,3.14,2.328,2.595,2.926,3.06,2.253,2.595c.169.195.253.426.28.698l-1.513-.549c-.255.086-.616.507-.926.489-.143-.008-.333-.102-.448-.157l.364-.887c.223-.541-.123-1.05-.59-1.159-.203-.628-.789-1-1.521-.898.41-1.141-.668-2.5-1.838-2.738.021.83-.182,1.384-.888,1.46-.395.042-.986-.434-1.053-.926.482-.187.761-.65.881-1.113.151-.582-.083-1.091-.593-1.26-.048-.252-.342-.348-.469-.474l-.699-.692c-.101-.609.015-1.17-.355-1.7l-1.657.253c-.273.042-.496-.045-.605-.195-.052-.071-.073-.233-.066-.331.292.039.623-.033.819-.186.507-.398.518-1.615-.115-1.928-.149-.074-.286-.203-.486-.203.014-.237-.088-.544-.25-.64-.232-.137-.584-.193-.791-.124.055-.374-.095-.727-.186-1.192.12-.215.565-.588.484-.928-.148-.342-.46-.658-.466-.99.636.167,1.291.242,1.954.239Z"/>
    <path class="cls-14" d="M91.609,128.555l.468.212,1.101,2.232c.633,1.816.816,3.736.549,5.681l-1.19,8.681-.75-.062-.437-.215c-.005-.101.015-.201.051-.3.512-1.397.77-3.208-.113-4.052.704.087,1.467-.419,1.396-1.208l-.091-1.004c.204-.623.525-1.565.083-2.243l-1.422-2.185c.605-.022,1.262-.355,1.466-.946.253-.732-.184-1.145-.623-1.583-.489-.487-.948-.781-1.704-.621l-.513-.022c-.14-.762-.896-1.229-.71-2.426.31.017.671-.403.926-.489l1.513.549Z"/>
    <path class="cls-10" d="M88.496,126.292c.132.713-.258,1.241-.751,1.789l-.935-.167c-.393-.07-.435-.626-.538-1.02-.238-.917.555-1.087.703-1.5.732-.102,1.318.27,1.521.898Z"/>
    <path class="cls-10" d="M83.016,120.343c.127.126.422.222.469.474.028.45.057.959-.254,1.358-.248.319-.765.432-1.21.291-.575-.172-.64-.865-.365-1.371.265-.488.752-.794,1.359-.752Z"/>
    <path class="cls-5" d="M83.197,123.19c-.242.023-.485.011-.734-.057-.281-.076-.391-.412-.441-.668.445.141.962.027,1.21-.291.31-.399.282-.907.254-1.358.51.169.744.678.593,1.26-.12.463-.399.926-.881,1.113Z"/>
    <path class="cls-5" d="M80.337,115.564c.039.878-.395,1.505-.995,2.093-.159-.012-.317,0-.474.054l-.542-.85c.966-.421,1.669-.766,1.526-1.5.2,0,.337.129.486.203Z"/>
    <path class="cls-1" d="M79.633,117.678l-.292-.022c.6-.588,1.034-1.215.995-2.093.633.314.622,1.53.115,1.928-.196.154-.527.225-.819.186Z"/>
    <path class="cls-1" d="M88.723,128.338c-.373.081-.684-.084-.977-.257.492-.548.882-1.077.751-1.789.468.109.813.618.59,1.159l-.364.887Z"/>
    <path class="cls-3" d="M79.851,115.361c.143.734-.56,1.079-1.526,1.5-.503-.252-.655-.701-.491-1.249.143-.478.477-.85.975-1.015.207-.069.559-.013.791.124.162.096.264.403.25.64Z"/>
    <path class="cls-4" d="M89.253,146.936l.654.285c.38.166.793.256,1.201.232.156.24.288.549.287.946l-.006,2.906c-.355-.024-.771-.098-1.203.018-.605.162-.971.712-.977,1.268-.005.489.165,1.143.691,1.285l-.604,2.211c-.176.661-.139,1.332-.049,1.921-.334-.247-.477-.718-.564-1.208-.565-3.195-.633-6.389-.258-9.618.034-.292.648-.325.828-.246Z"/>
    <path class="cls-3" d="M91.39,151.305l.215.696c.062.45.041.904-.236,1.326-.269.411-.737.746-1.272.601l-.196-.053c-.526-.142-.696-.796-.691-1.285.006-.556.372-1.105.977-1.268.432-.116.848-.041,1.203-.018Z"/>
    <path class="cls-10" d="M94.714,157.008c.078,1.121-.832,2.027-1.945,1.971-.54-.271-.653-1.032-.415-1.734.132-.389.633-.787,1.161-.869.523-.082.967.256,1.2.633Z"/>
    <path class="cls-5" d="M95.413,157.545l-.336,1.092c-.126.522-.761.708-1.048,1.052-.239-.076-.704-.075-.954-.024-.166-.18-.228-.488-.307-.686,1.113.056,2.023-.85,1.945-1.971.223.109.6.209.699.537Z"/>
    <path class="cls-1" d="M91.985,154.346c-.65.094-1.4.072-1.889-.418.535.144,1.003-.191,1.272-.601.277-.423.298-.876.236-1.326.469.014.843.393.706.969l-.325,1.376Z"/>
    <path class="cls-4" d="M90.169,140.007c.099.145.314.212.45.26.113.301.427.403.669.465.883.844.625,2.655.113,4.052-.766-.404-1.635-.315-2.215.286-.895-.108-.115-2.211.369-4.179.111-.451.064-.874.614-.885Z"/>
    <path class="cls-10" d="M91.401,144.785c-.036.099-.056.198-.051.3.048.962-.711,1.6-1.443,2.137l-.654-.285-.067-1.865c.579-.602,1.448-.69,2.215-.286Z"/>
    <path class="cls-10" d="M92.287,138.518c.012.935-.748,1.662-1.668,1.75-.136-.048-.351-.115-.45-.26l-.057-1.599c.344-.339.734-.63,1.324-.56.308.037.687.286.851.67Z"/>
    <path class="cls-10" d="M92.097,131.565c.003.419.115.984-.22,1.305l-.927.904c-.853-.008-1.56-1.113-1.074-1.934l.516-.896c.756-.159,1.216.134,1.704.621Z"/>
    <path class="cls-8" d="M91.254,134.093c-.084-.077-.279-.181-.304-.319l.927-.904c.335-.321.223-.887.22-1.305.439.438.877.851.623,1.583-.204.59-.861.923-1.466.946Z"/>
    <path class="cls-5" d="M91.288,140.733c-.242-.062-.556-.164-.669-.465.921-.088,1.68-.815,1.668-1.75l.305.004.091,1.004c.071.788-.692,1.295-1.396,1.208Z"/>
    <path class="cls-1" d="M109.132,154.055l-5.546,2.298c-2.344.971-4.559.376-5.832.924-.445-.154-.916.037-1.153-.781.632.21.853-.537,1.138-.658l2.056-.871c1.554-.658,2.985-1.193,4.538-1.754.508-.183,1.047-.961,1.799-.771.822-1.138,2.222-.721,3.622.195-.537.49-.7.874-.622,1.418Z"/>
    <path class="cls-9" d="M95.64,158.058c-.006.446.191,1.219-.178,1.648-.356.413-1.127.244-1.433-.017.287-.344.923-.53,1.048-1.052l.336-1.092c.043.142.23.273.227.513Z"/>
    <path class="cls-1" d="M98.855,157.986c-.168.064-.429.04-.529-.119-.057-.091-.044-.291-.015-.397.285.099.505.221.544.516Z"/>
    <path class="cls-4" d="M94.24,130.745c.14.707.967.805,1.039,2.171l2.351,1.033c-.14.689-.453,1.079-.784,1.517.093.211.503.276.581.175l.344-.445,1.896-.964c.269,1.732-1.464,3.862-1.54,5.77-.033.833-.236,1.602-.396,2.521-.177,1.021-.476,1.801-1.732,1.909l-.341,2.074c-.198,1.202,1.446.704,1.252,1.775-.126.698-1.621.987-1.756.825l-.522-.627c-.275-.33-.973.407-.957.864l.072,2.179c.018.532-.286.91-.693,1.044-.52-1.535-.739-3.138-.644-4.883l.127-2.325,1.19-8.681c.267-1.945.083-3.865-.549-5.681l-1.101-2.232c.973-.875,1.056.851,2.163,1.978Z"/>
    <path class="cls-1" d="M91.787,145.299c.011,1.064.166,1.645-.679,2.155-.409.024-.822-.067-1.201-.232.731-.537,1.49-1.175,1.443-2.137l.437.215Z"/>
    <path class="cls-10" d="M140.998,127.741c-.05,2.312-2.537,2.552-5.146,2.501-.048.008-.134.033-.188.027.102-.26-.14-.347-.304-.319-.134.023-.296.023-.397.004-.8-.149-1.555-.776-1.636-1.591-.084-.836.445-1.652,1.206-1.963,2.375-.972,5.436-.751,6.465,1.341Z"/>
    <path class="cls-16" d="M138.076,131.353l-.689.082c.042-.264-.102-.517-.299-.604-.286-.127-.538-.141-.799-.128-.174-.1-.348-.26-.438-.462,2.609.052,5.097-.188,5.146-2.501.323.031.78.107.967.397.637.989-.703,2.507-1.742,2.702-.794.149-1.585.03-2.147.514Z"/>
    <path class="cls-10" d="M102.112,125.856c.741.044,1.471.182,2.202.223l.533.029c.033.286.416.394.658.498l.473.203c.399.662.443,1.804-.427,2.231-1.03.506-2.239.946-3.383.849l-1.975-.13c-.876-.248-1.451-1.086-1.138-2.212.243-.875,1.102-1.298,1.94-1.427.256-.039.495-.07.676-.291l.442.026Z"/>
    <path class="cls-8" d="M106.661,127.503c.279,1.256-.542,2.394-1.851,2.742-1.221.325-2.467.232-3.677.179l-.941-.666,1.975.13c1.144.097,2.353-.343,3.383-.849.869-.427.826-1.569.427-2.231.334.143.473.493.684.695Z"/>
    <path class="cls-14" d="M107.169,128.586c-.078,2.018-3.075,2.874-5.367,2.452-.509-.094-.493-.489-.669-.614,1.21.053,2.456.146,3.677-.179,1.31-.348,2.13-1.486,1.851-2.742.312.299.536.59.508,1.083Z"/>
    <path class="cls-13" d="M101.67,125.829c-.18.221-.42.251-.676.291-.018-.198.01-.466-.056-.637l.573-.032c.204-.01.301.162.159.378Z"/>
    <path class="cls-16" d="M135.664,130.269l-.715-.07.015-.245c.1.019.262.018.397-.004.164-.028.406.059.304.319Z"/>
    <path class="cls-10" d="M124.616,124.187c-.668,1.936-2.212,3.278-4.339,3.532-2.265.27-2.698-.754-3.073-.193-1.121-.575-2.437-1.791-1.994-3.246.202-.662,1.465-.366,1.742.196.646,1.315,1.9,1.926,3.263,1.885,2.337-.07,2.581-2.21,3.898-2.544.183-.046.451.042.503.369Z"/>
    <path class="cls-1" d="M124.954,124.226l.011.264c.09,1.462-1.205,2.773-2.665,3.328-.28.106-.421.243-.483.457l-1.974.143c-.934.068-1.793-.457-2.639-.892.375-.561.809.463,3.073.193,2.127-.254,3.671-1.596,4.339-3.532l.338.039Z"/>
    <path class="cls-7" d="M121.818,128.275l.784.446-1.062.496-1.092-.06c-.439-.024-.618-.367-.604-.74l1.974-.143Z"/>
    <path class="cls-14" d="M112.662,122.051c-.029.179-.048.452-.012.611-.447.034-.445.526-.681.834-1.775,2.318-3.296,2.25-5.919,2.065-.306-.022-.394-.547-.332-.685,1.694.332,3.448-.117,4.776-1.221s2.088-2.746,2.071-4.473c.291.03.493.45.415.929l-.318,1.94Z"/>
    <path class="cls-14" d="M137.387,131.435c-.528.063-.966-.26-1.098-.733.261-.013.512.002.799.128.197.087.341.34.299.604Z"/>
    <path class="cls-13" d="M104.314,126.078c-.731-.04-1.461-.178-2.202-.223.133-.64.64-.984,1.226-.813.56.164.953.446.976,1.035Z"/>
    <path class="cls-13" d="M105.504,126.605c-.242-.104-.624-.212-.658-.498.108-.322.345-.201.397-.083l.26.581Z"/>
    <path class="cls-2" d="M125.364,124.909c.038.49.198,1.253-.215,1.671l-2.038,2.137c-.145-.02-.378-.029-.51.004l-.784-.446c.062-.214.203-.35.483-.457,1.46-.555,2.755-1.867,2.665-3.328.171.059.31.249.398.419Z"/>
    <path class="cls-7" d="M123.111,128.718l2.038-2.137c.413-.418.253-1.182.215-1.671.698.156,1.413,1.475,1.197,1.978-.219.511-1.042.27-1.839,1.18-.446.509-1.034.731-1.61.651Z"/>
  </g>
  <g>
    <path class="cls-9" d="M112.565,119.239c0-3.172-2.572-5.744-5.744-5.744s-5.744,2.572-5.744,5.744,2.572,5.744,5.744,5.744,5.744-2.572,5.744-5.744ZM110.636,115.649c1.419,1.593,1.672,3.6.964,5.568-.925,2.571-4.098,4.065-6.596,2.994-2.445-1.048-3.879-3.445-3.193-6.129.074-.291.35-.408.567-.318.086-.966.598-1.794,1.486-2.395l.951-.643c1.007-1.268,4.391-.681,5.82.923Z"/>
    <path class="cls-6" d="M102.378,117.763c-.03.336-.08.794.245,1.044.259.2,1.013.052,1.236-.338.51-.889.957-1.647,1.929-2.162.345-.183.804-.718.573-1.139-.298-.543-1.075-.554-1.545-.443,1.007-1.268,4.391-.681,5.82.923,1.419,1.593,1.672,3.6.964,5.568-.925,2.571-4.098,4.065-6.596,2.994-2.445-1.048-3.879-3.445-3.193-6.129.074-.291.35-.408.567-.318ZM110.537,116.965c0-1.05-.851-1.901-1.901-1.901s-1.901.851-1.901,1.901.851,1.901,1.901,1.901,1.901-.851,1.901-1.901ZM104.742,121.606c0-.487-.395-.883-.883-.883s-.883.395-.883.883.395.883.883.883.883-.395.883-.883Z"/>
    <path class="cls-5" d="M102.378,117.763c.086-.966.598-1.794,1.486-2.395l.951-.643c.471-.111,1.248-.1,1.545.443.231.422-.228.956-.573,1.139-.971.514-1.419,1.273-1.929,2.162-.224.39-.977.538-1.236.338-.325-.251-.275-.708-.245-1.044Z"/>
    <circle class="cls-10" cx="108.636" cy="116.965" r="1.901"/>
    <circle class="cls-10" cx="103.86" cy="121.606" r=".883"/>
  </g>
</svg>