<?xml version="1.0" encoding="UTF-8"?>
<svg id="_レイヤー_1" data-name="レイヤー 1" xmlns="http://www.w3.org/2000/svg" width="240" height="240" viewBox="0 0 240 240">
  <defs>
    <style>
      .cls-1 {
        fill: #8a92c5;
      }

      .cls-2 {
        fill: #d7c2e3;
      }

      .cls-3 {
        fill: #bccce1;
      }

      .cls-4 {
        fill: #abafcc;
      }

      .cls-5 {
        fill: #e5b4bc;
      }

      .cls-6 {
        fill: #deabb4;
      }

      .cls-7 {
        fill: #d7c27c;
      }

      .cls-8 {
        fill: #bfd0e4;
      }

      .cls-9 {
        fill: #e8e7e2;
      }

      .cls-10 {
        fill: #c8add6;
      }

      .cls-11 {
        fill: #e7b8c0;
      }

      .cls-12 {
        fill: #d8a1a8;
      }

      .cls-13 {
        fill: #ecdd9a;
      }

      .cls-14 {
        fill: #b08fba;
      }

      .cls-15 {
        fill: #9b9ccc;
      }

      .cls-16 {
        fill: #ecc7cf;
      }
    </style>
  </defs>
  <g>
    <path class="cls-11" d="M106.014,103.074c1.08.767,2.462,1.794,3.193,2.708-.368,1.537.701,2.868,1.172,3.938.783,1.78.653,3.702,1.708,4.834-.2.515-.139,1.037-.146,1.544-.021,1.589.107,3.444,1.161,4.05l.263.898c-.166,1.466-.188,2.963-.211,4.608-.004.297-.365.738.042.946l-.026.449c-.087-.021-.27-.017-.347.046-.152.122-.115.321-.121.485l-.037.923c-.168-.017-.386.015-.499.112-.202.174-.226.442-.221.672l.011.6c-.635.238-1.404,1.686-1.375,1.873l.058.375c-.785.068-1.096.928-1.089,1.647l-.167.245c-1.118.139-1.695.737-2.071,1.858l-1.167,1.382-2.293,1.832c-1.517,1.212-4.174,2.406-6.059,2.798-1.109.231-2.406-.127-3.483.396-.859.417-1.76-.116-2.475-.033-3.321.386-5.222-.172-8.09-1.603-.833-.416-2.171-.115-3.03-.795-.176-.14-.519-.062-.625.03-.095.083-.162.23-.213.441l-1.636-1.136-3.434-3.302c-.129-.557-.615-1.11-.908-1.612l-.913-1.567c-.3-.515-.489-1.131-1.05-1.322l.007-.262c.012-.42.138-1.09-.36-1.383-.08-.014-.146-.18-.12-.286-.008-.191-.085-.379-.268-.463l-1.111-3.214-.521-.89c.167-.089.304-.275.315-.535l.291-6.437.525.056c.14.417.688.518.921.713.643,1.064,2.261.788,1.559,1.952-.256-.137-.547-.252-.87-.242-.66.022-1.252,1.04-.974,1.631.136.289.532.456.86.436.009.106-.012.242-.03.325.171.437.772.492,1.158.676,1.057.502,1.047,1.613,1.418,2.485.681,1.599,1.217,3.339,2.243,4.708.934,1.246,2.151,2.141,2.952,3.505.42.716,1.407,1.027,2.092,1.037l.727.478c2.364,1.552,5.01,2.756,7.846,3.012-.1.24-.089,1.042.276,1.109,1.759.322,3.468.207,5.302.063l4.54-1.646c1.368-.175,2.1-.699,3.074-1.619,1.817-1.715,3.981-3.294,5.055-5.671l1.766-5.204c.653-1.924.534-4.505-.735-5.035l-.262-1.1c-.276-1.158-.351-2.278-.871-3.238-.121-.224-.08-.602-.343-.786-.008-.078-.029-.176.06-.293-.962-2.698-2.683-5.185-4.953-7.005.066-.404-.028-.722-.341-.931l-2.15-1.429c-.936-.622-.655-1.994-.173-2.846.326-.576-.853-1.051-.794-1.707.645.013.811.46,1.336.822.774.533,1.769.832,2.713,1.139l1.916-.247Z"/>
    <path class="cls-12" d="M115.352,121.097c.101.583.341,1.257.226,1.858l-1.006,5.284c-2.708,8.77-10.247,15.113-19.395,16.048l-4.559.018-2.649-.411c-.723-.112-1.341-.236-1.912-.543,2.789-.716,4.239,1.077,7.763-.14l2.303-.313,1.86-.321,1.858-.574,3.012-1.475c1.538-.753,2.799-1.578,3.917-2.839l1.81-2.041c.436-.491.991-.903.805-1.622l.167-.245c.198.035.534-.024.636-.324l.452-1.323-.058-.375c.906-.017,1.39-1.044,1.375-1.873l-.011-.6c.224,0,.506-.068.643-.256.109-.151.071-.366.078-.527l.037-.923c.176.037.364-.044.423-.18.054-.126.04-.249.045-.351l.026-.449c.592-1.157.836-3.79.691-5.246.207-.008.392-.104.489-.281l.974.023Z"/>
    <path class="cls-6" d="M109.384,134.027c.186.719-.369,1.131-.805,1.622l-1.81,2.041c-1.118,1.261-2.379,2.086-3.917,2.839l-3.012,1.475-1.858.574-1.86.321-2.303.313c-3.524,1.217-4.975-.576-7.763.14-2.218-.585-4.287-1.705-6.178-3.018.051-.211.118-.359.213-.441.106-.092.449-.17.625-.03.859.68,2.197.379,3.03.795,2.868,1.431,4.769,1.989,8.09,1.603.715-.083,1.616.45,2.475.033,1.077-.523,2.374-.166,3.483-.396,1.886-.392,4.542-1.586,6.059-2.798l2.293-1.832,1.167-1.382c.376-1.121.953-1.718,2.071-1.858Z"/>
    <path class="cls-16" d="M106.014,103.074l-1.916.247c-.944-.307-1.939-.606-2.713-1.139-.525-.362-.691-.81-1.336-.822-.379-.008-.814-.259-1.288.409l-.381-.798c-.149-.312-.573-.262-.794-.322-.139-.037-.3-.325-.605-.079-.463.372-1.069.466-1.57.309-.086-.036-.15-.213-.443-.461.077,1.496-1.42,3.284-2.514,3.174-.306-.031-.451-.31-.721-.49,1.219.275,2.555-1.332,2.895-2.696.086-.343-.38-.581-.605-.631-.282-.063-.676.017-.959.267-.654.577-1.251-.551-2.164-.194-.25.098-.398.517-.568.74-.874.481-2.1.445-3.057.101-.548-.197-.824-.747-1.239-1.141l5.059-.746c5.439-.354,10.619,1.218,14.919,4.273Z"/>
    <path class="cls-6" d="M113.917,112.804c-.794.117-1.566,1.075-1.829,1.752-1.055-1.132-.925-3.054-1.708-4.834-.471-1.071-1.54-2.401-1.172-3.938l.78.975c.465.581,1.059,1.002,1.451,1.678l2.479,4.368Z"/>
    <path class="cls-2" d="M71.465,129.464c-.237-.071-.213-.304-.268-.463.183.084.26.272.268.463Z"/>
    <path class="cls-3" d="M108.461,115.277c-.089.117-.068.215-.06.293-.252.194-.327.484-.3.828.021.266.181.455.512.406l.033.929c-.37.728-.782.665-1.513.6-1.431-.129-2.706-.375-4.1-.807l-2.55-.087-2.388-.267c-.815-.091-1.439-.079-2.195-.108l-2.861-.112c-1.297-.051-2.36-.309-3.652-.009l-3.087.075-.461-.003c-.167-.313-.609-.319-.923-.304.299-.577.89-.791,1.527-1.359-.873-.544-1.32-1.088-1.873-2.035-.574.802-1.048,1.478-1.876,1.941-.015.603.615.25,1.047,1.012-.93.491-2.902.252-4.552.156-.509-.03-1.124.351-1.708.012l-.066-.878.336-1.493c4.645-.701,10.894-3.818,10.976-8.625l2.071-.3c7.092-1.081,14.451,3.172,16.957,9.614.144.37.279.61.706.521Z"/>
    <path class="cls-16" d="M90.599,138.697c1.269.115,2.694.263,4.035.034,2.08-.356,4.031-.814,5.859-1.798,4.9-2.639,8.222-7.357,9.038-12.731l.347-3.508c1.269.53,1.388,3.111.735,5.035l-1.766,5.204c-1.073,2.377-3.238,3.956-5.055,5.671-.975.92-1.706,1.444-3.074,1.619l-4.54,1.646c-1.835.143-3.543.258-5.302-.063-.365-.067-.376-.869-.276-1.109Z"/>
    <path class="cls-12" d="M77.21,113.94l-.916,2.632c-1.683,4.871-.513,11.516,2.553,15.052l1.693,1.953.251.222,1.235,1.409c-.686-.01-1.672-.321-2.092-1.037-.801-1.364-2.017-2.259-2.952-3.505-1.026-1.369-1.562-3.109-2.243-4.708-.371-.872-.362-1.983-1.418-2.485-.386-.184-.987-.239-1.158-.676.311,0,.639-.035.932-.189.533-.281.64-1.242.449-1.588-.07-.125-.359-.167-.516-.126l.149-.247c.702-1.164-.916-.888-1.559-1.952.511-.061,1.131.101,1.675-.112.555-.217.835-.992.816-1.557l-.057-1.966.834.696c.232.193.508.095.643-.055.49-.543.168-1.359-.532-2.035l2.213.275Z"/>
    <path class="cls-12" d="M95.41,100.878c.437,1.134-.321,2.239.131,2.834.342.45,1.263.525,1.67.199-.617-.944-1.051-1.717-.788-2.71.299.17.626.19.818.014.16-.146.26-.353.344-.567.221.06.646.01.794.322l.381.798c.474-.668.91-.416,1.288-.409-.058.656,1.12,1.132.794,1.707-.482.852-.763,2.223.173,2.846l2.15,1.429c.314.209.407.526.341.931-4.235-3.395-9.427-4.542-14.77-3.458-.237-1.151-.512-2.389-1.235-3.325-.12-.155-.165-.397-.22-.583,1.788,1.027,2.787,3.239,3.652,1.664l.799.532c.27.18.415.459.721.49,1.094.11,2.59-1.678,2.514-3.174.292.248.356.426.443.461Z"/>
    <path class="cls-14" d="M103.508,108.272c2.27,1.82,3.991,4.307,4.953,7.005-.427.089-.562-.151-.706-.521-2.506-6.443-9.865-10.695-16.957-9.614l-2.071.3.011-.628c5.343-1.084,10.535.063,14.77,3.458Z"/>
    <path class="cls-4" d="M109.309,122.592c-.01.545-.064,1.126.222,1.611-.817,5.374-4.138,10.092-9.038,12.731-1.828.984-3.778,1.442-5.859,1.798-1.341.229-2.766.081-4.035-.034-2.836-.257-5.482-1.461-7.846-3.012l.179-.457c.995-.051,2.604,2.295,8.321,3.032,5.492.708,10.832-1.825,14.38-6.021,1.738-2.055,3.72-6.249,3.152-8.914-1.681-.408-3.308.073-4.945.072-2.327-.002-4.468.173-6.747.469-4.877.635-8.213,1.548-12.238,4.368l-2.551,1.788c-.738.517-1.416,1.167-2.237,1.641.059.843,1.351,1.23.851,1.703-.068.064-.306-.01-.357-.064-.474-.463-.878-1.043-.971-1.705.023-.591.618-.739,1.07-1.066l3.493-2.524c2.742-2.097,5.798-3.66,9.255-4.128l6.083-.824,3.127-.23c1.602-.118,3.131.027,4.699-.419.715-.203,1.406-.137,1.991.183Z"/>
    <path class="cls-14" d="M109.878,120.694l-.347,3.508c-.286-.485-.232-1.066-.222-1.611l.047-2.498c.007-.357-.173-.597-.379-.727l.048-.723c.023-.349-.095-.69-.38-.911l-.033-.929c-.005-.132.061-.302.131-.448.521.96.596,2.08.871,3.238l.262,1.1Z"/>
    <path class="cls-6" d="M113.859,121.064l.029.291c.145,1.456-.099,4.089-.691,5.246-.407-.208-.046-.649-.042-.946.023-1.645.045-3.142.211-4.608l.493.017Z"/>
    <path class="cls-6" d="M111.956,129.888c.015.829-.47,1.855-1.375,1.873-.029-.187.74-1.635,1.375-1.873Z"/>
    <path class="cls-6" d="M110.639,132.136l-.452,1.323c-.102.3-.438.358-.636.324-.007-.718.304-1.578,1.089-1.647Z"/>
    <path class="cls-14" d="M81.768,134.253c.077.337.38.515.711.491-.038.14.008.359.135.447.084.059.233.04.318.036l-.179.457-.727-.478-1.235-1.409.978.455Z"/>
    <path class="cls-4" d="M108.744,116.356c-.07.146-.136.316-.131.448-.33.048-.49-.141-.512-.406-.028-.344.047-.634.3-.828.263.184.222.562.343.786Z"/>
    <path class="cls-6" d="M112.665,128.505c-.006.161.032.376-.078.527-.136.189-.418.256-.643.256-.004-.23.019-.498.221-.672.113-.097.331-.129.499-.112Z"/>
    <path class="cls-6" d="M113.171,127.05c-.006.102.009.225-.045.351-.059.136-.248.216-.423.18.007-.164-.03-.363.121-.485.077-.062.26-.067.347-.046Z"/>
    <path class="cls-5" d="M90.332,100.587c-.076.743.201,1.378.601,1.982-.865,1.575-1.864-.636-3.652-1.664-.018-.059-.015-.133-.007-.217.958.344,2.183.38,3.057-.101Z"/>
    <path class="cls-14" d="M114.378,121.074c-.097.177-.283.273-.489.281l-.029-.291.519.01Z"/>
    <path class="cls-9" d="M91.733,103.101l-.799-.532c-.401-.603-.678-1.239-.601-1.982.17-.223.318-.642.568-.74.913-.357,1.509.771,2.164.194.283-.25.677-.329.959-.267.225.05.69.288.605.631-.34,1.364-1.676,2.97-2.895,2.696Z"/>
    <path class="cls-6" d="M97.585,100.648c-.084.214-.184.421-.344.567-.192.176-.518.156-.818-.014-.263.994.171,1.767.788,2.71-.406.326-1.328.25-1.67-.199-.452-.595.306-1.7-.131-2.834.5.157,1.107.064,1.57-.309.305-.246.466.042.605.079Z"/>
    <path class="cls-1" d="M77.751,114.067l-.336,1.493c-.671.301-.717,1.774-.161,2.32.619.608,1.664.596,2.358.513-.006.394.074.87.298,1.069.319.283.876.258,1.129.048.317-.264.298-.775.255-1.154.586.145,1.293.061,1.938-.108.77-.202,1.449.07,2.151.073.608.002,1.039-.041,1.692.052l2.764.396c.186.027.287.16.325.283.053.171-.086.452-.333.529-1.186.369-2.121.984-3.215,1.555l-2.339,1.222c-.813.425-1.165.439-1.971.064-.442-.206-1.279-.251-1.728-.52-2.43.515-4.003-.489-4.124.926-.083.969-.024,2.381.25,3.227.073.226.082.845.512.778,2.565-.396,4.169-2.897,6.587-3.205,1.186-.151,2.091-.732,3.153-1.164l2.579-1.05,2.653-.458c.904-.156,1.446-.214,2.309-.133,1.875.177,4.431-1.541,7.58-.841.742.165,1.29.623,2.142.277,1.295-.526,3.324.936,4.759-.893.206.13.386.37.379.727l-.047,2.498c-.586-.32-1.276-.386-1.991-.183-1.569.445-3.097.301-4.699.419l-3.127.23-6.083.824c-3.456.468-6.513,2.03-9.255,4.128l-3.493,2.524c-.452.327-1.047.474-1.07,1.066l-.744.024c-3.066-3.536-4.236-10.181-2.553-15.052l.916-2.632.541.127Z"/>
    <path class="cls-15" d="M77.415,115.56l.066.878c.584.339,1.198-.041,1.708-.012,1.65.096,3.622.334,4.552-.156.55.97.748,1.326,1.087.969.331.042.751.032,1.01-.224l.461.003c-.07.132-.005.41.261.442l1.926.233,5.752.066c1.273.015,2.482.324,3.77.177l1.059,1.238,4.997-.027c.753-.004,1.51-.25,2.246-.071,1.011.246,1.896.033,2.716-.431l-.048.723c-1.435,1.829-3.465.367-4.759.893-.853.346-1.4-.112-2.142-.277-3.149-.7-5.704,1.018-7.58.841-.863-.081-1.405-.023-2.309.133l-2.653.458-2.579,1.05c-1.061.432-1.967,1.013-3.153,1.164-2.418.308-4.021,2.81-6.587,3.205-.431.066-.439-.553-.512-.778l.975.296c1.516-.857,2.961-1.761,4.252-3.188-1.862-.642-3.691-.345-5.476-.335.121-1.415,1.694-.411,4.124-.926.449.268,1.286.314,1.728.52.806.375,1.159.361,1.971-.064l2.339-1.222c1.094-.572,2.029-1.186,3.215-1.555.247-.077.386-.358.333-.529-.038-.122-.139-.256-.325-.283l-2.764-.396c-.653-.094-1.084-.05-1.692-.052-.702-.003-1.381-.275-2.151-.073-.645.169-1.353.253-1.938.108-.247-.061-.554-.522-.861-.37l-.82.407c-.695.083-1.739.094-2.358-.513-.556-.546-.51-2.019.161-2.32Z"/>
    <path class="cls-4" d="M108.646,117.733c.285.22.403.561.38.911-.82.463-1.705.677-2.716.431-.736-.179-1.493.067-2.246.071l-4.997.027-1.059-1.238c-1.288.147-2.497-.163-3.77-.177l-5.752-.066-1.926-.233c-.265-.032-.331-.31-.261-.442l3.087-.075c1.292-.3,2.355-.041,3.652.009l2.861.112c.756.029,1.379.017,2.195.108l2.388.267,2.55.087c1.394.432,2.669.678,4.1.807.731.066,1.143.128,1.513-.6Z"/>
    <path class="cls-2" d="M84.916,116.71c-.07.135-.071.371-.087.529-.34.357-.537,0-1.087-.969-.432-.762-1.062-.408-1.047-1.012.827-.463,1.302-1.139,1.876-1.941.554.947,1,1.491,1.873,2.035-.638.567-1.229.781-1.527,1.359Z"/>
    <path class="cls-4" d="M85.839,117.014c-.26.256-.68.266-1.01.224.016-.157.017-.393.087-.529.314-.014.757-.009.923.304Z"/>
    <path class="cls-8" d="M82.932,135.228c-.085.004-.234.023-.318-.036-.127-.088-.172-.307-.135-.447.042-.156-.019-.439-.157-.45l-.554-.042-.978-.455-.251-.222.021-.272c.051.054.289.128.357.064.5-.473-.792-.861-.851-1.703.821-.474,1.499-1.124,2.237-1.641l2.551-1.788c4.025-2.82,7.361-3.733,12.238-4.368,2.279-.297,4.42-.471,6.747-.469,1.637.001,3.264-.48,4.945-.072.567,2.664-1.415,6.858-3.152,8.914-3.548,4.196-8.888,6.729-14.38,6.021-5.716-.737-7.326-3.083-8.321-3.032ZM102.828,131.565c.792-2.498,2.437-2.198,2.433-2.692-.004-.447-1.938-.356-2.295-2.634l-1.269,1.842c-.278.403-.97.206-1.349.969,1.461.252,1.844,1.243,2.481,2.515Z"/>
    <path class="cls-14" d="M79.59,131.599c.092.661.497,1.241.971,1.705l-.021.272-1.693-1.953.744-.024Z"/>
    <path class="cls-4" d="M82.479,134.745c-.331.023-.634-.155-.711-.491l.554.042c.138.01.199.293.157.45Z"/>
    <g>
      <path class="cls-2" d="M70.249,113.917l.021.95c-.747.153-2.126.934-2.136,1.85.246,1.369.243,2.584-.839,3.609-.518.491-.242,1.685-.789,1.919-.62.266-.709-3.445-.238-6.065-1.039.161-.97,1.014-1.104,1.742l-.673,3.656c-.078.424.045.881-.164,1.191-.475-.215-.486-.653-.578-1.213-.296-1.805-.438-3.746.357-5.411.505-1.058,1.786-1.071,2.758-1.325,1.218-.318,2.25-.754,3.384-.903Z"/>
      <path class="cls-10" d="M70.493,115.825c-.195.044-.396.318-.533.427-.456.091-.515.545-.676.971-.64,1.7-.759,4.485-.043,5.85.268.511.054,1.343.151,1.82l-3.649-1.223c-.617-.207-1.261-.298-1.415-.902.209-.31.086-.767.164-1.191l.673-3.656c.134-.728.065-1.58,1.104-1.742-.471,2.62-.381,6.331.238,6.065.546-.234.271-1.428.789-1.919,1.082-1.025,1.085-2.24.839-3.609.011-.916,1.389-1.697,2.136-1.85.188.279.231.62.223.958Z"/>
      <path class="cls-16" d="M73.568,112.464c.049.131.133.349.272.402.077.583-.097,1.133-.272,1.675-.716-.069-1.329.3-1.533,1.125-.561.206-1.068.134-1.541.159.008-.338-.035-.679-.223-.958l-.021-.95c.967-.798,1.778-1.901,1.929-3.156.425.581.778,1.321,1.39,1.703Z"/>
      <path class="cls-14" d="M69.96,116.252c-.373.562.231,1.227.211,1.673l-.291,6.437c-.012.26-.148.445-.315.535-.051.003-.119.014-.172-.004-.097-.476.117-1.309-.151-1.82-.716-1.365-.597-4.15.043-5.85.16-.426.219-.88.676-.971Z"/>
      <path class="cls-2" d="M73.567,114.541c.023.088.032.226.021.308l-.494,1.599c-.335,1.085-1.336,1.562-2.398,1.533l-.525-.056c.02-.446-.584-1.111-.211-1.673.137-.108.338-.383.533-.427.473-.024.98.047,1.541-.159.204-.825.817-1.194,1.533-1.125Z"/>
      <path class="cls-10" d="M74.051,115.059l.057,1.966c.019.565-.261,1.34-.816,1.557-.545.213-1.164.05-1.675.112-.233-.195-.781-.296-.921-.713,1.062.03,2.062-.448,2.398-1.533l.494-1.599c.193.02.341.108.463.21Z"/>
      <path class="cls-13" d="M73.176,120.646l-.149.247c.08.66-.443,1.099-.835,1.579-.329.02-.724-.147-.86-.436-.278-.591.314-1.609.974-1.631.323-.011.615.104.87.242Z"/>
      <path class="cls-7" d="M72.162,122.796c.018-.083.04-.219.03-.325.392-.48.915-.919.835-1.579.157-.042.446,0,.516.126.192.346.084,1.307-.449,1.588-.294.155-.621.189-.932.189Z"/>
      <g>
        <path class="cls-13" d="M86.036,99.547c.414.394.69.944,1.239,1.141-.008.084-.01.158.007.217.056.187.101.428.22.583-.117-.026-.26-.061-.339-.039-.168.048-.266.227-.338.472l-.413,1.418c-.58-.176-1.245-.451-1.737-.176-.04-.439-.326-.598-.741-.679-.317-.061-.62.063-.96.15-.298.076-.913-.138-1.252.21-.292.3-.231.919-.214,1.288-.496-.276-1.108.249-1.514.524l-1.885,1.277c-.497.009-1.454-.465-1.858.055-.287.045-.879-.036-1.142.289-.469.579-.182,1.38.191,1.885-1.278.564-2.071,1.336-1.599,2.365.078.17.34.235.556.274l.55,1.133c-.399.356-.832.441-1.239.531-.612-.382-.965-1.122-1.39-1.703-.67-.918-.89-2.045-1.1-3.255-.48-2.765.629-5.442,2.933-7.28-.554-.427-1.012-.712-1.09-1.143-.083-.457.202-1.064.678-1.256,1.322-.536,1.078-1.458,1.707-1.819.735-.422,2.238.238,2.896,1.506l3.566.079c1.644.036,3.165.906,4.268,1.955Z"/>
        <path class="cls-7" d="M87.502,101.488c.723.937.998,2.175,1.235,3.325l-.011.628c-.082,4.807-6.331,7.924-10.976,8.625l-.541-.127-2.213-.275c-.342-.331-.726-.632-1.158-.798-.139-.054-.223-.271-.272-.402.407-.09.84-.174,1.239-.531l-.55-1.133c.828-.058,1.8-.511,2.009-1.474l-.499-1.199c.355.02.754-.075.948-.362.374-.555.144-1.199-.463-1.776.404-.52,1.361-.046,1.858-.055l1.885-1.277c.406-.275,1.018-.8,1.514-.524.499.691,1.383.72,2.165.331-.007.209.089.515.253.665.215.196,1.98-.048,2.487-1.789l.413-1.418c.071-.245.169-.424.338-.472.079-.022.222.013.339.039Z"/>
        <path class="cls-5" d="M75.766,108.127l.499,1.199c-.208.963-1.181,1.416-2.009,1.474-.216-.039-.478-.104-.556-.274-.471-1.029.322-1.801,1.599-2.365.124-.055.331-.042.466-.034Z"/>
        <path class="cls-5" d="M86.412,103.34c-.507,1.741-2.272,1.985-2.487,1.789-.164-.149-.26-.456-.253-.665l.026-.754.976-.545c.492-.275,1.157,0,1.737.176Z"/>
        <path class="cls-1" d="M82.974,102.635l.725,1.074-.026.754c-.782.389-1.666.361-2.165-.331-.016-.369-.078-.988.214-1.288.339-.348.954-.134,1.252-.21Z"/>
        <path class="cls-1" d="M76.252,105.989c.607.577.837,1.222.463,1.776-.194.287-.593.383-.948.362-.135-.008-.342-.02-.466.034-.373-.504-.66-1.306-.191-1.885.263-.325.855-.243,1.142-.289Z"/>
        <path class="cls-7" d="M84.675,103.164l-.976.545-.725-1.074c.34-.086.643-.211.96-.15.415.08.701.24.741.679Z"/>
      </g>
      <path class="cls-6" d="M74.997,113.665c.7.676,1.022,1.492.532,2.035-.136.15-.412.248-.643.055l-.834-.696c-.122-.102-.27-.19-.463-.21.011-.082.002-.22-.021-.308.175-.542.349-1.092.272-1.675.431.166.815.467,1.158.798Z"/>
      <g>
        <path class="cls-14" d="M74.808,135.895l-4.454,3.765c-2.604,2.198-4.935,4.674-7.717,3.482.213-.669,1.643-.355,1.404-1.181-.089-.306-.393-.575-.53-.746.522-.04,1.328.235,1.902-.07.606-.322.954-1.293,1.011-1.89.426.113.768.433,1.003,1.088l1.464-1.044c-.424-.439-.691-.778-.848-1.182.397.019,1.018.075,1.338-.26.226-.237.439-.903.275-1.197.463-.005.991.095,1.449-.121.419-.198.597-.731.568-1.165-.019-.278-.264-.577-.459-.863l1.056.601c.598.362,1.254-.299,1.632-.828.293.503.779,1.055.908,1.612Z"/>
        <path class="cls-2" d="M71.945,131.132c-.477,0-.981.186-1.341.502-.408.357-.408.926-.308,1.418-.314-.005-.565-.082-1.023.09.269.27.309.977-.011,1.052-.529.125-1.054.222-1.391.26l-1.161.131c-.271.031-.388.552-.555.807-.78.399-1.745.928-2.134,1.728-.649-.048-.847.384-1.221.67-.394.302-.87.395-1.196,1.054l-1.017,1.871c-1.105-2.944,2.718-4.932,5.444-6.825l4.958-3.443c.294-.204.497-.391.596-.698.498.293.372.963.36,1.383Z"/>
        <path class="cls-10" d="M62.799,137.791l-.178,1.31c-.174.929.184,1.745.889,2.115.137.171.441.44.53.746.24.826-1.191.512-1.404,1.181-1.087-.466-1.651-1.361-2.05-2.426l1.017-1.871c.326-.659.802-.752,1.196-1.054Z"/>
        <path class="cls-4" d="M73.9,134.283c-.378.53-1.034,1.19-1.632.828l-1.056-.601.042-.278c.58.02.949-.589.874-1.218l-.193-1.62c.561.191.75.806,1.05,1.322l.913,1.567Z"/>
        <path class="cls-3" d="M71.945,131.132l-.007.262.193,1.62c.075.629-.294,1.238-.874,1.218l-.763-.672c-.099-.113-.166-.353-.197-.508-.1-.492-.1-1.06.308-1.418.361-.316.865-.502,1.341-.502Z"/>
        <path class="cls-12" d="M64.02,137.121c.393.029.642.05.988.273l-.553,1.654,1.496-.246c.209.041.415.262.472.453-.057.597-.405,1.568-1.011,1.89-.574.305-1.38.031-1.902.07-.706-.37-1.063-1.186-.889-2.115l.178-1.31c.374-.286.572-.718,1.221-.67Z"/>
        <path class="cls-10" d="M66.154,135.392c.045.899.531,1.742,1.222,2.241l.667.482c.157.405.424.743.848,1.182l-1.464,1.044c-.235-.655-.577-.975-1.003-1.088-.057-.191-.263-.412-.472-.453.019-.613-.436-1.083-.942-1.408-.347-.223-.595-.244-.988-.273.388-.8,1.353-1.329,2.134-1.728Z"/>
        <path class="cls-7" d="M69.245,135.928l.409.731c.165.294-.048.96-.275,1.197-.319.335-.941.279-1.338.26l-.667-.482c.638-.828.908-1.68.718-2.69.49.115.91.553,1.152.984Z"/>
        <path class="cls-12" d="M71.255,134.232l-.042.278c.194.286.44.585.459.863.029.434-.15.967-.568,1.165-.458.217-.986.117-1.449.121l-.409-.731c.704-.042,1.307-.62,1.275-1.421l-.028-.947.763.672Z"/>
        <path class="cls-13" d="M67.87,134.454c.166.172.194.33.224.49.19,1.009-.081,1.862-.718,2.69-.691-.499-1.177-1.342-1.222-2.241.167-.255.284-.776.555-.807l1.161-.131Z"/>
        <path class="cls-5" d="M70.295,133.052c.031.155.098.395.197.508l.028.947c.032.802-.571,1.379-1.275,1.421-.241-.431-.662-.869-1.152-.984-.03-.16-.058-.318-.224-.49.337-.038.862-.135,1.391-.26.32-.075.28-.783.011-1.052.458-.172.709-.095,1.023-.09Z"/>
        <path class="cls-14" d="M65.951,138.801l-1.496.246.553-1.654c.506.325.962.795.942,1.408Z"/>
      </g>
    </g>
    <path class="cls-3" d="M76.704,126.055c-.274-.846-.333-2.258-.25-3.227,1.785-.01,3.614-.307,5.476.335-1.291,1.427-2.736,2.331-4.252,3.188l-.975-.296Z"/>
    <path class="cls-9" d="M81.294,118.356c.043.379.062.89-.255,1.154-.253.211-.81.235-1.129-.048-.224-.199-.304-.675-.298-1.069l.82-.407c.307-.152.614.308.861.37Z"/>
    <path class="cls-9" d="M102.828,131.565c-.637-1.272-1.02-2.263-2.481-2.515.379-.763,1.071-.566,1.349-.969l1.269-1.842c.358,2.278,2.291,2.187,2.295,2.634.004.494-1.641.194-2.433,2.692Z"/>
  </g>
  <g>
    <path class="cls-5" d="M164.044,106.239c1.714,1.409,2.666,3.825,4.045,5.703l1.425,1.941.203.271-.005.189c-.235.045-.202.302.042.267l-.002.478c-.132.142-.19.325-.126.549-.775-.199-.427.802-.664,1.046-.909.891-1.084,2.273-.603,3.541.227.599-.183,1.493.21,2.19.41.726-.087,1.817-.123,2.558-.101,2.072-1.486,3.835-1.546,4.043l-.631,2.219-1.084.32c-.206.061-.47-.083-.664-.139-.122-.383-.461-.596-.676-.943.505-.307,1.311-.755,1.276-1.51-.033-.733.328-1.363.395-2.012.119-1.155-.153-2.332.399-3.487.43-.899.087-1.928.17-2.762.138-1.377.156-2.272-.673-3.504-.157-.234-.437-1.089-.902-.572l-.625.632c-.398-1.76-1.152-3.412-2.117-4.912.184-.476-.099-.759-.327-1.151-.825-1.421-1.713-2.699-3.045-3.706-.915-.692-1.652-1.489-2.566-2.255l-3.154-1.082c-1.149-.748-2.295-.673-3.516-.916-2.203-.439-4.133-.494-6.302.305-.588.216-1.426.005-2.06.331-1.188.61-2.408.925-3.432,1.662-.978-2.375,1.853-1.034,3.403-3.138l1.154.245c1.258-.644,2.527-1.323,3.962-1.585,1.477-.27,2.947.504,4.293.954,1.163.389,2.278.416,3.379,1.039.282.16.981.025,1.314.052,1.078.886,2.293,1.242,3.51,1.804,1.881.869,1.944-.76,2.741-.257.333.21.431,1.691,2.923,1.594Z"/>
    <path class="cls-11" d="M135.488,134.224c.089.104.313.226.424.314-.11.664.898,1.339,1.751,1.396,2.209,1.426,4.682,2.265,7.256,2.867-.093.288-.181.788.083,1.026.673.606,1.648.571,2.484.211.606.537,1.345.606,2.003.066,1.479.002,2.773-.658,4.142-1.053.806-.232,1.345-.385,2.013-.994.219-.2.457.369.306.5-.076.066-.104.302-.104.409l-2.739,1.618c-.167.098-1.556.122-3.204,1.331-.258.028-.529.026-.745.141.011-.321-.143-.872-.495-.886-.522-.021-.969.166-1.463.279-.58-.522-1.304-.612-1.988-.289-.452.213-.86-.315-1.127-.336l-2.287-.18c-1.181.156-2.026.245-3.121-.231l-2.133-.927c-1.957-.85-3.718-1.422-5.019-2.763l-1.507-1.553c-.494-.509-1.074-.925-1.736-.875-.916-1.366-1.786-2.742-2.334-4.432l-.821-2.531-.766-4.002c-.325-.087-.728-.139-.885-.343l.952-.021c.097.08.242.244.371.244.626-.002.537-.975,1.071-1.332.544-.363,2.415.584,2.705,1.064.81,1.343.536,4.344,1.835,5.83l1.036,1.185c.386.441.212,1.437.707,1.88.5.447,1.114.732,1.533,1.337.43.62,1.087,1.084,1.8,1.048Z"/>
    <path class="cls-11" d="M157.792,101.49c1.366.415,2.623,1.169,3.676,2.207l2.575,2.542c-2.492.097-2.589-1.384-2.923-1.594-.797-.503-.86,1.127-2.741.257-1.217-.562-2.431-.918-3.51-1.804-.333-.027-1.032.108-1.314-.052-1.101-.624-2.217-.651-3.379-1.039-1.346-.45-2.816-1.224-4.293-.954-1.435.262-2.704.941-3.962,1.585l-1.154-.245c-1.55,2.104-4.381.764-3.403,3.138-.521.375-1.249.68-1.636,1.202-1.859-.531-1.661.947-2.924,1.614-.881.465-1.448,2.351-1.435,3.014l.012.579c-.11-.018-.247.008-.324.063-.182.128-.127.387-.162.514l-.344,1.247c-1.441,2.045-1.047,3.323-2.337,2.514.093-.561-.114-1.238-.417-1.696l-.021-.506c.857-.318.472-1.447.795-2.048,1.307-2.432,2.842-4.854,5.077-6.404l4.652-3.227c.682-.473,1.603-.557,2.367-.535.894-.863,1.932-1.073,3.076-1.297,1.945-.382,4.642-.599,6.593-.395l2.181.228c2.155.225,3.315,1.616,5.273,1.094ZM136.69,104.677c-.53-.161-1.148.101-1.279.769.652-.008,1.257-.31,1.279-.769Z"/>
    <path class="cls-16" d="M157.792,101.49c-1.958.522-3.118-.869-5.273-1.094l-2.181-.228c-1.951-.204-4.648.014-6.593.395-1.144.224-2.183.434-3.076,1.297-.764-.021-1.685.062-2.367.535l-4.652,3.227c-2.235,1.551-3.771,3.972-5.077,6.404-.323.601.063,1.73-.795,2.048-.264-.36-.645-.556-.978-.701-.193-.135-.34-.581-.707-.62,1.122-2.164,2.229-4.355,3.924-6.225,6.769-7.468,17.163-9.881,26.501-5.794.535.234,1.021.306,1.274.756Z"/>
    <path class="cls-12" d="M162.323,138.079l.026.522c-6.476,6.225-17.482,7.6-25.747,3.188,1.203-.54,1.641-.14,2.86.07l3.158.544.945-.149c.215.392.46.848.87,1.102,1.659-.208,3.329-.557,4.725-1.299.216-.115.487-.114.745-.141.226.248.666.905,1.127.752l3.45-1.145,2.099-1.487.499-.004c.581-.005,1.195-.384,1.137-1.006-.011-.117-.074-.283-.047-.398.204.063.66.282.858.165.302-.178.378-.685.424-.98.964.194,1.917.368,2.871.269Z"/>
    <path class="cls-10" d="M173.883,116.386c-.196.928.135,1.811.096,2.796l-.134,3.406c-.007.178.353.218.372-.016l.043-.521c.11-1.353.266-2.549.088-3.882l-.24-1.826c.532.282.996-.124,1.434-.483,1.078.818,1.002,3.48.732,5.45-.193,1.405-.844,1.982-2.237,2.435l-3.565,1.158c-.167-.717-.252-1.411-.258-2.149.189.102.864.049.919-.269l.689-3.973c-.19-.552-.681-1.271-.521-1.931.176-.725,1-1.352,1.766-1.261.507.061.891.699.815,1.063ZM173.706,123.237l-.12.12.12.12.12-.12-.12-.12Z"/>
    <path class="cls-6" d="M169.625,115.637c-.257.576.076,1.179.091,1.858l.077,3.563c.018.826.301,1.556.191,2.43-.076.613.042,1.223.238,1.681l-1.304,3.24-.438,1.791c-.188.312-.553.689-.709,1.178-.261.818-1.348,1.892-1.622,3.132-.603.207-.749.936-.956,1.356l-2.844,2.734-.026-.522c1.001-1.15,1.345-2.761.419-4.043l.286-.781c.53.271,1.358.515,1.862-.005.442-.455.35-1.182.294-1.697l1.084-.32.631-2.219c.059-.208,1.444-1.971,1.546-4.043.036-.74.533-1.831.123-2.558-.393-.696.017-1.591-.21-2.19-.481-1.268-.306-2.65.603-3.541.236-.244-.111-1.245.664-1.046Z"/>
    <path class="cls-5" d="M149.16,142.056c-1.396.743-3.066,1.092-4.725,1.299-.409-.254-.655-.71-.87-1.102l-.945.149-3.158-.544c-1.219-.21-1.657-.61-2.86-.07-3.43-1.831-6.125-4.222-8.318-7.492.662-.05,1.242.366,1.736.875l1.507,1.553c1.301,1.341,3.062,1.913,5.019,2.763l2.133.927c1.095.476,1.941.387,3.121.231l2.287.18c.266.021.675.549,1.127.336.684-.323,1.408-.233,1.988.289.494-.113.94-.301,1.463-.279.352.014.506.565.495.886Z"/>
    <path class="cls-14" d="M125.66,121.123c-.336.089-.655.321-1.206.227l-.025,1.618-.952.021-7.899-.034c.114-.601-.126-1.274-.226-1.858.603.014,1.139-.212,1.809-.305l2.954-.41,3.846.717,1.7.024Z"/>
    <path class="cls-2" d="M175.543,115.861c-.438.358-.902.765-1.434.483l-.226.042c.077-.364-.307-1.002-.815-1.063-.766-.092-1.591.535-1.766,1.261-.16.66.332,1.379.521,1.931l-.689,3.973c-.055.318-.73.371-.919.269l-.038-4.767-.426-2.9.002-.478-.042-.267.005-.189.032-.259,2.975.844,2.156.484c.369.083.526.448.664.638Z"/>
    <path class="cls-14" d="M170.215,122.755c.006.738.091,1.431.258,2.149l-.251.266c-.197-.459-.315-1.069-.238-1.681.109-.874-.174-1.604-.191-2.43l-.077-3.563c-.015-.679-.347-1.282-.091-1.858-.064-.224-.006-.407.126-.549l.426,2.9.038,4.767Z"/>
    <polygon class="cls-14" points="169.717 114.154 169.514 113.883 169.749 113.895 169.717 114.154"/>
    <path class="cls-16" d="M163.845,130.471c-1.197.729-1.773,2.801-3.221,3.773-.397.266-.689.525-.684.97-.62.011-1.002.609-1.207,1.147-.548.082-1.177.799-1.112,1.416.094.23.625.531.549.849-.028.115.036.281.047.398-.494.19-1.101.431-1.137,1.006l-.499.004c-.233-.317-.616-.671-.734-1.069,0-.108.028-.343.104-.409.151-.132-.087-.7-.306-.5-.668.609-1.207.762-2.013.994-1.369.394-2.664,1.054-4.142,1.053-.658.54-1.397.472-2.003-.066-.836.361-1.811.395-2.484-.211-.264-.238-.176-.737-.083-1.026l1.087-.041c5.346.405,10.429-1.699,13.967-5.611.534-.591.698-1.102,1.03-1.668.286-.488,1.036-.968,1.116-1.694.398-.09.511-.413.658-.826.539-1.51,1.174-2.938,1.402-4.561.341-2.437.22-4.863-.296-7.145l.625-.632c.465-.517.745.338.902.572.83,1.232.811,2.128.673,3.504-.083.834.26,1.863-.17,2.762-.552,1.155-.28,2.332-.399,3.487-.067.65-.428,1.279-.395,2.012.034.755-.772,1.202-1.276,1.51Z"/>
    <path class="cls-6" d="M161.767,112.344c-1.17-1.818-2.671-3.33-4.37-4.803l-1.328-.813c.03-.522-.463-.717-.919-.75l-.158-.011c-.069-.39-.403-.578-.851-.71l-4.757-1.409c-1.516-.449-3.041-.36-4.569-.033l-4.582.979c-.933.199-1.871.835-2.611,1.428l-1.732,1.389c-.459.369-.765.912-1.42.817l1.258-1.693c.388-.522,1.115-.826,1.636-1.202,1.024-.738,2.245-1.052,3.432-1.662.633-.325,1.472-.114,2.06-.331,2.17-.798,4.099-.744,6.302-.305,1.221.243,2.367.168,3.516.916l3.154,1.082c.914.766,1.651,1.563,2.566,2.255,1.332,1.007,2.22,2.285,3.045,3.706.228.392.51.676.327,1.151Z"/>
    <path class="cls-14" d="M154.992,105.966l.158.011c-.056.246.053.478.269.546l.65.204,1.328.813c1.699,1.474,3.199,2.985,4.37,4.803.965,1.5,1.719,3.151,2.117,4.912.516,2.282.638,4.708.296,7.145-.227,1.622-.863,3.051-1.402,4.561-.147.413-.261.736-.658.826.093-.848.631-1.349.698-2.936l.021-.506c.816-.951.742-2.282.677-3.476.115-.176.279-.377.257-.576l-.209-1.915c-.15-1.378-.287-2.468-.685-3.669l-.466-1.408-.774-2.213-1.458-2.124-1.29-1.32c-3.444-3.524-8.185-4.996-13.143-4.631-6.504.478-12.346,5.19-14.061,11.152l-.582,2.025c-.281.975-.07,1.887.282,3.015-.17.529-.852,1.207-.578,1.829.03.067.017.182.023.253l.134,1.582.689,3.138c-.078-.004-.219.015-.315.11.078-.432-.19-.745-.305-1.16l-.785-2.779.016-.5c-1.057-9.189,5.459-18.057,15.031-19.086l4.534.015c1.683.005,3.765,1.261,5.161,1.362Z"/>
    <path class="cls-11" d="M163.845,130.471c.215.347.554.56.676.943-.503-.144-1.359-.07-1.401.535l-.091,1.306-.286.781c-1.574-.224-1.496.81-1.877,1.084-.299.215-.632.089-.925.094-.005-.446.287-.704.684-.97,1.448-.972,2.024-3.044,3.221-3.773Z"/>
    <path class="cls-3" d="M164.52,131.414c.194.056.458.2.664.139.056.515.148,1.241-.294,1.697-.505.52-1.332.276-1.862.005l.091-1.306c.042-.605.898-.679,1.401-.535Z"/>
    <path class="cls-14" d="M169.753,114.61c-.244.036-.276-.221-.042-.267l.042.267Z"/>
    <path class="cls-6" d="M133.564,109.297l-.565,1.443-1.718,2.546-1.205,3.593c-.449,1.339-.442,2.357-.476,3.77l-.06,2.49c-.007.274.195.481.33.541.132.059.306.028.397-.006l-.016.5c-.454.228-.176.629-.152,1.017.075,1.193.243,2.368,1.242,2.921.096-.095.238-.114.315-.11.05.252-.028.488.123.837.887,2.04,2.326,3.773,3.709,5.382-.713.035-1.37-.429-1.8-1.048-.419-.605-1.033-.89-1.533-1.337-.495-.443-.321-1.438-.707-1.88l-1.036-1.185c-1.299-1.486-1.025-4.488-1.835-5.83-.29-.48-2.161-1.427-2.705-1.064-.534.357-.445,1.33-1.071,1.332-.128,0-.274-.164-.371-.244l.025-1.618c.551.094.87-.137,1.206-.227,1.225-.325,2.004-1.511,2.226-2.852l.33-1.994c1.29.809.896-.469,2.337-2.514l.344-1.247c.201.019.392-.073.449-.217.049-.124.039-.255.037-.359l-.012-.579c.758-.206.749-1.597,2.193-2.064Z"/>
    <path class="cls-4" d="M158.721,130.172l.269.06c.835.187,1.165,1.132,2.014,1.25-.332.566-.496,1.077-1.03,1.668-3.538,3.912-8.621,6.015-13.967,5.611l-1.087.041c-2.574-.602-5.047-1.441-7.256-2.867l-1.751-1.396c-.111-.088-.335-.21-.424-.314-1.384-1.608-2.823-3.341-3.709-5.382-.152-.349-.073-.585-.123-.837.263.013.365.12.516.458,4.064,9.151,14.879,12.763,23.598,7.446,1.473-.898,4.191-3.422,4.186-3.926-.007-.768-1.387-.896-1.233-1.812Z"/>
    <path class="cls-5" d="M155.847,138.966c.117.398.501.752.734,1.069l-2.099,1.487-3.45,1.145c-.46.153-.901-.504-1.127-.752,1.648-1.21,3.037-1.234,3.204-1.331l2.739-1.618Z"/>
    <path class="cls-6" d="M137.663,135.934c-.853-.057-1.861-.732-1.751-1.396l1.751,1.396Z"/>
    <path class="cls-5" d="M135.729,106.733l-1.258,1.693c-.233.313-.522.746-.907.871-1.444.467-1.435,1.858-2.193,2.064-.013-.663.553-2.548,1.435-3.014,1.263-.667,1.065-2.145,2.924-1.614Z"/>
    <path class="cls-5" d="M136.69,104.677c-.022.459-.627.761-1.279.769.132-.668.749-.93,1.279-.769Z"/>
    <path class="cls-5" d="M131.383,111.94c.002.104.012.235-.037.359-.057.144-.247.236-.449.217.035-.126-.02-.386.162-.514.077-.054.214-.081.324-.063Z"/>
    <g>
      <path class="cls-14" d="M172.12,132.827c.177.625.564.791,1.025,1.646-.243-.039-.889-.126-1.087.147l-1.22,1.685c-.313.432-.525.918-.272,1.329.231.375.769.589,1.303.425.749-.23,2.214-1.814,1.893-2.858.574.485.822,1.23.983,1.928.223.966-.223,1.778-1.228,2.12-.245.253-.282,1.073-.065,1.452,1.01.702,2.655.848,3.672-.021.415-.354.335-1.169.258-1.573,1.397.878-.604,3.158,1.065,3.117-.9,1.235-2.669,1.82-4.238.949-1.669-.925-3.082-2.279-4.558-3.524l-4.458-3.784c.207-.42.353-1.148.956-1.356.374.221.823.816,1.458.629,1.02-.3,2.318-1.75,2.171-2.753-.133-.904-1.417-1.161-2.007-1.008.156-.489.521-.866.709-1.178.944.325,1.571.983,2.37,1.533.483.332,1.118.56,1.269,1.093ZM169.826,136.589c.973-.445,1.838-1.512,1.857-2.554.015-.808-.832-1.337-1.401-1.665.113,1.851-1.231,2.423-1.812,3.824.287.298.822.639,1.357.395Z"/>
      <path class="cls-10" d="M178.448,142.225c-1.669.041.332-2.239-1.065-3.117-.127-.662-.254-1.377-.777-1.745-.565-.397-1.253-.479-1.86-.235-.161-.698-.409-1.443-.983-1.928-.225-.19-.477-.466-.618-.728-.461-.855-.848-1.022-1.025-1.646.666.054,1.091.618,1.67,1.002,3.198,2.126,6.786,3.981,5.456,7.246-.236.58-.522.772-.797,1.15Z"/>
      <path class="cls-12" d="M177.383,139.108c.078.404.157,1.218-.258,1.573-1.017.868-2.662.723-3.672.021-.217-.38-.18-1.2.065-1.452,1.005-.342,1.451-1.155,1.228-2.12.607-.244,1.296-.162,1.86.235.523.368.65,1.083.777,1.745Z"/>
      <path class="cls-7" d="M166.149,134.511c.274-1.239,1.361-2.314,1.622-3.132.589-.153,1.874.104,2.007,1.008.147,1.002-1.151,2.452-2.171,2.753-.635.187-1.083-.408-1.458-.629Z"/>
      <path class="cls-4" d="M173.145,134.473c.141.261.392.537.618.728.321,1.044-1.144,2.628-1.893,2.858-.534.164-1.072-.05-1.303-.425-.253-.41-.04-.897.272-1.329l1.22-1.685c.198-.273.844-.186,1.087-.147Z"/>
      <path class="cls-12" d="M169.826,136.589c-.535.244-1.07-.096-1.357-.395.581-1.4,1.925-1.973,1.812-3.824.569.328,1.416.857,1.401,1.665-.019,1.041-.883,2.109-1.857,2.554Z"/>
    </g>
    <path class="cls-3" d="M162.742,134.036c.926,1.282.582,2.893-.419,4.043-.954.099-1.907-.075-2.871-.269.012-.076.014-.162-.001-.232-.026-.122-.136-.21-.259-.222l-.458-.995c.205-.538.586-1.136,1.207-1.147.293-.005.626.121.925-.094.381-.274.303-1.308,1.877-1.084Z"/>
    <path class="cls-5" d="M158.733,136.36l.458.995c.072.09.16.165.259.222.015.07.013.156.001.232-.046.296-.122.802-.424.98-.198.117-.654-.102-.858-.165.076-.318-.455-.619-.549-.849-.064-.616.564-1.334,1.112-1.416Z"/>
    <path class="cls-5" d="M158.217,139.024c.058.623-.556,1.001-1.137,1.006.037-.576.643-.817,1.137-1.006Z"/>
    <path class="cls-14" d="M173.883,116.386l.226-.042.24,1.826c.178,1.333.022,2.528-.088,3.882l-.043.521c-.019.233-.379.193-.372.016l.134-3.406c.039-.985-.292-1.868-.096-2.796Z"/>
    <rect class="cls-14" x="173.622" y="123.272" width=".17" height=".17" transform="translate(-36.349 158.959) rotate(-45)"/>
    <g>
      <path class="cls-8" d="M126.094,112.753c.367.039.514.486.707.62-.668.267-1.491.569-2.167.515-1.777-.143-1.993.103-3.607,1.179-.594-.413-1.53-.016-2.087-.14-1.25-.278-2.717-2.092-4.034-.534-1.395-.225-1.138,1.522-2.963,1.706.007-.507-.054-1.03.146-1.544.263-.677,1.035-1.635,1.829-1.752l3.397-.499,2.331-.294,4.035.483,2.414.259Z"/>
      <path class="cls-4" d="M128.216,116.277l-.33,1.994c-.222,1.341-1.001,2.527-2.226,2.852l-1.7-.024-3.846-.717-2.954.41c-.67.093-1.207.319-1.809.305l-.974-.023-.519-.01-.493-.017-.263-.898c1.648-.147,1.93-1.076,2.214-.992,1.282.382,2.512-.216,3.386-1.177l.662-.003c.772.61,1.288-.217,2.196.293l2.049,1.151c.566.318,1.546.7,2.071.068.442-.533.097-1.426.191-1.974.141-.824.336-1.37.004-2.023l.874.61c.484-.376.944-.941,1.05-1.521.303.459.51,1.135.417,1.696Z"/>
      <path class="cls-3" d="M114.905,114.393c-.2.364-.292.811-.208,1.313.263,1.57-.425,2.811.618,3.188l.002.263c-.284-.085-.566.844-2.214.992-1.054-.606-1.182-2.46-1.161-4.05,1.825-.184,1.568-1.931,2.963-1.706Z"/>
      <path class="cls-3" d="M127.778,114.075l.021.506c-.106.58-.566,1.145-1.05,1.521l-.874-.61c-.21-.147-.405-.425-.647-.511-.093-.383-.239-.806-.594-1.093.676.054,1.499-.247,2.167-.515.333.146.714.341.978.701Z"/>
      <path class="cls-9" d="M124.633,113.888c.356.286.502.71.594,1.093l.014,2.897c.002.955-.834,1.588-1.633,1.543l-2.049-1.151c-.036-1.483.716-2.466-.399-2.414-.28,1.705-1.68,1.224-1.797,2.121l-.662.003c-.009-.113-.044-.251-.1-.33-.292-.412-1.355-.067-2.285.835-.266.258-.736.306-1.003.41-1.044-.377-.355-1.618-.618-3.188-.084-.502.008-.949.208-1.313,1.317-1.559,2.784.255,4.034.534.557.124,1.494-.273,2.087.14,1.614-1.076,1.83-1.322,3.607-1.179Z"/>
      <path class="cls-15" d="M125.875,115.492c.333.653.137,1.2-.004,2.023-.093.548.252,1.441-.191,1.974-.525.632-1.506.249-2.071-.068.799.045,1.635-.588,1.633-1.543l-.014-2.897c.242.086.437.364.647.511Z"/>
      <path class="cls-16" d="M121.561,118.27c-.908-.51-1.424.317-2.196-.293.117-.897,1.517-.416,1.797-2.121,1.115-.052.362.931.399,2.414Z"/>
      <path class="cls-16" d="M118.703,117.98c-.874.961-2.104,1.558-3.386,1.177l-.002-.263c.267-.103.737-.152,1.003-.41.93-.901,1.993-1.246,2.285-.835.056.079.091.217.1.33Z"/>
    </g>
    <path class="cls-1" d="M160.456,125.878l.199-.032c.058.718,1.027,1.391,1.654,1.061.161-.085.354-.064.509-.056-.067,1.587-.605,2.088-.698,2.936-.08.726-.831,1.206-1.116,1.694-.849-.118-1.179-1.063-2.014-1.25.071-1.736,1.725-1.402,1.533-2.176-.803-.171-1.53-.763-1.548-1.776-.072-.013-.402-.019-.515.018-.062.953-.675,1.495-1.43,1.796l-.51.203c-.315-.87-1.227-1.314-2.068-1.76l-2.678-1.419c-.914-.484-1.896-1.096-2.881-.681l-.964-.463c-.731-.351-1.603-.524-2.41-.485l-.469.023c-.297-.445-1.058-.392-1.432-.037h-.483c.037-.092.054-.283-.015-.348-.249-.233-1.394-.279-1.689.16-.234-.12-.658-.044-.923-.032.093-.141.004-.492-.226-.466-1.329.154-2.323-.195-3.607-.58-.222-.066-.648.101-.66-.344-.036-1.417,4.655-1.179,5.588-1.577.823-.351,1.21.207,1.769.218,1.771.035,3.276.19,4.96.624l3.418.881,3.091,1.254c1.361.552,2.922.578,3.913,1.885.42.553,1.026.837,1.702.728Z"/>
    <path class="cls-12" d="M154.992,105.966c-1.396-.101-3.477-1.356-5.161-1.362l-4.534-.015c-9.571,1.03-16.088,9.897-15.031,19.086-.091.033-.266.064-.397.006-.135-.06-.336-.267-.33-.541l.06-2.49c.034-1.413.027-2.432.476-3.77l1.205-3.593,1.718-2.546.565-1.443c.385-.125.674-.557.907-.871.655.095.96-.448,1.42-.817l1.732-1.389c.74-.594,1.678-1.229,2.611-1.428l4.582-.979c1.529-.327,3.053-.416,4.569.033l4.757,1.409c.448.133.782.32.851.71Z"/>
    <path class="cls-12" d="M156.069,106.727l-.65-.204c-.216-.068-.325-.301-.269-.546.456.033.949.228.919.75Z"/>
    <path class="cls-3" d="M162.414,115.301c-.63.543-1.26.623-2.034.644l-3.333.091c-1.102.03-2.065.229-3.119.247l-4.294.071c-.974.016-1.896.295-2.899.183-.857-.096-1.608.181-2.418.195l-5.466.096c-.357.006-.813.351-1.085-.072.249-.731,1.01-1.074,1.777-1.357-.086-.975-1.781-.557-2.247-2.69-.16-.151-.606.131-.643.46-.179,1.602-1.821,1.349-1.908,1.806-.134.708,1.767.634,1.942,2.207-.613.168-1.285-.196-1.98-.14l-2.643.214c-.298-.064-.302-.817-.378-1.091,1.715-5.962,7.557-10.674,14.061-11.152,4.958-.365,9.699,1.107,13.143,4.631l1.29,1.32,1.458,2.124.774,2.213ZM140.832,112.464l1.216-1.431c-.469-.505-.828-.803-1.195-1.488-.22.56-.424,1.038-1.073,1.267-.042.036-.104.205-.164.508.562.088.962.44,1.216,1.145Z"/>
    <path class="cls-15" d="M162.88,116.709c.398,1.201.535,2.292.685,3.669l.209,1.915c-.996-.417-2.061-.254-3.195-.1-1.11.151-2.165.052-3.178.773l2.189,2.042c.339.316.795.435.866.87-.677.108-1.283-.175-1.702-.728-.991-1.306-2.552-1.333-3.913-1.885l-3.091-1.254-3.418-.881c-1.683-.434-3.188-.588-4.96-.624-.559-.011-.947-.569-1.769-.218-.932.398-5.624.16-5.588,1.577.011.445.438.277.66.344,1.285.384,2.279.733,3.607.58.231-.027.319.324.226.466-.571.027-1.151-.09-1.695.166-.118.055-.326.047-.463.046.026-.103.023-.263-.027-.335-.053-.076-.263-.192-.444-.173-2.793.283-5.177-.58-7.071.076-.274-.622.408-1.3.578-1.829-.352-1.127-.563-2.039-.282-3.015.23.182.449.617.782.688,1.562.12,1.804,1.304,2.412,1.124.166-.049.329-.413.505-.527,1.327-.865,3.829.025,6.069-.358.735-.842,1.458-.857,2.45-1.042.757-.141,1.373-.316,2.218-.368l6.079-.376c2.877-.178,5.629-.393,8.54-.317.973.025,1.877.062,2.72-.304ZM161.989,120.727c.377-.214.405-1.006.223-1.305-.168-.277-.724-.63-1.19-.641l-2.252-.056c-3.058.553-4.884-.555-7.537.663.272.994,1.111,1.365,1.877,1.788l3.314,1.83c1.929-1.512,4.153-1.477,5.565-2.278Z"/>
    <path class="cls-4" d="M162.88,116.709c-.843.367-1.747.33-2.72.304-2.912-.076-5.664.139-8.54.317l-6.079.376c-.846.052-1.461.227-2.218.368-.992.185-1.715.2-2.45,1.042-2.24.383-4.742-.507-6.069.358-.176.115-.339.478-.505.527-.608.179-.85-1.005-2.412-1.124-.334-.071-.553-.506-.782-.688l.582-2.025c.076.274.08,1.027.378,1.091l2.643-.214c.696-.056,1.368.308,1.98.14-.022.199.354.687.595.428.195-.21.408-.632.484-.854.272.422.728.078,1.085.072l5.466-.096c.81-.014,1.561-.291,2.418-.195,1.003.112,1.925-.167,2.899-.183l4.294-.071c1.054-.017,2.017-.216,3.119-.247l3.333-.091c.774-.021,1.404-.101,2.034-.644l.466,1.408Z"/>
    <path class="cls-3" d="M163.517,122.869c.065,1.195.14,2.525-.677,3.476-.919-.235-1.658-.828-2.481-1.391-.687-.469-1.456-.839-1.8-1.809,1.692-.563,3.355-.416,4.958-.277Z"/>
    <path class="cls-4" d="M163.774,122.294c.022.199-.142.399-.257.576-1.603-.139-3.266-.286-4.958.277.343.97,1.113,1.339,1.8,1.809.824.563,1.562,1.155,2.481,1.391l-.021.506c-.155-.008-.347-.029-.509.056-.46-.478-1.022-.951-1.654-1.061l-.199.032c-.071-.435-.527-.554-.866-.87l-2.189-2.042c1.014-.721,2.069-.622,3.178-.773,1.133-.154,2.199-.317,3.195.1Z"/>
    <path class="cls-12" d="M131.34,128.115c-.998-.554-1.167-1.728-1.242-2.921-.024-.388-.303-.79.152-1.017l.785,2.779c.115.415.383.728.305,1.16Z"/>
    <path class="cls-8" d="M138.351,123.466c.137.002.345.01.463-.046.15.506.834.242,1.157.272l2.943.277,4.543.692,4.048,1.235c.088-.056.217-.048.299-.045-.058.369.16.481.515.674l3.217,1.743c.081-.02.228-.04.298-.033.014.689.621.901,1.226,1.245.497.282.838.844,1.433.703.062-.015.159-.025.228-.01-.154.915,1.226,1.044,1.233,1.812.005.504-2.713,3.028-4.186,3.926-8.719,5.317-19.534,1.705-23.598-7.446-.15-.339-.253-.445-.516-.458l-.689-3.138-.134-1.582c.953-.227,1.926.1,2.973.115l4.546.065ZM156.33,132.043c0-.452-.367-.819-.819-.819s-.819.367-.819.819.367.819.819.819.819-.367.819-.819Z"/>
    <path class="cls-2" d="M158.99,130.232l-.269-.06c-.069-.015-.165-.005-.228.01-.109-1.275-1.547-1.006-1.464-2.089.754-.3,1.368-.842,1.43-1.796.113-.037.443-.031.515-.018.017,1.014.745,1.606,1.548,1.776.192.775-1.461.441-1.533,2.176Z"/>
    <path class="cls-12" d="M159.451,137.577c-.099-.057-.187-.132-.259-.222.123.012.234.1.259.222Z"/>
    <path class="cls-4" d="M140.509,123.255c.265-.012.689-.088.923.032.534.273,1.111.185,1.703.186h.483c.317.432,1.034.341,1.432.038l.469-.023c-.14.507,1.626.904,2.41.485l.964.463c1.546.743,2.761.93,2.612,1.459l-4.048-1.235-4.543-.692-2.943-.277c-.324-.03-1.007.233-1.157-.272.544-.255,1.123-.139,1.695-.166Z"/>
    <path class="cls-15" d="M156.52,128.296l-.685-.062c-.07-.006-.217.013-.298.033.086-.382-.092-.684-.519-.832-1.354-.467-2.184-1.555-3.213-1.585-.082-.002-.211-.011-.299.045.15-.529-1.065-.716-2.612-1.459.985-.415,1.967.196,2.881.681l2.678,1.419c.841.446,1.752.889,2.068,1.76Z"/>
    <path class="cls-4" d="M158.494,130.182c-.594.141-.936-.421-1.433-.703-.606-.344-1.212-.556-1.226-1.245l.685.062.51-.203c-.083,1.083,1.355.814,1.464,2.089Z"/>
    <path class="cls-15" d="M147.929,123.973c-.783.418-2.55.021-2.41-.485.807-.039,1.678.134,2.41.485Z"/>
    <path class="cls-15" d="M162.31,126.907c-.628.33-1.596-.344-1.654-1.061.633.111,1.194.583,1.654,1.061Z"/>
    <path class="cls-15" d="M143.135,123.472c-.592-.002-1.169.087-1.703-.186.295-.439,1.44-.393,1.689-.16.069.064.051.256.015.346Z"/>
    <path class="cls-15" d="M145.051,123.511c-.398.302-1.115.394-1.432-.037.374-.355,1.135-.408,1.432.037Z"/>
    <path class="cls-9" d="M137.766,116.756c-.076.222-.289.644-.484.854-.24.259-.617-.229-.595-.428-.175-1.573-2.076-1.499-1.942-2.207.086-.457,1.728-.204,1.908-1.806.037-.329.483-.611.643-.46.466,2.133,2.162,1.715,2.247,2.69-.767.282-1.528.626-1.777,1.357Z"/>
    <path class="cls-9" d="M140.832,112.464c-.254-.704-.654-1.057-1.216-1.145.06-.302.121-.472.164-.508.649-.229.852-.707,1.073-1.267.368.685.726.983,1.195,1.488l-1.216,1.431Z"/>
    <path class="cls-1" d="M161.989,120.727c-1.412.801-3.636.766-5.565,2.278l-3.314-1.83c-.766-.423-1.605-.794-1.877-1.788,2.654-1.218,4.479-.11,7.537-.663l2.252.056c.467.012,1.022.364,1.19.641.182.299.154,1.091-.223,1.305Z"/>
    <path class="cls-4" d="M138.351,123.466l-4.546-.065c-1.047-.015-2.02-.342-2.973-.115-.006-.071.007-.186-.023-.253,1.894-.656,4.278.207,7.071-.076.181-.018.391.097.444.173.05.072.054.233.027.335Z"/>
    <circle class="cls-9" cx="155.51" cy="132.043" r=".819"/>
    <path class="cls-4" d="M155.536,128.267l-3.217-1.743c-.356-.193-.573-.305-.515-.674,1.029.03,1.859,1.118,3.213,1.585.428.148.606.45.519.832Z"/>
  </g>
</svg>