<?xml version="1.0" encoding="UTF-8"?>
<svg id="_レイヤー_1" data-name="レイヤー 1" xmlns="http://www.w3.org/2000/svg" width="240" height="240" viewBox="0 0 240 240">
  <defs>
    <style>
      .cls-1 {
        fill: #b8dae6;
      }

      .cls-2 {
        fill: #7a5c8f;
      }

      .cls-3 {
        fill: #85afc7;
      }

      .cls-4 {
        fill: #cbaedb;
      }

      .cls-5 {
        fill: #b16894;
      }

      .cls-6 {
        fill: #eccfd6;
      }

      .cls-7 {
        fill: #c3dfea;
      }

      .cls-8 {
        fill: #a2becf;
      }

      .cls-9 {
        fill: #b0d5e3;
      }

      .cls-10 {
        fill: #a689bf;
      }

      .cls-11 {
        fill: #e1b2c1;
      }

      .cls-12 {
        fill: #a5cbdd;
      }

      .cls-13 {
        fill: #cd91a9;
      }

      .cls-14 {
        fill: #93bcd2;
      }

      .cls-15 {
        fill: #e7d086;
      }

      .cls-16 {
        fill: #b89bcf;
      }
    </style>
  </defs>
  <g>
    <path class="cls-4" d="M87.032,131.415l.041.909c-1.617.387-3.222.412-4.878-.31l-2.618,1.062c-.206.084-.716-.096-.894.145-.998,1.354-.009,2.353.318,3.302.194.564.186,1.141.919,1.149.731,1.356,2.198,3.246,3.602,3.782.069.519.523,1.184.98,1.578l1.037.366c.888,1.153,1.929,1.746,3.282,2.08l2.555,1.411c.648.358,1.473.214,2.153.513.943.416,1.654.255,2.648.035.509-.113,1.266.151,1.647-.268.256-.037.614-.011.876.035.062.161.16.398.124.609-.068.393-1.203.505-.746.941.089.085.17.138.418.202l3.665.937c.254.065.526.021.724-.11.162-.108.236-.416.17-.643l2.727.616,2.835.059c.694.014,1.382.011,1.91.275.247.123.472.383.964.252,1.375-.367,2.749.505,2.63-.472.624.006,1.159-.174,1.7-.183l4.536-.073c-.114.36.108.633.322.749.572.31,1.368.284,2.018.027.259-.102.407-.437.337-.785l1.637-.086c.028.241.177.342.471.349l3.573.075c.475.01.644-.091,1.101-.105l1.804-.057c.013.206.177.354.467.351l2.152-.029c.585-.501,1.243-.388,1.943-.489l4.587-.666c.367-.053.543-.288.539-.545l1.29.033c1.143.029,2.229-.488,3.217-.893l3.781-1.549c3.688-1.938,7.02-4.226,9.778-7.274l1.248.068c.122.818-.514,1.052-.878,1.551-.534.733-.807,1.912-1.622,2.414-.571.351-.88.62-1.335,1.106-.729.78-1.762,1.272-2.172,2.409-.505.095-1.108.098-1.424.417-.671,1.207-2.069-.292-2.836,1.547-.76.512-1.773.993-2.673,1.312l-2.499.886c-1.313.466-2.775,1.256-3.217,2.422l-1.041-.512c-.613.12-.981.03-1.557-.154-.201.792-.58,1.228-1.246,1.547-.285-.516-.278-.919-.276-1.478-.231-.11-.695-.134-.847.044l-1.393.979c-.555.707-.876.854-1.781,1.088-.427.11-.968.924-1.647.659-.727-.284-1.384-.141-1.967.48l-2.246.025c-.47.005-1.226.281-1.657.504-.885.459-1.547.11-2.404.28l-1.803.36c-.517.103-.666.036-1.003-.238-.355-.288-.048-.694-.12-1.021-.13-.593-1.171-.722-1.568-.669l.168.958c.031.179-.423.491-.647.407-.099-.151-.248-.701-.389-.678l-.738.123c-.158.026-.7-.683-.956-.383-.752.882-1.528,1.686-2.623,2.098-1.704-1.774-3.134.347-4.014.017-.231-.087-.421-.441-.595-.842l-2.771,1.685c-.161-.772-.582-1.474-1.356-1.616-.499-.092-.996.377-1.253.658-.565.617-.973.334-1.685.42l-1.821.22c-1.787-.57-4.092-.044-4.246.179-.125.182-.115.482-.037.747-3.335-.856-6.535-2.237-9.741-3.75-.447-.211-.745-.499-.91-.981-.693.368-1.057-.053-1.602-.367-5.255-3.033-12.998-8.482-13.471-14.549-.342-4.395,2.679-7.846,6.784-7.862l6.87-.028c.916-.004,1.795.38,2.653.213Z"/>
    <path class="cls-16" d="M167.147,144.018c-.199-.03-.312-.077-.394-.178-.103-.127-.155-.478-.117-.692l.283-1.596c.063-.355.635.087.516.256-.059.084-.062.398.03.623.811-.211,1.075-2.145.944-3.618.13-.367.563-1.007.31-1.443-.164-.282-.262-1.081-.791-.938-1.232.333-1.673-.168-2.024.091-.429.317.188,1.696-.8,1.949-.583.149-.836.662-1.243.913-.609.375-.975.638-.888,1.496l-1.445.711c-.204.457-.231.855-.27,1.429-1.129-.16-1.037.978-1.521,1.326l-1.979,1.419-1.166,1.203c-.43.444-1.033.688-1.454,1.223l-1.552.644c-.794-.35-1.657-.269-2.111.463-.458.74-1.012.697-1.773.937-.467.147-.892.83-1.589.755-.752-.081-1.077.583-1.243,1.249-.608.057-1.428-.001-1.915.507-.402-.37-.61-.476-1.053-.569.014.73-.7.965-.882,1.351-.325.69-.377,1.119-.972,1.167-1.422.116-1.519-.872-2.112-.482-.124.081-.203.335-.225.619-.038.505-.85.98-1.079.597-.038-.287-.052-.688-.191-.779-.544-.356-.705,1.264-.829,1.334-.224.128-.637.112-1.076-.014-.186.709-.034,1.483-.031,2.205-.706.336-1.238-.097-1.777-.079l-1.822.06c-.728.024-.905,1.313-1.301,1.68-.687.049-1.391-.16-2,.172-2.138,1.166-6.139,1.045-9.254,1.17l-2.148.086c-1.331.053-2.621.314-3.999-.021-.182-.044-.419-.221-.556.001-.045.074-.014.285.004.345-.688-.067-1.409-.112-2.18-.181l-2.863-.254-4.65-.669-4.123-.88-3.386-.869c-.077-.265-.088-.565.037-.747.154-.223,2.459-.749,4.246-.179l1.821-.22c.713-.086,1.121.196,1.685-.42.257-.28.754-.749,1.253-.658.774.142,1.195.844,1.356,1.616l2.771-1.685c.174.401.364.756.595.842.88.33,2.31-1.79,4.014-.017,1.095-.413,1.871-1.216,2.623-2.098.256-.3.798.41.956.383l.738-.123c.141-.024.289.527.389.678.225.085.679-.228.647-.407l-.168-.958c.397-.053,1.438.077,1.568.669.071.327-.235.733.12,1.021.338.275.486.341,1.003.238l1.803-.36c.857-.171,1.519.179,2.404-.28.431-.223,1.186-.499,1.657-.504l2.246-.025c.582-.622,1.24-.765,1.967-.48.678.265,1.22-.549,1.647-.659.906-.234,1.227-.382,1.781-1.088l1.393-.979c.152-.177.615-.154.847-.044-.002.559-.01.962.276,1.478.666-.319,1.045-.755,1.246-1.547.577.184.944.274,1.557.154l1.041.512c.442-1.166,1.904-1.956,3.217-2.422l2.499-.886c.9-.319,1.913-.8,2.673-1.312.767-1.839,2.164-.34,2.836-1.547.317-.319.919-.322,1.424-.417.41-1.137,1.442-1.629,2.172-2.409.455-.487.764-.755,1.335-1.106.815-.502,1.088-1.681,1.622-2.414.364-.5,1-.733.878-1.551l-1.248-.068c1.238-1.369,1.362-2.778,2.171-3.551l-.165-1.115c.904-.179,1.238-1.08,1.949-1.401l1.625-.812c.65.083,1.212.353,1.815.874,2.463,2.132,3.168,5.628,1.951,8.652-.412,1.025-.719,2.054-1.576,2.651Z"/>
    <path class="cls-10" d="M167.147,144.018c-.186.946-.908,1.629-1.64,2.3l-2.629,2.41c-5.536,5.075-15.727,9.435-23.116,10.946l-2.997.613-5.562.921-1.991.181c-.851.077-1.715.378-2.613.203-.854-.166-1.626.204-2.417.204l-8.359.004-2.171-.211c-.017-.059-.049-.271-.004-.345.136-.223.374-.046.556-.001,1.379.335,2.668.075,3.999.021l2.148-.086c3.114-.125,7.116-.004,9.254-1.17.609-.332,1.312-.122,2-.172.396-.367.574-1.656,1.301-1.68l1.822-.06c.538-.018,1.071.415,1.777.079-.003-.722-.155-1.497.031-2.205.438.126.851.143,1.076.014.123-.071.285-1.691.829-1.334.139.091.153.493.191.779.228.383,1.041-.092,1.079-.597.021-.284.101-.538.225-.619.593-.39.69.598,2.112.482.595-.049.647-.477.972-1.167.182-.386.896-.621.882-1.351.443.093.651.199,1.053.569.488-.508,1.308-.45,1.915-.507.166-.666.491-1.33,1.243-1.249.697.075,1.123-.608,1.589-.755.761-.24,1.315-.197,1.773-.937.453-.732,1.316-.813,2.111-.463l1.552-.644c.422-.536,1.024-.78,1.454-1.223l1.166-1.203,1.979-1.419c.484-.347.392-1.485,1.521-1.326.039-.574.066-.972.27-1.429l1.445-.711c-.087-.859.279-1.121.888-1.496.407-.251.66-.764,1.243-.913.987-.253.371-1.632.8-1.949.351-.259.792.242,2.024-.091.529-.143.628.656.791.938.253.436-.18,1.075-.31,1.443.132,1.472-.133,3.406-.944,3.618-.092-.225-.089-.539-.03-.623.119-.169-.453-.611-.516-.256l-.283,1.596c-.038.214.014.565.117.692.082.101.195.147.394.178Z"/>
    <path class="cls-10" d="M164.957,131.84l-1.625.812c-.712.321-1.046,1.222-1.949,1.401l.165,1.115c-.809.773-.933,2.182-2.171,3.551-2.758,3.048-6.09,5.336-9.778,7.274l-3.781,1.549c-.004-.194-.131-.327-.264-.294l-2.287.555c-.404.098-.65.31-.666.632l-1.29-.033c-.379-.01-.769-.011-1.078-.257.152-.179.491-.402.808-.397.747.011,1.166-.404,1.788-.591l2.56-.771,2.037-.587c1.534-.442,2.737-.941,4.071-1.75.555-.337,1.214-.356,1.803-.816l3.632-2.837,1.128-1.245c1.023-1.129,1.717-1.994,2.094-3.509.179-.721.962-1.461.931-2.231-.558-.015-.943-.201-1.013-.753-.127-1-1.553.165-2.872-.865-.593-.463-1.055.151-1.426.167-1.029.044-1.885-.097-2.809.225l.011-.763,3.226-.154,5.623-.082,1.903.226c.544.065.934.339,1.231.429Z"/>
    <path class="cls-2" d="M140.232,148.145l-.534.026c-.303-.026-.647-.008-.888.176l-.46.048c-.769.08-1.561.109-2.433.21l-6.185.718-.967.049c-1.365.069-2.753-.178-4.093.147l-1.637.086-2.677.009-4.536.073c-.158-.348-.578-.368-.953-.339-1.281.097-2.385-.163-3.621-.196l-4.046-.11c-1.522-.386-2.935-.605-4.499-.786l-2.738-.831-1.262-.22c-.263-.046-.621-.072-.876-.035-.096-.499-.647-.361-.935-.476-1.408-.563-2.478-.662-3.566-1.2-.447-.633-1.014-1.008-1.696-1.021-.592-.754-1.605-1.125-1.996-2.033.208-.047.43.027.537.206.177.299.458.596.842.826l1.65.988c2.619,1.206,5.329,1.974,8.026,2.621l1.886.452,1.96.426,5.768.721c1.258.157,2.462.483,3.586.192l.425-.11c.098.313.341.403.757.4l7.927-.059,2.638-.196c4.902.153,10.035-1.093,14.767-2.462,1.432-.414,3.436-.379,3.805-2.048l1.445-.891c.604-.372,1.674-.045,2.273-.63.351-.343.565-.751,1.201-.717,1.252.068.934-2.354,2.469-2.674.408-.085.819-.063.92-.665.301-1.777.061-3.646.198-5.517l.082-1.162c.041,0,.121-.023.168.043.924-.322,1.78-.181,2.809-.225.371-.016.833-.63,1.426-.167,1.319,1.03,2.744-.135,2.872.865.07.553.455.739,1.013.753.031.77-.752,1.51-.931,2.231-.377,1.515-1.071,2.38-2.094,3.509l-1.128,1.245-3.632,2.837c-.59.46-1.248.479-1.803.816-1.333.81-2.537,1.308-4.071,1.75l-2.037.587-2.56.771c-.622.187-1.041.602-1.788.591-.317-.005-.656.218-.808.397Z"/>
    <path class="cls-16" d="M88.004,140.046c.457.706.718,1.579,1.401,2.091.085.064.188.212.227.303.391.908,1.404,1.279,1.996,2.033-.074.438-.336.727-.574,1.228l1.764.706,2.996.44c.385.057.838.127,1.075-.154.288.115.839-.023.935.476-.381.418-1.138.155-1.647.268-.994.22-1.705.38-2.648-.035-.679-.3-1.505-.155-2.153-.513l-2.555-1.411c-1.354-.334-2.395-.927-3.282-2.08l-1.037-.366c-.457-.394-.912-1.059-.98-1.578-.072-.543-.274-1.124-.561-1.672l1.483-2.145c.422-.61,1.563-.646,2.206-1.197.296,1.255.654,2.527,1.354,3.607Z"/>
    <path class="cls-10" d="M87.044,133.54c-.278.88-.616,1.959-.394,2.9-.643.551-1.784.586-2.206,1.197l-1.483,2.145c.287.548.489,1.129.561,1.672-1.405-.536-2.871-2.426-3.602-3.782-.632-1.173-.231-2.066-1.002-2.981l2.562-1.172c.681-.312,1.647-.456,2.394-.365l3.17.386Z"/>
    <path class="cls-10" d="M115.822,149.688c-.54.009-1.075.189-1.7.183l-3.128-.032c-.231-.002-.393.103-.466.252-.529-.263-1.216-.26-1.91-.275l-2.835-.059-2.727-.616-3.327-.532c.167-.477.255-.794.234-1.184l2.738.831c1.564.18,2.976.4,4.499.786l4.046.11c1.236.034,2.34.293,3.621.196.375-.028.795-.009.953.339Z"/>
    <path class="cls-16" d="M87.073,132.324c.015.331.211.655.191,1.014l-.22.201-3.17-.386c-.748-.091-1.713.054-2.394.365l-2.562,1.172c.771.915.369,1.808,1.002,2.981-.733-.007-.725-.584-.919-1.149-.326-.949-1.315-1.948-.318-3.302.178-.241.688-.061.894-.145l2.618-1.062c1.656.722,3.261.698,4.878.31Z"/>
    <path class="cls-16" d="M140.232,148.145c.309.246.699.247,1.078.257.004.257-.172.492-.539.545l-4.587.666c-.7.102-1.358-.011-1.943.489l-2.152.029c-.29.004-.454-.145-.467-.351l3.611-.613,2.396-.276c.21-.024.388.025.564-.027.142-.042.236-.279.156-.47l.46-.048c.121.214.332.362.609.336.224-.021.365-.261.279-.512l.534-.026Z"/>
    <path class="cls-16" d="M99.964,147.425c.021.39-.068.707-.234,1.184l3.327.532c.066.227-.008.535-.17.643-.198.131-.47.175-.724.11l-3.665-.937c-.248-.063-.329-.117-.418-.202-.458-.436.678-.548.746-.941.036-.212-.062-.448-.124-.609l1.262.22Z"/>
    <path class="cls-10" d="M138.349,148.395c.08.191-.014.428-.156.47-.176.052-.354.003-.564.027l-2.396.276-3.611.613-1.804.057-.087-.515,6.185-.718c.872-.101,1.664-.13,2.433-.21Z"/>
    <path class="cls-16" d="M123.035,149.605c.07.348-.078.683-.337.785-.65.257-1.447.284-2.018-.027-.213-.116-.435-.388-.322-.749l2.677-.009Z"/>
    <path class="cls-10" d="M128.765,149.372l-.048.571-3.573-.075c-.295-.006-.443-.108-.471-.349,1.34-.325,2.728-.078,4.093-.147Z"/>
    <path class="cls-16" d="M114.122,149.871c.119.977-1.255.105-2.63.472-.492.131-.717-.129-.964-.252.072-.149.234-.255.466-.252l3.128.032Z"/>
    <path class="cls-16" d="M145.816,147.542c-.988.405-2.074.922-3.217.893.016-.322.262-.534.666-.632l2.287-.555c.133-.032.261.101.264.294Z"/>
    <path class="cls-16" d="M129.731,149.323l.087.515c-.457.014-.627.115-1.101.105l.048-.571.967-.049Z"/>
    <path class="cls-10" d="M96.89,146.694c-.237.281-.69.21-1.075.154l-2.996-.44-1.764-.706c.237-.501.499-.791.574-1.228.682.012,1.249.388,1.696,1.021,1.088.538,2.158.637,3.566,1.2Z"/>
    <path class="cls-10" d="M139.697,148.171c.086.251-.055.491-.279.512-.277.026-.488-.122-.609-.336.241-.184.585-.202.888-.176Z"/>
  </g>
  <g>
    <g>
      <path class="cls-3" d="M153.137,88.787c-.079.036-.094.134-.087.182l-.747,3.59c-.189.905-.093,1.529-.629,2.281-.615.862-.464,2.153-.759,3.11l-.818,1.361c-.992,1.651-1.441,3.357-1.306,5.273.904-.166.753-1.958,1.404-1.459.637.487-1.054,2.841-.486,5.67.408,2.034-.991,2.901-.46,3.773.279.458.563.953.372,1.543-.578,1.783-.606,3.546-.818,5.273-.165,1.352-.573,2.746-.44,4.206.041.45.415.831.109,1.439-.097.192-.043.637.112.81.168.188.53.273.834.305-.365.952-1.409,1.4-2.403,1.698l-4.444,1.335-2.112.735c-.902.314-1.644.461-2.572.596l-6.268.91c-2.106.306-3.283.036-3.141.639l-4.523.177-5.751.124v-.25s1.162-.203,1.162-.203c.942.058,1.753-.049,2.743-.46l1.776-.021c.727-.52,1.333-.626,2.218-.485.399-.407,1.008-.681,1.241-1.176-.021-.474-.175-.89.289-1.431.327.494.474.938.649,1.804,1.009-.343,1.138-1.367,1.273-2.323l.314-2.218c.068-.483.39-.697.726-.63-.321.549-.249.755-.318,1.013-.056.207.371.385.613.363.756-.647.283-1.421.167-2.187l-.356-2.36c-.092-.607,1.553-.104,1.591-1.682,1.925,1.416,4.534,1.236,6.415-.335.747-.624,1.172-1.404,1.091-2.407-.06-.734-.596-1.772-1.54-1.925l-2.004-.325c-1.505-.244-3.292.453-3.945,1.83-.233.491-.428.952-.77,1.354l-1.319-1.358c-.271-.279-.832-.316-1.013-.517-.275-.307-.228-.748-.17-1.101.8.768,1.996.934,3.113.503,1.079-.417,1.711-1.352,1.929-2.287.262-1.125.004-2.15-.726-3.091-.773-.997-2.123-1.047-3.214-.496-1.502.758-1.471,1.372-2.077,2.457-.937-.626,1.183-3.34,2.671-3.658,2.196-.47,4.567.047,4.589-2.558.01-1.184.196-2.568-.534-3.61-.147-.211-.435-.586-.273-.803.135-.182.631-.174,1.085.034.113-.618-.353-.724-.728-.813l-.457-3.376c-.391.009-.774-.089-1.239.114.035.26.101.818-.504.832l.288-2.454c.032-.276-.253-.75-.005-.924l.769-.541c1.276-.897,1.102-3.812,2.959-3.31.037.609-.173,1.609.139,2.082.336.081.538-.172.574-.313.126-.495-.497-.897-.032-2.785.097-.395.087-.977.606-1.03.381-.039,1.035.168.762.728-.155.318-.21.551-.046.834.097.168.361.185.568.088.389-.184.197-1.154.631-2.201.246-.054.461-.298.654-.457.342-.28.592-.581,1.298-.866.071.774-.033,1.47-.254,2.184.603.171,1.018.273,1.442.252.479-.438.607-1.114.847-1.617l2.664-1.138,1.251.078c.44.027.665-.289.661-.636l.523.015c.057.212.305.298.454.192.142-.101.194-.268.212-.409.363.089.822-.41,1.199-.46.795-.106,1.053.925,1.361,1.431l.942,1.472Z"/>
      <path class="cls-7" d="M147.705,82.406c-.897-.125-1.55.914-2.371,1.057l-5.524.965c-.174.03-.38.487-.521.59-.197.144-.695-.1-.972-.032-.647.158-1.127.546-1.911.386-.236-.048-.395.316-.309.455l-1.236-.015c-1.559-1.58-3.139-.473-4.84-.628-1.369.558-2.696.523-4.077.761-1.371.237-2.528.091-3.882-.007-.69-.05-1.22.191-1.803-.526l-2.99.508c-.466.079-.808-.209-.678-.497l.632-.237c.118-.044.104-.585-.034-.727-1.276-1.314-3.181.473-5.641.866-1.251-.378-2.194-.139-3.406-.058-.647.043-1.272-.27-1.754.574-.524-.219-1.078-.056-1.624-.039l-2.635.082c-.649.02-1.535.395-2.032.79-.482.383.116,1.214.685,1.282,1.134.135,2.249.256,3.284.698.468-.508,1.151-.667,1.773-.815.989-.236,1.273.169,1.885.829.474.512,1.603.407,2.236.568.292.204.451.445.796.556.515-.699,1.272-.841,1.934-.361.503.365,2.095-.221,1.701.589-.111.228-.418.317-.724.399l-2.674.719c-.536.144-1.027-.23-1.423-.532-.438.36-.886.674-1.485.268l-.97,1.251c-.852-.249-1.676-.416-2.56-.335-.654.06-1.091-.319-1.557-.56-1.157-.597-2.005.525-2.403,1.396-2.23.072-3.106,1.565-4.31,1.327.197-.764.799-1.151,1.495-1.463.383-.172.671-.888.364-1.184-.742-.717-1.697-.467-2.402.102l-1.539.599c-.55.214-.74.66-1.319.912-.956.416-.601,2.152-1.012,2.392-.353.207-.846-.764-2.335.057-.341,2.514.594,3.442.606,3.912l.077,2.995c.022.858.278,1.41.289,2.288.009.688.023,1.846.256,2.44.346.884.218,1.26.161,2.125-.128,1.933.789,3.832,1.099,5.71.113.686.09,1.384.528,1.949.041.308-.131,1.03.118,1.26.465.325.687.685.48,1.26l-.871,2.42c.558.814.386,1.829-.516,2.185-.439.173-.769.381-.862.728-.229.849.483,1.126.419,2.044-.016.223-.118.469-.493.389-.455-.632-.884-1.159-1.028-2.069l-.279-1.767-.272-2.43-.261-2.158-.079-2.569c-.032-1.025-.082-1.919-.209-2.932l-.906-7.232-.949-6.208c-.111-.726-.223-1.41-.246-2.159l-.1-3.283c-.036-1.172-.126-2.061-.029-3.189.137-1.599.194-3.135.979-4.619,1.151-2.173,3.167-3.502,5.515-4.306,2.813-.964,5.704-1.452,8.69-1.875,1.394-.198,2.701-.154,4.097-.248,1.3-.087,2.498-.219,3.834-.24,1.011-.016,2.037-.372,3.102-.19,1.006.172,1.945-.19,2.898-.19l10.034-.005c.876,0,1.724.357,2.66.205,1.063-.172,2.077.081,3.1.183l2.191.218,3.325.273,6.872.859,2.506.588,1.434.673Z"/>
      <path class="cls-8" d="M150.33,123.307c-.031.246-.071.658.027.875l-.117.385c-.358-.201-.41-.58-.407-1.075l.026-4.378-1.057.27c.211-1.727.24-3.491.818-5.273.191-.59-.092-1.085-.372-1.543-.531-.872.868-1.739.46-3.773-.568-2.829,1.123-5.182.486-5.67-.651-.498-.5,1.293-1.404,1.459-.135-1.916.314-3.622,1.306-5.273l.818-1.361c.295-.957.144-2.248.759-3.11.536-.752.441-1.375.629-2.281l.747-3.59c.252-.081.437.106.432.425l-.097,6.733-.213,2.186-.73,5.504c-.263,1.98-.58,3.864-.798,5.856l-.304,2.762-.237,2.884c-.107,1.309-.093,2.529-.255,3.828l-.518,4.16Z"/>
      <path class="cls-1" d="M147.705,82.406c.584.274,1.113.5,1.702.823-.812.305-2.056.463-3.198.383l-.514,1.114c-.84-.406-1.643-.468-2.396.074-.765.55-2.087-.12-2.552,1.092l-1.647-.045-3.002-.018c-.086-.138.073-.503.309-.455.784.159,1.263-.228,1.911-.386.277-.068.775.176.972.032.141-.103.347-.56.521-.59l5.524-.965c.821-.143,1.474-1.182,2.371-1.057Z"/>
      <path class="cls-9" d="M150.136,83.98l-.034.165c-.431-.347-.745.352-1.038.424-.699.171-1.457.595-2.149.688l-2.114.285c-1.12.151-2.187-.021-3.257.451-.364.161-.611-.098-.798-.103.465-1.212,1.787-.541,2.552-1.092.754-.542,1.556-.48,2.396-.074l.514-1.114c1.142.08,2.386-.078,3.198-.383.308.169.554.467.728.752Z"/>
      <path class="cls-8" d="M153.137,88.787l-.942-1.472c-.309-.506-.566-1.536-1.361-1.431-.376.05-.836.549-1.199.46-.236-.1-.65-.08-.666.217l-.523-.015-.656.011c-.194-1.255,1.468-.071,1.679-1.412.439-.029.842.061,1.237-.18l-.602-.819.034-.165c1.609.672,3.052,3.033,3.001,4.806Z"/>
      <path class="cls-12" d="M150.102,84.145l.602.819c-.395.241-.797.151-1.237.18-.211,1.342-1.873.158-1.679,1.412-.684.011-1.138-.209-1.84.103l-1.972-.024c-1.836.697-2.746.145-3.251.747-.195.233-.268.554-.187.905-.193.158-.408.402-.654.457-.144.063-.335.189-.506.189-.188,0-.443-.212-.662-.531l-3.102.996c-.441.142-.445.613-1.186.444-.25-.057-.745.129-.826-.573-1.14-.075-2.671.682-3.169,1.331-.638.83-1.322,1.337-2.092,2.043l-1.433,1.313c-.443-.237-.786-.335-1.294-.127l.327,1.42c.022.095-.252.185-.377.134-.579-.235-.229-1.323-1.736-2.483-.268-.542.124-1.565-.581-2.099-.293.532-1.065.269-1.318.458l-2.839,2.111c-.38.282-.789.321-1.03.602-.442.515.233.881.308,1.299.213,1.198-.319,2.48.241,3.6.272.545.351,1.002.45,1.742.828-.572.504-1.325.34-2.123.8.147,1.539.653,2.029,1.147.586.591-.055,1.66-.106,2.232-.08.888-.09,1.416-.488,2.099-.499.856-.084,1.643.325,2.366.399,1.757-.525,2.422.99,3.698.443.373.161,1.561-.404,1.855-.415.216-1.138.349-1.215.857-.103.688.216,1.397.442,2.165-.677.444-1.395.529-2.168.585-.143-.414-.257-.924-.62-1.142-.276-.165-.58.302-.501.492-.232.013-.47.034-.683-.02-.314-.08-.711-.162-.947-.048-1.123.543-.201,2.37,2.182,3.545.407,1.466,2.138.713,3.35,3.011.252.478.365.606.371,1.286l.013,1.668-.085,1.496c.334,1.234.076,2.093-.867,2.947-.606.549.202,2.499-1.172,2.616-.34.029-.498.307-.476.557l-1.161.203c-.203.036-.417.039-.49.253-.923.005-2.067.177-3.024-.164-.686-.244-1.084-.087-1.795-.142l-4.14-.319-2.297-.326c-.018-1.424,1.555.107,2.519-1.087-.003-.604-.498-1.804-.008-2.394.692-.832.825-1.513.663-2.65.485.511,1.351.542,1.385.171.125-1.356,1.226-1.082.909-1.581-.249-.393-.573-.398-.575-.699-.004-.448.98-.276,1.124-1.114-.773-.162-1.292.137-1.871.576-.269-.811.648-.968.787-1.381.262-.78-.02-1.902-.46-2.502-.364-.497-1.4-.588-1.989-.42.593,2.875-.819,2.691-1.335,3.976-.334.832-1.66.989-2.328.299-.772.244-1.136.657-1.978.641.329-1.377-.804-1.628-.672-2.445.065.036.166.021.227-.037,1.014,1.209,4.021.982,5.101-.046.964-.918.483-2.454.164-3.628,1.944-.234,3.501,1.097,4.103-.31.568-1.33.437-2.695-.024-4.092l-.021-.787c-.005-.181-.512-.248-.771-.139-.683-1.22-1.796-2.024-3.211-1.967-.503.02-1.075.191-1.462.529-.058-.437-.059-.918.238-1.312.506-.67,2.225-.412,1.808-1.494-.221-.573.131-.901.209-1.424l.211-1.402c1.003-.086,1.196-1.623.913-3.058.093-.482.927-.887,1.422-1.181-.402-.897-.265-1.463.134-2.192.353-.643.69-1.091,1.337-.951.213.809-.249,1.346-.269,1.936-.017.503.86.506,1.062.258.242-.297.443-.757.346-1.185-.644-2.853,2.064-3.003,2.672-4.059l1.221-2.119c.16-.278.802.031,1.073.076.527-.396.968-1.193,1.608-1.421.722-.258.997-.677,1.41-1.392.427.102,1.286.558,1.701.188.855-.763,1.878-1.197,2.974-.622.177-.542.112-.827.534-1.427.302.473.628.672,1.053.718.315.034.81-.331,1.16-.444,1.187.224,2.689.518,3.701-.358.523-.453.786-.911,1.758-.934l2.764-.065c.363-.009.677.16.999-.051.175-.114.324-.295.326-.561l1.647.045c.186.005.434.264.798.103,1.069-.473,2.136-.3,3.257-.451l2.114-.285c.692-.093,1.45-.517,2.149-.688.294-.072.607-.772,1.038-.424Z"/>
      <path class="cls-14" d="M139.883,88.745c-.433,1.046-.241,2.017-.631,2.201-.206.097-.47.08-.568-.088-.164-.284-.109-.516.046-.834.272-.56-.381-.767-.762-.728-.519.053-.509.635-.606,1.03-.465,1.889.158,2.29.032,2.785-.036.141-.238.394-.574.313-.312-.473-.102-1.473-.139-2.082-1.857-.502-1.683,2.413-2.959,3.31l-.769.541c-.248.174.037.648.005.924l-.288,2.454c.606-.014.539-.572.504-.832.464-.203.848-.105,1.239-.114l.457,3.376c.375.089.84.195.728.813-.454-.207-.949-.215-1.085-.034-.162.217.125.593.273.803.73,1.042.544,2.426.534,3.61-.021,2.605-2.393,2.088-4.589,2.558-1.487.318-3.608,3.032-2.671,3.658-.041,1.042.189,2.16.975,2.915-.058.354-.105.795.17,1.101.181.201.742.238,1.013.517l1.319,1.358.341,1.307c.036.137.138.237.277.255l.135.247c-.039,1.577-1.683,1.074-1.591,1.682l.356,2.36c.116.766.589,1.54-.167,2.187-.242.023-.669-.155-.613-.363.07-.257-.003-.464.318-1.013-.336-.066-.658.148-.726.63l-.314,2.218c-.135.956-.264,1.979-1.273,2.323-.175-.866-.322-1.31-.649-1.804-.464.542-.31.958-.289,1.431-.234.495-.842.769-1.241,1.176-.884-.14-1.491-.035-2.218.485l-1.776.021c-.99.411-1.8.518-2.743.46-.022-.25.136-.528.476-.557,1.375-.118.567-2.068,1.172-2.616.943-.854,1.201-1.713.867-2.947l.085-1.496-.013-1.668c-.005-.68-.119-.808-.371-1.286-1.212-2.298-2.943-1.544-3.35-3.011.397.196.977.271,1.426.296-.109.936,1.486.486,2.207.949.684.44,1.288.734,2.188.579.623-.107,1.119-.906,1.39-1.635.532-1.432-.401-3.13-1.299-3.473-.428-.164-.788-.258-1.279-.185-.614.091-.803.324-1.147.963-.453.841-2.185.209-2.819.767-.329-.137-.467-.292-.708-.497.069-.516-.182-.921-.511-1.242-.08-.191.225-.657.501-.492.363.217.478.728.62,1.142.773-.056,1.491-.141,2.168-.585-.226-.769-.545-1.477-.442-2.165.076-.508.8-.642,1.215-.857.566-.294.848-1.482.404-1.855-1.515-1.275-.591-1.94-.99-3.698-.409-.722-.824-1.51-.325-2.366.398-.683.408-1.211.488-2.099.052-.573.692-1.641.106-2.232-.49-.494-1.23-1-2.029-1.147.165.798.488,1.551-.34,2.123-.099-.74-.178-1.197-.45-1.742-.56-1.121-.027-2.402-.241-3.6-.074-.418-.749-.783-.308-1.299.241-.281.65-.319,1.03-.602l2.839-2.111c.253-.188,1.025.074,1.318-.458.705.534.312,1.557.581,2.099,1.507,1.16,1.157,2.248,1.736,2.483.125.051.399-.039.377-.134l-.327-1.42c.509-.207.852-.11,1.294.127l1.433-1.313c.771-.706,1.454-1.213,2.092-2.043.499-.649,2.029-1.406,3.169-1.331.081.701.576.516.826.573.741.169.745-.302,1.186-.444l3.102-.996c.219.319.473.53.662.531.171,0,.362-.126.506-.189Z"/>
      <path class="cls-13" d="M132.291,120.109l-.135-.247-.277-.255-.341-1.307c.341-.402.537-.863.77-1.354,1.095-.072,1.873-.954,2.914-1.385l1.032-.445,2.004.325c.944.153,1.481,1.192,1.54,1.925.082,1.003-.344,1.783-1.091,2.407-1.881,1.571-4.49,1.751-6.415.335Z"/>
      <path class="cls-2" d="M129.036,115.324c-.785-.755-1.016-1.873-.975-2.915.606-1.085.575-1.699,2.077-2.457,1.091-.551,2.441-.5,3.214.496.73.941.988,1.966.726,3.091-.217.934-.85,1.87-1.929,2.287-1.117.432-2.314.266-3.113-.503Z"/>
      <path class="cls-14" d="M147.789,86.557l.656-.011c.004.346-.22.663-.661.636l-1.251-.078-2.664,1.138c-.239.502-.367,1.179-.847,1.617-.424.021-.839-.081-1.442-.252.221-.714.325-1.41.254-2.184-.707.285-.957.586-1.298.866-.08-.351-.008-.672.187-.905.505-.602,1.416-.05,3.251-.747l1.972.024c.702-.312,1.156-.092,1.84-.103Z"/>
      <path class="cls-14" d="M150.24,124.568c-.154.611-.215,1.289-.823,1.576-.304-.031-.666-.117-.834-.305-.155-.173-.209-.618-.112-.81.306-.608-.069-.989-.109-1.439-.133-1.46.275-2.854.44-4.206l1.057-.27-.026,4.378c-.003.496.049.874.407,1.075Z"/>
      <path class="cls-2" d="M136.252,115.116l-1.032.445c-1.041.431-1.819,1.313-2.914,1.385.653-1.378,2.44-2.075,3.945-1.83Z"/>
      <path class="cls-14" d="M149.634,86.344c-.017.141-.069.308-.212.409-.149.106-.397.02-.454-.192.016-.297.431-.317.666-.217Z"/>
      <path class="cls-1" d="M134.861,85.812l-2.021.243-1.93-.045c-.926-.022-1.747.132-2.667.226l-2.611.267-4.207.378c-.73.066-1.362.227-2.085-.04-.695-.257-1.351-.123-1.872.47-.423-.272-.896-.564-1.522-.504-.611.993.772,1.781.775,3.14-.32.57-1.345,1.585-2.071,1.588-1.252.004-1.927.046-2.878.87l-2.248,1.023c-.446.203-.567.61-1.034.6-.532-.011-.549-.355-.818-.843-.21-.382-.909.143-1.006.522-.209.819-.915,1.074-1.534.899-.893-.253-.942.596-1.238.896-.829.84-1.372,1.591-2.009,2.621-.525.849-3.673.006-3.27,2.32.766.119,1.215-.641,1.676-.367.759.452-1.262,1.381-.912,2.244.178.438.956.749.758,1.522-.381.195-1.053.599-1.581.677-.528-.251-1.204-.576-1.716-.429-.411.118-1.211.555-1.158,1.036.638.703,1.088-.496,1.783-.408.786.1-.11,1.717.851,1.807.066-.832.428-1.395.857-1.483.811-.166,1.334-.099,1.733.636.42-.591.894-.492,1.419-.722l1.499-.658c.481-.211.739-.648.776-1.147.349-.035.467.181.562.425.111.286-.037.486-.357.757l-1.67,1.415c-.486.412-1.207.27-1.262,1.175-1.606,1.091-2.696.188-3.945.636,1.8,1.687,2.32.749,4.106.131-.77.604-.309,1.647-.508,2.184-.32.864-.572,1.147-.508,2.066.048.689-.222,1.408.071,2.239.112.316-.194.96.085,1.317-.695.356-1.2,1.265-1.193,2.001l.007.692-.055.462c-.412.115-.331.618-.111,1.013l-1.641,1.666,1.137.719c.093-.227.394-.701.661-.662.535.078.952.248,1.573-.054.6,1.009.434,2.202-.317,3.417.706.127,1.156.243,1.465.933.305-.3.372-.676.582-1.057.179-.325.574-.195.685-.021.198.31.016.492-.195.733l-1.368,1.57c-.175.201-.102.55.019.727.259.377,1.16-.17,1.354.27.077.173-.079.562-.409.683-.658.241-1.297-.167-1.959-.693-.3.853-.67,1.532-1.458,1.584l-2.609.171-.496.1c-.074-.7-.712-1.05-1.187-1.244-.293-.12-.413-.649-1.171-.387l-1.214.42c-.887-.425-1.888-.689-2.445-1.464.375.08.477-.167.493-.389.064-.918-.648-1.195-.419-2.044.093-.347.423-.555.862-.728.902-.356,1.074-1.37.516-2.185l.871-2.42c.207-.575-.016-.935-.48-1.26-.249-.23-.077-.952-.118-1.26-.438-.565-.415-1.262-.528-1.949-.31-1.878-1.227-3.777-1.099-5.71.058-.865.186-1.241-.161-2.125-.233-.594-.247-1.751-.256-2.44-.011-.878-.267-1.431-.289-2.288l-.077-2.995c-.012-.47-.947-1.398-.606-3.912,1.489-.821,1.982.15,2.335-.057.41-.24.056-1.976,1.012-2.392.579-.252.769-.698,1.319-.912l1.539-.599c.705-.569,1.66-.818,2.402-.102.307.296.019,1.013-.364,1.184-.696.312-1.298.699-1.495,1.463,1.204.238,2.08-1.255,4.31-1.327.398-.871,1.246-1.993,2.403-1.396.466.24.903.62,1.557.56.884-.082,1.708.086,2.56.335l.97-1.251c.599.406,1.047.092,1.485-.268.397.301.887.676,1.423.532l2.674-.719c.306-.082.613-.172.724-.399.394-.81-1.198-.224-1.701-.589-.662-.48-1.419-.339-1.934.361-.346-.111-.504-.352-.796-.556-.633-.161-1.762-.056-2.236-.568-.611-.66-.896-1.065-1.885-.829-.622.148-1.305.308-1.773.815-1.035-.442-2.15-.563-3.284-.698-.569-.068-1.167-.9-.685-1.282.498-.395,1.383-.77,2.032-.79l2.635-.082c.546-.017,1.099-.18,1.624.039.482-.845,1.107-.531,1.754-.574,1.212-.081,2.156-.32,3.406.058,2.461-.394,4.365-2.18,5.641-.866.138.142.152.683.034.727l-.632.237c-.13.288.212.576.678.497l2.99-.508c.583.717,1.113.476,1.803.526,1.354.098,2.51.244,3.882.007,1.381-.239,2.708-.204,4.077-.761,1.701.155,3.281-.952,4.84.628ZM100.446,109.934c-.104-.28-.423-.474-.822-.411-.553.088-.939,1.691-.721,1.911.214.216,1.882-.586,1.542-1.5Z"/>
      <path class="cls-9" d="M139.1,85.846c-.002.266-.151.447-.326.561-.323.211-.636.042-.999.051l-2.764.065c-.971.023-1.235.481-1.758.934-1.012.876-2.514.582-3.701.358-.351.113-.845.478-1.16.444-.425-.046-.751-.245-1.053-.718-.422.6-.357.884-.534,1.427-1.096-.575-2.119-.14-2.974.622-.415.371-1.274-.086-1.701-.188-.413.716-.688,1.134-1.41,1.392-.639.228-1.081,1.025-1.608,1.421-.271-.045-.913-.354-1.073-.076l-1.221,2.119c-.609,1.056-3.317,1.206-2.672,4.059.097.428-.104.889-.346,1.185-.202.248-1.079.245-1.062-.258.02-.59.481-1.127.269-1.936-.647-.14-.984.309-1.337.951-.4.729-.537,1.295-.134,2.192-.495.294-1.329.699-1.422,1.181.283,1.435.09,2.972-.913,3.058l-.211,1.402c-.079.523-.431.851-.209,1.424.418,1.082-1.302.824-1.808,1.494-.298.394-.296.876-.238,1.312-.522.457-.858.95-1.003,1.588-.334,1.469.204,2.951,1.527,3.808l-.087.579-1.345-.352c-.616-.943-3.427-1.079-4.654-.45-.279-.357.027-1.001-.085-1.317-.293-.831-.023-1.55-.071-2.239-.064-.919.188-1.201.508-2.066.199-.537-.263-1.58.508-2.184-1.786.618-2.306,1.556-4.106-.131,1.249-.448,2.339.455,3.945-.636.056-.904.776-.763,1.262-1.175l1.67-1.415c.32-.271.468-.471.357-.757-.095-.244-.213-.46-.562-.425-.037.5-.294.936-.776,1.147l-1.499.658c-.525.231-.999.132-1.419.722-.399-.735-.922-.802-1.733-.636-.429.088-.791.651-.857,1.483-.961-.09-.065-1.706-.851-1.807-.695-.089-1.145,1.111-1.783.408-.053-.481.747-.918,1.158-1.036.512-.147,1.187.178,1.716.429.528-.078,1.2-.482,1.581-.677.198-.774-.58-1.085-.758-1.522-.35-.862,1.671-1.792.912-2.244-.462-.275-.91.486-1.676.367-.403-2.314,2.745-1.471,3.27-2.32.637-1.03,1.18-1.781,2.009-2.621.296-.3.345-1.148,1.238-.896.62.175,1.325-.08,1.534-.899.096-.378.795-.903,1.006-.522.269.488.286.832.818.843.467.01.588-.397,1.034-.6l2.248-1.023c.951-.824,1.626-.866,2.878-.87.726-.003,1.751-1.018,2.071-1.588-.003-1.359-1.386-2.147-.775-3.14.627-.06,1.099.232,1.522.504.521-.593,1.177-.727,1.872-.47.723.267,1.354.106,2.085.04l4.207-.378,2.611-.267c.92-.094,1.742-.248,2.667-.226l1.93.045,2.021-.243,1.236.015,3.002.018ZM119.397,89.522c.284-.553-.73-1.733-1.842-1.957-.222.291-.008.806.351.96.799.345,1.078,1.802,1.491.997ZM112.585,95.841c-.139-.703-.305-1.349.104-1.746.326-.317.864-.42,1.433-.383l.596.039c.105.007.232-.325.086-.465-.88.023-1.738.102-2.576.509l-.754.897c-.706.349-1.041,1.141-.625,1.925.535,0,1.511-.25,1.736-.775Z"/>
      <path class="cls-9" d="M106.457,131.41c-2.721-.117-5.427-.637-8.203-1.15-.412-.076-.759-.319-.912-.607l2.609-.171c.788-.052,1.158-.731,1.458-1.584.661.526,1.3.934,1.959.693.33-.121.486-.51.409-.683-.195-.44-1.096.107-1.354-.27-.121-.176-.194-.526-.019-.727l1.368-1.57c.21-.241.392-.423.195-.733-.111-.174-.506-.304-.685.021-.21.381-.278.757-.582,1.057-.309-.69-.759-.806-1.465-.933.751-1.216.917-2.408.317-3.417-.621.301-1.038.132-1.573.054-.267-.039-.568.434-.661.662l-1.137-.719,1.641-1.666c-.22-.395-.3-.898.111-1.013l.522.124c.29.82,1.361,1.614,2.175,2.024-.132.817,1.001,1.068.672,2.445.842.016,1.206-.397,1.978-.641.667.69,1.994.533,2.328-.299.516-1.284,1.928-1.1,1.335-3.976.589-.168,1.625-.077,1.989.42.44.6.722,1.722.46,2.502-.139.413-1.056.57-.787,1.381.579-.439,1.098-.738,1.871-.576-.144.838-1.128.666-1.124,1.114.003.301.326.305.575.699.316.499-.785.225-.909,1.581-.034.371-.901.341-1.385-.171.162,1.137.029,1.817-.663,2.65-.49.59.004,1.79.008,2.394-.964,1.193-2.537-.337-2.519,1.087Z"/>
      <path class="cls-11" d="M107.172,116.298c-.014.453,1.967,2.813-.329,4.207-1.259.764-2.696.547-3.987.258-.061.058-.163.073-.227.037-.813-.41-1.885-1.204-2.175-2.024-.048-.135.066-.432-.142-.546-.087-.047-.215-.063-.325-.041l-.007-.692c.357-.035.533-.372.766-.682.187-.249,2.771-.863,3.588-.34.34.217.64.378,1.016.266.295-.088.439-.46.475-.795l1.345.352Z"/>
      <path class="cls-2" d="M111.407,111.761c.672,1.809.274,3.353-1.479,4.107-.88.379-1.982.298-2.669-.148-1.323-.858-1.861-2.339-1.527-3.808,1.127.222,2.484-.186,2.953-1.28-.273-.302-.489-.599-.488-.837,1.415-.057,2.527.747,3.211,1.967Z"/>
      <path class="cls-2" d="M116.996,114.826c.226.59.765.896,1.194,1.261.24.205.378.36.708.497,1.308.542,2.245-.286,2.021.664.625-.231.684-.736,1.091-1.257l.855-1.136c.49-.073.85.021,1.279.185.453,1.864-2.335,3.703-4.485,3.58-.449-.026-1.029-.101-1.426-.296-2.383-1.176-3.305-3.002-2.182-3.545.235-.114.632-.031.947.048Z"/>
      <path class="cls-14" d="M102.856,120.763c1.291.289,2.728.506,3.987-.258,2.296-1.393.315-3.754.329-4.207l.087-.579c.688.446,1.79.527,2.669.148,1.753-.754,2.151-2.298,1.479-4.107.26-.109.766-.042.771.139l.021.787c.461,1.397.592,2.762.024,4.092-.601,1.407-2.159.077-4.103.31.319,1.175.801,2.71-.164,3.628-1.08,1.028-4.087,1.255-5.101.046Z"/>
      <path class="cls-3" d="M108.197,109.794c-.002.238.215.536.488.837-.469,1.094-1.825,1.502-2.953,1.28.145-.638.481-1.131,1.003-1.588.387-.338.959-.509,1.462-.529Z"/>
      <path class="cls-3" d="M117.679,114.845c.328.321.579.725.511,1.242-.429-.365-.968-.672-1.194-1.261.213.054.451.032.683.02Z"/>
      <path class="cls-3" d="M119.658,118.619c2.15.123,4.937-1.716,4.485-3.58.898.343,1.831,2.041,1.299,3.473-.271.729-.767,1.528-1.39,1.635-.9.154-1.504-.14-2.188-.579-.721-.463-2.315-.013-2.207-.949Z"/>
      <path class="cls-3" d="M122.864,114.854l-.855,1.136c-.407.521-.466,1.026-1.091,1.257.224-.95-.713-.122-2.021-.664.634-.558,2.366.075,2.819-.767.344-.639.533-.872,1.147-.963Z"/>
      <path class="cls-3" d="M132.156,119.862c-.139-.017-.242-.118-.277-.255l.277.255Z"/>
      <path class="cls-6" d="M105.827,115.947c-.037.335-.18.708-.475.795-.377.112-.677-.049-1.016-.266-.817-.523-3.401.091-3.588.34-.233.31-.41.647-.766.682-.008-.736.498-1.645,1.193-2.001,1.227-.629,4.038-.493,4.654.45Z"/>
      <path class="cls-9" d="M100.446,109.934c.34.914-1.328,1.716-1.542,1.5-.218-.22.168-1.823.721-1.911.399-.064.718.131.822.411Z"/>
      <path class="cls-6" d="M100.454,118.777l-.522-.124.055-.462c.11-.022.238-.007.325.041.208.114.094.411.142.546Z"/>
      <path class="cls-12" d="M112.585,95.841c-.224.525-1.2.775-1.736.775-.415-.784-.08-1.576.625-1.925l.754-.897c.838-.407,1.695-.486,2.576-.509.146.14.02.472-.086.465l-.596-.039c-.57-.037-1.108.066-1.433.383-.409.398-.243,1.043-.104,1.746Z"/>
      <path class="cls-1" d="M119.397,89.522c-.413.805-.691-.652-1.491-.997-.359-.155-.573-.67-.351-.96,1.112.224,2.126,1.404,1.842,1.957Z"/>
    </g>
    <g>
      <path class="cls-6" d="M90.829,127.077c.557.775,1.558,1.039,2.445,1.464-1.308,1.249-1.852,2.787-1.896,2.805-.225.096-.405.079-.778.122.264.188.482.352.525.544.072.322.024.668-.209.882-.569-.338-.974-.502-1.443-.555-1.038-.117-1.423.749-2.209.998.02-.36-.176-.683-.191-1.014l-.041-.909.08-4.539c.026-1.495,1.325-2.763,2.409-3.634l.279,1.767c.144.911.573,1.437,1.028,2.069Z"/>
      <path class="cls-6" d="M95.637,129.427c.367.139.806.407,1.209.325l.496-.1c.153.288.5.531.912.607,2.776.512,5.481,1.033,8.203,1.15l2.297.326,4.14.319c.711.055,1.11-.102,1.795.142.957.341,2.101.168,3.024.164l.489-.003,5.751-.124,4.523-.177.567.105-1.218.661c-.896.486-1.678.385-2.586.635-.602.165-.946.593-1.692.526-.415-.037-1.106.659-1.612.483-.687-.639-1.505-.605-2.119.166-1.157-.354-2.24-.56-3.414-.273l-.294,1.162-1.361-.231c-.6.819-1.124.123-1.728.104l-2.704-.086c-.528.609-1.271.968-2.039.464.348-.313.472-.717.275-1.033-.79.145-1.79.336-2.489-.071.082-.475-.023-1.235-.701-1.27l-1.806-.092c-.522-.026-1.218-.532-1.805-.111l-.999.718-2.655-.323c-.236-.025-.691.258-.773.136l-.367-.543-2.669-.478c-.375-.067-.595-.311-.951-.162-.517-.337-.079-.896-.033-1.256.146-1.147,1.248-2.272,2.332-1.861Z"/>
      <path class="cls-2" d="M142.755,129.924c-2.802.963-5.777,1.233-8.829,1.595l-2.796.331c-.662.078-1.521.006-2.085.311l-.567-.105c-.142-.603,1.035-.333,3.141-.639l6.268-.91c.928-.135,1.669-.282,2.572-.596l2.112-.735,4.444-1.335c.993-.298,2.038-.747,2.403-1.698.608-.288.668-.966.823-1.576l.117-.385c.695,1.204-1.012,3.477-2.124,3.859l-5.478,1.883Z"/>
      <path class="cls-14" d="M118.204,132.107v.25s-.49.003-.49.003c.073-.214.287-.217.49-.253Z"/>
      <path class="cls-11" d="M142.755,129.924c.055.448-.076.961-.523,1.296l-1.335,1.001c-1.108.199-1.905.383-2.83,1.11-.276.217-.991.102-1.164.646l1.785-.115c-.376.22-1.069.64-1.574.546-1.014-.189-1.731-.028-2.77.243l-1.417.369c-.393.618.247,1.209.425,1.577-.012.772-.91.411-1.24.415-.647.008-1.306.075-1.912-.028-.617-.105-.875.809-1.122,1.109-.212.256-.68.381-.672.574.007.183.262.474.352.592.526.689.242,1.195-.271,1.751-.255.276-.223,1.315-.587,1.447-.701.254-1.212.234-1.623.868-.144.223-.664.353-.697.22l-.162-.659c-.631-.406-1.822-.54-2.446-.03-.732.598-1.423.789-2.286,1.125l-2.202.858c-.033.444.007.673-.259,1.059-.2-.305-.406-.542-.56-.522l-.593.077c-1.205-1.384-1.949-.234-3.631.167-.84-.111-1.291-.823-1.608-1.588l-1.125,1.409c-.79-1.898-.006-2.827-.468-4.099-.17-.468-.293-1.053-.634-1.355-.138-.122-.242-.446-.503-.466-.555-1.935-2.647-1.585-3.64-2.587-.646-.652-.749-1.627-1.18-2.428-.23-.428-.735-.702-.726-1.198l1.806.092c.678.034.783.795.701,1.27.699.407,1.699.215,2.489.071.198.316.074.721-.275,1.033.768.504,1.511.145,2.039-.464l2.704.086c.604.019,1.128.715,1.728-.104l1.361.231.294-1.162c1.173-.287,2.257-.081,3.414.273.614-.771,1.432-.805,2.119-.166.506.176,1.197-.52,1.612-.483.746.067,1.09-.36,1.692-.526.908-.249,1.69-.149,2.586-.635l1.218-.661c.564-.306,1.423-.233,2.085-.311l2.796-.331c3.052-.362,6.027-.632,8.829-1.595ZM119.783,135.553c-.423.626,1.856.932,2.452.241.1-.116-.016-.541-.189-.504-.452.098-.812.272-1.207.214.027-.083.044-.318-.016-.397-.158-.208-.962-.264-1.321.111-.139.145.063.382.282.335Z"/>
      <path class="cls-5" d="M152.795,132.14l-.082,1.162c-.137,1.871.103,3.74-.198,5.517-.102.602-.512.58-.92.665-1.535.32-1.217,2.743-2.469,2.674-.636-.035-.85.374-1.201.717-.599.585-1.669.258-2.273.63l-1.445.891c-.369,1.668-2.373,1.633-3.805,2.048-4.732,1.369-9.865,2.615-14.767,2.462l-2.638.196-7.927.059c-.416.003-.66-.087-.757-.4.863-.223,1.794-.437,2.805-.428l3.431.029c.858.007,1.684-.349,2.553-.017.341.13.777.139.991-.158.136-.188.123-.61-.028-.957.863-.07,1.767-.339,2.737-.201.294.042.243.924.038,1.11.625.005,1.069-.88,1.494-1.073l3.766-.713c.948-.18,2.009.443,2.883-.426l-.758-.279c.615-.241.868-.484,1.065-1.125l.798.572c.437-.406.907-.694,1.39-.917.509-1.688,2.053-3.35,3.511-4.39.668-.967,1.087-2.155,2.148-2.883l1.414-.969,1.973-1.396,2.206-.915c.613-.254,1.493,0,2.004-.646.519-.655,1.3-1.006,2.063-.838Z"/>
      <path class="cls-5" d="M109.605,139.987c-.536.283.574,1.595-.31,2.391-1.233,1.11-1.616,2.857-.889,4.286.578,1.138,1.351,1.555,2.598,1.571.768.01,1.557.429,2.431.137.145-.048.409.085.445.168s.028.26.007.331c-1.124.29-2.328-.035-3.586-.192l-5.768-.721-1.96-.426-1.886-.452c.045-.31.035-.641-.098-.839-.391-.585-1.216.117-2.546-.401.587-.057,1.222-.138,1.795-.451,1.904-1.039,3.23,1.357,4.773,1.494.951.084,1.306-1.339.995-2.16-.256-.677-.291-1.922.305-2.281,1.34-.808,2.535-1.564,3.19-2.922.26.02.364.344.503.466Z"/>
      <path class="cls-11" d="M89.473,132.34l.04,2.363c.344.207.911-.04,1.167-.38,1.12-1.486,2.847-.501,2.659-1.778.356-.149.576.095.951.162l2.669.478.367.543c.083.122.538-.161.773-.136l2.655.323-1.205,2.319c-1.205-.11-2.161.077-3.18.193.105-.837-1.202-2.803-2.29-2.59l-1.789,4.04c-.462,1.043-1.887,1.777-3.103,1.914-.391.044-1.068-.393-1.183.255-.7-1.08-1.058-2.352-1.354-3.607-.222-.94.115-2.02.394-2.9l.22-.201c.786-.25,1.171-1.116,2.209-.998Z"/>
      <path class="cls-13" d="M95.659,128.508l-.022.919c-1.084-.411-2.185.714-2.332,1.861-.046.36-.484.919.033,1.256.188,1.277-1.539.292-2.659,1.778-.256.34-.823.587-1.167.38l-.04-2.363c.469.053.874.216,1.443.555.233-.214.281-.56.209-.882-.043-.192-.261-.356-.525-.544.372-.043.553-.026.778-.122.043-.018.588-1.556,1.896-2.805l1.214-.42c.757-.262.877.267,1.171.387Z"/>
      <path class="cls-15" d="M103.557,133.307c-.009.496.496.771.726,1.198.431.801.534,1.776,1.18,2.428.993,1.002,3.085.652,3.64,2.587-.654,1.358-1.85,2.114-3.19,2.922-.596.359-.561,1.604-.305,2.281.31.821-.044,2.244-.995,2.16-1.544-.137-2.869-2.533-4.773-1.494-.573.313-1.207.394-1.795.451-.659-.257-.838-.815-.755-1.495l.212-1.748c.123-1.015-.106-2.028-.86-2.558-.093-.066-.214-.203-.274-.29-.41-1.146-.882-1.431-.488-2.875.244-.036.463-.222.491-.448,1.018-.117,1.974-.303,3.18-.193l1.205-2.319.999-.718c.586-.421,1.283.085,1.805.111Z"/>
      <path class="cls-9" d="M96.846,129.753c-.403.081-.842-.186-1.209-.325l.022-.919c.475.194,1.114.544,1.187,1.244Z"/>
      <path class="cls-13" d="M96.366,139.75c.06.087.181.224.274.29l-1.207,3.938c.632.412,1.274.434,1.856.368-.082.681.096,1.238.755,1.495,1.329.517,2.155-.184,2.546.401.133.199.143.529.098.839-2.698-.646-5.407-1.414-8.026-2.621l-1.65-.988c-.384-.23-.665-.527-.842-.826.755.155,1.383-.359,2.132-.508.539.902.63,1.83,1.803,1.65l1.979-4.031.284-.006Z"/>
      <path class="cls-13" d="M96.369,136.427c-.028.226-.247.412-.491.448.104-.38-.046-.834-.215-1.17-.119-.237-.154-.565-.439-.755l-1.305,2.815c-.565,1.22-1.311,1.973-2.478,2.631l-2.036,1.742c-.683-.512-.944-1.385-1.401-2.091.115-.647.792-.21,1.183-.255,1.216-.138,2.642-.872,3.103-1.914l1.789-4.04c1.088-.214,2.394,1.752,2.29,2.59Z"/>
      <path class="cls-5" d="M95.663,135.705c-.115.004-.188.088-.199.251-.145,2.182-1.038,4.112-2.758,5.419-.268.204-.362.553-.406.763-.748.15-1.376.664-2.132.508-.106-.179-.329-.253-.537-.206-.039-.091-.142-.239-.227-.303l2.036-1.742c1.168-.658,1.913-1.411,2.478-2.631l1.305-2.815c.285.191.319.518.439.755Z"/>
      <path class="cls-13" d="M119.783,135.553c.342-.091.706-.1,1.055-.048.396.059.756-.116,1.207-.214.173-.037.289.388.189.504-.595.691-2.875.385-2.452-.241Z"/>
      <path class="cls-6" d="M120.838,135.505c-.349-.052-.713-.042-1.055.048-.219.048-.421-.19-.282-.335.358-.374,1.163-.318,1.321-.111.06.079.044.314.016.397Z"/>
      <path class="cls-13" d="M152.974,131.421l-.011.763c-.047-.066-.126-.044-.168-.043-.763-.168-1.544.183-2.063.838-.512.646-1.392.392-2.004.646l-2.206.915-1.973,1.396-1.414.969c-1.061.728-1.48,1.916-2.148,2.883-1.458,1.041-3.002,2.702-3.511,4.39-.483.222-.953.51-1.39.917l-.798-.572c-.197.641-.45.884-1.065,1.125l.758.279c-.874.869-1.935.247-2.883.426l-3.766.713c-.425.193-.869,1.078-1.494,1.073.205-.186.256-1.068-.038-1.11-.97-.138-1.874.132-2.737.201.151.347.163.769.028.957-.214.297-.65.288-.991.158-.869-.331-1.694.024-2.553.017l-3.431-.029c-1.012-.009-1.942.205-2.805.428l-.425.11c.02-.072.029-.249-.007-.331s-.3-.216-.445-.168c-.873.292-1.663-.127-2.431-.137-1.247-.016-2.02-.433-2.598-1.571-.727-1.429-.344-3.176.889-4.286.885-.796-.225-2.108.31-2.391.342.302.464.887.634,1.355.463,1.272-.322,2.201.468,4.099l1.125-1.409c.317.765.768,1.477,1.608,1.588,1.682-.4,2.426-1.55,3.631-.167l.593-.077c.154-.02.36.218.56.522.266-.387.226-.616.259-1.059l2.202-.858c.863-.336,1.554-.527,2.286-1.125.624-.51,1.815-.376,2.446.03l.162.659c.033.133.552.003.697-.22.411-.634.921-.614,1.623-.868.365-.132.333-1.171.587-1.447.513-.557.797-1.062.271-1.751-.09-.118-.345-.409-.352-.592-.007-.193.461-.317.672-.574.248-.3.505-1.214,1.122-1.109.606.103,1.265.037,1.912.028.33-.004,1.227.357,1.24-.415-.177-.368-.817-.96-.425-1.577l1.417-.369c1.039-.271,1.757-.432,2.77-.243.505.094,1.198-.326,1.574-.546l-1.785.115c.173-.544.887-.429,1.164-.646.925-.727,1.722-.911,2.83-1.11l1.335-1.001c.447-.335.578-.848.523-1.296l5.478-1.883c1.112-.382,2.819-2.655,2.124-3.859-.097-.217-.057-.629-.027-.875,1.068.132,2.609,2.759,2.616,3.778l.028,4.336Z"/>
      <path class="cls-2" d="M95.878,136.875c-.395,1.445.078,1.729.488,2.875l-.284.006-1.979,4.031c-1.172.18-1.263-.748-1.803-1.65.044-.211.137-.559.406-.763,1.72-1.307,2.613-3.237,2.758-5.419.011-.163.084-.247.199-.251.169.336.319.79.215,1.17Z"/>
      <path class="cls-11" d="M97.288,144.346c-.582.066-1.224.045-1.856-.368l1.207-3.938c.755.53.983,1.543.86,2.558l-.212,1.748Z"/>
    </g>
  </g>
</svg>