<?xml version="1.0" encoding="UTF-8"?>
<svg id="_レイヤー_1" data-name="レイヤー 1" xmlns="http://www.w3.org/2000/svg" width="240" height="240" viewBox="0 0 240 240">
  <defs>
    <style>
      .cls-1 {
        fill: #f4cdd2;
      }

      .cls-2 {
        fill: #799152;
      }

      .cls-3 {
        fill: #bc5851;
      }

      .cls-4 {
        fill: #f9d6dc;
      }

      .cls-5 {
        fill: #d49647;
      }

      .cls-6 {
        fill: #db9297;
      }

      .cls-7 {
        fill: #eec278;
      }

      .cls-8 {
        fill: #d28683;
      }

      .cls-9 {
        fill: #524c25;
      }

      .cls-10 {
        fill: #cf7374;
      }

      .cls-11 {
        fill: #da9fa6;
      }

      .cls-12 {
        fill: #6d7339;
      }

      .cls-13 {
        fill: #a8bf7d;
      }

      .cls-14 {
        fill: #dfadb3;
      }

      .cls-15 {
        fill: #ebb6bd;
      }

      .cls-16 {
        fill: #edbfc6;
      }
    </style>
  </defs>
  <path class="cls-9" d="M120.145,140.495c.027.431.156.881.418,1.25-.06.273.133.657.248.914l.225.504c.057.128.209.34.237.474.084.501.39.923.615,1.382l.389.794-.949,4.516c-.188.922-.315,1.691.235,2.399-.026.078-.019.167.034.262-.457,1.001-1.307,1.817-1.508,3.013-.089.528-.186.913-.457,1.283l-2.216,3.029c-2.277,2.461-7.663,7.351-9.084,5.475,1.47-2.027,4.647-2.934,6.062-4.916,1.004-1.407,1.39-3.245,1.449-5.06-1.092.33-2.051.635-2.922,1.233l-1.459,1.689c-.471.034-1.453,1.455-2.603.221l-.481-.191c.469-1.109,1.23-1.54.455-3.159.41.073.766.247,1.278.571,1.122-1.41-.539-2.485-.286-3.075.093-.217.485-.199.732-.167l.945.959c.657.668,1.273,1.13,1.215,2.232,1.67-1.336,3.573-5.079,4.004-7.04l.566-2.579c.187-.852,1.034-1.497,1.184-2.42.689-.765,1.215-2.418,1.205-3.556l.47-.037Z"/>
  <path class="cls-8" d="M118.47,144.088c-.15.923-.997,1.568-1.184,2.42l-2.271,2.073c-3.346,3.021-9.181,4.558-13.477,2.853-.525-.208-.783-.624-1.067-.791l3.09-.354c1.428-.126,2.593-.847,4.12-.675,1.017.115,1.962-.59,2.875-.886.518-.168.937-.288.948-.816l.968-.418c.784-.339,1.592-.879,2.303-1.548l2.207-2.074c.736-.691,1.351-4.699.22-4.919l.07-.299c1.037-.058.001-2.669-1.267-3.163-.507-.198-.804-.487-.716-.969.897.403,1.908.867,2.744,1.618.174.523.668,1.373.602,1.968l-.521,4.697c-.052.467.072.989.354,1.283Z"/>
  <path class="cls-14" d="M116.998,141.248c.165.78.025,1.593-.79,2-.831,1.262-1.696,2.468-2.907,3.37-.369.275-.751.445-.829.876l-.968.418-2.54.864c-1.41.48-2.892.41-4.142-.459l-1.907.451c-1.206.285-2.229.884-3.466,1.094-.454-.512-.804-1.089-1.179-1.703.367-.378.265-.865.291-1.444.035-.804.458-1.75.094-2.546-.183-.399-1.064-1.052-1.504-.985l-2.114.32c-.983.149-1.846.684-2.784.59-.369-.472-.701-.877-.91-1.401.132-.04.233-.042.303-.013.611.258,1.953.501,2.571.015.963-.757,1.649-1.151,2.904-1.064.866.06,1.259.216,1.782.953.358.505.68.924.59,1.77l-.3,2.805c-.048.449-.172.787.096,1.097.142.165.535.48.814.291l1.718-1.165c.071-.509-.11-.976.334-1.505l.423,1.459c.597-.583.24-1.429.327-2.014.651-.678,1.862-.235,2.236.519,1.027,2.07,3.365,1.37,5.158,1.069.671-.112,1.429.177,2.12-.487l3.528-3.39c.213-.204.218-.532.084-.691-.198-.236-.674-.255-.757-.641.145-.198.189-.563.291-.766.19-.126.541-.235.677-.421.351.139.566.431.754.732Z"/>
  <path class="cls-6" d="M149.148,138.835c-.237-.093-.552-.177-.818-.04-.17.088-.208.349-.314.6l-.851,2.021c-.224.26-.533.705-.803,1.11-.846,1.271-2.479,1.655-3.924,1.594-1.11-.047-1.834.599-2.24,1.581l-.695,1.682c-1.366,3.308-3.9,2.915-4.043,3.567-.157.716,1.597.792,2.375.243l.035.383c-.407.117-.815.46-1.457.446l-4.242-.094c-2.807-.505-5.349-1.679-7.332-3.492.131-.077.243-.104.323-.09.152.026.391.088.57-.052.891.933,2.112,1.774,3.469,2.027,1.783.333,4.504.386,4.795.118.068-.063.099-.208.087-.344.5.013,1.266-.012,1.75-.383l1.354-1.035c.701-.536,1.352-1.228,1.892-1.931l.749-1.861c.344-.853,1.07-1.383,1.987-1.367,1.404.024,2.217-.598,3.22-1.392.798-.631,1.813-.903,2.205-2.14.125-.393.298-1.181.59-1.534.384-.466,1.062.106,1.315.383Z"/>
  <path class="cls-12" d="M108.332,165.789c-.064-.084-.206-.25-.346-.203l-.584-.357c-.278-.172-.393-.521-.482-.753-.003-.237.001-.762.323-.863.436-.138.947-.116,1.285-.435l3.195-3.012c.544-.513,1.149-.765.948-1.742-.489.188-.829.284-1.209.312l1.459-1.689c.871-.598,1.831-.904,2.922-1.233-.059,1.815-.444,3.652-1.449,5.06-1.415,1.983-4.592,2.889-6.062,4.916Z"/>
  <path class="cls-12" d="M124.185,152.894c.303,1.271-.756,1.84-1.31,2.989.506.259,1.087.513,1.584.429.173.467.47.886.495,1.416-.236,1.325-2.613,1.338-4.16.321l-1.162-.763c.27-.37.368-.755.457-1.283.201-1.196,1.051-2.012,1.508-3.013,1.812-.9,2.011-.27,2.588-.096Z"/>
  <path class="cls-6" d="M111.504,147.913c-.01.528-.43.648-.948.816-.913.296-1.858,1.001-2.875.886-1.527-.173-2.692.548-4.12.675l-3.09.354c-.393-.231-.693-.406-1.023-.779,1.237-.21,2.259-.809,3.466-1.094l1.907-.451c1.251.869,2.732.938,4.142.459l2.54-.864Z"/>
  <path class="cls-3" d="M106.92,164.476c-.291-.209-.53-.521-.458-.958.011-.197-.066-.389-.245-.48-.151-.349-.09-.602-.031-.901.319-.054.579.18.838.303.986.469,1.723-.12,2.333-.833.403-.471,1.144-.659,1.207-1.486-1.398-.118-2.136,1.264-3.223.998-.141-.034-.23-.27-.168-.519.303-.215.573-.623,1.079-.807.402-.146.631-.493.606-.838,1.151,1.235,2.132-.187,2.603-.221.381-.027.72-.124,1.209-.312.201.977-.404,1.229-.948,1.742l-3.195,3.012c-.339.319-.849.298-1.285.435-.322.102-.325.626-.323.863Z"/>
  <path class="cls-6" d="M98.269,148.16c-.289-.473-.79-1.03-1.216-1.375l.929-1.119c.266-.315.214-1.323-.194-1.476-1.089-.408-2.089.147-3.145.31-.501.078-1.025.028-1.075.582l-.567-.016-.748-.971c.938.094,1.801-.441,2.784-.59l2.114-.32c.44-.067,1.321.586,1.504.985.364.796-.059,1.742-.094,2.546-.025.579.076,1.066-.291,1.444Z"/>
  <path class="cls-8" d="M97.053,146.786c-.465-.376-1.234-.588-1.744-.352.34-.693-.975-.368-1.741-1.351.05-.553.574-.504,1.075-.582,1.056-.163,2.056-.718,3.145-.31.408.153.46,1.161.194,1.476l-.929,1.119Z"/>
  <path class="cls-8" d="M126.308,153.382l-.085,1.196c-.007.77-1.051,1.615-1.764,1.734-.497.083-1.078-.17-1.584-.429.554-1.149,1.614-1.718,1.31-2.989.711.214,1.468-.034,2.123.488Z"/>
  <path class="cls-8" d="M142.47,147.186l-.545.919-1.832,2.24c-.62.759-1.417.999-2.221,1.231l-.035-.383,1.498-1.058,1.424-3.707c.706.11,1.216.488,1.711.759Z"/>
  <path class="cls-12" d="M122.821,146.011l.089.3.053.421c.078.626-.017,1.247-.182,1.941l-.832,3.498c-.069.29-.23.471-.387.558-.55-.708-.424-1.476-.235-2.399l.949-4.516.544.197Z"/>
  <path class="cls-10" d="M124.954,157.728c-.025-.53-.322-.949-.495-1.416.714-.12,1.757-.964,1.764-1.734l.085-1.196c.362.289.908.301,1.087.873.533,1.703-.688,2.49-2.44,3.474Z"/>
  <path class="cls-12" d="M108.132,155.114c-.228.248.149.704.281.176.057-.002.306.048.423.084l-.003.232c.775,1.619.015,2.049-.455,3.159-2.129-2.271-1.229-2.893-1.034-3.66l.788.009Z"/>
  <path class="cls-10" d="M106.186,162.137c.136-.69.421-1.135.987-1.537-.063.249.027.485.168.519,1.087.266,1.825-1.116,3.223-.998-.063.827-.805,1.015-1.207,1.486-.609.713-1.346,1.302-2.333.833-.259-.123-.519-.358-.838-.303Z"/>
  <path class="cls-3" d="M110.556,152.936c-.248-.031-.639-.049-.732.167-.252.589,1.408,1.664.286,3.075-.513-.324-.869-.498-1.278-.571l.003-.232c.692-.669-.467-1.877.015-2.939.618-.331,1.247.035,1.706.501Z"/>
  <path class="cls-8" d="M108.835,155.374c-.117-.035-.366-.086-.423-.084-.041-.108-.185-.179-.281-.176l-.788-.009.443-1.739c.157-.615.637-.704,1.063-.932-.482,1.063.677,2.27-.015,2.939Z"/>
  <path class="cls-11" d="M125.164,148.345c-.08-.014-.192.013-.323.09-.468-.428-1.095-.689-1.459-1.392-.085-.165-.304-.272-.419-.311l-.053-.421c.664-.088.962.535,1.457.973.382.338.91.523.797,1.062Z"/>
  <path class="cls-10" d="M106.461,163.518c-.117-.12-.18-.332-.245-.48.179.091.255.283.245.48Z"/>
  <path class="cls-9" d="M107.986,165.586c-.346.118-.425-.258-.584-.357l.584.357Z"/>
  <path class="cls-7" d="M108.67,101.444l.877,1.142c-.617,1.156-2.17,1.48-2.406,2.518l-1.38-.758c-.109-.488-.294-.961-.268-1.488l.005-.231.011-.219c.101-.063.195-.153.251-.257.013-.042,0-.141-.018-.203.327-.236.69-.81,1.206-.726l1.721.221Z"/>
  <path class="cls-1" d="M90.806,141.721l-.416-.892-.29-1.942c.584-.107,1.136.132,1.778.445.808-.676.977-1.608.963-2.653l.596-1.498c.107-1.734.212-3.559,1.345-4.902.872-1.033,1.102-2.274,1.081-3.697-.71-.062-1.295.034-1.841.291l-.034-.268c.848-.389,1.361-1.333,2.163-1.716l1.436-.687c.197.18.475.307.889.379.185,2.164-1.345,3.989-2.304,6.106l-.914,2.017.12,1.035c-.461,2.454.173,3.899-.624,4.625-.55.501-.455,1.002-.577,1.673-.323,1.786-3.06.742-3.371,1.684Z"/>
  <path class="cls-4" d="M90.1,138.888c-.103-.689-.174-1.381-.146-2.238l.055-1.664c.328-.679.275-1.439.518-2.124.471-1.323,1.045-2.61,1.742-3.825l.566-.986c.166-.289.692-.46.685-.941l.501-.235c.546-.256,1.132-.353,1.841-.291.021,1.423-.209,2.664-1.081,3.697-1.134,1.343-1.239,3.167-1.345,4.902l-.596,1.498c.013,1.045-.155,1.977-.963,2.653-.642-.313-1.194-.553-1.778-.445Z"/>
  <path class="cls-16" d="M144.893,126.409l.867.414c.333.115.592.366.712.695-.232-.06-.305.06-.334.204-.07.342.05.43.282.628,1.085.927,1.201,2.34,1.365,3.698.195,1.614.689,3.164.298,4.782-.351.399-.605,1.016-.918,1.487l-1.043,1.567c-.485.728-1.477,1.004-2.115,1.477-.946.702-1.869.696-2.956.965-1.225.303-1.656,1.977-2.335,2.836l-1.179,1.491-1.045,1.093c-.673.704-1.422.874-2.259.891l-1.179.024c-.335.007-.455-.254-.427-.462.95-1.818,3.467-2.196,5.325-3.723.693-1.378,1.595-1.98,2.812-2.821l1.66-1.147c.717-.495,1.188-1.086,2.072-1.26.968-.191,1.168-.875,1.602-1.548.707-1.096,1.269-2.294.634-3.468-.051-.177-.005-.496.004-.702.195-.17.349-.528.255-.916l-.667-2.741c-.312-1.284-1.607-1.94-2.487-2.756-1.859-1.724-4.145-.348-4.235.45l-.365,3.242c-.902.856-.878,2.138-1.506,3.103l-1.031,1.583c-.598.918-3.673,1.527-4.641,4.559l-1.387-.408c-.51.722-1.128.731-1.873.912-1.115.271-2.367.986-3.564.557-.848-.304-1.707-1.218-2.632-1.2-.717.014.048,1.503-.006,3.571l2.428,2.64c.569.619.97.837,1.828,1.127l2.339.791c1.027-.559,2.185-.455,2.98.18-.122.503-.819.355-1.133.471-.877.322-1.247.175-2.006-.064-1.101-.345-2.492-.358-3.435-1.148l-1.703-1.428c-.38-.318-.678-.816-1.198-.767-.064-.05-.105-.133-.137-.21-.246-.583-.614-1.298-1.287-1.443-.028-.134-.18-.345-.237-.474.21-.114.317-.288.401-.486.141-.332-.156-1.769-.257-1.917-.111-.163-.397-.252-.652-.247-.097-.227-.218-.466-.177-.745,1.331-.25.817-1.497,1.187-1.814.493-.422,2.097.504,3.159,1.72,1.143-.746,2.33-.735,3.523-.944,1.127-.198,1.972-.184,3.183.144-.136-.389-.389-1.127-.114-1.311,1.152-.711,2.066-1.667,3.113-2.398,1.216-.849,1.912-1.717,2.575-3.022.403-.793.861-1.381,1.006-2.399.1-.697.404-1.354.469-2.167.041-.508.525-1.277.84-1.69,1.302-.929,3.203-1.113,4.522-.208.381.261.605.705,1.077.731Z"/>
  <path class="cls-3" d="M135.453,118.044v.136c0,.301.142.561.455.568l.253,1.615c.086.548.422.981.99,1.01.184.76.842,1,1.559,1.327l-1.715-.057c-.481-.016-1.09.841-1.195,1.386l-1.016,5.258c-.559,1.422-1.867,2.302-2.951,3.246-.94.818-2.004,1.202-3.105,1.712-.942.437-1.779.655-2.868.768l-4.31.446c-.488.05-1.094-.17-1.42.355-.174.28-.183.712-.095,1.124.103.482.073,1.152-.054,1.635-.179.681.123,1.258.164,1.922l-.47.037-.023-2.684c-.01-1.197-.808-2.345-1.779-2.99-.758-.503-1.972-.162-1.953-.983,1.782.297,3.611.592,5.501.3l3.245-.501c2.166-.335,4.219-1.498,6.027-2.998,4.767-3.954,5.883-11.529,2.159-16.323-.043-.32.21-.446.591-.573l1.958-.654c1.745.93,3.7.419,4.658-1.138.743.341,1.111,1.9.262,2.419-1.235.756-3.512-.678-4.773.663-.585.622-.7,1.316-.587,2.199l.068.531c.018.139.211.263.425.243Z"/>
  <path class="cls-10" d="M115.723,133.65l.196.226c-.018.821,1.196.48,1.953.983.971.645,1.769,1.793,1.779,2.99l.023,2.684c.01,1.138-.516,2.791-1.205,3.556-.282-.294-.406-.816-.354-1.283l.521-4.697c.066-.595-.428-1.444-.602-1.968-.836-.751-1.847-1.215-2.744-1.618l-1.135-.51-2.064-1.016c-.729-.359-1.647-.328-1.826-1.223-.011-.056-.068-.103-.13-.11-.143.09-.604.046-.563-.355.022-.21.652-.089.692.193.01.073.083.142.182.135l3.906,1.744c.493.22.896.343,1.371.268Z"/>
  <path class="cls-15" d="M121.437,142.677l-.626-.017c-.115-.257-.309-.641-.248-.914.31-.344.147-.808-.035-1.232.255-.005.541.083.652.247.101.148.398,1.585.257,1.917Z"/>
  <path class="cls-11" d="M120.352,139.768c-.042.279.08.518.177.745.181.424.345.888.035,1.232-.263-.369-.391-.819-.418-1.25-.042-.664-.343-1.242-.164-1.922.533.166.433.781.371,1.195Z"/>
  <path class="cls-15" d="M122.56,145.08l-.672-.061c-.225-.46-.531-.881-.615-1.382.673.145,1.041.86,1.287,1.443Z"/>
  <path class="cls-11" d="M122.56,145.08c.032.076.073.159.137.21l.124.721-.544-.197-.389-.794.672.061Z"/>
  <path class="cls-11" d="M121.437,142.677c-.084.198-.191.372-.401.486l-.225-.504.626.017Z"/>
  <path class="cls-7" d="M134.2,101.903c.106.147.256.329.262.509-.83.222-1.525.674-2.454.808-.107.015-.216.437-.132.474.126.056.482-.133.799.292-.681.169-1.327.384-1.649,1.16l-1.138.278-1.962,2.608c-.321.427-.666.785-.68,1.268l-.243.054c-.203-.37-1.006-.584-.835-1.25.29-.085.425-.394.673-.678l2.596-2.964c.158-2.045,1.508-2.595,3.007-3.529.039.004.085.026.121.034.834.191,1.231.977,1.636.937Z"/>
  <path class="cls-5" d="M129.461,98.308l.418.729c.051.439.077,1.257-.205,1.606l-1.498,1.898-1.385.503c-.103.037-1.639,3.276-1.889,4.9l-.909.162c.01-.06-.026-.185-.062-.246.199-2.218,2.279-3.948,1.182-5.106-.073-.242.076-.64.152-.882.372.287.608-.364.847-.436,2.249-.674,1.132-2.451,3.075-3.116.06-.028.213-.023.276-.014ZM126.273,102.013l-.157.005.157.005h.162l.157-.005-.157-.005h-.162Z"/>
  <path class="cls-7" d="M128.333,97.584c.363.096.72.381.852.738-1.944.666-.826,2.443-3.075,3.116-.238.071-.475.723-.847.436-.229-1.182.201-2.383.911-3.38.329-.357.933-.704,1.392-.915.193-.038.581-.043.766.006Z"/>
  <path class="cls-10" d="M147.772,144.121c-1.841,2.149-4.089,1.804-5.12,3.072-.053.011-.133.019-.182-.008-.495-.271-1.005-.649-1.711-.759l-1.424,3.707-1.498,1.058c-.778.55-2.532.473-2.375-.243.143-.652,2.677-.258,4.043-3.567l.695-1.682c.405-.982,1.129-1.628,2.24-1.581,1.444.061,3.078-.323,3.924-1.594.27-.406.579-.851.803-1.11.235-.084.847-.024.779.247l-.495,1.963c-.071.282.093.494.322.496Z"/>
  <path class="cls-16" d="M97.939,124.043c.467.205,1.344.199,1.611.838.379.907.377,2.259-.075,3.069l-.955,1.713c-.535.96-.733,1.599-.739,2.718-.006,1.218-.363,2.424-.176,3.574.122.75.277,1.602,1.256,2.049.055-1.24.489-1.967,1.607-2.056.392-.031.907-.407,1.426-.208.685.263,1.509,1.311,1.322,2.095l-.496,2.076-.897,2.421c-.148.399-.801.694-.869.423-.053-.452.015-.786-.136-1.062-.117-.214-.684-.135-.959-.344-.478-.363-.901-.881-1.603-.799-.669.078-1.268-.27-1.773-.547-.399.437-.829.846-1.486.771l-.492,1.01-2.45.388c-.184.029-.361.059-.419.144-.048.071-.032.26.013.366-.071-.03-.172-.027-.303.013-.12-.301-.372-.619-.537-.973.311-.942,3.048.102,3.371-1.684.121-.671.026-1.172.577-1.673.797-.726.163-2.17.624-4.625l-.12-1.035.914-2.017c.959-2.116,2.489-3.941,2.304-6.106-.414-.071-.692-.199-.889-.379l.352-.161Z"/>
  <path class="cls-6" d="M105.127,124.195c.024.199.259.377.399.509-.06.593.207,1.114.475,1.637,1.615,3.145,2.476,3.994,5.915,4.877.673.173,1.208.171,2.002.056l2.065.523,3.317-.534c.94-.151,2.827-.754,4.049-1.195l2.777-2.757c.426-.423.515-1.234,1.231-1.201l.455.225c.135,1.378-.318,3.179-1.665,3.882l-3.943,2.058c-3.288.8-6.255-.555-6.481,1.376-.475.076-.878-.047-1.371-.268l-3.906-1.744-.181.137c.179.895,1.097.864,1.826,1.223l2.064,1.016,1.135.51c-.089.482.208.771.716.969,1.268.494,2.304,3.105,1.267,3.163-.22-.324-.47-.691-.502-1.103-.035-.451-.231-1.072-.762-1.365l-3.845-2.124c-.901-.498-2.197,1.715-4.027,2.837-.189.116-.546-.43-.489-.602l.206-.626c.243-.737.785-1.236.686-2.166-1.157.318-1.677-.527-2.855-.713.255-.538.466-1.296.151-1.687-.443-.551-1.031.133-1.356.16-.862.07-1.602.442-2.353.566-.831.137-1.291-1.118-1.731-1.603-.66-.224-1.152.63-1.91.698.737-1.561,2.24-2.283,3.329-3.437,1.301-1.379,1.514-2.935,3.313-3.294ZM110.263,131.503c-.039-.282-.67-.402-.692-.193-.041.401.42.445.563.355l.129-.162Z"/>
  <path class="cls-6" d="M112.472,147.494c.079-.431.46-.601.829-.876,1.211-.902,2.076-2.109,2.907-3.37.815-.407.955-1.221.79-2,.552-.653.39-1.531.204-2.294,1.132.219.516,4.228-.22,4.919l-2.207,2.074c-.712.669-1.519,1.209-2.303,1.548Z"/>
  <path class="cls-11" d="M116.771,137.552c.032.411.282.779.502,1.103l-.07.299c.186.763.348,1.64-.204,2.294-.188-.3-.403-.593-.754-.732.288-.604.5-1.367.292-1.989l-.193-.578c-.069-.206.2-.382.428-.398Z"/>
  <path class="cls-15" d="M116.536,138.528c.208.621-.005,1.384-.292,1.989-.137.186-.487.295-.677.421-.325.037-1.067.222-1.232-.147l-.793-1.77c-1.054-.764-2.023.129-2.833.347-1.671.45-2.803,1.016-3.786,2.359-.568.776-.893,1.07-.556,2.223.233.796.397,1.283,1.301,1.593,1.205.413,2.194.372,3.309-.285.772-.455,2.014-.434,2.594-1.227l1.703-2.327c.084.385.559.405.757.641.133.159.128.486-.084.691l-3.528,3.39c-.691.664-1.449.375-2.12.487-1.794.3-4.132,1.001-5.158-1.069-.374-.754-1.585-1.197-2.236-.519-.087.585.27,1.431-.327,2.014l-.423-1.459c-.444.529-.263.997-.334,1.505l-1.718,1.165c-.279.19-.672-.126-.814-.291-.269-.31-.144-.648-.096-1.097l.3-2.805c.091-.846-.232-1.265-.59-1.77-.523-.737-.916-.893-1.782-.953-1.255-.087-1.941.306-2.904,1.064-.618.486-1.96.243-2.571-.015-.045-.106-.061-.295-.013-.366.058-.085.236-.115.419-.144l2.45-.388.492-1.01c.657.075,1.086-.333,1.486-.771.505.277,1.104.626,1.773.547.702-.082,1.126.436,1.603.799.275.209.842.13.959.344.151.276.083.61.136,1.062.068.271.721-.024.869-.423l.897-2.421.496-2.076c.187-.785-.636-1.832-1.322-2.095-.519-.199-1.033.176-1.426.208-1.118.089-1.552.817-1.607,2.056-.979-.446-1.133-1.298-1.256-2.049.41.086.391-.341.579-.62.41-.607,1.12-1.237,1.695-1.635l3.47-.845c.744.274.76,1.295,2.065,1.747.099,1.958.472,2.54,2.43,3.052,2.329-.55,3.165-3.744,4.499-2.809l2.677,1.878c1.181.828.837,2.007,1.518,1.805Z"/>
  <path class="cls-14" d="M146.472,127.518c.853.475,1.001,1.545,1.726,1.97.01.049.019.128-.068.175,1.58,3.181,2.346,6.693,1.656,10.18-.093-.436-.352-.697-.637-1.008-.254-.277-.931-.848-1.315-.383-.292.353-.465,1.142-.59,1.534-.392,1.237-1.407,1.508-2.205,2.14-1.003.794-1.817,1.417-3.22,1.392-.917-.016-1.644.514-1.987,1.367l-.749,1.861c-.54.702-1.191,1.395-1.892,1.931l-1.354,1.035c-.484.37-1.25.396-1.75.383l-1.24-.032c.138-.701,1.31-.6,1.386-1.426.837-.017,1.586-.188,2.259-.891l1.045-1.093,1.179-1.491c.679-.859,1.11-2.533,2.335-2.836,1.087-.269,2.009-.263,2.956-.965.638-.473,1.631-.748,2.115-1.477l1.043-1.567c.313-.47.567-1.088.918-1.487.391-1.618-.103-3.169-.298-4.782-.164-1.358-.28-2.771-1.365-3.698-.232-.198-.352-.286-.282-.628.03-.144.102-.264.334-.204Z"/>
  <path class="cls-15" d="M132.172,148.225l.453-.025c-.027.208.092.469.427.462l1.179-.024c-.076.825-1.248.724-1.386,1.426l-4.307-.524-2.804-1.246c-.18.139-.419.078-.57.052.113-.539-.415-.724-.797-1.062-.495-.437-.793-1.061-1.457-.973l-.089-.3-.124-.721c.52-.049.818.448,1.198.767l1.703,1.428c.943.791,2.334.803,3.435,1.148.759.238,1.129.385,2.006.064.314-.115,1.011.032,1.133-.471Z"/>
  <path class="cls-8" d="M149.148,138.835c.285.311.544.573.637,1.008-.317,1.603-.945,3.032-2.013,4.278-.229-.003-.393-.215-.322-.496l.495-1.963c.068-.271-.544-.331-.779-.247l.851-2.021c.105-.25.144-.512.314-.6.266-.137.581-.053.818.04Z"/>
  <path class="cls-11" d="M132.846,150.064l1.24.032c.012.136-.019.281-.087.344-.291.268-3.012.214-4.795-.118-1.357-.253-2.578-1.095-3.469-2.027l2.804,1.246,4.307.524Z"/>
  <path class="cls-15" d="M141.074,124.009c.067-.041.229-.088.309-.07.01.136-.011.503.143.667.198.21.571,0,.616-.192.759.162,1.389.587,2.043.968.281.164.533.361.703.653l.005.374c-.472-.026-.696-.469-1.077-.731-1.318-.905-3.22-.721-4.522.208-.316.413-.8,1.182-.84,1.69-.065.813-.37,1.47-.469,2.167-.146,1.018-.603,1.607-1.006,2.399-.663,1.305-1.359,2.173-2.575,3.022-1.047.731-1.961,1.687-3.113,2.398-.275.184-.021.921.114,1.311-1.211-.329-2.055-.342-3.183-.144-1.193.209-2.381.198-3.523.944-1.062-1.216-2.666-2.142-3.159-1.72-.371.317.143,1.564-1.187,1.814.062-.414.162-1.029-.371-1.195.127-.483.157-1.153.054-1.635l.374-.025c.51-.234,1.042-.269,1.693-.065l1.422.445c1.009.638,1.898.346,2.837-.132,1.114-.567,2.424-.25,3.668.339.128-.955.479-1.542,1.171-1.989l1.608-1.039c1.057-.683,1.787-1.755,2.601-2.638.984-1.067,1.641-2.503,1.855-3.983.045-.31.495-.697.279-1.192-.327-.749-.214-1.963.669-2.329,1.074-.445,2.364.032,2.862-.32Z"/>
  <path class="cls-8" d="M139.695,115.319c.2.985-2.19-.137-3.447.766-.774.556.125,3.143,1.516,4.383l2.005,1.787,4.891,1.089c.044.086.057.216.018.278-.072.114-.331.218-.556.176l-4.316-.815c-.158.022-.271.136-.267.251-.082-.04-.187-.082-.276-.105.169-.467-.429-.571-.477-.085-.697.045-1.995.596-2.26,1.403-.32.975-.033,2.109-.108,3.064-.073.932-.509,1.572-.799,2.304-.526,1.328-1.251,2.158-2.343,2.999l-1.899,1.462c-.672.517-1.386,1.001-2.219,1.065-.306,1.027-1.365.217-4.274,1.001-1.915.517-4.596-1.099-4.475.571l-.374.025c-.088-.412-.079-.844.095-1.124.326-.525.932-.305,1.42-.355l4.31-.446c1.088-.113,1.926-.331,2.868-.768,1.1-.511,2.165-.894,3.105-1.712,1.085-.944,2.392-1.824,2.951-3.246l1.016-5.258c.105-.545.714-1.402,1.195-1.386l1.715.057c-.717-.327-1.374-.567-1.559-1.327-.158-.65-.271-1.006-.99-1.01l-.253-1.615c-.024-.153.066-.395-.093-.533-.071-.061-.281-.062-.362-.036v-.136s-.012-1.766-.012-1.766c-.009-1.286,2.242-1.413,4.255-.958Z"/>
  <path class="cls-11" d="M138.787,123.044c.186-.012.342.052.477.085.088.022.194.065.276.105l1.535.775c-.498.353-1.788-.124-2.862.32-.883.366-.996,1.58-.669,2.329.216.495-.234.883-.279,1.192-.213,1.481-.871,2.916-1.855,3.983-.814.883-1.544,1.955-2.601,2.638l-1.608,1.039c-.692.447-1.043,1.034-1.171,1.989-1.244-.59-2.554-.907-3.668-.339-.939.478-1.828.77-2.837.132l-1.422-.445c-.651-.204-1.183-.169-1.693.065-.121-1.67,2.56-.054,4.475-.571,2.909-.785,3.968.025,4.274-1.001.834-.063,1.547-.547,2.219-1.065l1.899-1.462c1.093-.841,1.817-1.672,2.343-2.999.29-.732.726-1.372.799-2.304.075-.955-.213-2.089.108-3.064.265-.807,1.563-1.358,2.26-1.403Z"/>
  <path class="cls-11" d="M142.142,124.414c-.045.193-.418.402-.616.192-.154-.164-.133-.531-.143-.667.296.069.631.203.759.475Z"/>
  <path class="cls-9" d="M108.412,155.291c-.132.528-.509.071-.281-.176.095-.003.24.068.281.176Z"/>
  <path class="cls-4" d="M117.257,107.424c.066-.012.188-.002.247.023.439.291.957.134,1.419-.036l1.246.203c.003.243.089.506.226.619.403.333,1.646-.106,1.95.303.834,1.122,1.148,2.46,1.605,3.8-1.313,1.175-3.213.966-3.622,2.411-.283.999-1.059,1.039-1.688,1.505-.479.354-.677,1.059-1.165,1.156-1.384.276-2.054-.771-3.405.642-.815-.402-1.733-.76-2.575-.352-.567.275-1.403.467-1.356,1.457.632-.314.752-.76,1.247-.888.297-.077.684.283.793.644-.005.426-.225.885-.597.984-.586.155-.979-.156-1.363-.916-.585.569-.47,1.45-.269,2.06-.093.263-.517.45-.751.248-1.226-1.058-2.35.652-3.363.052-.869-.514-.231-1.67-.873-1.912l.073-.765c.515.112.524-.325.719-.646.766-1.262,1.27-2.406,1.766-3.696.237-.617,1.086-1.265.804-2.057.066-.287.488-.755.779-.761.982-.02,1.828-.693,1.842-1.697l.79-.262c.972.059,2.049-.353,2.318-1.348l.787-.294c.726.398,1.642.141,2.184-.436l.233-.041Z"/>
  <path class="cls-15" d="M104.789,121.785l.255,1.724c-1.664.717-2.252.578-3.053,2.021-.313.563-.911,1.013-1.095,1.741-.169.668-.852.98-1.421.679.452-.81.454-2.161.075-3.069-.267-.639-1.143-.634-1.611-.838,1.588-1.061,4.847-2.16,6.85-2.257Z"/>
  <path class="cls-16" d="M109.949,121.038c.18.546.751.993,1.119,1.466-.324.081-.605.166-.974.216l-2.196.295c-.325.044-.714-.08-.953.072-.535.343-.191,1.617-1.419,1.616-.14-.132-.375-.31-.399-.509l-.083-.686-.255-1.724c-.114-.775.1-1.591.173-2.359.642.242.004,1.398.873,1.912,1.013.6,2.137-1.11,3.363-.052.234.202.658.014.751-.248Z"/>
  <path class="cls-16" d="M107.52,114.319c-.496,1.289-.999,2.433-1.766,3.696-.195.322-.204.759-.719.646l.019-.57c.191-.092.193-.266.253-.443l.431-1.273c.25-.738.653-1.459,1.203-1.998l.579-.058Z"/>
  <path class="cls-5" d="M110.293,103.078c-.024.352.131.645.223.953.14.471.396.857.715,1.218-.3-.029-.642.048-.849.222-.327.275-.363.697-.315,1.063-.56-.694-1.365-.594-2.157-.59-.472.002-.604-.6-.767-.84.236-1.038,1.788-1.362,2.406-2.518.124.21.529.371.745.492Z"/>
  <path class="cls-1" d="M146.736,133.531c-.287-.141-.468-.539-.467-.964.007-2.243-1.547-4.015-3.786-4.223-.58.257-.587,1.27-.959,1.657-.425.443-1.047.534-1.08,1.391-.016.423-.65.879-.775,1.276-.773,2.444,1.363,4.814-.912,5.87l-1.819.844c-1.666.773-2.548,4.069-5.628,3.641-1.16-.161-2.318-.108-3.435-.618-.419.386-.799.824-1.331.906-1.242.191-1.99-1.335-2.632-1.017-.133.066-.202.35-.165.475.039.133.212.299.381.473l2.45,2.537,2.736,1.097c.509.204,1.479.211,2.05.241.885.048,1.716-.656,2.279-1.219.583-.582,1.179-.716,1.796-1.121l2.331-1.531,1.754-1.754c1.141-.455,1.59-1.26,2.188-2.269,1.555-1.578,3.817-2.337,4.443-4.371.098-.318.255-.594.576-.619.634,1.174.073,2.372-.634,3.468-.434.673-.635,1.357-1.602,1.548-.885.174-1.355.765-2.072,1.26l-1.66,1.147c-1.217.841-2.118,1.443-2.812,2.821-1.858,1.527-4.375,1.906-5.325,3.723l-.453.025c-.796-.635-1.953-.739-2.98-.18l-2.339-.791c-.858-.29-1.259-.508-1.828-1.127l-2.428-2.64c.054-2.067-.711-3.557.006-3.571.926-.018,1.784.896,2.632,1.2,1.197.428,2.45-.287,3.564-.557.745-.181,1.363-.19,1.873-.912l1.387.408c.969-3.032,4.044-3.641,4.641-4.559l1.031-1.583c.628-.965.604-2.247,1.506-3.103l.365-3.242c.09-.797,2.376-2.173,4.235-.45.88.816,2.174,1.471,2.487,2.756l.667,2.741c.094.388-.06.746-.255.916Z"/>
  <path class="cls-4" d="M146.736,133.531c-.009.206-.056.524-.004.702-.321.025-.478.301-.576.619-.626,2.034-2.888,2.793-4.443,4.371-.598,1.009-1.047,1.814-2.188,2.269l-1.754,1.754-2.331,1.531c-.616.405-1.213.539-1.796,1.121-.564.563-1.395,1.267-2.279,1.219-.571-.031-1.541-.037-2.05-.241l-2.736-1.097-2.45-2.537c-.168-.174-.342-.34-.381-.473-.037-.125.032-.409.165-.475.642-.318,1.39,1.208,2.632,1.017.532-.082.912-.52,1.331-.906,1.117.51,2.275.457,3.435.618,3.081.428,3.963-2.868,5.628-3.641l1.819-.844c2.275-1.056.139-3.426.912-5.87.126-.397.759-.853.775-1.276.032-.857.654-.948,1.08-1.391.371-.387.378-1.4.959-1.657,2.239.208,3.793,1.98,3.786,4.223-.001.424.18.823.467.964Z"/>
  <g>
    <path class="cls-13" d="M88.456,123.195c.531-.083.734.335,1.019.414-1.87,1.443-.738,2.326-1.378,3.023.335,1.109-.367,1.797-1.231,2.493-.752.606-1.349,2.156-2.637,1.945-.614-.101-1.351-1.156-2.185-.344.944.46,1.822,1.366,1.599,2.264-.652.035-1.319.171-1.729.72-1.621,2.167-3.431,2.879-2.933,3.686.513.831,2.279-.183,2.124-.154.508-.096,1.302-.199,1.971-.405l4.431-1.362,2.5-.487-.055,1.664c-.028.858.043,1.549.146,2.238l.29,1.942c-1.851-.448-1.808-.524-2.955.536-.624.577-1.199.986-1.535,1.879-.727-.4-.823-1.061-.59-1.585,1.311-1.151,2.119-2.823,2.447-4.517.067-.181.061-.703-.205-.726-.347-.031-.367.369-.278.506-.339.115-.57.442-.742.636-.508.221-.819.701-.657,1.326.002.113.008.332-.044.436-1.033-.11-1.969.505-2.553,1.356-.615-.223-1.282-.241-1.74.308l-.675-.479c-1.368.777-2.476-1.091-4.79-.67-.087.099-.066.372-.127.482-.573-.971-1.014-1.792-.761-3.236.496-2.833,3.598-7.777,5.603-9.537l1.408-1.236c1.464-1.285,4.447-2.83,6.26-3.113Z"/>
    <path class="cls-2" d="M163.093,144.61l-.062-1.964c-1.85-.268-1.66,1.801-2.4,1.902l-1.941.266c-1.043-.966-2.137-1.879-2.508-3.457.845.313,1.327.536,1.999.477.357-.031,1.084.47,1.424.333.654-.75.29-1.649-.318-2.222-.413-.389-.804-.766-1.417-.751-1.146.029-3.114-1.089-3.108-1.08-.141-.181-.132-.478-.1-.684.225-.072.385-.343.464-.523l.225.047,2.08-.937.462-.079c.129-.022.179-.425.055-.429l-3.008-.094c-1.376-.32-1.83-1.591-2.359-2.727-.341-.733-1.358-1.202-1.258-2.184.49-.381.984-.875,1.625-1.129.802.327,1.914.157,2.292-.675-.95-1.592-2.628-2.602-4.385-3.107-.696-.2-1.316-.473-1.732-.922,1.004-.031,1.961.453,2.966.877,5.101,2.153,8.787,6.437,10.338,11.732l1.078,3.681c.376,1.285.26,2.627-.412,3.646Z"/>
    <path class="cls-12" d="M163.093,144.61c-.222.337-.281.788-.789.922-.155.041-.262.321-.24.48-.609.481-1.241.946-2.059,1.328-5.794,2.71-12.336,3.71-18.081.764l.545-.919c.049.027.129.018.182.008.508.279,1.04.93,1.716.944l3.315.068c1.196.025,2.364.418,3.656.151,1.108-.228,2.24-1.46,2.496-2.6.613-2.725-1.2-4.158-1.065-5.917,1.955-.805,2.738.947,3.667.51-.795-.778-1.895-1.02-2.442-1.855-.329-.502.316-.953.666-1.066-.032.206-.041.503.1.684-.006-.008,1.962,1.109,3.108,1.08.613-.015,1.005.362,1.417.751.608.573.971,1.472.318,2.222-.34.137-1.067-.364-1.424-.333-.672.058-1.154-.164-1.999-.477.37,1.578,1.465,2.49,2.508,3.457l1.941-.266c.74-.101.55-2.17,2.4-1.902l.062,1.964Z"/>
    <path class="cls-2" d="M85.832,139.32l-.88,1.76c-.107.213-.047.417.087.507.066.044.177.07.272.072-.233.525-.137,1.185.59,1.585.335-.893.91-1.302,1.535-1.879,1.147-1.06,1.104-.985,2.955-.536l.416.892c.165.354.417.672.537.973.209.524.541.929.91,1.401l.748.971c-.614.57-1.426.434-2.343.517-.283.026-.735.338-1.05.177-.168-.086-.364-.319-.505-.661-.419.12-.701.425-1.076.667-.92-.305-1.698-.273-2.7-.201-.027.264.089.424.18.611l-.633-.151c.042-.295-.283-.301-.259-.011-1.742-.505-3.339-1.446-4.967-2.436-1.475-.897-2.877-1.862-3.702-3.261.061-.111.04-.383.127-.482,2.314-.421,3.422,1.448,4.79.67l.675.479c.458-.549,1.125-.531,1.74-.308.584-.851,1.52-1.466,2.553-1.356Z"/>
    <path class="cls-12" d="M148.888,124.68l.235-.007c.416.449,1.035.722,1.732.922,1.757.504,3.435,1.514,4.385,3.107-.378.832-1.49,1.002-2.292.675-.641.254-1.135.748-1.625,1.129-.1.983.917,1.451,1.258,2.184.529,1.136.983,2.407,2.359,2.727l3.008.094c.124.004.073.407-.055.429l-.462.079c-.581-.15-1.209-.121-1.788.208-.174.266-.249.503-.292.729l-.225-.047c-.847-.178-1.574.679-2.461.453-.277-.071-.396-.419-.587-.779l-2.408-4.537c-.416-.785.336-1.516,1.039-2.234-1.012.101-1.717.288-2.58-.146.087-.047.078-.126.068-.175-.291-1.456,1.91-1.766,1.908-2.533,0-.256-.237-.641-.528-.803l-1.549-.866c-.302-.169-.632-.238-.624-.616l.293-.013,1.191.023Z"/>
    <path class="cls-12" d="M93.001,145.066l.567.016c.766.983,2.081.658,1.741,1.351-.985.456-4.506.853-5.963.637-1.276-.189-2.815-.192-3.839-.894-.091-.187-.206-.347-.18-.611,1.002-.072,1.78-.104,2.7.201.375-.242.657-.547,1.076-.667.141.342.337.575.505.661.315.161.767-.151,1.05-.177.917-.083,1.73.053,2.343-.517Z"/>
    <path class="cls-2" d="M148.156,124.403c.278-.024.613.008.732.277l-1.191-.023c.117-.151.307-.194.459-.254Z"/>
    <path class="cls-2" d="M162.064,146.012c-.022-.16.085-.439.24-.48.037.235-.071.347-.24.48Z"/>
    <path class="cls-12" d="M84.874,146.025c-.057-.027-.191-.021-.259-.011-.023-.29.302-.284.259.011Z"/>
    <path class="cls-2" d="M91.322,123.895l.053.314c-.079,2.092,1.39,1.584,2.146,2.901.007.481-.519.652-.685.941-1.014-.142-1.365-1.12-2.553-1.494.546,1.022,1.279,1.73,1.987,2.48-.697,1.215-1.272,2.501-1.742,3.825-1.422.048-2.718.521-4.433.202.05.423.159,1.153-.203,1.275l-1.953.66c-.715.521-1.274,1.007-2.158,1.241-.375.099-.649.434-.957.769.037.038.155.099.284.232.154-.029-1.612.985-2.124.154-.498-.807,1.313-1.519,2.933-3.686.41-.549,1.077-.685,1.729-.72.223-.898-.655-1.803-1.599-2.264.834-.812,1.571.243,2.185.344,1.288.211,1.886-1.339,2.637-1.945.863-.696,1.565-1.384,1.231-2.493.639-.697-.493-1.58,1.378-3.023.517.142,1.349.388,1.847.286Z"/>
    <path class="cls-12" d="M90.527,132.862c-.243.685-.191,1.445-.518,2.124l-2.5.487-4.431,1.362c-.67.206-1.463.309-1.971.405-.13-.133-.247-.194-.284-.232.308-.334.581-.669.957-.769.885-.234,1.443-.72,2.158-1.241l1.953-.66c.363-.122.254-.852.203-1.275,1.715.319,3.011-.154,4.433-.202Z"/>
    <path class="cls-12" d="M87.758,137.142c-.328,1.694-1.136,3.366-2.447,4.517-.096-.003-.207-.028-.272-.072-.134-.09-.194-.294-.087-.507l.88-1.76c.052-.104.046-.324.044-.436.531-.161.613-.792.657-1.326.172-.193.402-.52.742-.636l.483.22Z"/>
    <path class="cls-2" d="M86.533,137.558c-.044.533-.126,1.165-.657,1.326-.161-.624.149-1.105.657-1.326Z"/>
    <path class="cls-2" d="M87.758,137.142l-.483-.22c-.089-.137-.069-.537.278-.506.266.024.272.545.205.726Z"/>
    <path class="cls-9" d="M155.126,136.907c-.08.181-.24.451-.464.523-.35.112-.995.563-.666,1.066.546.835,1.647,1.077,2.442,1.855-.929.437-1.712-1.314-3.667-.51-.135,1.758,1.678,3.192,1.065,5.917-.256,1.14-1.388,2.372-2.496,2.6-1.293.266-2.46-.127-3.656-.151l-3.315-.068c-.676-.014-1.208-.666-1.716-.944,1.031-1.268,3.28-.924,5.12-3.072,1.067-1.246,1.695-2.675,2.013-4.278.69-3.487-.075-6.999-1.656-10.18.863.435,1.568.248,2.58.146-.703.717-1.455,1.449-1.039,2.234l2.408,4.537c.192.361.31.709.587.779.887.226,1.614-.632,2.461-.453Z"/>
    <path class="cls-9" d="M157.431,136.018l-2.08.937c.043-.225.117-.463.292-.729.579-.329,1.207-.357,1.788-.208Z"/>
    <path class="cls-9" d="M147.404,124.67c-.008.378.322.447.624.616l1.549.866c.291.163.527.548.528.803.002.767-2.198,1.077-1.908,2.533-.724-.425-.873-1.496-1.726-1.97-.12-.329-.379-.58-.712-.695-.028-.47-.409-.791-.872-.788-.17-.293-.421-.489-.703-.653-.109-.146-.088-.626.198-.633l3.021-.079Z"/>
    <path class="cls-12" d="M92.243,124.426c.251.905,1.274,1.328,1.744,2.18l.034.268-.501.235c-.756-1.316-2.225-.809-2.146-2.901l.868.218Z"/>
    <path class="cls-12" d="M92.836,128.05l-.566.986c-.707-.751-1.441-1.458-1.987-2.48,1.188.374,1.539,1.352,2.553,1.494Z"/>
    <path class="cls-9" d="M93.775,124.515c.328.019.637.263,1.176.177.441-.071.872-.025,1.199.198-.801.383-1.314,1.327-2.163,1.716-.471-.853-1.493-1.275-1.744-2.18l1.532.089Z"/>
    <path class="cls-14" d="M145.76,126.823l-.867-.414-.005-.374c.464-.003.845.318.872.788Z"/>
  </g>
  <path class="cls-10" d="M124.665,133.674c-.041-.787.632-.718,1.199-.893,1.639-.507,2.824-1.788,3.892-3.017l-.566-.932-.689-2.265,1.488.252c.844.145,3.077-1.183,2.562-2.878-1.395.002-2.435.684-3.534,1.492-.38.279-.877.404-.69.959l-.514-.058-.455-.225-.038-.51c1.18-.221,1.539-1.981,3.874-2.371-.501-.862-1.836-.466-3.171-.025-.135.028-.366.024-.515-.055-.111-.058-.198-.238-.216-.39,1.431.145,2.776-.695,2.888-2.14.217.003.46.047.616.378.368.781,1.762,1.217,2.318.382.822-1.234.774-2.828.598-4.243-.84-.793-.965-1.885-1.155-2.819l.295.039c3.725,4.794,2.608,12.369-2.159,16.323-1.808,1.5-3.861,2.663-6.027,2.998Z"/>
  <path class="cls-8" d="M128.327,126.391c.084.009.152.1.175.174l.689,2.265.566.932c-1.068,1.23-2.253,2.511-3.892,3.017-.567.175-1.24.106-1.199.893l-3.245.501c-1.89.292-3.719-.003-5.501-.3l-.196-.226c.226-1.931,3.193-.576,6.481-1.376l3.943-2.058c1.347-.703,1.8-2.504,1.665-3.882l.514.058Z"/>
  <path class="cls-5" d="M139.999,111.219l.059.769c-.958,1.557-2.913,2.067-4.658,1.138l-1.958.654c-.381.127-.634.254-.591.573l-.295-.039c-.041-.185-.334-.423-.195-.706.848-.26,1.582-.835,2.664-.903.391-.025,1.042.492,1.508.088.187-.162.37-.494.539-.567.212-.092.61.128.805.18.572.152.675-.454.877-.698.373-.452.752-.673.808-1.192.168.23.431.396.437.705Z"/>
  <path class="cls-16" d="M126.167,108.103c-.17.667.632.881.835,1.25.462.839,1.194,1.652,1.898,2.479.585.687.115,1.912.45,2.659.37.825.929,1.427.499,2.442l-.506,1.188c-.991-.982-2.688-.873-3.664.209-.889.985-.787,2.517.078,3.628-.374.46-.756,1.037-1.348,1.266-.655.253-.887-1.104-1.694-1.163-.106-.318-.401-.5-.729-.511-.686-.023-.934,1.499-2.827.978-.268-.282-.617-.577-.691-.977.155-.355.819-.225,1.096-.302.563-.44.561-1.384.612-2,.087-1.029.633-1.532,1.15-2.213.738-.974,1.425-1.835,2.75-2.045.182-2.184,2.599-2.633,2.182-4.133-.366-1.315-2.16-1.98-2.241-2.191-.074-.193-.054-.386-.025-.561l.909-.162,1.266.158Z"/>
  <path class="cls-14" d="M127.828,109.34l1.445.528c-.032.269.017.576.183.79.17.219.463.317.724.31l.016.409c-.382.884-.012,1.69.414,2.566.658,1.351.373,4.893-.693,4.745l-.572-.567.506-1.188c.43-1.015-.129-1.618-.499-2.442-.335-.747.135-1.972-.45-2.659-.704-.827-1.437-1.64-1.898-2.479l.243-.054c.164-.012.429-.015.582.041Z"/>
  <path class="cls-5" d="M134.462,102.412l.021.612-.119,1.257c-.368-.052-.825.45-1.053.711-.701.802-1.624.914-2.612,1.067-.716.111-1.159.956-1.548,1.48l-1.323,1.802c-.153-.056-.418-.053-.582-.041.014-.483.359-.841.68-1.268l1.962-2.608,1.138-.278c.322-.775.968-.991,1.649-1.16-.318-.426-.674-.237-.799-.292-.084-.037.025-.458.132-.474.929-.134,1.624-.586,2.454-.808ZM132.707,103.274l-.12.182.12.12.12-.12-.12-.182Z"/>
  <path class="cls-5" d="M114.594,99.481l.045.684c.044.666-.199,1.548.172,2.239.449.836,1.201,1.505,1.227,2.388-.797-.066-.699-1.386-1.205-1.662-.47-.256-1.06.142-1.395.161l-1.957-.888-.768-1.424c-.186-.345-.24-.698-.208-1.005.616.082.959-.348,1.436-.737.526-.43.933-.731.778-1.451.204.085.649-.057.838.37.242.545.576,1.051,1.036,1.325Z"/>
  <path class="cls-1" d="M121.227,107.395c1.62-.14,1.935.676,2.702.466.036.061.072.185.062.246-.029.175-.049.368.025.561.081.211,1.874.876,2.241,2.191.418,1.499-2,1.949-2.182,4.133-1.325.209-2.011,1.071-2.75,2.045-.517.682-1.063,1.184-1.15,2.213-.052.616-.049,1.56-.612,2-.277.077-.941-.053-1.096.302h-.541c-.127-.021-.338-.022-.516.035-.113.036-.23.179-.149.363.171.477.361,1.11.788,1.422-.828.729-2.031.79-3.084.452l.844-2.747c.045-.146-.059-.443-.132-.506-.071-.061-.271-.005-.355.038-.026-.205.051-.491.113-.672.076-.222.071-.403.011-.57-.105-.292-.434-.397-.674-.469-.351-.106-.505-.614-.703-.849,1.351-1.413,2.021-.366,3.405-.642.488-.097.686-.802,1.165-1.156.629-.465,1.405-.506,1.688-1.505.409-1.446,2.309-1.236,3.622-2.411-.457-1.34-.77-2.679-1.605-3.8-.304-.409-1.547.03-1.95-.303-.137-.113-.223-.376-.226-.619.008-.079.097-.135.182-.142l.876-.076Z"/>
  <path class="cls-7" d="M125.111,102.756c1.098,1.158-.982,2.888-1.182,5.106-.767.21-1.082-.606-2.702-.466.017-.085-.019-.17-.022-.223.439-.24.96-.256,1.646-.154.575-1.498,1.073-2.935,1.969-4.223.143.012.236-.015.29-.04Z"/>
  <polygon class="cls-7" points="126.273 102.013 126.435 102.013 126.591 102.018 126.435 102.023 126.273 102.023 126.116 102.018 126.273 102.013"/>
  <path class="cls-14" d="M105.044,123.509l.083.686c-1.799.359-2.013,1.915-3.313,3.294-1.089,1.154-2.592,1.875-3.329,3.437.758-.068,1.25-.922,1.91-.698.44.485.9,1.74,1.731,1.603.751-.124,1.491-.496,2.353-.566.326-.026.913-.711,1.356-.16.315.391.104,1.15-.151,1.687,1.178.187,1.698,1.031,2.855.713.099.93-.443,1.429-.686,2.166l-.206.626c-.057.172.3.718.489.602,1.83-1.122,3.126-3.335,4.027-2.837l3.845,2.124c.531.293.726.914.762,1.365-.228.016-.496.192-.428.398l.193.578c-.681.202-.337-.977-1.518-1.805l-2.677-1.878c-1.334-.935-2.17,2.259-4.499,2.809-1.958-.511-2.331-1.094-2.43-3.052-1.305-.452-1.321-1.473-2.065-1.747l-3.47.845c-.575.398-1.285,1.028-1.695,1.635-.188.279-.169.707-.579.62-.188-1.15.169-2.356.176-3.574.006-1.119.204-1.758.739-2.718l.955-1.713c.569.301,1.252-.011,1.421-.679.185-.729.783-1.178,1.095-1.741.801-1.442,1.389-1.304,3.053-2.021Z"/>
  <path class="cls-14" d="M125.757,121.959c.328.422,1.013.719,1.534.797.017.153.105.332.216.39.149.079.38.083.515.055.116.657-.579,1.111-.975,1.523-.152.039-.475.027-.62.244-.585.876-1.466,1.269-2.28,1.862l-1.633,1.19c-.688.502-1.441,1.045-2.008,1.606l-3.722.459-1.705.093c-1.696.092-3.166-.012-3.163,1.04-3.44-.882-4.301-1.731-5.915-4.877l1.374-.016.05-.936c.139.086.313.161.425.292.756.886,2.063,1.439,3.327,1.317,1.096-.106,1.855-.887,1.958-1.822.939.017-.022,1.647,1.469,2.287,1.275.548,1.886-1.16,3.606-2.046.64-.33.878-.876.726-1.551.89.344,1.89.445,2.828.057.845-.349,1.189-1.074.952-1.86.807.06,1.039,1.417,1.694,1.163.592-.229.974-.806,1.348-1.266Z"/>
  <path class="cls-11" d="M127.047,124.724c-.056.346.019.672.272.874l.038.51c-.716-.033-.805.778-1.231,1.201l-2.777,2.757c-1.223.441-3.109,1.043-4.049,1.195l-3.317.534-2.065-.523c-.794.115-1.33.117-2.002-.056-.003-1.052,1.468-.948,3.163-1.04l1.705-.093,3.722-.459c.567-.561,1.32-1.104,2.008-1.606l1.633-1.19c.815-.594,1.696-.986,2.28-1.862.145-.217.468-.205.62-.244Z"/>
  <path class="cls-15" d="M110.093,122.72c.06.086.047.565-.114.625l-2.001.468c-.532.125-.582.713-.568,1.155l.013.421-.05.936-1.374.016c-.268-.523-.535-1.044-.475-1.637,1.228,0,.884-1.273,1.419-1.616.238-.153.627-.029.953-.072l2.196-.295Z"/>
  <path class="cls-16" d="M115.566,140.937c-.102.203-.146.568-.291.766l-1.703,2.327c-.58.793-1.823.772-2.594,1.227-1.115.657-2.105.698-3.309.285-.904-.31-1.068-.796-1.301-1.593-.338-1.153-.012-1.446.556-2.223.983-1.344,2.114-1.91,3.786-2.359.81-.218,1.779-1.111,2.833-.347l.793,1.77c.165.368.908.183,1.232.147Z"/>
  <path class="cls-7" d="M138.187,109.52l.678.041.697.953c-.056.52-.436.74-.808,1.192-.202.245-.304.85-.877.698-.195-.052-.593-.272-.805-.18-.17.074-.352.405-.539.567-.466.404-1.117-.113-1.508-.088-1.083.068-1.816.644-2.664.903-.527-.158-.607-.681-.691-1.141l3.122-1.226c.396-.315.639-1.078,1.316-1.264l1.61-.442c.125-.034.339-.022.469-.014Z"/>
  <path class="cls-7" d="M110.945,109.805c-.014,1.004-.859,1.677-1.842,1.697-.015-.299-.149-.56-.418-.8l-1.042-.929.008-1.656c1.438.193,2.503,1.95,3.294,1.688Z"/>
  <path class="cls-7" d="M108.324,112.262c.282.792-.566,1.44-.804,2.057l-.579.058c.014-.209-.122-.441-.406-.576l-.817-.39c.02-.794-.701-1.287-.244-1.932,1.229.205,2.055,1.112,2.85.783Z"/>
  <path class="cls-9" d="M114.07,118.049c.198.235.352.743.703.849l.084.951c.074.74.058,1.514-.347,2.174-.057.034-.121.098-.168.165-.348.108-.695.259-.95.55l-.89.135-.273.014c-.307-.162-.801-.472-1.161-.382-.368-.474-.939-.921-1.119-1.466-.201-.61-.316-1.491.269-2.06.384.759.777,1.07,1.363.916.373-.098.592-.558.597-.984.213-.005.476-.12.497-.35.026-.289-.091-.574-.484-.559-.319.012-.572-.082-.697-.304.842-.408,1.76-.05,2.575.352Z"/>
  <path class="cls-7" d="M116.037,104.793l.013.437.379,1.324c.088.309.343.424.57.435v.142s.026.334.026.334c-.542.577-1.458.834-2.184.436.126-.666.037-1.4-.314-2.086l-1.053-2.06c-.045-.121-.036-.319-.036-.463.335-.019.925-.417,1.395-.161.506.276.407,1.596,1.205,1.662Z"/>
  <path class="cls-7" d="M111.23,105.249l1.695,1.922c.374.424.556,1.017,1.128,1.023-.269.995-1.346,1.407-2.318,1.348.052-.562-.132-1.105-.535-1.604l-1.133-1.404c-.048-.366-.011-.788.315-1.063.207-.174.548-.251.849-.222Z"/>
  <path class="cls-7" d="M120.078,102.382c.357,1.683.344,3.382.273,5.089-.085.007-.174.063-.182.142l-1.246-.203-.203-.486c.247-.35.202-.77.206-1.175l.033-3.354c.001-.148.068-.254.2-.271.274.155.59.28.92.258Z"/>
  <path class="cls-2" d="M111.494,117.697c.125.223.378.316.697.304.393-.015.51.27.484.559-.021.23-.283.345-.497.35-.109-.361-.495-.721-.793-.644-.495.128-.615.575-1.247.888-.047-.99.789-1.182,1.356-1.457Z"/>
  <path class="cls-5" d="M117.257,107.424l-.233.041-.024-.334c.101.082.188.18.258.293Z"/>
  <path class="cls-14" d="M112.229,122.887c-.261.439-.592.849-1.066,1.298-1.638-.649-2.419.084-3.752.783-.014-.441.035-1.03.568-1.155l2.001-.468c.161-.059.174-.538.114-.625.369-.05.65-.135.974-.216.36-.09.854.22,1.161.382Z"/>
  <path class="cls-9" d="M129.344,118.122l.572.567c.164.367.341.922.309,1.336l-.046.591c-.112,1.445-1.456,2.285-2.888,2.14-.521-.077-1.206-.375-1.534-.797-.864-1.111-.967-2.643-.078-3.628.977-1.082,2.674-1.191,3.664-.209ZM127.573,119.163c0-.467-.378-.845-.845-.845s-.845.378-.845.845.378.845.845.845.845-.378.845-.845Z"/>
  <path class="cls-6" d="M131.67,112.467c.083.46.163.982.691,1.141-.139.284.153.522.195.706.19.934.315,2.026,1.155,2.819.176,1.415.224,3.009-.598,4.243-.556.836-1.951.4-2.318-.382-.156-.331-.4-.375-.616-.378l.046-.591c.538.128.909.615,1.63.594.577-.503,1.172-1.726.819-2.44-1.109-2.249-.893-4.18-1.598-5.421-.267-.47-.866-.741-.628-1.361l.28.07c.278.32.803.563.943.999Z"/>
  <path class="cls-3" d="M128.502,126.566c-.023-.074-.091-.165-.175-.174-.187-.555.31-.68.69-.959,1.1-.808,2.139-1.49,3.534-1.492.515,1.695-1.718,3.024-2.562,2.878l-1.488-.252Z"/>
  <path class="cls-6" d="M127.32,125.598c-.253-.202-.329-.528-.272-.874.395-.412,1.09-.866.975-1.523,1.335-.441,2.67-.837,3.171.025-2.335.391-2.694,2.151-3.874,2.371Z"/>
  <path class="cls-9" d="M118.469,121.553c.074.4.423.695.691.977.031.143.04.388.129.491.17.198.491.27.815.225,1.014-.14,1.891-.732,1.884-1.695.328.011.623.193.729.511.236.786-.107,1.511-.952,1.86-.938.388-1.938.287-2.828-.057-.261-.101-.656-.326-.885-.493-.426-.311-.617-.945-.788-1.422.138.047.309.058.456-.021.119-.064.2-.227.208-.375h.541Z"/>
  <path class="cls-12" d="M121.986,121.551c.008.963-.87,1.555-1.884,1.695-.323.045-.644-.027-.815-.225-.089-.103-.098-.349-.129-.491,1.893.521,2.141-1.002,2.827-.978Z"/>
  <path class="cls-11" d="M130.225,120.026c.032-.415-.145-.969-.309-1.336,1.067.148,1.351-3.394.693-4.745-.427-.877-.796-1.682-.414-2.566l.253.02c-.238.62.361.891.628,1.361.705,1.24.489,3.172,1.598,5.421.352.714-.243,1.937-.819,2.44-.721.021-1.092-.465-1.63-.594Z"/>
  <path class="cls-7" d="M135.742,105.954c.066.162.126.391.231.502-.253.846-1.358,1.019-1.795,1.495-.603.657-.665.817-1.552,1.04-.975.245-1.843,1.314-2.447,1.977-.261.006-.554-.091-.724-.31-.166-.214-.215-.522-.183-.79l3.045-2.011c.408-1.564,2.04-2.376,3.425-1.903Z"/>
  <path class="cls-5" d="M136.701,108.114c-.846,1.227-2.142,1.693-3.641,1.249-.925.396-1.829,1.31-2.333,2.104l-.28-.07-.253-.02-.016-.409c.604-.663,1.472-1.731,2.447-1.977.887-.223.949-.384,1.552-1.04.437-.476,1.543-.649,1.795-1.495.541.341.627,1.091.728,1.658Z"/>
  <polygon class="cls-7" points="132.707 103.274 132.827 103.457 132.707 103.576 132.587 103.457 132.707 103.274"/>
  <path class="cls-3" d="M137.718,109.534l-1.61.442c-.677.186-.92.949-1.316,1.264l-3.122,1.226c-.139-.436-.664-.679-.943-.999.504-.794,1.408-1.708,2.333-2.104,1.499.444,2.794-.022,3.641-1.249.559.271.286,1.098,1.017,1.419Z"/>
  <path class="cls-16" d="M118.051,123.372c.228.167.624.392.885.493.151.675-.086,1.222-.726,1.551-1.719.886-2.33,2.594-3.606,2.046-1.491-.641-.53-2.27-1.469-2.287.136-.614-.088-1.228-.668-1.46l.035-.842.89-.135c.152.161.354.237.509.175.384-.152.466-.426.441-.725.047-.067.111-.131.168-.165.771.028.896-.77.814-1.414.084-.042.285-.099.355-.038.073.063.177.36.132.506l-.844,2.747c1.053.338,2.256.277,3.084-.452Z"/>
  <path class="cls-14" d="M115.436,119.937c-.062.181-.139.466-.113.672.082.644-.042,1.442-.814,1.414.405-.661.421-1.434.347-2.174l.579.088Z"/>
  <path class="cls-16" d="M115.436,119.937l-.579-.088-.084-.951c.24.073.569.178.674.469.06.167.065.347-.011.57Z"/>
  <path class="cls-12" d="M117.927,121.554c-.008.148-.089.311-.208.375-.147.079-.318.068-.456.021-.081-.184.036-.327.149-.363.178-.057.389-.056.516-.034Z"/>
  <path class="cls-10" d="M113.134,125.175c-.103.935-.862,1.716-1.958,1.822-1.264.122-2.571-.431-3.327-1.317l2.417-.087c1.032-.024,2.163-.976,2.2-1.879.58.232.804.847.668,1.46Z"/>
  <path class="cls-6" d="M112.466,123.715c-.037.903-1.168,1.855-2.2,1.879l-2.417.087c-.112-.131-.286-.207-.425-.292l-.013-.421c1.333-.699,2.114-1.432,3.752-.783.474-.449.805-.858,1.066-1.298l.273-.014-.035.842Z"/>
  <path class="cls-14" d="M114.341,122.188c.025.299-.057.573-.441.725-.155.062-.358-.014-.509-.175.254-.291.602-.442.95-.55Z"/>
  <path class="cls-5" d="M116.999,106.989c-.227-.011-.482-.125-.57-.435l-.379-1.324c.155-.005.347.044.493.235.236.542.452,1.03.456,1.524Z"/>
  <circle class="cls-4" cx="126.728" cy="119.163" r=".845"/>
  <g>
    <path class="cls-6" d="M100.883,104.736c-2.084.26-4.753,4.314-4.833,4.873l-.537,3.723c-.047.326.249,1.174.543,1.08,1.139-.362,1.786-.275,2.788.146.638.268,1.547.034,2.151.04.388.004.89-.062,1.222.219-.273,1.388,1.879,1.445,2.039,3.387l.035.421c-1.424.109-2.049,1.25-2.922,1.213-.776-.033-1.824-.153-2.56.308l-2.075,1.296c-1.761,1.1-3.393,2.041-5.412,2.452-.497.101-1.329-.144-1.847-.286-.285-.078-.488-.497-1.019-.414-.045-.141-.22-.295-.455-.44l-.73-.451c-.01-.181-.052-.474.014-.602.193-.373,1.2-.171,2.307.242.978.366,2.493.212,3.417-.429,1.4-.971,2.251-3.192,1.796-4.886-.127-.472-.702-.819-.732-1.384-.022-.404-.623-.973-.906-.791-.824.53-1.237.402-2.154.194-.616-.14-1.599.225-2.145-.483-1.812-2.349-1.398-2.795-.589-4.538l.982-2.115c.553-1.191.493-2.603.713-3.91.694-.309.829-.659,1.05-1.457.234-.844,1.175-2.137,1.981-2.61.762-.447,1.804-.402,2.629-.729l1.93.828c.742-.003,1.557-.42,2.216.167.399.355,1.106,1.019.9,1.779-.466,1.718.243,2.166.202,3.156Z"/>
    <path class="cls-1" d="M153.683,96.114c-.226.065-.467.147-.58.262-.165.167.493,2.695-.4,4.279-.371.658-.584,1.16-.846,1.862-.296.795-.735,1.3-.653,2.276.084.996.294,1.703,1.185,2.275.571.367.551,1.365.634,1.95l.305,2.15c.307,2.161-.298,5.325-1.119,6.041l-1.68,1.467c-.644.562-1.359,1.207-2.324.907l-2.079-1.47c-.705-.498-1.739-.328-2.654-.554-.26-1.011.613-1.709,1.098-2.451.675-1.031,1.288-1.811,2.351-2.512.507-.335,2.122-2.526,1.63-3.45-1.778-.887-4.011-.615-5.54-2.295-.817-.898,1.317-1.68,1.046-3.484-.11-.73-.883-1.029-1.633-1.029.09-1.565,2.489-.353,2.688-1.691-1.403-.816-3.123-.794-4.591-.229l-1.932-.277c-2.344-.336-3.541,1.585-4.762.511l-.526-.894c.089-1.005,1.344-1.328,1.759-2.477.164-.454.62-.63.927-.874l-.715,1.936c-.114.307.008.684.17.82.66.549,2.016-1.411,4.497-.913.443-.209,1.008-.705,1.511-.64l2.317.266c.867.1,1.398.3,2.25-.042,1.069.493.716,1.934,1.757,2.085.665.097.997.6,1.438.939.463.355.582-.565.799-.645l.999-.367.276-.788c1.618-1.751-1.297-2.705-.943-4.647,1.191.414,2.406.815,3.339,1.704Z"/>
    <path class="cls-11" d="M105.244,97.563c.283-.195.663-.02.754.276-.273-.038-.304.176-.203.296l.384.454c.811.958.136,2.41-.436,3.36.018.062.031.161.018.203-.099.063-.194.152-.251.257l-.011.219c-.25-.008-.272.24-.005.231-.025.527.159.999.268,1.488.245,1.093-1.229.99-1.576,1.602h-.123c-1.404-.017-2.115-1.345-3.18-1.212.041-.99-.669-1.438-.202-3.156.206-.76-.501-1.424-.9-1.779-.659-.587-1.474-.17-2.216-.167l-1.93-.828c-.825.326-1.867.281-2.629.729-.806.473-1.747,1.766-1.981,2.61-.221.798-.356,1.147-1.05,1.457-.22,1.307-.16,2.719-.713,3.91l-.982,2.115c-.809,1.743-1.223,2.188.589,4.538.546.707,1.529.343,2.145.483.917.208,1.329.337,2.154-.194.282-.182.884.387.906.791.03.566.605.912.732,1.384.455,1.694-.396,3.915-1.796,4.886-.924.641-2.439.795-3.417.429-1.107-.414-2.114-.616-2.307-.242-.066.129-.024.421-.014.602-1.549-.956-2.908-2.222-4.085-3.601-.269-1.516,1.541-.494,1.86-1.638.184-.66-.771-1.005-.93-1.405-.196-.495.748-.826.356-2.291-.042-.158.372-.459.377-.619.006-.211-.303-.57-.606-.889.838-.745,1.148-1.788,1.737-2.653l1.25-1.833c.62-.91.641-1.706.831-2.833l.47-2.788,1.006-1.128c.663-.744,1.272-1.335,1.867-2.043.763-.63,2.096-.44,3.028-.744l.819-.943c.985-.036,2.034-.364,2.955-.078l1.757.546c.774.241,1.293.677,2.134.207l1.238.988c.861.064,1.365-.622,1.907-.995Z"/>
    <path class="cls-16" d="M154.397,96.793c-.388.604-.436,1.234-.506,1.984l-.234,2.516c-.71.093-.692.987-1.028,1.428-.453.595-.772.958-.611,1.673.119.528.611.853,1.201.954.167.079.406.286.524.437l1.061,2.14.268,3.6.043.651c-.572.333-1.175,1.022-1.253,1.772l-.145,1.389-.109,1.459c-.137,1.833-2.37,3.179-4.251,4.079-.515-.198-1.125.164-1.708.126-.799-.052-1.654-.543-2.413-.788-1.05-.339-1.755-.839-2.557-1.564-.511-.462-1.246-.742-1.263-1.618,1.235-.654,2.003-1.828,2.419-3.097l-.425-1.494c.451-.637.588-1.322.386-2.136-1.847.263-1.353-1.478-2.868-2.888l.401-2.096c.295-1.544-.928-1.768-.88-2.579.038-.637,1.689-1.764.647-1.832-.275-.018-.45.126-.614.304l-.691.178c-.815.21-1.685.052-3.882.742-.161.05-.347.038-.505.023-.294-.372-.781-.295-1.206-.253-.405.04-.802-.746-1.636-.937.13-.469.253-1.01.737-1.209l.526.894c1.221,1.074,2.418-.847,4.762-.511l1.932.277c1.469-.565,3.188-.587,4.591.229-.199,1.339-2.598.126-2.688,1.691.75,0,1.523.299,1.633,1.029.271,1.804-1.863,2.586-1.046,3.484,1.529,1.68,3.762,1.408,5.54,2.295.492.924-1.122,3.116-1.63,3.45-1.063.701-1.676,1.481-2.351,2.512-.485.741-1.358,1.44-1.098,2.451.914.226,1.949.056,2.654.554l2.079,1.47c.966.3,1.68-.345,2.324-.907l1.68-1.467c.821-.717,1.426-3.88,1.119-6.041l-.305-2.15c-.083-.585-.063-1.583-.634-1.95-.891-.572-1.101-1.279-1.185-2.275-.082-.976.357-1.482.653-2.276.261-.701.475-1.204.846-1.862.893-1.584.235-4.112.4-4.279.113-.115.354-.197.58-.262l.714.68Z"/>
    <path class="cls-14" d="M130.668,79.844c3.525,3.331,5.635,9.255,4.79,14.19-.068.396.209,1.075-.354,1.25l-.166-1.277c.194.014.299-.26.201-.42-.493-.804-.276-1.602-.444-2.484l-.611-3.202c-.106-.554-.028-1.102.172-1.626-1.053-1.198-.932-2.372-1.911-3.252-.232-.209-.985-.14-1.082.28-.117.505-.342,1.465-.217,2.008l.978,4.237c.339,1.47,1.597,3.686-.528,6.038-.56.619-.751,1.691-1.716,2.089-.247.102-.407.482-.319.634-.063-.01-.216-.014-.276.014-.133-.357-.49-.641-.852-.738l-.525-.975c.381-.066.85.321,1.212.553,1.411-.401,2.516-3.333,2.183-3.822-.297-.436-.762-.783-.548-1.517.237-.814-.043-1.227-.658-1.781-.323-.291-1-1.103-1.513-.651l-1.674,1.475-.947,1.14c-.745.897-.283,2.069.074,2.993-.29-.126-.615-.158-.815-.389-.242-.28-.275-2.37.097-3.218.294-.67.156-1.463.006-2.115.894-.84.173-2.404-.4-4.016l-1.395-.594c-.24-.102-.414-.485-.589-.541-.751-.241-1.327,1.424-3.219.873-.355-.103-.876.072-1.178.228-.255.132-.33.694-.495,1.12-1.03-.118-1.879-1.057-1.872-2.288-.81.36-1.384.562-2.103.673-.867.134-.957,1.49-1.434,1.792-.92.535-1.531.758-1.631,1.914-.111,1.289-.782,2.605-.984,3.867-.193,1.207-.153,2.263-.477,3.336-.458-.147-.757-.649-.592-1.123.551-1.583.3-3.489,1.333-5.936l.855-2.024,1.061-1.535c.332-1.063,1.115-1.615,2.263-1.621l2.369-.014c.911-.005,1.716-.321,2.559.179,1.491.886,2.841-.206,3.933-.096,1.05.106,2.23.558,3.249.11,1.07-.47,2.027-.3,3.26-1.546.025-.939.09-1.68.44-2.353.074.018.146.008.2-.014l.288.174Z"/>
    <path class="cls-15" d="M117.888,77.97c.312.304.918.54,1.177,1.012.374.682.076,1.515-.136,2.226.621.409,1.208.834,1.935.905.643.063,1.246-.763,1.833-.876,1.187-.229,2.195-.379,2.913-1.426.155-.226.619-.28.773-.116.312.334-.02,1.142.746.883.24-1.033.718-1.737,1.641-2.09.638.041,1.317.558,1.409,1.196-.35.673-.415,1.413-.44,2.353-1.233,1.247-2.19,1.076-3.26,1.546-1.019.448-2.199-.003-3.249-.11-1.092-.11-2.442.982-3.933.096-.842-.501-1.648-.185-2.559-.179l-2.369.014c-1.149.007-1.931.558-2.263,1.621l-1.061,1.535-.855,2.024c-1.033,2.447-.782,4.353-1.333,5.936-.165.474.134.976.592,1.123-.604,2.005-.13,4.59-1.865,4.095-.339-.533-1.151-.885-1.118-1.663.284.008.589-.105.773-.32.219-.256.099-.609-.011-.941-.248-.747.455-1.258.638-1.86l.62-2.03c.263-.861-.364-1.936-.006-2.947l.683-1.931c.318-.898.687-1.725,1.049-2.597.246-.502,1.017-1.463,1.515-1.778.818-.518,1.565-1.288,2.41-1.933,1.142-.871,2.481-1.585,2.648-3.353.018-.192.315-.466.442-.529.237-.111.468-.073.659.113Z"/>
    <path class="cls-4" d="M150.344,94.41c-.354,1.942,2.56,2.896.943,4.647l-.276.788-.999.367c-.217.08-.336,1.001-.799.645-.441-.339-.774-.843-1.438-.939-1.041-.151-.688-1.592-1.757-2.085-.852.342-1.384.142-2.25.042l-2.317-.266c-.504-.064-1.068.431-1.511.64-2.481-.497-3.837,1.462-4.497.913-.163-.135-.285-.512-.17-.82l.715-1.936c1.917-1.528,4.152-2.266,6.648-2.706,2.661-.469,5.26-.143,7.708.709Z"/>
    <path class="cls-14" d="M103.595,96.119c.586.37,1.253.657,1.643,1.273.006.051.016.113.006.171-.542.373-1.046,1.059-1.907.995l-1.238-.988c-.841.47-1.36.034-2.134-.207l-1.757-.546c-.921-.286-1.97.042-2.955.078l-.819.943c-.933.304-2.265.114-3.028.744-.595.708-1.204,1.299-1.867,2.043l-1.006,1.128-.47,2.788c-.19,1.127-.211,1.923-.831,2.833l-1.25,1.833c-.589.864-.899,1.907-1.737,2.653.303.32.613.679.606.889-.005.16-.419.461-.377.619.392,1.464-.553,1.795-.356,2.291.159.4,1.114.745.93,1.405-.319,1.144-2.13.122-1.86,1.638-.81-.949-1.442-2-1.981-3.117,1.815-1.553,1.589-2.616,2.19-4.318-.017-.269-.317-.857-.099-1.111.438-.512,1.143-.616,1.825-.796-.153-1.148.365-1.712,1.193-2.2.851-.502.831-1.738.399-2.512-.487-.87.162-1.811.182-2.537.042-1.514.807-1.922,1.737-2.689.808-.665,1.306-1.364,2.4-1.769l1.894-.701c1.305-.483,2.334-.79,3.716-.744l4.993.166,1.96-.257Z"/>
    <path class="cls-16" d="M100.68,94.749c.367.028.725-.015,1.158.259l1.757,1.11-1.96.257-4.993-.166c-1.382-.046-2.411.261-3.716.744l-1.894.701c-1.094.405-1.592,1.104-2.4,1.769-.93.766-1.695,1.174-1.737,2.689-.02.725-.669,1.666-.182,2.537.433.774.453,2.01-.399,2.512-.829.489-1.347,1.052-1.193,2.2-.682.18-1.387.284-1.825.796-.218.255.083.842.099,1.111-.601,1.703-.375,2.765-2.19,4.318-.419-.869-.923-1.903-.864-2.897.646-1.53,2.201-2.301,2.633-3.872.552-.129.809-.439,1.1-1.026.159-.249.61-.422.791-.577.542-.143,1.081-.592,1.327-1.053.248-.464.174-1.371-.34-1.666-.736-.423-1.665-.59-2.044-1.499-.112-.267.082-.727.238-.895.204-.219,1.842.192,3.006-2.552.403-.95.976-1.354,1.725-1.9,1.316-.96,2.617-1.331,4.199-1.639.888-.173,1.673-.557,2.701-.655l2.815-.268c.822-.078,1.423-.398,2.188-.339Z"/>
    <path class="cls-4" d="M114.649,77.184c.061.353-.515.605-.691.813-.261.966-.907,1.519-1.668,2.187l-1.272,1.116c-1.164,1.021-3.235,4.112-3.812,5.565l-.948,2.387-.947,1.915c-.976,1.973-.22,2.824-.898,2.818-.658-3.29.63-7.924,2.459-11.08,1.694-2.923,4.667-5.8,7.776-5.72Z"/>
    <path class="cls-1" d="M117.222,77.715c-.758-.071-2.46,1.447-2.743,1.935-.787,1.357-2.555,1.924-2.978,2.599l-1.367,2.18c-1.822,1.771-1.345,3.402-2.377,5.072-.83,1.342-.617,3.358-1.497,4.473-.606.767-1.277,1.238-1.167,2.185-.252-.092-.312-.329-.378-.656l-.304-1.519c.678.007-.077-.845.898-2.818l.947-1.915.948-2.387c.577-1.453,2.647-4.544,3.812-5.565l1.272-1.116c.762-.668,1.407-1.221,1.668-2.187.176-.208.752-.46.691-.813l1.849.047c.347.009.732.209.725.483Z"/>
    <path class="cls-16" d="M117.222,77.715c-.001.046-.014.098.007.143-.127.063-.424.337-.442.529-.167,1.768-1.506,2.482-2.648,3.353-.845.645-1.592,1.415-2.41,1.933-.498.315-1.269,1.276-1.515,1.778-.363.872-.732,1.699-1.049,2.597l-.683,1.931c-.358,1.011.269,2.086.006,2.947l-.62,2.03c-.184.602-.886,1.113-.638,1.86.11.332.229.685.011.941-.184.215-.489.328-.773.32l-.47-.237c-.09-.296-.47-.471-.754-.276.01-.058,0-.12-.006-.171l-.143-1.233c-.11-.948.561-1.418,1.167-2.185.88-1.115.667-3.131,1.497-4.473,1.032-1.669.554-3.301,2.377-5.072l1.367-2.18c.423-.675,2.192-1.242,2.978-2.599.283-.488,1.985-2.006,2.743-1.935Z"/>
    <path class="cls-8" d="M154.283,120.976c-.85,1.039-1.978,1.783-3.23,2.279.145-.363.299-.698.227-1.233-1.97.251-3.155,1.598-3.776,1.007.063-.246.341-.492.632-.556,1.893-.42,3.29-1.515,4.683-2.784.911-.829,1.821-1.542,2.495-2.758l1.087-1.963c1.429-2.581.91-5.578,2.254-5.307,1.266,4.398-1.701,8.052-4.371,11.315Z"/>
    <path class="cls-14" d="M156.778,104.555c-1.364-.972.046-3.072-1.593-5.198-.917.677-.861,1.601-1.103,2.491-.275,1.01-.929,1.984-.518,3.074.126.236.778.315,1.062.304,1.447-.059,2.383,1.002,2.663.269l1.223,1.398c.644.736,1.156,1.569,1.165,2.438-.148.016-.433.022-.539-.077-.437-.407.141-1.335-.518-1.553-.496-.164-.565.112-.8.483-.405.64-.669,1.094-.261,1.866l-.705.802c-.015,1.531-.533,2.84-1.392,4.096l-.234,1.226c-.648.071-1.161.234-1.62.621l.109-1.459c.466.129.482-.476.651-.692.666-.851.81-1.508.747-2.468l-.043-.651c.194.008.403-.027.56-.126.121-.076.272-.416.225-.596-.22-.844.395-1.22.566-1.822l.706-2.481c-1.174-.541-2.271-.804-3.386-.714-.118-.151-.357-.358-.524-.437-.816-2.282.348-3.083.439-4.055l.234-2.516c.07-.75.118-1.38.506-1.984.431.41.809.742,1.158,1.332,1.623,2.748.653,4.179,1.223,6.429Z"/>
    <path class="cls-11" d="M159.678,109.33l.003.24.088,3.138c-.103.505-.297.934-.483,1.483-.823,2.425-2.191,4.466-4.11,6.238-.304.281-.474.673-.891.546,2.67-3.263,5.637-6.917,4.371-11.315-1.344-.271-.825,2.726-2.254,5.307l-1.087,1.963c-.673,1.216-1.584,1.928-2.495,2.758-1.393,1.269-2.79,2.364-4.683,2.784-.29.064-.569.31-.632.556-.332-.027-.893-.099-1.206.014l-.042-.543c.404-.099.903-.203.886-.659l1.579-.405c.442-.113.566-.338.637-.562,1.882-.9,4.115-2.245,4.251-4.079.459-.387.972-.549,1.62-.621l.234-1.226c.86-1.256,1.377-2.565,1.392-4.096l.705-.802c-.409-.772-.144-1.226.261-1.866.235-.371.303-.647.8-.483.66.218.081,1.146.518,1.553.106.098.391.093.539.077Z"/>
    <path class="cls-1" d="M100.68,94.749c-.765-.059-1.366.261-2.188.339l-2.815.268c-1.028.098-1.813.483-2.701.655-1.583.308-2.883.679-4.199,1.639-.749.546-1.322.949-1.725,1.9-1.163,2.743-2.802,2.333-3.006,2.552-.157.168-.35.628-.238.895.38.909,1.308,1.075,2.044,1.499.514.295.588,1.202.34,1.666-.246.461-.785.91-1.327,1.053.082-.805.984-1.054.926-1.569-.022-.191-.145-.56-.392-.663l-1.921-.78.037-3.586c.539-.698,1.315-1.082,2.428-.742,1.445-3.141,3.943-3.805,6.994-4.82l2.982-.992c.413-.137.968.083,1.189-.406,1.35.217,3.162.498,3.572,1.092Z"/>
    <path class="cls-4" d="M97.108,93.657c-.222.489-.777.269-1.189.406l-2.982.992c-3.051,1.015-5.549,1.678-6.994,4.82-1.113-.34-1.889.044-2.428.742.022-2.085,2.205-4.507,4.239-5.454,2.954-1.375,6.24-2.005,9.353-1.505Z"/>
    <path class="cls-16" d="M128.771,78.488c-.923.353-1.401,1.056-1.641,2.09-.767.259-.434-.549-.746-.883-.154-.164-.618-.11-.773.116-.718,1.048-1.726,1.197-2.913,1.426-.587.113-1.19.939-1.833.876-.728-.071-1.314-.496-1.935-.905.212-.711.51-1.543.136-2.226-.259-.472-.865-.708-1.177-1.012l2.198.681c.199.616-.229,1.123-.4,1.682-.152.499.347.84.622.93.933.307,2.923-1.31,4.191-2.575,1.332-.11,1.635-.906,2.386-1.249.663.2,1.557.227,1.885,1.048Z"/>
    <path class="cls-4" d="M84.865,107.215c-.18.155-.631.328-.791.577-.291.586-.549.897-1.1,1.026-1.265.296-2.001,1.27-2.91,1.477,0-1.824,1.295-3.281,2.552-4.663l.862-1.428,1.921.78c.248.103.371.472.392.663.058.516-.844.764-.926,1.569Z"/>
    <path class="cls-4" d="M126.886,77.441c-.751.343-1.054,1.139-2.386,1.249-1.268,1.265-3.258,2.882-4.191,2.575-.275-.091-.774-.431-.622-.93.171-.559.599-1.066.4-1.682l1.769-.649c1.615-.953,3.426-1.047,5.031-.562Z"/>
    <path class="cls-10" d="M151.054,123.255l-2.898,1.148c-.152.06-.342.104-.459.254l-.293.013-3.021.079c-.287.007-.307.488-.198.633-.654-.382-1.284-.806-2.043-.968-.128-.272-.463-.406-.759-.475-.08-.018-.243.029-.309.07l-1.535-.775c-.004-.116.109-.229.267-.251l4.316.815c.225.042.484-.062.556-.176.039-.062.025-.192-.018-.278.585-.027,1.114-.113,1.638-.301.314-.113.875-.041,1.206-.014.622.591,1.806-.756,3.776-1.007.072.535-.082.87-.227,1.233Z"/>
    <path class="cls-6" d="M156.778,104.555l.512.939c-.28.733-1.216-.328-2.663-.269-.285.012-.936-.068-1.062-.304-.412-1.09.243-2.064.518-3.074.242-.891.186-1.814,1.103-2.491,1.639,2.126.228,4.226,1.593,5.198Z"/>
    <path class="cls-10" d="M134.933,96.039l.038.571c-.153-.025-.263.111-.225.249.045.165.166.308.316.422-.416,1.148-1.67,1.472-1.759,2.477-.485.199-.608.74-.737,1.209-.036-.008-.082-.03-.121-.034l-2.77-.289c.283-.348.256-1.167.205-1.606,3.236.3,3.114-3.254,5.054-2.999Z"/>
    <path class="cls-6" d="M134.939,94.008l.166,1.277c.033.251-.067.545-.172.754-1.94-.255-1.818,3.299-5.054,2.999l-.418-.729c.832.267,1.497-.186,1.931-.975l1.781-3.234c.321-.583.515-1.182,1.361-1.354-.045.59.361.913.406,1.262Z"/>
    <path class="cls-1" d="M82.974,108.817c-.432,1.571-1.987,2.343-2.633,3.872-.13-.147-.276-.365-.276-.7v-1.695c.908-.207,1.644-1.181,2.909-1.477Z"/>
    <path class="cls-14" d="M159.768,112.709l-.088-3.138c.414.566.311,2.045.088,3.138Z"/>
    <path class="cls-6" d="M134.745,96.859c-.038-.138.072-.274.225-.249.009.129-.092.247-.225.249Z"/>
    <path class="cls-15" d="M130.668,79.844l-.288-.174c.152-.062.255.039.288.174Z"/>
    <path class="cls-8" d="M100.883,104.736c1.065-.133,1.776,1.195,3.18,1.211-.614.584-.948,1.393-.551,2.287.092.206.367.313.513.335l.033.514.061,1.226c-.936-.954-3.045-.974-3.709-.184-.3.358-.382.792-.414,1.361-.035.628.208,1.056.725,1.188l.223.518.051,1.406c-.604-.006-1.512.228-2.151-.04-1.002-.421-1.65-.508-2.788-.146-.295.094-.59-.755-.543-1.08l.537-3.723c.081-.559,2.749-4.613,4.833-4.873Z"/>
    <path class="cls-8" d="M104.291,118.626c.063.766-1.982,2.188-3.722,2.862l-1.864.722c-1.058.41-1.939.805-2.776,1.549-.608.54-1.864.171-2.153.757l-1.532-.089-.868-.218-.053-.314c2.019-.411,3.65-1.352,5.412-2.452l2.075-1.296c.737-.46,1.784-.341,2.56-.308.873.037,1.499-1.104,2.922-1.213Z"/>
    <path class="cls-10" d="M105.054,118.091l-.019.57-.073.765c-.073.767-.287,1.584-.173,2.359-2.003.098-5.262,1.197-6.85,2.257l-.352.161-1.436.687c-.327-.223-.758-.268-1.199-.198-.539.086-.848-.158-1.176-.177.289-.585,1.545-.217,2.153-.757.838-.743,1.718-1.139,2.776-1.549l1.864-.722c1.74-.674,3.785-2.096,3.722-2.862l-.035-.421c.282-.009.544-.045.798-.115Z"/>
    <path class="cls-10" d="M102.387,113.632c-.02.268.275.292.248,0l.335.025c1.02.783,2.06,1.607,2.768,2.718l-.431,1.273c-.162.137-.438.059-.476-.08-.034-.124-.035-.565-.158-.668l-2.456-2.081c-.332-.281-.834-.216-1.222-.219l-.051-1.406,1.443.439Z"/>
    <path class="cls-8" d="M105.306,117.648c-.06.177-.062.35-.253.443-.253.07-.516.106-.798.115-.161-1.942-2.313-1.999-2.039-3.387l2.456,2.081c.122.104.124.544.158.668.038.139.314.217.476.08Z"/>
    <path class="cls-7" d="M106.227,106.209c-.04,1.04-1.112,1.758-2.202,2.36-.146-.022-.421-.129-.513-.335-.397-.894-.064-1.703.551-2.287h.123c.695-.261,1.428-.179,2.041.262Z"/>
    <path class="cls-8" d="M107.142,105.104c.164.24.295.842.767.84v.629c.007.222-.158.473-.499.387-.479-.089-.805-.479-1.184-.751-.613-.441-1.346-.523-2.041-.26.347-.612,1.821-.509,1.576-1.602l1.38.758Z"/>
    <path class="cls-6" d="M106.467,98.076c-.033.778.779,1.13,1.118,1.663l1.085,1.705-1.721-.221c-.516-.084-.879.491-1.206.726.572-.951,1.247-2.402.436-3.36l-.384-.454c-.102-.12-.07-.334.203-.296l.47.237Z"/>
    <path class="cls-8" d="M105.493,102.858c-.267.009-.246-.239.005-.231l-.005.231Z"/>
    <path class="cls-8" d="M105.509,102.408c.058-.104.153-.194.251-.257-.057.103-.151.193-.251.257Z"/>
    <path class="cls-15" d="M149.357,120.874c-.071.224-.195.449-.637.562l-1.579.405c-.454-.088-1.224.104-1.678-.184-1.624-1.029-3.165-.788-3.636-1.225l-1.469-1.36-1.316-1.6c1.981-.793,3.891-2.144,3.816-3.654-.008-.172-.201-.38-.488-.413.137-.211.021-.721.001-.956.448-.078.575-.459.527-.83-.043-.33-.269-.577-.616-.692-1.105-.367-1.45-1.307-1.896-2.229-.374-.772-.805-1.266-.608-2.279.303-1.562-1.44-2.671.163-3.871.447-.335.66-.86.541-1.336.164-.178.339-.322.614-.304,1.042.068-.61,1.194-.647,1.832-.048.811,1.175,1.035.88,2.579l-.401,2.096c1.515,1.41,1.021,3.151,2.868,2.888.201.815.065,1.499-.386,2.136l.425,1.494c-.416,1.269-1.184,2.443-2.419,3.097.017.876.752,1.156,1.263,1.618.802.725,1.506,1.225,2.557,1.564.759.245,1.614.736,2.413.788.583.038,1.193-.325,1.708-.126Z"/>
    <path class="cls-14" d="M140.484,101.212c.119.475-.094,1.001-.541,1.336-1.603,1.2.14,2.309-.163,3.871-.197,1.012.235,1.507.608,2.279.447.923.791,1.862,1.896,2.229.347.115.573.362.616.692.048.371-.079.752-.527.83-.553-1.046-1.575-1.659-2.51-2.494-.526-.471-.406-1.56-.747-2.06-.513-.752-.531-1.15-.411-1.976.186-1.282-1.866-2.573-2.785-2.586l-.419-.006c.033-.12.002-.381-.168-.457-.103-.046-.315.097-.363.215l-.487-.061-.021-.612c.261-.066.757.111.944-.256.158.015.344.027.505-.023-.045.482.278.605.686.781,1.471.633,2.742-.151,3.197-1.523l.691-.178Z"/>
    <path class="cls-15" d="M155.072,111.525l-.268-3.6-1.061-2.14c1.115-.09,2.212.173,3.386.714l-.706,2.481c-.171.602-.786.978-.566,1.822.047.18-.104.52-.225.596-.157.099-.366.133-.56.126Z"/>
    <path class="cls-15" d="M139.793,101.39c-.455,1.372-1.725,2.156-3.197,1.523-.408-.175-.731-.299-.686-.781,2.197-.69,3.067-.532,3.882-.742Z"/>
    <path class="cls-15" d="M153.658,101.293c-.09.972-1.255,1.773-.439,4.055-.59-.101-1.082-.425-1.201-.954-.161-.715.158-1.078.611-1.673.336-.441.318-1.335,1.028-1.428Z"/>
    <path class="cls-15" d="M155.115,112.175c.063.96-.081,1.616-.747,2.468-.17.217-.186.821-.651.692l.145-1.389c.078-.75.681-1.438,1.253-1.772Z"/>
    <path class="cls-15" d="M135.405,102.156c-.186.367-.683.19-.944.256-.006-.18-.156-.362-.262-.509.425-.042.912-.119,1.206.253Z"/>
    <path class="cls-11" d="M125.937,94.999c.319.138.702.578.87.869.064.11-.025.415.195.46l.343.071.462.21.525.975c-.185-.049-.573-.044-.766-.006l-.652-.546c-.706-.553-1.214-1.35-2.033-1.629-.025-.406-.447-.726-.711-.949-.233-.198-.416-.423-.753-.505.031-.057.008-.165.016-.236l.276-2.365c.268-2.302-1.004-3.727-1.905-3.516-2.698.629-3.173,3.465-3.405,3.605-.738.443-1.723-.391-2.844-.501-.405.015-1.063.746-1.683.428-1.152-.591-.303-2.166-.978-2.72-1.485,1.344-2.339,3.365-1.824,5.346l.921,3.573c-1.026.185-1.931.969-1.862,2.155.009.157.287.274.376.259-.033.307.022.66.208,1.005l.768,1.424c.004.591-.687.747-1.189.675-.217-.121-.621-.283-.745-.492l-.877-1.142-1.085-1.705c1.735.495,1.262-2.09,1.865-4.095.323-1.073.284-2.129.477-3.336.202-1.262.873-2.578.984-3.867.1-1.156.712-1.379,1.631-1.914.476-.302.566-1.658,1.434-1.792.718-.111,1.293-.313,2.103-.673-.007,1.231.842,2.169,1.872,2.288.165-.425.24-.988.495-1.12.302-.156.823-.331,1.178-.228,1.891.551,2.468-1.114,3.219-.873.174.056.349.438.589.541l1.395.594c.572,1.611,1.294,3.176.4,4.016.15.652.288,1.444-.006,2.115-.372.847-.339,2.938-.097,3.218.199.23.525.263.815.389Z"/>
    <path class="cls-15" d="M127.808,96.609l-.462-.21c.023-.175-.04-.373-.178-.461-.099-.063-.239-.081-.36-.07-.168-.291-.552-.731-.87-.869-.357-.925-.819-2.096-.074-2.993l.947-1.14,1.674-1.475c.512-.451,1.19.361,1.513.651.615.553.895.966.658,1.781-.214.734.252,1.081.548,1.517.333.489-.772,3.422-2.183,3.822-.362-.232-.831-.619-1.212-.553Z"/>
    <path class="cls-11" d="M134.939,94.008c-.045-.35-.452-.672-.406-1.262-.846.172-1.04.771-1.361,1.354l-1.781,3.234c-.434.788-1.098,1.242-1.931.975-.087-.153.072-.533.319-.634.966-.398,1.157-1.47,1.716-2.089,2.125-2.352.867-4.568.528-6.038l-.978-4.237c-.125-.543.1-1.503.217-2.008.097-.42.85-.489,1.082-.28.979.881.857,2.055,1.911,3.252-.199.524-.277,1.073-.172,1.626l.611,3.202c.168.882-.049,1.68.444,2.484.098.16-.007.434-.201.42Z"/>
    <path class="cls-6" d="M142.372,112.449c.019.235.136.745-.001.956l-.331,1.107c-.484.766-1.537,1.615-2.482,1.738-1.096.143-2.185-.194-2.994.705.685.551.651,1.616,1.179,2.074l1.925,1.673,1.561,1.071c.677.464,4.604.83,5.027.727l.042.543c-.524.189-1.052.275-1.638.301l-4.891-1.089-2.005-1.787c-1.391-1.239-2.29-3.827-1.516-4.383,1.256-.902,3.646.22,3.447-.766,1.037-.059,1.702-.814,1.809-1.915.108-1.109-.554-1.94-1.505-2.185-.006-.309-.269-.476-.437-.705l-.697-.953c-.18-1.032-.406-2.063-1.215-2.959.701-1.822-1.459-2.11-1.73-3.269.919.013,2.972,1.304,2.785,2.586-.12.826-.102,1.224.411,1.976.341.499.221,1.589.747,2.06.935.836,1.957,1.448,2.51,2.494Z"/>
    <path class="cls-14" d="M147.141,121.841c.017.455-.482.56-.886.659-.424.104-4.35-.262-5.027-.727l-1.561-1.071-1.925-1.673c-.527-.458-.494-1.523-1.179-2.074.81-.9,1.898-.563,2.994-.705.945-.123,1.998-.972,2.482-1.738l.331-1.107c.287.033.479.241.488.413.074,1.51-1.835,2.862-3.816,3.654l1.316,1.6,1.469,1.36c.472.437,2.012.197,3.636,1.225.454.287,1.223.095,1.678.184Z"/>
    <path class="cls-3" d="M132.443,100.932c-1.499.933-2.849,1.483-3.007,3.529l-2.596,2.964c-.248.283-.383.592-.673.678l-1.266-.158c.25-1.624,1.786-4.863,1.889-4.9l1.385-.503,1.498-1.898,2.77.289Z"/>
    <path class="cls-7" d="M104.118,110.309c.18.183.418.333.458.638-.34.67-1.012,1.194-1.861,1.355l-1.994.373c-.516-.132-.76-.561-.725-1.188.032-.569.113-1.003.414-1.361.664-.79,2.773-.77,3.709.184Z"/>
    <path class="cls-5" d="M107.41,106.96l.24,1.157-.008,1.656c-.14-.124-.436-.393-.701-.365l-1.471.159c-.499.054-.942-.334-1.413-.484l-.033-.514c1.09-.603,2.162-1.321,2.202-2.36.378.272.704.662,1.184.751Z"/>
    <path class="cls-5" d="M105.486,111.216l-.012.263c-.458.646.264,1.139.244,1.932-1.36-.65-1.799.318-2.748.246l-.335-.025h-.248s-1.443-.439-1.443-.439l-.223-.518,1.994-.373c.848-.161,1.521-.686,1.861-1.355.291.135.596.237.91.269Z"/>
    <path class="cls-10" d="M105.47,109.567c.262.535.266,1.11.015,1.649-.314-.032-.619-.134-.91-.269-.04-.305-.278-.454-.458-.638l-.061-1.226c.471.15.914.538,1.413.484Z"/>
    <path class="cls-3" d="M105.717,113.411l.817.39c.284.136.421.367.406.576-.55.539-.953,1.26-1.203,1.998-.708-1.111-1.748-1.935-2.768-2.718.949.072,1.387-.896,2.748-.246Z"/>
    <path class="cls-3" d="M102.387,113.632h.248c.027.292-.268.268-.248,0Z"/>
    <path class="cls-3" d="M110.066,106.534l1.133,1.404c.403.5.587,1.042.535,1.604l-.79.262c-.791.262-1.856-1.494-3.294-1.688l-.24-1.157c.341.087.506-.164.497-.387v-.629c.794-.004,1.599-.104,2.159.59Z"/>
    <path class="cls-10" d="M139.695,115.319c-2.013-.455-4.264-.327-4.255.958l.012,1.766c-.215.02-.408-.105-.425-.243l-.068-.531c-.113-.883.002-1.576.587-2.199,1.261-1.342,3.538.092,4.773-.663.849-.52.481-2.078-.262-2.419l-.059-.769c.951.245,1.613,1.077,1.505,2.185-.107,1.101-.772,1.856-1.809,1.915Z"/>
    <path class="cls-10" d="M137.151,121.373c-.569-.029-.905-.462-.99-1.01.719.005.833.36.99,1.01Z"/>
    <path class="cls-10" d="M135.907,118.748c-.313-.007-.455-.267-.455-.568.081-.026.291-.025.362.036.159.137.069.38.093.533Z"/>
    <path class="cls-10" d="M134.97,103.085c-.015.061,0,.221-.213.342,1.152.736,1.888,1.719,1.936,3.212.952.744,1.454,1.785,1.494,2.881-.13-.008-.344-.02-.469.014-.731-.321-.458-1.149-1.017-1.419-.101-.567-.187-1.318-.728-1.658-.105-.111-.165-.34-.231-.502-.256-.631-.648-1.571-1.379-1.673l.119-1.257.487.061Z"/>
    <path class="cls-8" d="M135.501,103.327l.419.006c.271,1.159,2.431,1.447,1.73,3.269.809.896,1.035,1.927,1.215,2.959l-.678-.041c-.041-1.096-.542-2.137-1.494-2.881-.048-1.493-.784-2.476-1.936-3.212l.743-.1Z"/>
    <path class="cls-6" d="M135.501,103.327l-.743.1c.213-.121.198-.281.213-.342.048-.118.26-.261.363-.215.17.076.201.336.168.457Z"/>
    <path class="cls-6" d="M123.434,93.713l-1.363.074-.15,1.422c-.51.052-1.05.689-1.274,1.149l-.536-.01c.053-2.272,2.45-3.276,2.307-4.738-.073-.744-1.288-1.337-1.981-1.157-.852.221-1.3,1.043-1.286,1.835v1.991s-.793-.253-.793-.253c-.448-.143-.9-.381-1.405-.126.495.732.3,1.244-.163,1.675-.429.399-1.011.425-1.675.035-.39.647-.15,1.149-.051,1.637.131.647.208,1.325.737,1.809l.05.156c-.35.354-.839.346-1.256.271-.46-.274-.794-.779-1.036-1.325-.19-.427-.634-.285-.838-.37-.229-.095-.42-.281-.728-.225l-.921-3.573c-.516-1.981.339-4.001,1.824-5.346.676.554-.173,2.129.978,2.72.62.318,1.278-.412,1.683-.428,1.121.11,2.106.944,2.844.501.232-.139.706-2.976,3.405-3.605.902-.21,2.174,1.214,1.905,3.516l-.276,2.365Z"/>
    <path class="cls-3" d="M124.881,95.403c.07,1.156.391,2.209,1.293,3.09-.71.998-1.14,2.199-.911,3.38-.076.242-.225.64-.152.882-.054.026-.147.052-.29.04-.897,1.289-1.394,2.726-1.969,4.223-.686-.102-1.208-.086-1.646.154l-.201-3.084-.157-1.951c-.343.137-.535.23-.769.245-.329.021-.646-.103-.92-.258-1.306-.739-2.239-1.884-3.308-2.914l-.05-.156c-.077-.113.096-.394.177-.341l1.23.812c.665.439,1.329.655,1.965,1.298l1.413-1.144c.352-.285.38-1.057.7-1.411l2.156-2.39c.348-.386.106-1.234.729-1.425.263.223.686.544.711.949Z"/>
    <path class="cls-10" d="M119.149,94.277c1.512,1.179-.22,2.922,1.082,2.605.354-.086.271-.228.416-.525.224-.46.763-1.097,1.274-1.149.754-.077,1.145-.609,1.497-1.259.337.082.52.307.753.505-.623.191-.381,1.039-.729,1.425l-2.156,2.39c-.32.354-.348,1.127-.7,1.411l-1.413,1.144c-.636-.643-1.3-.859-1.965-1.298l-1.23-.812c-.081-.054-.254.228-.177.341-.529-.483-.605-1.161-.737-1.809.359.219,1.073.655,1.386.243l.908-1.195c.993-.486,1.329-1.315.999-2.27l.792.253Z"/>
    <path class="cls-8" d="M113.438,103.292c0,.144-.009.341.036.463-.033.239-.068.514-.245.73-.492.597-1.419-.233-2.713-.453-.091-.308-.246-.601-.223-.953.501.072,1.192-.084,1.189-.675l1.957.888Z"/>
    <path class="cls-7" d="M111.992,97.561c.308-.056.499.13.728.225.154.72-.252,1.021-.778,1.451-.477.389-.82.819-1.436.737-.089.015-.367-.102-.376-.259-.069-1.185.836-1.97,1.862-2.155Z"/>
    <path class="cls-10" d="M127.566,97.579c-.46.211-1.064.558-1.392.915-.902-.881-1.223-1.934-1.293-3.09.819.279,1.327,1.076,2.033,1.629l.652.546Z"/>
    <path class="cls-8" d="M123.434,93.713c-.008.071.015.179-.016.236-.352.65-.743,1.183-1.497,1.259l.15-1.422,1.363-.074Z"/>
    <path class="cls-14" d="M127.346,96.4l-.343-.071c-.22-.046-.132-.35-.195-.46.121-.01.261.007.36.07.138.088.201.286.178.461Z"/>
    <path class="cls-10" d="M139.263,123.129c-.135-.034-.291-.097-.477-.085.048-.485.646-.382.477.085Z"/>
    <path class="cls-3" d="M107.642,109.773l1.042.929c.268.239.403.501.418.8-.291.006-.714.474-.779.761-.795.329-1.621-.579-2.85-.783l.012-.263c.25-.539.247-1.114-.015-1.649l1.471-.159c.265-.029.562.24.701.365Z"/>
    <path class="cls-3" d="M118.926,105.749c-.004.405.041.825-.206,1.175-.475-.074-1.174-.077-1.216.523-.059-.025-.18-.035-.247-.023-.069-.113-.156-.211-.258-.293v-.142c-.005-.493-.221-.982-.457-1.524-.146-.192-.337-.241-.493-.235l-.013-.437c-.025-.884-.778-1.552-1.227-2.388-.371-.692-.128-1.573-.172-2.239.387,0,.342.424.533.683l2.227,3.029c.526.715.793,1.415,1.527,1.872Z"/>
    <path class="cls-10" d="M114.84,107.901l-.787.294c-.572-.007-.753-.599-1.128-1.023l-1.695-1.922c-.318-.361-.575-.747-.715-1.218,1.294.221,2.221,1.05,2.713.453.178-.216.213-.491.245-.73l1.053,2.06c.35.686.44,1.42.314,2.086Z"/>
    <path class="cls-1" d="M118.72,106.924l.203.486c-.462.17-.98.327-1.419.036.042-.6.741-.596,1.216-.523Z"/>
    <path class="cls-3" d="M135.742,105.954c-1.385-.473-3.017.339-3.425,1.903l-3.045,2.011-1.445-.528,1.323-1.802c.388-.524.832-1.369,1.548-1.48.988-.153,1.912-.264,2.612-1.067.228-.261.684-.762,1.053-.711.731.102,1.123,1.042,1.379,1.673Z"/>
    <path class="cls-8" d="M120.647,96.357c-.145.297-.062.439-.416.525-1.301.317.43-1.427-1.082-2.605v-1.991c-.013-.791.434-1.614,1.287-1.835.694-.18,1.909.413,1.981,1.157.143,1.462-2.254,2.466-2.307,4.738l.536.01Z"/>
    <path class="cls-10" d="M119.158,102.124c-.132.017-.198.123-.2.271l-.033,3.354c-.734-.456-1.001-1.156-1.527-1.872l-2.227-3.029c-.191-.259-.146-.682-.533-.683l-.045-.684c.417.075.906.083,1.256-.271,1.069,1.03,2.002,2.174,3.308,2.914Z"/>
    <path class="cls-8" d="M118.357,94.024c.329.955-.006,1.784-.999,2.27l-.908,1.195c-.313.412-1.027-.025-1.386-.243-.099-.488-.34-.989.051-1.637.663.39,1.246.364,1.675-.035.463-.431.658-.943.163-1.675.506-.256.957-.018,1.405.126Z"/>
    <path class="cls-5" d="M121.205,107.173c.003.052.039.137.022.223l-.876.076c.071-1.707.084-3.406-.273-5.089.234-.015.426-.108.769-.245l.157,1.951.201,3.084Z"/>
  </g>
</svg>