<?xml version="1.0" encoding="UTF-8"?>
<svg id="_レイヤー_1" data-name="レイヤー 1" xmlns="http://www.w3.org/2000/svg" width="240" height="240" viewBox="0 0 240 240">
  <defs>
    <style>
      .cls-1 {
        fill: #f5d286;
      }

      .cls-2 {
        fill: #bd7e37;
      }

      .cls-3 {
        fill: #cea672;
      }

      .cls-4 {
        fill: #dfaf5c;
      }

      .cls-5 {
        fill: #d6a555;
      }

      .cls-6 {
        fill: #9cc09e;
      }

      .cls-7 {
        fill: #cf9e50;
      }

      .cls-8 {
        fill: #c6924e;
      }

      .cls-9 {
        fill: #f9db9a;
      }

      .cls-10 {
        fill: #e6b86b;
      }

      .cls-11 {
        fill: #ac6b2d;
      }

      .cls-12 {
        fill: #f2d091;
      }

      .cls-13 {
        fill: #c99753;
      }

      .cls-14 {
        fill: #fae2b0;
      }

      .cls-15 {
        fill: #edc679;
      }

      .cls-16 {
        fill: #f0c981;
      }
    </style>
  </defs>
  <path class="cls-8" d="M127.327,103.149l.18.441c.217,1.173,1.097,2.03,1.723,3.096l1.689,2.878c.25.425.506.73,1.036.717,1.438,2.128,2.714,4.447,4.408,6.542.216.268.509.367.723.441.176.613.973.596,1.535.449-.06.619.52.793.971,1.131.639.48,1.35.866,2.031.188.475-.473.87-1.215,1.502-1.554.572-.306.803-.704.701-1.281l.012-.168c.17.091.423.033.461-.131.034-.149.007-.293-.01-.391-.096-.529.365-.847.669-1.212l1.209-1.452,3.466-4.696c.696-.943,1.24-1.872,1.448-3.062.776-.27,1.456-.363,2.119-.358l1.087,1.596-1.821.264c-1.598,1.252-1.932,2.769-2.803,3.545-.181.162-.107.519.03.676.064.073.127.161.383.118l.916-.151c-.032.217-.302.471-.557.51-.763.118-1.002.601-1.423,1.044-1.136,1.196-1.934,2.433-2.484,4.024-.114.329-.618.55-.512,1.164.08.463-.122,1.021-.224,1.401-.472.059-.724-.403-.862-.934-.914.006-1.64,1.025-1.639,2.018l-3.187,1.497c-.047.537.275,1.146.68,1.683.672.89.357,2.513-.294,2.505l-.185-1.206c.258-.779-.422-1.528-1.306-1.647-1.897-.256-3.433,2.292-2.814,3.103.202.265.434.815.743,1.017,0,.269-.032.51-.115.626-.165.23-.554.228-.775.192-.982-.158-1.038-.625-1.079-1.426-.105-2.027,1.076-3.842,3.153-4.283.515-.109,1.118-.358,1.072-.963l-1.721-.074-2.766-2.726c-.59.977-.617,2.037-.893,3.008-.197.691-.969.66-1.421.936-2.432,1.485-2.987-.541-4.846-.968l-1.337-.307c-.29-.067-.461-.621-.286-.831l1.302.178c1.34.183,2.576-.25,3.483-1.276.791-.895,1.51-2.329,1.031-3.611l-1.523-1.833c-.832-1.002-.806-1.613-1.31-1.796-.043-.374-.261-.536-.66-.531.1-.559-.516-.603-.818-.859-.663-.562-1.008-2.219-1.725-2.293-.062-.938-.791-2.309-1.502-2.6-.033-.088-.164-.258-.16-.359.022-.564-.66-.983-1.016-1.42.315-1.585,2.397-.666,2.882-1.818.588.335.68,1.091,1.43,1.229ZM131.438,113.492c-.088-.647-.664-1.387-1.346-1.173l1.164,1.317.182-.143ZM131.543,113.597l-.143.464c.369.145.438-.353.143-.464Z"/>
  <path class="cls-8" d="M123.925,105.574l.266-.057c-.121.441.272.772.486,1.174.771,1.447.535,4.242-.438,4.352-.043-.395.054-.797.016-1.242l-.17-2.025c-.459-.969-1.034-1.788-.857-2.819l.697.617Z"/>
  <path class="cls-3" d="M156.559,121.564c-.746,1.196-1.222,2.722-.735,4.067-.74,1.617-1.206,3.472-.721,5.354.1.386.014.855.628.887-.556,2.039-.5,4.163-.962,6.178l-.961,4.184c2.539,1.089,3.582,4.084,2.389,6.391-.325-.327-.745-.102-1.094-.083l-1.409.079c-.363.02-1.324.26-1.475-.158l-.575-1.593c.703-.267,1.221-.171,2.079.04-.374-.527-.032-1.05-.165-1.528l-.359-1.284c-.088-.314.096-.559.354-1.004l-.924.32c-.014-.178-.144-.439-.399-.472-1.477-.189.331-2.366-2.062-3.174,1.103-1.54,1.906-3.398,1.082-4.516.133-.258.036-.701.009-.981.482-.079.649-.525.676-1.045l.19-3.674,1.038-3.499c.13-.438.363-.737.189-1.151-.119-.282-.695-.425-1.01-.596-.287-1.937,2.262-1.852,2.435-3.525l.387.065c.407.341.865.621,1.393.717Z"/>
  <path class="cls-14" d="M84.125,125.597c.473.381.987.576,1.826.766-.675.99-.384,1.752.168,2.575.454.679.058,1.707.175,2.43l.845,5.225c.471-.787.516-1.723,1.212-2.259.312.01.793.238,1.103.176-.064.315-.079.71.099,1.118.101.128.478.116.639.093.021.366-.22,1.161-.685.957l-1.009-1.431c-.93-.172.018.665-.936,2.199-.38.611.943,2.2.343,4.127-.932,1.386-2.109,1-1.604,1.581.034.12.03.362-.008.491-.364.414-.05,1.273-.296,1.821-.386.862-.711,1.593-.118,2.481.656.982-.321,2.141.024,3.368-1.587-1.109-2.762-2.913-2.613-4.981.123-1.714,1.066-3.184,2.603-3.936.211-1.57-.621-2.898-.746-4.303l-.22-2.451-.612-3.235c-.041-.218-.539-.087-.604.073l-.176.436c-.217.537-.308,1.106-.866,1.37-.365-1.246.488-2.178,1.576-2.86-.443-1.94-.884-3.969-.799-5.853l.678.023Z"/>
  <path class="cls-7" d="M100.763,115.579c-.542.246-.691.8-1.65.863-1.595.104-2.061-2.457-3.262-2.118l-.006-.165c-.331-1.111-.95-2.31-2.112-2.675.239-.617-.303-.871-.569-1.288-.868-1.356-1.969-2.99-3.014-3.294-.498-.145-.794-.74-.964-1.198.133-.15.359-.25.654-.189l2.006.415c.354.073.625-.123.709-.343.239-.625-.849-.96-.746-1.695,1.387.777,1.92,2.315,2.946,3.096.019.651.418,1.21.933,1.603.009.191.024.555.198.7.203.17.424.046.439-.087l.036-.321c.39-.053.613-.325.733-.768.535-1.984,1.484-3.721,2.299-5.582.121-.277-.077-.676-.133-.869.233-.095.549.053.65.218.127.207.159.648.006.891-.903,1.429-1.71,3.83-2.53,5.672l-.725,1.629,4.103,5.505Z"/>
  <path class="cls-14" d="M114.836,100.628c.02.488.18,1.066-.031,1.488l-.455.909c-.109.016-.225.051-.309.11-.165.116-.125.351-.17.469-.075.196-.253.443-.22.679-.62.16-.94.942-.957,1.507l-.005.167c-.226-.051-.589.013-.627.232l-.131.745c-.067.38-.488.77-.455,1.177-.554.048-.961.386-1.275.907l-1.925,3.204-2.681,3.953-2.157,2.608c-.9,1.088-2.462,1.382-3.614.794-.379-.193-.323-.658-.25-.899,1.611-.087,2.712-1.275,2.567-1.669.745.178,1.25-.006,1.77-.654,1.753-2.186,3.093-4.582,4.535-6.883l2.897-4.625,2.459-3.758c.21-.321.411-.552.689-.674.158.003.24.172.345.213Z"/>
  <path class="cls-14" d="M80.805,104.296c-.149.422.246.806.465,1.217-.109.604-.501,1.449-.131,2.055.819,1.34,1.315,2.773,1.071,4.404-.115.769.315,1.294.424,1.967l.344,2.117c.028.17-.075.58.147.652.177.058.439-.004.618-.036-.035.41-.144.998.034,1.5l.867,2.445c-.622.309-.528,1.12-1.512.924-.194-.039-.462.028-.642.051l-.444-1.568-1.421-7.032-.291-1.657-.203-.992-.739-5.283-.038-.231c.313-.498.889-.633,1.451-.533Z"/>
  <path class="cls-10" d="M162.1,96.356l-.051.39c-1.835-.161-1.743,2.533-2.475,3.399-.453.536-1.184.803-1.398,1.541l-.33,1.135c-.037.133-.3.297-.233.582.046.197.338.309.576.368l-.14,1.702c-.087.908.12,2.161-.142,3.066-.439,1.513-.762,2.761-.635,4.395-.22.453-.853,1.09-.675,1.676l-.503-.013-.007-.234c-.026-.85-.137-1.704-.199-2.662l-.107-1.637c.51-.139-.039-1.169.583-2.6.543-1.248.657-2.974-.057-2.708.044-.721.448-1.328.855-2.004.516-.857.531-1.703.596-2.578,1.126.292,1.845-1.623,2.371-3.34l.942-.941c.452-.028.752.322,1.029.461Z"/>
  <path class="cls-13" d="M160.382,105.024c-.003.053-.019.121-.011.176l-.823,4.161c.023.173.164.558.034.708-.543.629-.503,1.469-.692,2.324l-.861,3.903c-.145.655-.529,1.291-1.197,1.488-.333-.638-.223-1.197-.286-1.718,1.324.013,1.246-2.125,1.57-3.805l.505-2.611c.19-.983.379-1.663.416-2.742.022-.633.656-1.386.542-2.033.277-.139.577-.049.803.149Z"/>
  <path class="cls-11" d="M154.768,138.05c.463-2.014.407-4.139.962-6.178l.108.015c1.679.267,1.466,2.446.883,4.72-.246.959-.992,1.468-1.954,1.442Z"/>
  <path class="cls-4" d="M85.147,138.095c-2.315.209-2.007-2.201-2.477-3.808.558-.264.648-.832.866-1.37l.176-.436c.065-.16.562-.29.604-.073l.612,3.235.22,2.451Z"/>
  <path class="cls-3" d="M161.39,104.805l-.027-.277-.021-.239c.883-.18.384-1.106,1.621-2.477.768-.851,1.129-2.659.458-3.302-.181-.173-.529-.263-.829-.222.034-.403-.147-.794-.522-.945l-.021-.597.051-.39c.616.31,1.076.671,1.484,1.415,1.402,2.558.469,5.937-2.193,7.034Z"/>
  <path class="cls-9" d="M160.402,95.638l-1.946.555c.215.668.608,1.265.445,1.904-.136.535-.439,1.305-1.095,1.439l-.612-.852c.075-.149.042-.277-.029-.41-.287-.539-.698-1.078-1.313-1.208l-.041-.225.806-.377c1.227-.559,2.563-1.294,3.784-.826Z"/>
  <path class="cls-3" d="M160.405,110.8c-.254-.052-.461.017-.628.189-.187.193-.071.493-.107.66l-1.058,4.977-.369,2.068-.205-.006c-1.148-.034-1.278-.711-1.996-.506l.006-.518.004-1.017c-.035-.355.038-.842.458-.876l.036.296c.063.521-.047,1.08.286,1.718.668-.197,1.052-.833,1.197-1.488l.861-3.903c.189-.855.149-1.695.692-2.324.375.128.682.364.822.73Z"/>
  <path class="cls-16" d="M158.039,118.689c-.003.401-.092.915.239,1.223-.703.307-.842,1.145-.758,1.845-.124-.079-.324-.076-.454-.1l-.506-.092c-.528-.096-.986-.375-1.393-.717l-.047-.562c.434-.633.915-1.376.923-2.102.718-.205.848.473,1.996.506Z"/>
  <path class="cls-10" d="M82.046,120.024c-.974-.087-1.561-.947-1.649-1.838.206-.077.25-.395.153-.582-.088-.169-.331-.168-.48-.12l-.22-.539-.023-.182c.133.086.486.035.486-.229l-.002-2.42c0-.329.083-.8-.044-1.103l.358-.019,1.421,7.032Z"/>
  <path class="cls-12" d="M156.554,125.624l-.689,4.646c-.09.595-.195,1.117-.026,1.618l-.108-.015c-.614-.032-.528-.501-.628-.887-.486-1.882-.019-3.737.721-5.354l.73-.008Z"/>
  <path class="cls-2" d="M160.405,110.8l.192.502c-.301.633-.117,1.4-.038,2.052l.066.55c-.465,1.301-1.082,2.853-1.024,3.792.056.9-.526,1.868-1.324,2.216-.331-.308-.241-.822-.239-1.223l.205.006c.338.01.536-.2.62-.619l.555-2.781c.136-.68,1.016-2.133.251-3.645.036-.168-.08-.468.107-.66.167-.172.374-.241.628-.189Z"/>
  <path class="cls-2" d="M160.375,102.372c.049.361.367.544.686.785.367.276.253.814.281,1.132l.021.239c-.153-.024-.343.017-.445.15-.058.076-.08.213-.074.312l-.463.034c-.225-.198-.526-.289-.803-.149-.136-.691-.749-.947-1.39-1.104-.237-.058-.53-.171-.576-.368-.066-.285.196-.449.233-.582l2.529-.449Z"/>
  <path class="cls-9" d="M80.334,111.335c-.11-.026-.246-.08-.476-.064-.06.719.186,1.212.408,1.741.127.303.044.774.044,1.103-.078-.023-.266-.025-.34.027-.077.055-.153.246-.152.441l.008,2.18.023.182c-.945-.701-1.09-1.911-.738-3.075l.042-2.118c.014-.695.432-1.184.977-1.41l.203.992Z"/>
  <path class="cls-16" d="M161.071,95.895l-.942.941c-.525,1.717-1.244,3.632-2.371,3.34l.048-.639c.656-.134.958-.904,1.095-1.439.163-.639-.229-1.236-.445-1.904l1.946-.555.669.256Z"/>
  <path class="cls-11" d="M157.064,121.656c.322.584.733,1.45.304,2.071-.375-.048-.9-.038-1.024.132-.098.134-.098.633.052.713l.915.532c-.208.11-.462.517-.757.519l-.73.008c-.487-1.346-.011-2.871.735-4.067l.506.092Z"/>
  <path class="cls-5" d="M131.406,109.122l.21.432c.071.145.115.34.152.5.021.091.084.215.187.227-.53.013-.787-.292-1.036-.717l-1.689-2.878c-.626-1.067-1.506-1.924-1.723-3.096.254.099.423.329.612.619l2.36,3.622c.303.464.517,1.046.927,1.291Z"/>
  <path class="cls-12" d="M83.132,121.542c.06.154.122.354.24.488-.094-.009-.241-.045-.316-.022-.505.15-.858.591-1.252.881.207.601.649.601,1.029.467.598.661.707,1.375.616,2.219-.583-.02-1.354-.204-1.723-.866-.333-.595-.338-1.646.025-2.225.23-.368.685-.537.741-.891.18-.023.448-.089.642-.051Z"/>
  <path class="cls-3" d="M157.519,121.756c.877.558,1.139,1.837.636,2.81-.218.423-.543.481-.844.539l-.915-.532c-.149-.08-.149-.579-.052-.713.124-.17.649-.181,1.024-.132.428-.621.018-1.487-.304-2.071.131.024.331.021.454.1Z"/>
  <path class="cls-3" d="M159.601,117.695c-.058-.938.559-2.491,1.024-3.792.572,1.207-.126,2.56-1.024,3.792Z"/>
  <path class="cls-3" d="M159.548,109.362l.823-4.161c.178,1.291-.196,2.496-.498,3.905.195.138.085.536-.325.256Z"/>
  <path class="cls-3" d="M160.559,113.354c-.078-.652-.263-1.419.038-2.052.384.248.318.84.287,1.388l-.032.561c-.005.092-.098.237-.294.104Z"/>
  <path class="cls-16" d="M80.396,118.186c-.271-.151-.336-.413-.327-.702.149-.048.392-.049.48.12.097.187.053.505-.153.582Z"/>
  <path class="cls-13" d="M161.364,104.528l.027.277c-.18.074-.334.17-.546.185-.006-.099.016-.236.074-.312.102-.133.291-.175.445-.15Z"/>
  <path class="cls-13" d="M151.621,115.063c-.74,1.133-.987,2.354-1.169,3.601-.132.902-.125,1.645.493,2.458.68.895,1.873,1.248,2.944.338.263-.224.509-.656.89-.677-.173,1.674-2.722,1.589-2.435,3.525.316.172.892.314,1.01.596.174.414-.059.714-.189,1.151l-1.038,3.499-.19,3.674c-.027.519-.194.965-.676,1.045l-1.552-.794c-.23-.119-.422-.488-1.036-.479l-.844-1.271c-.357-.539-1.008.317-1.357.553-.772.522-1.752.405-2.579.583-.491.106-.12.706-.159.917-.089.478-.806,1.366-1.303,1.387-.82.035-1.526.125-1.798.932-.37,1.097-2.176,2.506-2.89,2.479-.552-.02-.765-.454-1.292-.767l-1.896-1.222c1.301-.044,1.969.974,3.258.435.927-.388,1.942-2.898.589-3.366l-.32-2.046.413-1.924c.165-.767-.109-1.469.15-2.212.481-.025,1.203-.307,1.296-.866.04-.244.019-.374.294-.503.137.279.403.093.258-.146-.008-.118.005-.215-.005-.274.651.008.966-1.616.294-2.505-.406-.537-.727-1.146-.68-1.683l3.187-1.497c0-.994.726-2.012,1.639-2.018.138.531.39.994.862.934l.256.725c-.303.036-.381.36-.262.592.083.163.329.183.499.154.002.442-.174,1.249.177,1.668l1.221,1.461c.709.848,2.027.622,3.294.015l-1.581-1.669c.247-1.477-.378-3.133.232-5.06l-.03-.539c1.41.99.74-1.129,2.023-1.201Z"/>
  <path class="cls-7" d="M136.926,126.955c.489.32,1.182.55,1.719.522-.258.743.015,1.445-.15,2.212l-.413,1.924.32,2.046c1.353.467.338,2.978-.589,3.366-1.289.539-1.957-.479-3.258-.435l-1.95.066c-.275-.099-.717-.561-1.057-.457-.137-.883-.726-1.722-1.609-2.141-.915-.433-1.689-.139-2.349.493-.77.738-1.092,1.652-.635,2.607-.597.05-.974-.525-1.212-.942-.309-.54.209-.958.345-1.476.127-.485.024-.981.404-1.192.336-.186.784-.377,1.33-.237,1.062.272,2.681-.405,2.551-1.612-.168-1.56-.045-3.432.464-3.564.373-.097.996.149,1.196.342.312.302.119,1.371.681,1.519.163.043.336-.082.358-.18.024-.108-.005-.402-.079-.532-.573-1.004-.182-1.907-.732-2.246-.178-.11-.478-.19-.925-.275.202-1.153.003-2.369-1.017-2.904l-1.622-.852c-.599-.314-.929-1.189-1.163-1.73,1.859.427,2.414,2.452,4.846.968.451-.275,1.224-.244,1.421-.936.276-.972.303-2.031.893-3.008l2.766,2.726,1.721.074c.046.605-.557.854-1.072.963-2.077.441-3.258,2.255-3.153,4.283.042.801.097,1.268,1.079,1.426.221.035.61.038.775-.192.083-.116.114-.357.115-.626Z"/>
  <path class="cls-5" d="M123.087,116.79l.23.666c-.484.038-.181.447.053.207.405.917,1.131,1.66,2.156,1.783.005.058.018.14.04.197-.2-.052-.482-.107-.664.126.291.085.411.161.489.31.606-.498,1.732-.291,1.829-.08.034.074.022.198-.006.317l-1.302-.178c-.175.21-.004.764.286.831l1.337.307c.233.542.564,1.416,1.163,1.73l1.622.852c1.02.535,1.219,1.751,1.017,2.904.448.085.747.165.925.275.55.339.158,1.242.732,2.246.074.13.103.424.079.532-.022.098-.195.222-.358.18-.562-.147-.368-1.217-.681-1.519-.2-.193-.823-.439-1.196-.342-.509.132-.632,2.005-.464,3.564.13,1.207-1.489,1.884-2.551,1.612-.546-.14-.994.051-1.33.237-.38.211-.277.707-.404,1.192-.136.517-.654.935-.345,1.476.238.417.615.992,1.212.942l.331.691c-.487.015-.879.641-1.271.95-1.585-.347-1.136-2.317-2.424-2.403-.824-.055-.817,1.415-1.603.807.021-.483.505-.817.739-1.257.522-.981.925-1.854,1.687-2.669.253-.27.318-.667.22-.98-.203-.652-1.564-.87-2.403-1.589-1.025-.878-1.833-1.589-3.288-2.129,1.159-.413,1.512-.913,1.87-1.844l1.633-2.373.302-3.087c1.127.535-.184,2.346,1.236,3.546-.807,1.633-2.235,2.693-3.771,3.948,1.31.609,2.875.91,3.869.317,2.464-1.468,2.661-4.795.834-6.806,0-.7-.53-1.365-1.317-1.552l-2.239-.533c-.23.064-.596.583-.875.446l-.782-.385c-.256-.126-.781-.097-.92-.368-.41-.799-.101-3.143-1.415-5.897l4.489,2.032c.408.185.703.835,1.23.767Z"/>
  <path class="cls-7" d="M128.896,111.8c.504.183.477.794,1.31,1.796l1.523,1.833c.479,1.282-.24,2.717-1.031,3.611-.908,1.026-2.143,1.459-3.483,1.276.029-.119.04-.243.006-.317-.097-.211-1.223-.419-1.829.08l.175-.436c-.022-.057-.036-.138-.04-.197l-.064-1.278c1.507.997,1.887.777,3.426.46.523-.108.456-.479.597-.631.551-.592.65-1.249.67-2.069.025-1.042-.403-1.71-1.447-2.044-.757-.242-1.682-.461-2.257.067-1.196.065-1.764,1.721-1.535,3.323-.125-.06-.411-.025-.437-.202l-.073-.51c-.35-2.441,1.64-3.309,1.463-3.736-.053-.129-.407-.162-.57-.235,1.039-.732,2.275-1.223,3.597-.793Z"/>
  <path class="cls-2" d="M152.414,110.772l.637.037c.141.008.252.263.168.472-1.051-.318-2.445.049-3.392.956-.919.88-1.514,2.181-2.076,3.366-1.048,2.212-1.057,4.789.176,6.73l.241-.182c-.469-1.415-1.07-3.251-.431-3.948.036.153.249.397.201.694-.131.818.264,1.447.506,2.094.246.659.645.548.952.872l1.581,1.669c-1.268.607-2.586.832-3.294-.015l-1.221-1.461c-.351-.42-.174-1.226-.177-1.668-.002-.317-.146-.487-.237-.746l-.256-.725c.102-.38.304-.938.224-1.401-.106-.614.398-.835.512-1.164.549-1.59,1.348-2.827,2.484-4.024.421-.443.659-.927,1.423-1.044.256-.039.525-.293.557-.51l1.423-.003ZM148.26,122.502l.138-.126c-.131-.194-.318-.006-.138.126ZM148.531,122.757l-.12.12.12.12.12-.12-.12-.12Z"/>
  <path class="cls-2" d="M125.105,100.427c.327.41.653.997.792,1.493-.485,1.153-2.567.233-2.882,1.818.356.437,1.038.857,1.016,1.42l-.106.416-.697-.617c-1.163-1.03-2.785-1.282-4.319-1.34l.548-1.201-1.78-.713c1.469-.017,2.767.077,3.98-.333.2.04.55.141.825.038l2.623-.98Z"/>
  <path class="cls-11" d="M124.191,105.517l-.266.057.106-.416c-.004.1.128.271.16.359Z"/>
  <path class="cls-11" d="M125.693,108.118c.1,1.528,1.042,3.276,2.543,3.151.399-.005.617.157.66.531-1.321-.43-2.558.061-3.597.793-.958.675-1.894,1.499-2.045,2.771-.803.068-1.064-.895-2.313-.804-.382-1.011,1.339-.382,1.848-1.631.184-.067.352-.333.468-.473.508-.223,1.055-.734.982-1.412.972-.111,1.208-2.905.438-4.352-.214-.402-.607-.733-.486-1.174.71.291,1.44,1.662,1.502,2.6Z"/>
  <path class="cls-11" d="M140.303,124.481l-.509-.454c-.391-.385-.85.722-1.305.635-.169-.033-.366-.539-.52-.792-.771.061-1.163,1.366-.712,2.148.567.983,1.901,1.039,2.684.593-.092.56-.815.841-1.296.866-.537.028-1.23-.202-1.719-.522-.31-.202-.541-.753-.743-1.017-.619-.812.917-3.359,2.814-3.103.883.119,1.563.868,1.306,1.647Z"/>
  <path class="cls-10" d="M143.608,114.956l-1.762,2.318c-.44.138-.97.561-1.563.427-.634-.144-1.117-.129-1.663.013-.562.147-1.359.164-1.535-.449.789-.144,1.422-.62,1.915-1.205.802-.092,1.836.224,2.667-.106.649-.257,1.216-1.012,1.94-.998Z"/>
  <path class="cls-10" d="M140.303,124.481l.185,1.206c.009.059-.003.157.005.274-.09-.054-.178.036-.258.146-.275.129-.254.259-.294.503-.784.446-2.117.391-2.684-.593-.451-.782-.059-2.087.712-2.148.155.253.351.759.52.792.455.087.914-1.02,1.305-.635l.509.454Z"/>
  <path class="cls-7" d="M143.826,116.198c.101.577-.129.975-.701,1.281-.632.339-1.028,1.081-1.502,1.554-.681.678-1.392.292-2.031-.188-.451-.339-1.032-.513-.971-1.131.546-.142,1.029-.158,1.663-.013.592.135,1.123-.289,1.563-.427,1.15-.36,1.162-1.058,1.981-1.076Z"/>
  <path class="cls-2" d="M128.236,111.269c-1.501.124-2.443-1.623-2.543-3.151.717.074,1.063,1.731,1.725,2.293.302.256.918.3.818.859Z"/>
  <path class="cls-11" d="M131.256,113.635l-1.164-1.317c.682-.213,1.258.526,1.346,1.173l.105.105c.295.111.226.609-.143.464,0-.292-.12-.394-.144-.426Z"/>
  <path class="cls-7" d="M144.288,115.508c.018.098.044.241.01.391-.037.164-.291.222-.461.131.019-.278.157-.513.45-.522Z"/>
  <path class="cls-5" d="M100.763,115.579c.357.479,1.153.821,1.377,1.431-.478-.086-1.308-.027-1.742.278-1.6,1.122-2.288-.776-3.019-.737-.079.004-.228-.122-.246-.202-.337-1.539-1.258-1.378-1.283-2.025,1.201-.339,1.667,2.223,3.262,2.118.959-.063,1.108-.617,1.65-.863Z"/>
  <path class="cls-8" d="M149.709,133.478c-.518.261-1.164.419-1.755.308-.604-.114-.629.309-.794.458l-.938.843c-1.56,1.403-1.322,4.143.527,5.218.693.403,1.062,1.403,2.344.818-1.316-1.339-2.851-3.173-2.627-4.712.108-.745.569-1.24,1.288-1.233.244.097.465.253.822.279.068-.459.177-.745.679-.961.305.69.621,1.457,1.229,2.114.554-.504.565-.961.769-1.356.824,1.118.021,2.976-1.082,4.516,2.393.808.584,2.984,2.062,3.174.254.033.385.294.399.472-2.398,1.187-5.035,1.536-7.797,1.736l-2.901.21-2.648.215-3.337.402-2.624.242c-1.543.142-2.872.26-4.403.45l-2.322.288-5.177.129-3.458.123c-.03-.088-.012-.25.049-.311.083-.084.216-.132.414-.162l1.72-.261c.5-.076,1.039-.738,1.614-.395.424.253.785.076,1.357.074l1.804-.007c.741-.003,1.448.138,2.269-.02l2.42-.464c1.048-.201,1.921-.303,2.958-.451.961-.137,1.285-1.657.807-2.339-.265-.379-.311-.642-.292-.949,1.361.113,2.915-.286,3.527-1.687.166-.381.086-.986-.061-1.368-.102-.266-.434-.472-.829-.537-.016-.259-.291-.248-.253.014-.098-.048-.173-.151-.245-.232l-.234-.262c.053-.146.026-.383-.128-.457-.246-.117-.573-.036-.597.275-.324-.028-.89-.081-1.179.041-.144-.712-1.355-.34-1.415-.727l-.121-.781c.34-.104.782.359,1.057.457l1.95-.066,1.896,1.222c.527.313.74.747,1.292.767.714.026,2.52-1.382,2.89-2.479.272-.808.978-.897,1.798-.932.497-.021,1.215-.909,1.303-1.387.039-.211-.332-.812.159-.917.827-.177,1.807-.061,2.579-.583.349-.236,1-1.092,1.357-.553l.844,1.271c.614-.009.805.36,1.036.479Z"/>
  <path class="cls-2" d="M149.709,133.478l1.552.794c.027.28.124.723-.009.981-.204.396-.215.852-.769,1.356-.608-.658-.924-1.424-1.229-2.114-.502.215-.611.501-.679.961-.357-.025-.578-.181-.822-.279-.109-.278-.07-.573.184-.85-.35-.117-.538-.061-.778-.083.166-.149.191-.573.794-.458.592.112,1.237-.047,1.755-.308Z"/>
  <path class="cls-11" d="M154.943,119.597c-.004.262-.009.492.176.688l.047.562-.387-.065c-.381.021-.627.453-.89.677-1.071.911-2.264.558-2.944-.338.981.421,2.106.315,2.77-.527.333-.423.728-.877,1.228-.997Z"/>
  <path class="cls-16" d="M144.817,113.178c-.127.196-.057.581-.428.765-.458.228-.533.695-.781,1.013-.724-.014-1.291.741-1.94.998-.832.33-1.866.014-2.667.106l1.785-2.119,1.201-1.363c.246-.279,1.108-.581,1.375-.172.209.321.346.794.636.888.226.073.59-.092.82-.116Z"/>
  <path class="cls-1" d="M99.922,126.669c.263.234.407.451.774.674-.003.539.294.956.671,1.521l.111,1.23c1.257.484,2.032,1.476,2.483,2.7l1.331-.773-.009,1.08c1.404-.56,1.272-1.785,2.057-2.088.181-.07.472.095.314.352l-1.192,1.942c-.594.968-1.358,1.567-1.633,2.743-.21.897-1.787,1.836-1.082,2.262.103.062.327.108.428.137-.364.183-.679.521-.804.81-.216.499-.052,1.173.393,1.257.085.092.232.314.292.434.179.358.491.74.909.909.299.483.445,1.388.182,1.984-.194.441-.925.792-1.578.944l-1.691.393-1.19.175-2.622-.084-2.915-.208-2.117-.015c-.063-.083-.203-.192-.299-.151-.092.039-.165.143-.202.181l-.919-.021c.013-.095.012-.238-.052-.344-.077-.128-.258-.142-.421-.132l-.488.032c-.08-.238-.294-.273-.53-.274l-.67-.002c-.07-.576-1.055-.786-1.481-.432-.302-.151-.766-.41-1.111-.315-.182.05-.368.066-.568.054.037-.129.042-.371.008-.491l3.346.221c.388.028.758.498,1.093.475.372-.025.961-.29,1.116-.707-.404-.553-.814-1.028-.732-1.629.403.21.744.613,1.098.639.71.053,1.165-.182,1.484-.698,1-1.619,1.211-3.327.783-5.046-.312-1.256-.834-2.303-1.742-2.112-.116.024-.302-.019-.43-.036-.422-.369-.968-.492-1.473-.291-.372.148-.89.045-1.288.036-.009-.902.538-1.604,1.549-1.652,1.715-.081,2.669-3.341,1.211-5.176-.609.481-1.235.811-1.843.284l-1.617-1.4.101-.475c.497-.139.919.379,1.335.635.946.188,1.861-.158,2.825-.253.653-.998,1.192-1.947,2.16-2.667l.404-1.966c-.641-1.026-.86-2.084-.747-3.258-.655-.102-.704-.429-.784-.716-.114-.408.051-1.248.551-1.084.787.259,1.049,1.64.959,2.346-.185,1.448.377,2.241.991,3.356l.932,3.398,1.667-.073c-.055.795.332,1.062.671,1.363Z"/>
  <path class="cls-9" d="M88.857,126.062l1.617,1.4c.609.527,1.234.197,1.843-.284,1.458,1.836.503,5.095-1.211,5.176-1.012.048-1.559.75-1.549,1.652l-.102.503c-.31.062-.792-.166-1.103-.176-.696.536-.741,1.472-1.212,2.259l-.845-5.225c-.117-.723.279-1.751-.175-2.43-.551-.824-.843-1.585-.168-2.575-.839-.19-1.353-.385-1.826-.766.092-1.241.093-2.602-.754-3.567-.118-.135-.18-.334-.24-.488.984.196.891-.614,1.512-.924.169.278.685.678.785,1.065.28,1.081,1.404,1.241,1.925,1.891.639.796.782,1.863,1.503,2.487Z"/>
  <path class="cls-9" d="M91.039,134.738c.311-.069.685-.022.805.311l.346.953c-1.2-.091-.977,1.161-1.979,1.907-.64.476-.881.979-.803,1.738.061.589.349,1.188,1.028,1.331.175.189.431.402.69.536-.082.601.329,1.076.732,1.629-.155.417-.744.682-1.116.707-.335.022-.705-.447-1.093-.475l-3.346-.221c-.505-.581.672-.195,1.604-1.581.601-1.927-.723-3.515-.343-4.127.953-1.534.006-2.371.936-2.199l1.009,1.431c.465.203.707-.591.685-.957-.027-.455.47-.898.845-.982Z"/>
  <path class="cls-5" d="M83.371,122.03c.847.964.846,2.326.754,3.567l-.678-.023c.091-.843-.017-1.558-.616-2.219l.223-1.347c.076-.022.222.014.316.022Z"/>
  <path class="cls-10" d="M90.844,133.97c.135.267.199.518.195.768-.376.084-.872.527-.845.982-.161.023-.538.035-.639-.093-.178-.407-.163-.803-.099-1.118l.102-.503c.398.009.916.112,1.288-.036Z"/>
  <path class="cls-16" d="M89.185,105.704c.17.458.467,1.053.964,1.198.103,1.053.72,1.91,1.733,2.408l.968,1.863c.235.452.443.654.874.581l-.008.469c-.019,1.196,2.056,2.678,2.775,4.332.12-.31.272-.36.374-.35.081.008.246.118.268.144.018.08.167.206.246.202-.284.777,1.522,1.76,2.159,1.6.337-.085.847-.41.86-.863.434-.304,1.264-.364,1.742-.278.145.394-.956,1.581-2.567,1.669l-.606.033c-.194.01-.51.398-.377.678.528,1.116,1.913,1.505,2.966,1.212,1.186-.33,1.763-.848,2.537-1.663.479-.504,1.091-.697,1.36-1.565l1.284-1.728c.288-.867.74-1.417,1.163-2.064.103.66-.411,1.253-.568,1.852-.355,1.358-.982,2.206-2.06,3.067l-1.062,2.455c-.246.568-1.17.223-1.505.373-1.283.578-2.322.875-3.624,1.328-.485.168-.444,1.889.151,1.636l1.311-.555c.226-.125.905.056.797.447-.109.393-.478.69-.433,1.301l1.71.084c-.007.573-.296.745-.466,1.021-.278-.068-.585.01-.706.288l-.476-.154c-.291-.143-.681-.123-1.049-.055-.339-.301-.726-.568-.671-1.363l-1.667.073-.932-3.398c-.614-1.115-1.176-1.908-.991-3.356.09-.706-.172-2.088-.959-2.346-.5-.164-.665.676-.551,1.084.08.287.129.614.784.716-.113,1.174.106,2.232.747,3.258l-.404,1.966c-.968.72-1.506,1.669-2.16,2.667-.964.095-1.879.441-2.825.253-.417-.257-.838-.775-1.335-.635-.204-.448-.362-.892-.302-1.399.908.326,1.663.532,2.546.225,1.856-.646,2.876-4.117,2.034-6.631-.456-1.361-.525-2.879-1.427-2.911-.321-.276-.593-.762-.834-1.106l-.982-1.403c-.715-1.022-1.941-1.413-3.083-.979.985.259,1.868.55,1.815,1.325-.877.02-1.305-1.102-3.091-.973-.138-.582-.192-1.275.133-1.758,1.066-1.588.454-2.077.034-3.484.123-.035.303-.068.402-.058l1.323.125c.309.029.612-.003.815-.125.307-.185.382-.478.355-.74l.49.012Z"/>
  <path class="cls-10" d="M93.732,111.485c-.027.069-.007.185-.008.269-.431.074-.64-.129-.874-.581l-.968-1.863c-1.013-.498-1.63-1.355-1.733-2.408,1.045.305,2.146,1.939,3.014,3.294.267.417.808.671.569,1.288Z"/>
  <path class="cls-10" d="M95.844,114.159l.006.165c.025.646.945.486,1.283,2.025-.022-.027-.187-.137-.268-.144-.102-.01-.254.04-.374.35-.719-1.653-2.794-3.135-2.775-4.332,1.023.182,1.04,1.92,2.127,1.937Z"/>
  <path class="cls-5" d="M95.844,114.159c-1.088-.017-1.104-1.755-2.127-1.937l.008-.469c.001-.084-.019-.2.008-.269,1.162.365,1.78,1.563,2.112,2.675Z"/>
  <path class="cls-12" d="M115.605,100.926c.085.033.171.156.17.247-.003.187.005.527.076.709l-1.047.235c.211-.422.051-1.001.031-1.488l.77.298Z"/>
  <path class="cls-15" d="M115.851,101.882c.21.538.139,1.812-.465,2.201-.934.601-1.56,1.454-1.85,2.461l-.758.374c-.12.059.021.549.171.843l-2.248,2.685c-.348.416-.671.824-.47,1.275.036.082.041.201.079.347-1.764,1.005-2.569,3.089-2.16,5.132.116.577.482.841.991.756.201.155.48.331.484.612.012.788-1.202.542-1.005,1.167.163.518,1.399.292,1.5.746.156.702,1.199,2.099,1.943,2.674.677.524.225,1.763.469,2.342.43,1.024.779,1.724.547,2.78-.188.859.621,1.325,1.13,1.833.86.858.675,2.278.96,3.394.347,1.356,1.357,2.591,1.262,4.005-.612.6-2.21.545-2.705-.146-.235-.328-.294-.692-.509-.843-.198-1.011-.735-1.899-1.735-2.309-.486-.2-1.335-.727-1.974-.228-1.144.894-1.209,2.749-.266,3.666.519.504,1.051.909,1.743,1.119l.595,1.306c-.531.557-1.258.4-1.841.166-.227-.793-1.45-2.135-1.844-1.705-.428-.319-.889-.41-1.396-.444-.796-.052-1.597-.013-2.326.354-.101-.029-.326-.075-.428-.137-.705-.427.873-1.365,1.082-2.262.275-1.176,1.038-1.774,1.633-2.743l1.192-1.942c.158-.257-.134-.421-.314-.352-.785.303-.653,1.527-2.057,2.088l.009-1.08-1.331.773c-.451-1.224-1.226-2.216-2.483-2.7l-.111-1.23c-.377-.565-.674-.982-.671-1.521l1.463.892c.537.327,1.045.333,1.581.077.365-.173.97-.575.793-1.231-.206-.765-.563-1.484-.577-2.297-.008-.459-.427-.567-.687-.606-.58-.684-1.426-1.541-2.606-1.158-.236.077-.243.546-.12.716l-1.311.555c-.596.252-.636-1.468-.151-1.636,1.302-.453,2.342-.75,3.624-1.328.334-.151,1.259.195,1.505-.373l1.062-2.455c1.078-.861,1.705-1.709,2.06-3.067.157-.599.671-1.192.568-1.852l1.675-2.56,1.179-1.741c.277-.409.764-.63.721-1.169-.033-.408.388-.797.455-1.177.457-.126.744-.505.759-.977l.005-.167c.757-.073,1.053-.807.957-1.507-.032-.236.145-.483.22-.679.2.055.434-.029.446-.181l.033-.398.455-.909,1.047-.235ZM106.896,121.087c.124-.519.422-.711.434-1.093.012-.394-.055-.91-.691-.871-.449.874-.905,2.072-.804,3.159.079.4.719.087.897-.102.292-.309.084-.766.162-1.093Z"/>
  <path class="cls-12" d="M111.475,108.111c.044.538-.444.76-.721,1.169l-1.179,1.741-1.675,2.56c-.423.647-.875,1.197-1.163,2.064l-1.284,1.728c-.269.868-.881,1.061-1.36,1.565-.774.815-1.351,1.333-2.537,1.663-1.053.293-2.438-.095-2.966-1.212-.132-.28.184-.668.377-.678l.606-.033c-.072.241-.129.705.25.899,1.151.587,2.714.293,3.614-.794l2.157-2.608,2.681-3.953,1.925-3.204c.313-.521.721-.859,1.275-.907Z"/>
  <path class="cls-12" d="M113.65,104.283c.096.701-.2,1.434-.957,1.507.017-.565.337-1.347.957-1.507Z"/>
  <path class="cls-12" d="M112.688,105.957c-.014.472-.301.851-.759.977l.131-.745c.038-.219.402-.283.627-.232Z"/>
  <path class="cls-12" d="M114.349,103.026l-.033.398c-.013.152-.246.236-.446.181.045-.118.005-.353.17-.469.084-.059.199-.094.309-.11Z"/>
  <path class="cls-4" d="M123.228,104.957c-.177,1.03.398,1.85.857,2.819l.17,2.025-.395-.009c-.24-.921-.077-1.972-.665-2.786-.442-.612-.971-1.139-1.631-1.077-.654.062-1.922-1.353-4.097.715-.631.6-.94,1.047-.966,1.974-.055,1.974,1.248,3.426,3.164,3.514-.141,1.036,2.029.571,3.152-.832.204-.255.462-.425.728-.541.175.611-.268,1.115-.288,1.697-.116.14-.284.406-.468.473-.826-.034-1.494.926-2.827.901-1.738-.034-2.839-.977-4.182-1.827-1.1-.696-2.681-.683-3.798-.733.135.318.365.27.498.305s.26.237.215.422c-.042.017-.125.005-.184-.002-.638-.069-1.613-.261-2.202.074-.039-.146-.043-.265-.079-.347,1.072-.249,1.636-1.084,2.423-.864.75-.371,1.521-.414,2.331-.312.086.296.648.899.952.634.472-.413-.189-1.089-.263-1.507-.336-1.915.836-3.84,2.597-4.821.428-.238.721-.548.632-.968-.015-.07-.028-.194.005-.267,1.534.058,3.156.31,4.319,1.34Z"/>
  <path class="cls-10" d="M116.794,104.609c-1.807,1.466-2.46,3.708-1.808,5.937-.81-.102-1.581-.059-2.331.312-.787-.221-1.351.615-2.423.864-.201-.451.121-.859.47-1.275l2.248-2.685c-.15-.294-.291-.784-.171-.843l.758-.374c.29-1.008.916-1.86,1.85-2.461.604-.389.675-1.663.465-2.201-.071-.182-.079-.522-.076-.709.827.151,1.939,1.255,1.528,2.193-.176.401-.787.693-.509,1.243Z"/>
  <path class="cls-9" d="M118.904,103.883c.09.42-.204.729-.632.968-1.76.982-2.933,2.907-2.597,4.821.073.418.734,1.094.263,1.507-.304.266-.866-.338-.952-.634-.652-2.23.001-4.472,1.808-5.937.565-.458,1.37-.717,2.11-.725Z"/>
  <path class="cls-12" d="M88.694,113.15c.279-.037.58.141.717.509l.656,1.752c.384,1.026,0,2.059-.15,3.004-.027.17-.037.372.019.592.037.144.268.233.46.168-.156.666-.239,1.578-.633,2.239-.552.927-.989,1.766-1.108,2.774-.06.507.099.951.302,1.399l-.101.475c-.721-.624-.864-1.691-1.503-2.487-.521-.65-1.645-.809-1.925-1.891-.1-.388-.616-.787-.785-1.065l-.867-2.445c-.178-.503-.068-1.09-.034-1.5.179-2.13.458-3.834,2.446-3.79,1.757.038,1.827,1.432,2.692,1.421.132-.393-.208-.84-.187-1.153ZM84.689,116.971c-.513.667.429,2.648,1.099,3.155.249.188.506.788.97.602l1.154-.462c.12.168.428.545.792.239-.204-.136-.624-.736-.31-.902l.985-.521c.268-1.421-.292-2.82-1.265-3.697-.352-.317-.879-.818-1.49-.471-.564.321-.897,1.061-1.061,1.585-.298-.031-.61-.019-.889.054.22-1.389,1.19-2.337,2.626-2.236-.633-.45-1.136-.516-1.747-.367-.637.156-2.131,2.532-.865,3.022Z"/>
  <path class="cls-9" d="M81.323,104.009c-.351.756,1.016,1.714,1.447,3.141-.359,1.063-.299,1.896-.128,2.931.135.818.03,1.424.511,2.22l.127,1.814.335.017.603-4.806.661-3.442.248.038c.119.284.469.443.674.567.42,1.407,1.032,1.896-.034,3.484-.325.484-.271,1.177-.133,1.758,1.785-.129,2.214.993,3.091.973l-.03.444c-.021.313.319.761.187,1.153-.864.01-.935-1.383-2.692-1.421-1.987-.043-2.266,1.661-2.446,3.79-.179.032-.442.094-.618.036-.221-.072-.119-.482-.147-.652l-.344-2.117c-.109-.674-.54-1.198-.424-1.967.244-1.631-.252-3.064-1.071-4.404-.37-.606.021-1.451.131-2.055-.219-.411-.614-.794-.465-1.217.141-.14.345-.31.517-.287Z"/>
  <g>
    <g>
      <g>
        <path class="cls-7" d="M102.697,98.322c-.414-.084-.493-.677-.832-1.005-.478-.463-1.413.149-1.663.696-.765,1.675-2.383,2.138-2.319,3.865-.187.179-.463.279-.696.268-.067.043-.603-.023-.544-.109l.344-.496c.158-1.259.886-2.048,1.515-3.02.545-.842.859-1.796,1.903-2.22.309-.126.606-.342.744-.633.887.624,1.554,1.519,1.547,2.653Z"/>
        <path class="cls-4" d="M101.15,95.669c-.138.292-.436.508-.744.633-1.044.425-1.358,1.378-1.903,2.22-.629.973-1.357,1.761-1.515,3.02l-.344.496c-.059.086.477.151.544.109-.134.437-.577.575-1.019.438-1.105-2.295,1.713-3.372,2.408-6.406.217-.256.848-.6.658-1.085.751-.298,1.334.166,1.915.575Z"/>
        <path class="cls-14" d="M98.028,95.189c-.308-.006-1.134.216-1.088.674.044.439.345.872.148,1.318-.4.901-1.786.504-2.106.786-.18.158-.407.546-.407.915l-.002,1.584c-1.499-1.863.419-5.042,3.26-5.781.137-.036.272.427.196.503Z"/>
        <path class="cls-9" d="M98.028,95.189c.246,1.396-.564,2.861-1.796,3.655-1.098.707-1.099,1.692-.978,2.776-.479-.091-.681-.67-.681-1.153l.002-1.584c0-.369.227-.757.407-.915.32-.282,1.706.115,2.106-.786.198-.446-.103-.879-.148-1.318-.046-.459.779-.68,1.088-.674Z"/>
        <path class="cls-16" d="M99.234,95.094c.19.485-.441.829-.658,1.085-.694,3.034-3.513,4.111-2.408,6.406l-.294.054c-.41-.336-.563-.501-.621-1.02-.12-1.084-.12-2.069.978-2.776,1.233-.794,2.042-2.259,1.796-3.655.37-.064.879.035,1.206-.094Z"/>
        <path class="cls-7" d="M102.311,100.915c-.047-.055-.124-.134-.135-.202-.025-.148.116-.309.266-.3.076.109.158.28.141.389-.022.134-.158.197-.271.113Z"/>
      </g>
      <g>
        <path class="cls-2" d="M102.697,98.322c-.004.67.067,1.487-.255,2.09-.149-.009-.29.152-.266.3.012.069.088.147.135.202l-.045.993c-.026.1-.193.192-.094.332.128.181.333.123.432.16.297.111.555.435.713.702l.246.26c.195.124.346.271.487.455l.216.282,4.179,5.373c-1.442,2.301-2.782,4.697-4.535,6.883-.52.649-1.025.832-1.77.654-.224-.609-1.02-.952-1.377-1.431l-4.103-5.505.725-1.629c.82-1.842,1.627-4.242,2.53-5.672.153-.243.121-.684-.006-.891-.101-.166-.418-.313-.65-.218l-.542.221-.833-.006c-.064-1.727,1.555-2.19,2.319-3.865.25-.548,1.184-1.16,1.663-.696.338.328.417.92.832,1.005Z"/>
        <path class="cls-14" d="M97.35,105.301l.018.456c-.256-.05-.429.075-.552.404l-.665,1.767c-.12.32-.22.57-.465.663-.515-.393-.914-.952-.933-1.603l1.16-2.998c.153-.411.295-1.077-.039-1.351l.294-.054c.067.153.054.345.217.417.575.254,1.076-.269,1.693-.147l-.728,2.447Z"/>
        <path class="cls-7" d="M102.604,102.4c-.1-.037-.304.021-.432-.16-.099-.14.068-.232.094-.332.131-.016.27.049.312.138.051.109.051.247.026.354Z"/>
        <path class="cls-7" d="M103.564,103.363l-.246-.26c.052.088.164.208.246.26Z"/>
        <path class="cls-7" d="M104.266,104.099l-.216-.282.216.282Z"/>
        <path class="cls-4" d="M99.258,101.664c.056.193.254.592.133.869-.815,1.862-1.764,3.599-2.299,5.582-.119.443-.342.715-.733.768.099-.544.419-1.034.589-1.638l.42-1.487-.018-.456c.743-.28,1.392-2.223,1.366-3.417l.542-.221Z"/>
        <path class="cls-12" d="M98.717,101.885c.026,1.193-.623,3.137-1.366,3.417l.728-2.447c-.617-.122-1.118.402-1.693.147-.162-.072-.149-.264-.217-.417.442.137.884,0,1.019-.438.234.011.509-.089.696-.268l.833.006Z"/>
        <path class="cls-12" d="M97.369,105.758l-.42,1.487c-.171.604-.49,1.094-.589,1.638l-.036.321c-.015.133-.236.258-.439.087-.174-.145-.189-.51-.198-.7.244-.093.344-.343.465-.663l.665-1.767c.124-.328.296-.454.552-.404Z"/>
      </g>
    </g>
    <g>
      <path class="cls-7" d="M90.623,97.14c1.824,1.193,2.403,4.464,1.198,6.266-.052-1.797-.048-3.913-1.247-4.63-.324-.194-1.334-.012-1.505.324-.246.737-.159,1.44-.648,2.132.347.634.785,1.224.932,1.954.187.932-1.531,1.369-1.348,2.176l-.266.267-.195.007c-.632-.604-.713-1.458-.156-2.178.448-.58-.158-1.502,0-2l.686-2.159c.521-1.639,1.643-1.928,1.258-2.374l1.293.215Z"/>
      <path class="cls-8" d="M91.821,103.406l.034.145c-.405.079-.699.434-1.172.583l-1.268.398c-.565.177-.896.688-1.411.831-.183-.807,1.535-1.245,1.348-2.176-.146-.73-.585-1.319-.932-1.954.489-.692.402-1.395.648-2.132.171-.336,1.18-.518,1.505-.324,1.199.717,1.196,2.833,1.247,4.63Z"/>
      <path class="cls-16" d="M88.973,96.148c-.563.411-1.781.789-1.966,1.571-.187.794-.583,1.384-.806,2.071-.412,1.269-.626,2.409-1.252,3.603-.383.73.08,1.871.178,2.53l-.248-.038c-.521-.522-1.283-.531-1.508-1.291.045-.37-.066-.866-.178-1.237-.251-.836.499-.926.794-1.337l1.524-2.125c.242-.338.215-.665.104-.873.378-.589.216-1.405-.014-2.159.404-.9,1.506-.548,2.401-.934.304.003.672.112.971.22Z"/>
      <path class="cls-10" d="M90.623,97.14l-1.293-.215c-.477-.085-1.169.506-1.596.868-.852,1.27-.631,2.878-.995,4.325l-.672,2.672c-.172.683-.306,1.131.136,1.643-.1-.009-.279.023-.402.058-.205-.124-.554-.283-.674-.567-.097-.659-.561-1.8-.178-2.53.626-1.194.84-2.334,1.252-3.603.223-.687.619-1.277.806-2.071.185-.782,1.403-1.16,1.966-1.571.606.218,1.355.327,1.65.991Z"/>
      <path class="cls-14" d="M88.002,95.929c-.895.386-1.997.034-2.401.934.23.754.391,1.569.014,2.159-1.563,1.677-2.254-.211-3.413.424.156-.449.221-.973.559-1.394l1.02-1.269,2.804-1.069c.569-.217,1.067-.064,1.417.215Z"/>
      <path class="cls-11" d="M91.855,103.55l-.048.342c-.103.734.986,1.07.746,1.695-.084.22-.356.416-.709.343l-2.006-.415c-.295-.061-.521.04-.654.189l-.49-.012-.679.024-.277-.087.266-.267c.516-.143.846-.654,1.411-.831l1.268-.398c.473-.148.766-.504,1.172-.583Z"/>
      <path class="cls-4" d="M89.33,96.925c.385.445-.737.735-1.258,2.374l-.686,2.159c-.158.497.449,1.42,0,2-.557.72-.476,1.574.156,2.178l-.279.22c-.056.044-.263.192-.215.246.116.131.415.14.491.107l-.014.348-1.323-.125c-.442-.512-.308-.96-.136-1.643l.672-2.672c.364-1.447.144-3.055.995-4.325.427-.362,1.119-.953,1.596-.868Z"/>
      <path class="cls-8" d="M87.738,105.629l.277.087-.476.493c-.076.032-.375.024-.491-.107-.048-.055.159-.203.215-.246l.279-.22.195-.007Z"/>
      <path class="cls-9" d="M83.371,104.594c-.117-.204-.474-.481-.695-.572-.677-1.476-1.008-3.042-.474-4.577,1.159-.635,1.849,1.253,3.413-.424.111.208.138.536-.104.873l-1.524,2.125c-.295.411-1.044.501-.794,1.337.111.371.222.867.178,1.237Z"/>
    </g>
    <g>
      <path class="cls-12" d="M81.508,95.814c-.782.487-1.56,1.256-1.644,2.24-.075.877-.448,1.345-.861,2.06l-1.488,2.572c-.137.553.203,1.16.219,1.6-1.027-.352-1.354-1.487-1.74-2.354.346-.952-.262-2.198.455-2.143.951.073,1.35-.224,1.927-.799.672-.67,1.014-1.435.437-2.389l.58-.918c.113-.014.34.038.449.061.071.095.22.156.299.096.126-.096.169-.245.2-.354.473-.124.906.119,1.168.327Z"/>
      <path class="cls-10" d="M82.687,96.162c-.983.963-2.058,2.068-2.455,3.451-.218.759-.853,1.205-.969,1.922l-.368,2.262c-.057.35.436.427.596.281-.1.244-.178.504-.137.75l.038.231-1.186-.322-.271-.231c-.048-.063-.13-.194-.201-.221-.016-.44-.356-1.047-.219-1.6l1.488-2.572c.414-.715.786-1.183.861-2.06.084-.984.862-1.753,1.644-2.24.384.098.819.067,1.179.348Z"/>
      <path class="cls-14" d="M79.392,95.683l-.58.918c.577.953.235,1.718-.437,2.389-.577.576-.976.872-1.927.799-.717-.055-.109,1.191-.455,2.143-1.202-2.698.72-5.922,3.399-6.248Z"/>
      <path class="cls-4" d="M83.781,96.782l-1.02,1.269c-.469-.167-.694.276-.942.475-.768.618-.675,1.088-.835,1.935-.245,1.3-1.029,2.486-1.493,3.617-.16.146-.653.069-.596-.281l.368-2.262c.116-.717.751-1.163.969-1.922.397-1.383,1.472-2.487,2.455-3.451.258.202.855.203,1.094.62Z"/>
      <path class="cls-14" d="M80.34,95.487c-.031.109-.074.258-.2.354-.079.06-.228-.001-.299-.096-.035-.133.049-.262.145-.285.134-.032.264-.015.354.027Z"/>
      <path class="cls-12" d="M78.206,104.737c-.104-.029-.206-.145-.271-.231l.271.231Z"/>
      <path class="cls-8" d="M82.761,98.052c-.338.421-.403.944-.559,1.394-.534,1.536-.203,3.101.474,4.577-.31-.127-.735.069-1.038.029l-.316-.042c-.172-.023-.377.147-.517.287-.562-.1-1.138.035-1.451.533-.04-.246.038-.506.137-.75.464-1.131,1.248-2.317,1.493-3.617.159-.846.067-1.316.835-1.935.248-.199.473-.642.942-.475Z"/>
    </g>
  </g>
  <path class="cls-16" d="M80.334,111.335l.291,1.657-.358.019c-.222-.529-.468-1.023-.408-1.741.229-.016.365.039.476.064Z"/>
  <path class="cls-5" d="M159.579,104.875c.114.647-.52,1.4-.542,2.033-.037,1.08-.226,1.76-.416,2.742l-.505,2.611c-.325,1.68-.246,3.818-1.57,3.805l-.036-.296c-.015-.123-.061-.28-.042-.411.03-.197.19-.548.128-.75-.178-.586.455-1.223.675-1.676-.127-1.634.196-2.882.635-4.395.263-.905.056-2.158.142-3.066l.14-1.702c.641.157,1.254.414,1.39,1.104Z"/>
  <path class="cls-13" d="M154.731,110.725l.853,2.918c.122.417.122.706.503.72l.007.234c-.095.322-.005.728.374.763-.02.131.027.288.042.411-.42.035-.493.522-.458.876-.679-.481-.545-1.408-1.477-2.218-.379-.329-.711-.565-1.185-.472-.404.079-.954.202-1.056.692l-.343.042c.149-.639.621-1.096,1.281-1.513l.709-1.146c.117-.188.194-.314.176-.412-.045-.245-.319-.294-.517-.212l-.421-.127c.084-.209-.027-.464-.168-.472l-.637-.037c.036-.155.143-.327.28-.394.459-.227,1.093.443,2.037.347Z"/>
  <path class="cls-5" d="M162.071,97.343c.375.151.556.542.522.945-.135.077-.401.313-.428.553-.084.759-.605,1.15-.908,1.752-.315.628-.332,1.364-.882,1.779l-2.529.449.33-1.135c1.169-.107,2.021-.76,2.16-2.008.091-.819,1.016-2.34,1.734-2.336Z"/>
  <path class="cls-3" d="M155.781,110.065l.107,1.637c.062.958.173,1.811.199,2.662-.382-.014-.382-.304-.503-.72l-.853-2.918c-.077-.263.139-2.505.421-3.733l.629,3.074Z"/>
  <path class="cls-12" d="M155.781,110.065l-.629-3.074c-.458-1.66,1.116-1.589,1.155-2.235.714-.266.599,1.46.057,2.708-.622,1.431-.073,2.461-.583,2.6Z"/>
  <path class="cls-4" d="M162.05,96.746l.021.597c-.718-.005-1.643,1.517-1.734,2.336-.139,1.248-.991,1.901-2.16,2.008.214-.738.946-1.005,1.398-1.541.732-.866.639-3.559,2.475-3.399Z"/>
  <path class="cls-3" d="M156.597,114.61c.061.202-.099.553-.128.75-.379-.034-.469-.441-.374-.763l.503.013Z"/>
  <g>
    <path class="cls-9" d="M144.08,108.633l.268-.259c.518-.082.574-.796.792-1.089l1.247-1.677c.581-.781,1.361-1.403,1.587-2.288l.266-.003c-.16,1.27,1.843,1.263,1.826,1.948-.026,1.04-1.08,1.703-1.516,2.475-.529.937-1.563,2.087-2.479,3.501l-1.255,1.938c-.231.025-.595.189-.82.116-.29-.094-.427-.567-.636-.888-.267-.409-1.129-.107-1.375.172.248-.581.211-1.066-.314-1.536-1.066-.953.445-2.292-.502-3.428-.98-1.176-1.997-.229-3.396-1.051-.877-.516-1.662-.315-2.343.351l-2.66,2.598c-.321.313-.622.509-1.003.541-.037-.16-.081-.354-.152-.5.365-.072.491-.422.714-.713l3.435-4.503,1.881-.967c.358-.184.519-.503.508-.872-.009-.287-.285-.534-.607-.566l-.003-.492c1.428.798,2.481-.031,3.139,1.482l2.763,6.354c.062.142.549.039.57-.13l.065-.515Z"/>
    <path class="cls-15" d="M143.4,95.456c-.067.785-1.288.686-1.621,2.211-.665,3.04-3.734,1.8-3.707,3.589l2.137.22,1.019.217c.045.071.128.185.198.216l.034.213c-.401.329-.227.731.005,1.197l.787,1.581c.512,1.028.981,2.914,1.828,3.733l-.065.515c-.021.17-.508.273-.57.13l-2.763-6.354c-.658-1.512-1.711-.684-3.139-1.482,0-.1-.044-.227-.113-.297l-.231-.239.038-.693c.013-.246.123-.47.149-.733l2.15-.544c1.847-.487,1.267-3.091,1.739-3.812l.181-.269c.62.203,1.3.191,1.943.601Z"/>
    <path class="cls-7" d="M143.602,102.797c-.275.26-.535.518-.93.553-.503-.299-.905-.725-1.211-1.228l-.034-.213,1.462.756c.695-.262.56-1.161.206-1.747-.227-.375-.717-.305-1.127-.093-.31.16-.75.369-.738.867l-1.019-.217c-.028-.489.318-.61.675-.888,1.175-.92,2.024-2.144,2.758-3.479.181-.329.035-.984.489-1.185,2.039,2.052,1.707,4.763-.529,6.874Z"/>
    <path class="cls-4" d="M144.131,95.922c-.455.201-.309.857-.489,1.185-.734,1.335-1.583,2.559-2.758,3.479-.356.279-.703.4-.675.888l-2.137-.22c-.027-1.79,3.042-.549,3.707-3.589.334-1.525,1.554-1.426,1.621-2.211l.732.467Z"/>
    <path class="cls-14" d="M141.456,94.855l-.181.269c-.299-.008-1.007-.025-1.205.398-.137.688.113,1.775-.498,2.333-.501.458-1.449.417-2.07.465l-.116,1.16c-.026.263-.136.487-.149.733-.214.076-.295-.046-.299-.155l-.021-.516c-.148-3.692,3.116-5.153,4.539-4.687Z"/>
    <path class="cls-14" d="M137.546,101.934c.322.032.598.279.607.566.011.368-.15.688-.508.872l-1.881.967-3.435,4.503c-.222.291-.348.641-.714.713l-.21-.432,3.96-4.948,2.18-2.241Z"/>
    <path class="cls-3" d="M145.14,107.285c-.218.293-.274,1.007-.792,1.089-.177-1.597-1.87-2.984-1.676-5.024.396-.034.655-.293.93-.553-.086.335-.138.77.043,1.185l1.495,3.303Z"/>
    <path class="cls-14" d="M137.43,101.145c-.206.085-.272-.091-.231-.239l.231.239Z"/>
    <path class="cls-12" d="M141.986,112.579l-1.201,1.363-1.785,2.119c-.493.585-1.126,1.061-1.915,1.205-.214-.074-.506-.173-.723-.441-1.695-2.095-2.97-4.414-4.408-6.542-.103-.013-.166-.136-.187-.227.38-.032.682-.227,1.003-.541l2.66-2.598c.682-.666,1.466-.867,2.343-.351,1.399.822,2.415-.124,3.396,1.051.947,1.136-.564,2.475.502,3.428.525.47.562.955.314,1.536Z"/>
    <path class="cls-4" d="M142.672,103.35c-.194,2.04,1.5,3.427,1.676,5.024l-.268.259c-.846-.819-1.316-2.705-1.828-3.733l-.787-1.581c-.232-.466-.407-.868-.005-1.197.306.503.708.929,1.211,1.228Z"/>
    <path class="cls-12" d="M141.276,95.124c-.473.721.108,3.325-1.739,3.812l-2.15.544.116-1.16c.621-.048,1.57-.007,2.07-.465.61-.558.36-1.645.498-2.333.198-.424.906-.406,1.205-.398Z"/>
    <path class="cls-2" d="M141.426,101.909c-.07-.031-.153-.145-.198-.216-.011-.499.429-.708.738-.867.41-.212.901-.281,1.127.093.355.586.489,1.485-.206,1.747l-1.462-.756Z"/>
  </g>
  <path class="cls-10" d="M82.676,104.023c.221.091.578.368.695.572.225.76.987.769,1.508,1.291l-.661,3.442c-1.231-.741-.336-2.473-1.839-3.973-.4-.399-.741-.767-.74-1.302.302.04.728-.156,1.038-.029Z"/>
  <path class="cls-13" d="M161.343,104.288c-.028-.318.086-.856-.281-1.132-.319-.241-.638-.423-.686-.785.55-.415.567-1.151.882-1.779.302-.603.824-.993.908-1.752.027-.241.293-.477.428-.553.3-.041.648.049.829.222.671.643.31,2.451-.458,3.302-1.237,1.37-.738,2.297-1.621,2.477Z"/>
  <path class="cls-11" d="M158.244,118.695l.369-2.068,1.058-4.977c.765,1.512-.116,2.965-.251,3.645l-.555,2.781c-.084.419-.282.629-.62.619Z"/>
  <path class="cls-11" d="M156.052,116.648l-.004,1.017c-.4.057-.551.503-.438,1.031-.311-.112-.3-.358-.301-.55-.122-.868-.169-1.968-.662-2.869-.425-.776-1.627-.721-2.313-.627.101-.491.651-.613,1.056-.692.474-.093.807.143,1.185.472.932.81.798,1.737,1.477,2.218Z"/>
  <path class="cls-13" d="M156.048,117.665l-.006.518c-.008.727-.49,1.469-.923,2.102-.185-.196-.181-.426-.176-.688.008-.486.041-1.047.366-1.451.001.192-.01.438.301.55-.113-.529.038-.974.438-1.031Z"/>
  <path class="cls-16" d="M80.311,114.114l.002,2.42c0,.263-.353.315-.486.229l-.008-2.18c0-.195.075-.386.152-.441.073-.052.261-.05.34-.027Z"/>
  <path class="cls-10" d="M88.695,105.692c.027.262-.048.555-.355.74-.202.122-.506.154-.815.125l.014-.348.476-.493.679-.024Z"/>
  <path class="cls-14" d="M83.055,122.008l-.223,1.347c-.38.134-.821.134-1.029-.467.394-.289.747-.73,1.252-.881Z"/>
  <path class="cls-6" d="M155.309,118.146c-.325.404-.358.964-.366,1.451-.499.12-.894.575-1.228.997-.705.022-1.612.462-2.34.159-.792-.329-.845-1.406-.923-2.09.182-1.247.429-2.468,1.169-3.601.14-.008.337-.228.37-.371l.343-.042c.686-.094,1.887-.149,2.313.627.494.901.54,2.001.662,2.869Z"/>
  <path class="cls-8" d="M151.991,114.692c-.033.143-.23.363-.37.371-1.283.072-.613,2.191-2.023,1.201l.21-.661c.705-.208,1.15-1.822,1.202-3.001.953-1.174,2.123-.639,2.63-1.193.198-.082.472-.033.517.212.018.099-.059.224-.176.412l-.709,1.146c-.661.417-1.132.874-1.281,1.513Z"/>
  <path class="cls-5" d="M149.628,116.803c-.611,1.927.015,3.583-.232,5.06-.307-.324-.706-.213-.952-.872-.241-.647-.637-1.276-.506-2.094.048-.298-.165-.541-.201-.694-.156-.665.207-1.374.383-1.952.419.26-.013.964.251,1.13.548.345.565-.662,1.256-.578Z"/>
  <path class="cls-10" d="M149.808,115.602l-.21.661.03.539c-.692-.084-.708.923-1.256.578-.264-.166.168-.87-.251-1.13.355-1.168.972-2.268,1.878-3.089.65.859-.249,1.348-.19,2.44Z"/>
  <path class="cls-8" d="M153.715,120.594c-.664.843-1.79.948-2.77.527-.618-.813-.625-1.556-.493-2.458.078.683.131,1.761.923,2.09.728.302,1.636-.138,2.34-.159Z"/>
  <path class="cls-8" d="M146.284,120.389c-.17.029-.416.009-.499-.154-.119-.233-.041-.556.262-.592.091.258.236.428.237.746Z"/>
  <path class="cls-8" d="M140.235,126.108c.079-.109.168-.2.258-.146.145.239-.12.425-.258.146Z"/>
  <path class="cls-2" d="M131.548,136.199l.121.781c.06.387,1.27.016,1.415.727l-1.291.542c-.443.186-.583.493-.677.84l-.175.646c-.888-.016-1.334-1.293-2.872-1.221-.181-.266-.491-.519-.782-.666l-.331-.691c-.458-.955-.136-1.869.635-2.607.66-.632,1.434-.926,2.349-.493.883.418,1.472,1.258,1.609,2.141ZM129.33,136.149c-.388.013-.636.27-.91.259-.185-.007-.562-.318-.305-.591.135-.143.412-.33.387-.47-.037-.213-.245-.334-.377-.351-.117-.015-.283.028-.421.186-.526.606-.604,1.564-.072,2.21.426.517,1.295.799,2.088.501.519-.194.903-.626,1.065-1.007.196-.462.057-1.148-.374-1.492l-.395.73-.686.024Z"/>
  <path class="cls-10" d="M113.682,112.066l.351,1.173c.174.519.275.927.861.894.513,1.026.894,2.035.514,3.14-.592-.769.061-1.946-.833-2.17l-.019-.167c-.017-.152-.107-.235-.211-.323-.954-.803-2.158-1.224-3.333-.777-1.023.389-1.645,1.23-1.481,2.47.321,2.42,1.578,1.762,2.053,2.584.54.934,1.613.267,2.776.09-.369.239-1.294,1.632-3.177,1.387.751.985,1.901.925,2.868,1.527.517.322.829,1.038,1.524,1.004-.139.7-.076,1.676.423,2.194l2.951,3.07c1.007-1.624-1.635-2.534-1.307-5.296.143-.518.676-.952.234-1.492.754-.033.929,2.132,2.326,2.094.786-.021,2.142-1.259,1.798-2.153.219-.013.553.041.749-.04l-.302,3.087-1.633,2.373c-.358.931-.711,1.431-1.87,1.844,1.456.54,2.264,1.251,3.288,2.129.84.719,2.2.938,2.403,1.589.098.313.033.71-.22.98-.762.815-1.165,1.688-1.687,2.669-.234.44-.718.773-.739,1.257-.572.081-1.124-.172-1.736-.434-.638-.273-1.535.612-1.297,1.28.316.887,2.544.244,2.061,1.204-.558,1.11-.546,2.17-.737,3.37-.085.535-.589.965-.41,1.746.107.468-1.764.577-1.61,1.775l-1.48.159c-1.933.208-3.744-.389-4.534-.153-.942.282-1.998-.06-2.941-.033-1.658.047-3.105.289-4.786-.039l-3.718-.214c-.449-.026-.789-.035-.976.291-.417.041-1.013.216-1.426-.014-1.238-.689-2.973-.273-3.249-1.078l2.915.208,2.622.084,1.19-.175,1.691-.393c.653-.152,1.383-.503,1.578-.944.263-.597.117-1.501-.182-1.984.141.057.355.044.511.052.877.874,3.455.626,4.141-.17.282-.327.224-1.146.123-1.498.583.234,1.31.391,1.841-.166l-.595-1.306c.876.266,1.631.236,2.045-.44.19-.31.132-.679.026-1-.085-.258.017-.573.162-.808.215.151.275.515.509.843.495.692,2.093.747,2.705.146.094-1.414-.916-2.649-1.262-4.005-.285-1.115-.1-2.535-.96-3.394-.51-.509-1.319-.975-1.13-1.833.232-1.056-.117-1.756-.547-2.78-.243-.579.209-1.818-.469-2.342-.744-.575-1.788-1.972-1.943-2.674-.101-.455-1.337-.228-1.5-.746-.197-.625,1.018-.379,1.005-1.167-.004-.281-.284-.456-.484-.612-.692-2.176-.286-4.115,1.787-5.093.616-.29,1.293-.262,1.584-.87.059.006.141.019.184.002.345-.139.686-.008.985.069Z"/>
  <path class="cls-4" d="M127.287,137.849c.291.146.6.4.782.666.062,1.303-.327,2.626-.802,3.907-.115.311.086,1.125-.366,1.266-.595.186-.833.567-.896,1.151-.662-.351-.938-.188-1.484.121-.688.391-2.516-.385-2.762,1.119-.574-.342-1.113.319-1.614.395.035-.642-.7-.458-1.884-.33-.154-1.198,1.717-1.306,1.61-1.775-.179-.782.324-1.212.41-1.746.191-1.2.179-2.26.737-3.37.483-.961-1.745-.317-2.061-1.204-.238-.667.659-1.553,1.297-1.28.613.262,1.164.515,1.736.434.786.608.779-.862,1.603-.807,1.288.085.839,2.056,2.424,2.403.392-.308.783-.935,1.271-.95Z"/>
  <path class="cls-7" d="M122.79,112.928c-.509,1.249-2.229.62-1.848,1.631,1.249-.09,1.51.872,2.313.804l-.168,1.426c-.527.068-.821-.582-1.23-.767l-4.489-2.032c1.314,2.754,1.005,5.098,1.415,5.897.139.272.664.242.92.368l.782.385c.278.137.645-.382.875-.446l2.239.533c.787.187,1.316.851,1.317,1.552l-1.262-.893c-.368-.26-.639-.226-.906-.113-.196.08-.531.027-.749.04-.621.036-1.19.317-1.62.772-.603-.888-1.806-1.086-2.688-1.668-.493-.325-.094-1.164-.035-1.585.322-2.265-.477-4.578-2.05-6.204-1.538-.049,1.542,2.403.54,5.468-.434,1.329-1.868,1.877-3.155,2.481.845.642,2.124-.184,3.292.974l-.707,1.344c-.695.035-1.007-.682-1.524-1.004-.967-.602-2.117-.542-2.868-1.527,1.883.245,2.809-1.148,3.177-1.387.606-.393.815-1.029,1.047-1.706.38-1.105-.001-2.114-.514-3.14-.339-.678-.225-1.812-1.212-2.066-.299-.077-.64-.209-.985-.069.044-.185-.082-.387-.215-.422s-.363.013-.498-.305c1.118.05,2.699.037,3.798.733,1.343.85,2.444,1.793,4.182,1.827,1.333.026,2.001-.934,2.827-.901ZM114.725,112.208l-.12.12.12.12.12-.12-.12-.12Z"/>
  <path class="cls-8" d="M124.916,122.28c1.827,2.011,1.63,5.338-.834,6.806-.994.592-2.559.292-3.869-.317,1.537-1.255,2.964-2.315,3.771-3.948-1.42-1.201-.109-3.011-1.236-3.546.267-.113.538-.147.906.113l1.262.893Z"/>
  <path class="cls-10" d="M125.3,112.593c.163.073.517.106.57.235.177.427-1.814,1.295-1.463,3.736l.073.51c.025.177.311.142.437.202.302.162.424.66.546.893l.064,1.278c-1.025-.123-1.751-.866-2.156-1.783l-.053-.207-.23-.666.168-1.426c.15-1.272,1.087-2.096,2.045-2.771Z"/>
  <path class="cls-8" d="M125.566,119.644l-.175.436c-.078-.149-.197-.225-.489-.31.181-.233.463-.177.664-.126Z"/>
  <path class="cls-7" d="M123.37,117.664c-.234.239-.537-.169-.053-.207l.053.207Z"/>
  <g>
    <path class="cls-10" d="M155.107,96.407c.105.092.237.148.373.171l.331.263.041.225-.504.235c-.409-.171-1.321-.11-1.638.248l-1.097,3.786c-.183.632-.382,1.832-1.259,2.057-.98.252-2.159-.05-3.114-.076l-.266.003c0-.057,0-.168.025-.222.744-1.684,2.405-.481,3.042-1.201,1.648-1.865,1.867-2.321,1.814-5.117.561-.164,1.156-.097,1.528-.439.211-.029.511.019.725.067Z"/>
    <path class="cls-16" d="M154.383,96.34c-.372.342-.967.275-1.528.439.053,2.796-.166,3.252-1.814,5.117-.637.72-2.298-.483-3.042,1.201-.561-.165-.192-.878-.333-1.156.056-.283.092-.544.165-.746.225-.623,2.136-.33,2.72-.391,1.129-.119,2.068-1.382,1.689-2.447-.263-.738-.607-1.293-.474-2.012l1.473-.437c.309-.092.976.136,1.143.431Z"/>
    <path class="cls-9" d="M151.04,96.187c.183.183.501.226.726.159-.133.719.211,1.274.474,2.012.379,1.064-.56,2.327-1.689,2.447-.585.062-2.496-.232-2.72.391-.073.203-.11.463-.165.746-.298-.57-.119-1.25-.023-1.905.323-.033.568-.282.61-.758.955.13,1.478.94,2.322.615.539-.207,1.027-1.423.496-1.966-.172-.176-.532-.344-1.002-.429-.041-.468.322-.697.488-1.02l.483-.291Z"/>
    <path class="cls-14" d="M150.556,96.478c-.166.323-.528.553-.488,1.02.47.085.829.253,1.002.429.531.543.043,1.759-.496,1.966-.844.325-1.367-.485-2.322-.615-.042.476-.287.725-.61.758.234-1.593,1.663-3.529,2.913-3.559Z"/>
    <path class="cls-14" d="M153.24,95.909l-1.473.437c-.225.067-.543.024-.726-.159.632-.38,1.483-.679,2.2-.278Z"/>
    <path class="cls-16" d="M155.481,96.578c-.136-.023-.268-.079-.373-.171.126.029.273.091.373.171Z"/>
    <path class="cls-5" d="M157.806,99.536l-.048.639c-.066.874-.08,1.721-.596,2.578-.407.676-.811,1.283-.855,2.004-.039.645-1.613.575-1.155,2.235-.282,1.228-.498,3.47-.421,3.733-.944.097-1.578-.573-2.037-.347-.138.068-.244.24-.28.394l-1.423.003-.916.151c-.255.042-.319-.046-.383-.118-.137-.157-.211-.514-.03-.676.871-.775,1.205-2.293,2.803-3.545l1.821-.264-1.087-1.596c0-.905.118-2.081.914-2.596.461.154,1.16.603,1.744.463,1.813-.435.862-2.976,1.337-3.911l.612.852Z"/>
    <path class="cls-4" d="M155.349,97.3l.097,1.012c-.774.381-1.077,1.387-1.169,2.264l-.163,1.555c-.796.515-.914,1.691-.914,2.596-.663-.005-1.342.088-2.119.358-.208,1.19-.751,2.118-1.448,3.062l-3.466,4.696-1.209,1.452c-.304.365-.765.683-.669,1.212-.293.009-.431.244-.45.522l-.012.168c-.818.018-.831.716-1.981,1.076l1.762-2.318c.248-.317.323-.784.781-1.013.37-.184.301-.569.428-.765l1.255-1.938c.916-1.414,1.95-2.564,2.479-3.501.436-.772,1.49-1.435,1.516-2.475.017-.685-1.986-.678-1.826-1.948.956.026,2.134.328,3.114.076.877-.225,1.076-1.426,1.259-2.057l1.097-3.786c.316-.359,1.229-.42,1.638-.248ZM150.689,104.775l-.12.12.12.12.12-.12-.12-.12Z"/>
    <path class="cls-5" d="M157.166,98.273c-.51-.11-1.224-.205-1.72.039l-.097-1.012.504-.235c.615.129,1.026.669,1.313,1.208Z"/>
    <path class="cls-13" d="M157.166,98.273c.071.133.104.261.029.41-.474.936.476,3.476-1.337,3.911-.584.14-1.283-.309-1.744-.463l.163-1.555c.092-.877.395-1.883,1.169-2.264.496-.244,1.21-.149,1.72-.039Z"/>
    <rect class="cls-8" x="150.605" y="104.81" width=".17" height=".17" transform="translate(-30.036 137.276) rotate(-45)"/>
  </g>
  <path class="cls-6" d="M129.486,117.998c-1.309.475-2.364.832-3.391-.13-.735-.689-1.087-1.848-.426-2.772l.783-1.143c.575-.528,1.499-.309,2.257-.067,1.045.334,1.473,1.001,1.447,2.044-.02.82-.119,1.477-.67,2.069Z"/>
  <path class="cls-11" d="M126.452,113.952l-.783,1.143c-.661.924-.309,2.082.426,2.772,1.027.962,2.082.605,3.391.13-.141.152-.075.523-.597.631-1.539.317-1.919.537-3.426-.46-.123-.233-.244-.731-.546-.893-.229-1.602.34-3.258,1.535-3.323Z"/>
  <rect class="cls-11" x="148.447" y="122.792" width=".17" height=".17" transform="translate(-43.383 141.017) rotate(-45)"/>
  <path class="cls-11" d="M153.219,111.282l.421.127c-.507.553-1.677.019-2.63,1.193-.325.108-.713.289-1.012.56-.907.821-1.523,1.921-1.878,3.089-.176.578-.539,1.287-.383,1.952-.639.697-.038,2.533.431,3.948l.23.225c-.131-.194-.318-.006-.138.126-.076-.196-.199-.231-.333-.168-1.233-1.942-1.225-4.518-.176-6.73.561-1.184,1.157-2.486,2.076-3.366.947-.907,2.341-1.274,3.392-.956Z"/>
  <path class="cls-7" d="M124.239,111.043c.073.678-.474,1.189-.982,1.412.02-.582.464-1.086.288-1.697-.093-.323.254-.675.315-.967l.395.009c.037.446-.059.848-.016,1.242Z"/>
  <path class="cls-10" d="M100.398,117.288c-.013.453-.523.778-.86.863-.637.16-2.443-.823-2.159-1.6.731-.039,1.419,1.86,3.019.737Z"/>
  <path class="cls-7" d="M130.94,139.736c-.114.421-.126.921.172,1.388.155.243.616.346.97.331.043.212.192.476.402.474l.598-.006c-.019.306.027.57.292.949.478.682.154,2.202-.807,2.339-1.037.148-1.91.25-2.958.451l-2.42.464c-.82.157-1.528.017-2.269.02l-1.804.007c-.572.002-.933.179-1.357-.074.247-1.504,2.074-.729,2.762-1.119.546-.31.822-.472,1.484-.121.063-.584.301-.965.896-1.151.452-.141.251-.956.366-1.266.475-1.281.864-2.604.802-3.907,1.537-.071,1.984,1.205,2.872,1.221Z"/>
  <path class="cls-13" d="M135.221,138.112c.072.081.148.184.245.232.07.015.184-.002.253-.014.394.066.726.272.829.537.147.382.227.988.061,1.368-.612,1.401-2.166,1.801-3.527,1.687l-.598.006c-.21.002-.358-.262-.402-.474.262.02.568.123.832-.226-.32-.352-.561-.752-.518-1.168l.158-1.504c.272-.328.688-.518,1.231-.498l1.437.052Z"/>
  <path class="cls-5" d="M118.261,146.144c1.184-.127,1.919-.312,1.884.33l-1.72.261c-.197.03-.33.078-.414.162-.06.061-.079.223-.049.311h-.72c.081-.436-.166-.554-.6-.499-.293.037-.446.14-.36.502l-.96.003c.063-.172.014-.42-.126-.476-.197-.079-.501-.021-.584.11-.048.075-.024.285-.008.352l-3.598-.183-2.425-.195-5.971-.321c-.978-.053-2.008.094-2.785-.347.187-.326.527-.317.976-.291l3.718.214c1.681.329,3.128.086,4.786.039.943-.027,1.999.314,2.941.033.79-.236,2.601.361,4.534.153l1.48-.159Z"/>
  <path class="cls-11" d="M147.754,135.177c-.718-.006-1.179.488-1.288,1.233-.224,1.539,1.311,3.374,2.627,4.712-1.281.585-1.651-.415-2.344-.818-.329-1.04-1.114-2.014-.886-3.13l.359-2.088.938-.843c.24.021.429-.034.778.083-.254.277-.293.572-.184.85Z"/>
  <path class="cls-2" d="M146.222,135.088l-.359,2.088c-.228,1.115.558,2.09.886,3.13-1.849-1.075-2.087-3.815-.527-5.218Z"/>
  <path class="cls-11" d="M134.263,137.667c.195.017.426.32.725.182l.234.262-1.437-.052c-.543-.02-.959.17-1.231.498l-1.438.533c.094-.347.234-.654.677-.84l1.291-.542c.289-.122.855-.069,1.179-.041Z"/>
  <path class="cls-2" d="M134.987,137.849c-.298.138-.53-.165-.725-.182.024-.311.35-.392.597-.275.154.073.181.311.128.457Z"/>
  <path class="cls-2" d="M135.719,138.33c-.069.012-.183.029-.253.014-.037-.262.237-.273.253-.014Z"/>
  <path class="cls-8" d="M117.243,147.211l-.959.002c-.086-.362.066-.465.36-.502.434-.055.681.063.6.5Z"/>
  <path class="cls-8" d="M115.324,147.216l-.717-.014c-.016-.067-.04-.277.008-.352.083-.131.387-.189.584-.11.14.056.189.304.126.476Z"/>
  <g>
    <path class="cls-15" d="M111.051,147.529l7.866.164,1.143.192c.121,1.1,1.686.035,3.061.878.178.109.143.826-.033.953-1.646.544-3.417.541-4.992-.091-.463.557-1.133.44-1.618.615l-2.716.976c-.951.342-1.879,1.019-3.038.495-.888,1.089-3.052,1.184-3.356.96-.122-.09-.204-.302-.326-.657-.347.651-1.137.897-1.826.531-.797-.423-1.147-.089-1.864.13l-3.177.973c-.188.057-.402.131-.506.286-.08.119-.193.333.04.468.24.139.501.406.769.429l-8.838-1.363c-.082-.048-.098-.732.149-.778l3.414-.645c.45-.085,1.277-.242,1.639-.135.588.173.792.186,1.506.156l3.687-.158c.999-.043,1.804-.711,2.871-.734.43-.009.795-.288.817-.635.678.354,1.31-.03,2.349.014-.024.163.027.419.186.488.261.113.477-.076.604-.229l.873-.228c.965-.065,1.497.478,1.755-.21l1.458-.039,3.246-.977c-.529-.804-1.295-.583-1.897-.668l-.638-.09c-.868-.122-1.875-.342-2.852-.37l-1.999-.058-.184-.008c-.248-.201-.485-.427-.606-.806l3.032.168Z"/>
    <path class="cls-4" d="M130.164,147.439c.308,1.656-1.668,1.254-2.408,3.177l-.958-.636c.019,1.182-.999,1.078-1.336,1.547l-1.523,2.124-3.818.509c-.982.131-1.817.132-2.799.304l-2.47.432c-.201.035-.35.067-.433.155-.059.063-.079.217-.054.307l-1.674-.037c-.227-.005-.466-.297-.841-.232-.264.046-.45.155-.36.509l-4.305-.213-2.667-.204-4.038-.347c-.268-.023-.53-.29-.769-.429l1.415-.318c.804-.167,1.571-.605,2.436-.369,2.102.572,4.109.562,6.297.283.76-.097,1.953.381,2.615-.305.64-.664,1.104-.868,2.179-.708,2.291-.932,2.628-2.258,4.862-.807.743.482,1.95-.266,2.619-.443,1.873-.496,1.932-1.754,3.731-2.276.193.031.749.318.916.111.485-.606.242-1.388.018-2.001l3.368-.131ZM126.141,150.569c0-.147-.12-.267-.267-.267s-.267.12-.267.267.12.267.267.267.267-.12.267-.267Z"/>
    <path class="cls-9" d="M86.862,143.591c.093.253.301.469.361.707.132.515.551,1.068,1.229.997.414-.043,3.075,1.494,6.474,1.632,1.426.058,2.61.222,3.981.638,2.016.612,4.01-.333,4.157.591-1.871.71-4.428-.348-5.042-.357l-4.953-.071c.107,2.013,2.318,1.899,4.6,1.534.924-.148,1.838.645,2.659.931,1.651.575,3.401-.562,3.242.381-.132.152-.259.492-.467.576-.155.063-.528.059-.719-.018-.856-.348-1.584-.082-2.334-.18l-4.639-.609c-1.176-.154-2.199-.448-3.077-1.279-1.078.558-1.705-.165-2.511.334-.918.568-.585,2.007-1.118,2.103l-1.77.374-1.032-.56c-.345-1.227.632-2.386-.024-3.368-.593-.888-.268-1.619.118-2.481.245-.548-.069-1.407.296-1.821.2.013.387-.004.568-.054Z"/>
    <path class="cls-12" d="M103.57,150.574l1.933-.317.22.285c-.023.347-.387.625-.817.635-1.067.023-1.872.691-2.871.734l-3.687.158c-.714.031-.918.017-1.506-.156-.362-.106-1.189.05-1.639.135l-3.414.645c-.247.047-.23.73-.149.778l-3.402-.982-1.302-.614,1.77-.374c.533-.096.2-1.535,1.118-2.103.806-.499,1.433.224,2.511-.334.878.831,1.901,1.124,3.077,1.279l4.639.609c.75.098,1.478-.168,2.334.18.191.078.564.081.719.018.207-.084.335-.424.467-.576Z"/>
    <path class="cls-2" d="M156.197,148.625c-.364.704-.687,1.331-1.299,1.888l-3.578,1.285-6.197,1.498-4.761.756-4.173.612c-.318.047-.63-.02-.836-.044.241-.746,2.112-.394,3.807-1.292,1.024-.542,2.034-.072,2.926-.26l5.986-1.263c.852-.18,1.466-1.082,2.526-1.291.606-.119,1.154-1.397,2.16-1.103.216.063.686-.096.815-.258.089-.113.137-.332.121-.532l1.409-.079c.349-.02.769-.245,1.094.083Z"/>
    <path class="cls-11" d="M154.898,150.513c-3.59,3.263-13.7,4.123-19.43,4.637l-2.905.26c-1.392.125-2.736.381-4.084.126l1.478-.208,2.413-.236c.907-.089,1.853-.179,2.611-.4.119-.035.246-.087.373-.072.206.024.518.09.836.044l4.173-.612,4.761-.756,6.197-1.498,3.578-1.285Z"/>
    <path class="cls-2" d="M134.98,154.693c-.758.221-1.705.311-2.611.4l-2.413.236-1.478.208-2.821.1-1.701.22c.016-.11-.083-.248-.25-.249l-5.744-.003v-.24s5.275.001,5.275.001l1.454.012c.257.002.44-.09.486-.309.476.138,1.146.105,1.657.054l7.438-.743c.317-.032.645.068.708.314Z"/>
    <path class="cls-3" d="M117.962,155.604l5.744.003c.167,0,.266.138.25.249l-8.151-.013c.024-.162.205-.253.461-.251l1.697.012Z"/>
    <path class="cls-8" d="M114.364,155.358l3.598.006v.24s-1.697-.012-1.697-.012c-.256-.002-.436.089-.461.251l-1.918-.003c-.013-.108-.126-.231-.241-.232l-.959-.003.002-.284,1.674.037Z"/>
    <path class="cls-5" d="M112.69,155.322l-.002.284-1.199-.007c-.09-.354.096-.463.36-.509.375-.065.614.227.841.232Z"/>
    <path class="cls-3" d="M113.886,155.84c-.114,0-.228-.124-.241-.232.114,0,.227.124.241.232Z"/>
    <path class="cls-8" d="M153.199,144.098l.359,1.284c.133.477-.209,1.001.165,1.528-.858-.211-1.377-.307-2.079-.04l.575,1.593c.151.418,1.112.179,1.475.158.016.2-.031.42-.121.532-.129.162-.6.321-.815.258-1.006-.294-1.554.984-2.16,1.103-1.06.209-1.674,1.111-2.526,1.291l-5.986,1.263c-.892.188-1.902-.282-2.926.26-1.695.898-3.566.545-3.807,1.292-.127-.015-.254.037-.373.072-.063-.246-.39-.346-.708-.314l-7.438.743c-.03-.084-.037-.269.013-.344.051-.077.27-.182.45-.158,1.014.136,1.796-.315,2.743-.631.275-.092,1.105.073,1.003-.572l-1.034-1.925c-.327-.609.751-1.06,1.225-1.265.849-.368,1.42-.314,2.304-.438l1.448-.202,2.681-.903c-.107-.525-.341-.727-.523-.998.425-.394.87-.081,1.37.076,1.347.421,2.803.234,4.16-.012l2.035-.37c2.367-.43,4.632-1.1,6.84-2.034.383-.162.676-.42.676-.81.301-.128.582-.463.973-.436Z"/>
    <path class="cls-11" d="M153.199,144.098c-.391-.027-.672.308-.973.436-2.418,1.031-4.936,1.501-7.652,1.759l-8.035.763-.859.027-5.517.354-3.368.131-5.734.067c-.404.005-.741.104-1.002.249l-1.143-.192-7.866-.164-.043-.511,3.598.183.717.014.96-.003.959-.002h.72s3.458-.125,3.458-.125l5.177-.129,2.322-.288c1.531-.19,2.86-.308,4.403-.45l2.624-.242,3.337-.402,2.648-.215,2.901-.21c2.762-.199,5.399-.549,7.797-1.736l.924-.32c-.259.445-.442.689-.354,1.004Z"/>
    <path class="cls-10" d="M126.796,147.57c.224.612.467,1.395-.018,2.001-.167.208-.723-.08-.916-.111-1.8.522-1.858,1.78-3.731,2.276-.669.177-1.877.925-2.619.443-2.234-1.451-2.57-.125-4.862.807-1.075-.159-1.539.045-2.179.708-.662.686-1.855.208-2.615.305-2.188.279-4.194.289-6.297-.283-.865-.235-1.632.202-2.436.369l-1.415.318c-.233-.135-.12-.349-.04-.468.105-.155.319-.229.506-.286l3.177-.973c.717-.22,1.067-.554,1.864-.13.689.366,1.479.12,1.826-.531.122.354.205.567.326.657.304.224,2.468.128,3.356-.96,1.159.524,2.087-.154,3.038-.495l2.716-.976c.485-.174,1.155-.058,1.618-.615,1.576.632,3.346.635,4.992.091.177-.128.211-.844.033-.953-1.375-.843-2.94.222-3.061-.878.26-.145.597-.245,1.002-.249l5.734-.067Z"/>
    <path class="cls-1" d="M98.065,146.499l3.182.382c2.302.276,4.551.357,6.772.481.121.379.358.605.606.806-.066.128-.163.282-.28.351-.201.119-.386-.029-.603-.212-.213-.18-.535.167-.57.342l-.238.065c-.409-1.11-2.775-1.408-3.097-.54l-.773-.019c-.146-.924-2.141.021-4.157-.591-1.371-.416-2.555-.58-3.981-.638-3.398-.137-6.06-1.675-6.474-1.632-.679.071-1.097-.482-1.229-.997,2.312.867,4.719,1.603,7.297,1.855l3.545.347Z"/>
    <path class="cls-9" d="M108.625,148.167l.184.008c.985.922,2.733.447,4.367.939.148.045.375-.085.423-.156.048-.072.077-.212.062-.354l.638.09c.316,1.032-1.413.851-1.349,1.644l-1.458.039c0-.197-.197-.54-.378-.472l-.631.238-.516.023c-.14.006-.213.327-.231.422l-.873.228c-.191-.296-.51-.247-.791-.259-1.039-.045-1.671.339-2.349-.014l-.22-.285c.42-.069.711-.656,1.468-.676.243-.007.29-.767.2-.931.035-.176.357-.523.57-.342.217.183.402.331.603.212.117-.069.215-.223.28-.351Z"/>
    <path class="cls-8" d="M99.827,146.156c.777.441,1.807.294,2.785.347l5.971.321,2.425.195.043.511-3.032-.168c-2.221-.123-4.47-.204-6.772-.481l-3.182-.382.335-.357c.413.23,1.01.055,1.426.014Z"/>
    <path class="cls-1" d="M113.661,148.604c.015.142-.014.282-.062.354-.048.071-.275.201-.423.156-1.634-.492-3.382-.017-4.367-.939l1.999.058c.977.029,1.984.248,2.852.37Z"/>
    <path class="cls-1" d="M112.949,150.338c-.064-.793,1.665-.612,1.349-1.644.603.085,1.369-.136,1.897.668l-3.246.977Z"/>
    <path class="cls-1" d="M111.491,150.376c-.258.689-.79.145-1.755.21.017-.095.091-.415.231-.422l.516-.023.631-.238c.181-.068.377.275.378.472Z"/>
    <path class="cls-1" d="M108.862,150.815c-.127.153-.343.342-.604.229-.16-.069-.21-.325-.186-.488.281.012.6-.037.791.259Z"/>
    <path class="cls-5" d="M135.68,147.084c-.017.155-.008.472.179.566.19.096.432-.079.539-.187.246.01.529.114.747.221.182.271.415.473.523.998l-2.681.903-1.448.202c-.884.123-1.455.07-2.304.438-.474.206-1.552.656-1.225,1.265l1.034,1.925c.103.646-.728.481-1.003.572-.947.316-1.729.767-2.743.631-.18-.024-.399.081-.45.158-.05.075-.043.26-.013.344-.512.051-1.181.084-1.657-.054-.909-.263-1.755-.311-1.926-.053-.05.075-.041.265-.014.35h-5.275s-3.598-.007-3.598-.007c-.025-.09-.005-.244.054-.307.083-.088.233-.12.433-.155l2.47-.432c.982-.172,1.817-.173,2.799-.304l3.818-.509,1.523-2.124c.337-.469,1.355-.366,1.336-1.547l.958.636c.74-1.923,2.716-1.521,2.408-3.177l5.517-.354Z"/>
    <circle class="cls-5" cx="125.874" cy="150.569" r=".267"/>
    <path class="cls-14" d="M103.064,148.155l.773.019c.606.445,1.737-.009,3.097.54l.238-.065c.091.164.044.925-.2.931-.758.021-1.049.607-1.468.676l-1.933.317c.159-.944-1.591.193-3.242-.381-.821-.286-1.734-1.079-2.659-.931-2.283.366-4.493.48-4.6-1.534l4.953.071c.614.009,3.171,1.067,5.042.357Z"/>
    <path class="cls-5" d="M87.973,143.905c.474.236.923.43,1.481.432l.67.002c-.035.128,0,.39.148.467.105.054.334-.071.382-.193l.488-.032c-.027.066-.068.28-.016.348.099.128.348.125.489.128l.919.021c-.032.175.174.309.366.217.086-.041.154-.114.134-.247l2.117.015c.275.805,2.01.389,3.249,1.078l-.335.357-3.545-.347c-2.578-.252-4.985-.988-7.297-1.855-.061-.237-.268-.454-.361-.707.345-.095.809.164,1.111.315Z"/>
    <path class="cls-8" d="M125.177,155.068c-.046.219-.228.311-.486.309l-1.454-.012c-.027-.084-.036-.274.014-.35.171-.258,1.017-.21,1.926.053Z"/>
    <path class="cls-2" d="M152.226,144.535c0,.39-.293.648-.676.81-2.208.934-4.473,1.603-6.84,2.034l-2.035.37c-1.357.246-2.813.434-4.16.012-.5-.156-.944-.47-1.37-.076-.219-.107-.502-.21-.747-.221l.141-.407,8.035-.763c2.716-.258,5.233-.728,7.652-1.759Z"/>
    <path class="cls-8" d="M136.54,147.057l-.141.407c-.107.108-.349.283-.539.187-.187-.094-.195-.411-.179-.566l.859-.027Z"/>
    <path class="cls-9" d="M106.934,148.714c-1.359-.549-2.49-.095-3.097-.54.322-.868,2.688-.57,3.097.54Z"/>
  </g>
  <path class="cls-4" d="M92.747,134.297l.579.931c-.59.661.019,2.437-.83,4.026-.36.673-1.072,1.097-1.199,1.964.878.171,1.328-.383,1.725-.981.845-1.273,1.268-2.599.91-4.041l.557.213c.427,1.719.216,3.426-.783,5.046-.319.517-.774.751-1.484.698-.353-.026-.694-.429-1.098-.639-.259-.135-.515-.347-.69-.536-.25-1.471,1.096-1.616,1.394-3.134l.361-1.842-.346-.953c.192.008.39-.094.449-.23.084-.195.064-.391.024-.557.128.017.314.06.43.036Z"/>
  <path class="cls-3" d="M105.476,141.91c-.156-.007-.371.005-.511-.052-.418-.169-.73-.551-.909-.909,1.23.71,1.922-.83,2.454-1.121l1.419-.782c.589.447.443,1.036.19,1.558-.538,1.113-1.5.736-2.643,1.307Z"/>
  <path class="cls-16" d="M107.897,138.538l.031.508-1.419.782c-.532.291-1.224,1.831-2.454,1.121-.06-.12-.207-.341-.292-.434.378-1.748,2.886-.858,2.737-2.421.507.033.969.125,1.396.444Z"/>
  <path class="cls-9" d="M106.5,138.094c.148,1.563-2.36.674-2.737,2.421-.445-.083-.609-.758-.393-1.257.125-.29.44-.627.804-.81.729-.367,1.53-.407,2.326-.354Z"/>
  <path class="cls-15" d="M94.489,136.409l-.557-.213c-.083-.335-.419-.669-.605-.968l-.579-.931c.908-.191,1.43.856,1.742,2.112Z"/>
  <path class="cls-15" d="M92.317,134.261c.04.166.06.363-.024.557-.059.136-.257.238-.449.23-.121-.333-.494-.38-.805-.311.005-.249-.059-.501-.195-.768.505-.2,1.051-.078,1.473.291Z"/>
  <path class="cls-10" d="M89.454,144.337c-.558-.002-1.007-.196-1.481-.432.426-.354,1.411-.143,1.481.432Z"/>
  <path class="cls-4" d="M100.695,127.343c-.367-.224-.511-.441-.774-.674.368-.069.758-.088,1.049.055,0,.149.027.43.147.513.116.08.327.114.523.13,1.136.09,1.943-.618,1.984-1.744.02-.549-.158-1.017-.355-1.444.259.039.679.147.687.606.014.813.371,1.533.577,2.297.177.656-.429,1.057-.793,1.231-.536.255-1.045.25-1.581-.077l-1.463-.892Z"/>
  <path class="cls-10" d="M90.654,144.614c-.048.122-.277.247-.382.193-.148-.076-.183-.339-.148-.467.235,0,.449.036.53.274Z"/>
  <path class="cls-10" d="M93.034,145.048c.02.134-.048.206-.134.247-.192.092-.398-.042-.366-.217.036-.038.109-.142.202-.181.096-.041.236.067.299.151Z"/>
  <path class="cls-10" d="M91.615,145.058c-.141-.003-.39,0-.489-.128-.052-.068-.011-.282.016-.348.163-.011.344.004.421.132.064.106.065.249.052.344Z"/>
  <path class="cls-1" d="M92.19,136.002l-.361,1.842c-.298,1.518-1.644,1.663-1.394,3.134-.679-.143-.967-.741-1.028-1.331-.078-.759.163-1.262.803-1.738,1.003-.746.779-1.998,1.979-1.907Z"/>
  <path class="cls-7" d="M90.973,113.764c.308.903-.062,1.976.159,2.971.466,2.099.804,4.196-.1,6.163.253.193.475.031.498-.047.022-.075.02-.217.088-.283,1.751-1.686,1.402-5.067.168-7.492.021-.044.043-.14.021-.205.903.031.971,1.55,1.427,2.911.842,2.514-.178,5.985-2.034,6.631-.883.307-1.638.101-2.546-.225.119-1.008.556-1.847,1.108-2.774.394-.661.477-1.573.633-2.239.038-.163.021-.372-.04-.574-.041-.135-.238-.236-.438-.187.15-.945.534-1.978.15-3.004l-.656-1.752c-.138-.368-.438-.546-.717-.509l.03-.444c.053-.775-.831-1.065-1.815-1.325,1.143-.435,2.368-.044,3.083.979l.982,1.403Z"/>
  <path class="cls-2" d="M103.269,124.179c.197.427.375.895.355,1.444-.041,1.125-.848,1.833-1.984,1.744-.196-.015-.407-.05-.523-.13-.12-.083-.146-.364-.147-.513l.476.154c.02.317.335.314.463.106l.243-.394c.17-.276.459-.448.466-1.021l-1.71-.084c-.046-.611.324-.907.433-1.301.108-.391-.571-.571-.797-.447-.123-.17-.116-.639.12-.716,1.18-.383,2.026.474,2.606,1.158Z"/>
  <path class="cls-2" d="M91.807,114.87c.022.066,0,.161-.021.205-.347.919.268,1.943.453,2.895.321,1.649.018,3.225-.621,4.597-.068.066-.066.208-.088.283-.023.078-.245.24-.498.047.904-1.966.566-4.064.1-6.163-.221-.995.149-2.068-.159-2.971.241.344.514.83.834,1.106Z"/>
  <path class="cls-4" d="M102.152,126.589l-.243.394c-.128.208-.443.211-.463-.106.12-.278.427-.356.706-.288Z"/>
  <g>
    <path class="cls-4" d="M123.261,87.185c-.18.182-.273.334-.279.457-.007.139.116.484.222.549.596.366.535.892.757,1.248l-.608-.01c-.275-.022-.42.228-.33.54l-1.297-.57c-1.539-.979-3.649-.973-5.014.462l-1.863,1.959c-.51.536-.181,1.486-.234,2.135-.124,1.543.469,2.614,1.461,3.585.667.652,1.141.953,2.11,1.084,1.684.228,3.478.564,4.365-.555.08-.035.205-.081.265-.146.159-.218.298-.513.518-.677l.53.548c.398-.42.866-.759,1.053-1.166.646.696-.971,1.811-2.314,2.779-.492.355-.773,1.395-1.637,1.439l-4.075.209c-.368.019-.958-.784-1.287-.128l-.77-.298c-.105-.041-.188-.21-.345-.213l-.093-.438c-.024-.097-.041-.261.005-.333.066-.102.227-.165.427-.162l1.191.023c.182-.927-.531-1.308-.961-1.891-1.207-1.634-1.001-3.682-1.075-5.508-.106-.107-.105-.343-.087-.481.209-.114.354-.325.474-.509.126-.019.363-.05.425-.184.087-.186.05-.37.053-.53l.004-.165c.46-.011.787-.376.744-.831.054-.058.131-.141.195-.164l1.43-.658,3.793-1.369c.87-.314,1.525-.3,2.244-.03Z"/>
    <path class="cls-5" d="M125.418,87.747c.087.797-.247,1.982.128,2.766.74,1.545,1.171,3.066.402,4.767-.188.415-.049,1.091-.099,1.587.948.14.997-.602,1.283-1.164.652-1.281.976-2.48.391-3.916-.117-.288-.164-.675-.035-.885.149-.052.259.012.301.207,1.065,3.235.103,6.627-2.298,9.026l1.836,3.013c-.749-.138-.842-.894-1.43-1.229-.139-.496-.464-1.082-.792-1.493.03-.17.08-.563-.175-.683-1.334.93-2.879.928-3.272,1.625-1.213.41-2.511.316-3.98.333l1.78.713-.548,1.201c-.033.073-.02.197-.005.267-.74.008-1.545.267-2.11.725-.278-.55.333-.842.509-1.243.411-.938-.701-2.041-1.528-2.193.001-.092-.085-.214-.17-.247.329-.655.919.147,1.287.128l4.075-.209c.864-.044,1.145-1.084,1.637-1.439,1.344-.968,2.96-2.083,2.314-2.779.696-1.512.993-3.311.417-4.979l-1.375-2.209c-.221-.356-.161-.882-.757-1.248-.105-.065-.228-.41-.222-.549.006-.123.099-.275.279-.457.63.236,1.505.106,2.157.562Z"/>
    <path class="cls-14" d="M119.215,85.602c-.099,1.085-1.958.588-1.959,1.169-.002,1.646-1.543,1.254-1.461,2.471-.064.023-.142.106-.195.164-.234-.003-.519.092-.632.265-.118.181-.109.397-.113.566l-.004.165c-.227.072-.369.289-.495.455-.133.023-.379.053-.428.186-.084.228-.044.414-.029.582-.017.138-.019.374.087.481-.177-.011-.34.01-.405.077-.283.29-.883.454-1.277.673l-.232,2.805c-.179.051-.35-.046-.341-.252l.114-2.818.741-2.33c1.292-2.681,3.846-4.201,6.629-4.66Z"/>
    <path class="cls-13" d="M127.488,90.902c-.128.21-.082.597.035.885.585,1.436.261,2.634-.391,3.916-.286.562-.335,1.304-1.283,1.164.05-.496-.089-1.172.099-1.587.769-1.7.338-3.222-.402-4.767-.375-.784-.041-1.969-.128-2.766l1.254,1.355c.295.681.758,1.153.816,1.801Z"/>
    <path class="cls-16" d="M114.398,99.977c-.881-.521-1.353-1.468-1.724-2.373-.163-.731.102-1.267.542-1.898.257-.368.278-2.139.365-3.523.065-.067.229-.088.405-.077.074,1.826-.132,3.874,1.075,5.508.43.583,1.143.964.961,1.891l-1.191-.023c-.2-.004-.361.06-.427.162-.047.072-.029.236-.005.333Z"/>
    <path class="cls-16" d="M119.863,85.629l.21.146c.11.077.297-.002.293-.166.92-.034,1.827.311,2.649.691-1.708.299-2.435.051-4.341,1.204-.534.323-1.319.412-1.45,1.082l-1.43.658c-.082-1.217,1.459-.824,1.461-2.471,0-.582,1.86-.084,1.959-1.169l.649.026Z"/>
    <path class="cls-9" d="M113.581,92.184c-.087,1.384-.107,3.155-.365,3.523-.44.631-.706,1.167-.542,1.898-.238-.58-.661-1.222-.601-1.942l.232-2.805c.394-.219.994-.384,1.277-.673Z"/>
    <path class="cls-10" d="M125.418,87.747c-.652-.456-1.527-.326-2.157-.562-.719-.269-1.374-.284-2.244.03l-3.793,1.369c.131-.67.916-.759,1.45-1.082,1.906-1.153,2.634-.905,4.341-1.204.846.391,1.741.734,2.402,1.448Z"/>
    <path class="cls-14" d="M120.366,85.608c.003.164-.183.243-.293.166l-.21-.146.503-.021Z"/>
    <path class="cls-10" d="M123.96,89.438l1.375,2.209c.576,1.669.279,3.467-.417,4.979-.188.407-.656.746-1.053,1.166l-.53-.548c.217-.161.332-.335.309-.623.478.027.745-.305.945-.823.812-2.101.026-4.381-1.566-5.831-.089-.312.056-.562.33-.54l.608.01Z"/>
    <path class="cls-16" d="M115.599,89.406c.043.455-.284.82-.744.831.004-.17-.005-.385.113-.566.113-.173.398-.267.632-.265Z"/>
    <path class="cls-9" d="M114.356,90.857l.017.259c-.12.184-.265.395-.474.509-.015-.168-.055-.353.029-.582.049-.133.295-.163.428-.186Z"/>
    <path class="cls-16" d="M114.373,91.116l-.017-.259c.126-.166.268-.383.495-.455-.004.16.034.344-.053.53-.062.134-.299.165-.425.184Z"/>
    <path class="cls-8" d="M125.105,100.427l-2.623.98c-.274.103-.624.002-.825-.038.393-.697,1.939-.696,3.272-1.625.255.12.205.513.175.683Z"/>
    <g>
      <path class="cls-12" d="M123.706,96.389c.014-.367-.376.052-1.209.193.117-.708.522-1.131,1.277-1.013-.398-.696-.909-.882-1.416-1.116l-1.008,1.452c-.169.244-.522.326-.535.601-.032.683,1.297.416,2.001,1.416-.06.065-.185.111-.265.146-.965-.545-1.441.425-1.902.219-.004-.388-.408-.79-.541-1.172.013-.461.331-.816.521-1.224-.415-.89-.659-1.801-1.361-2.535-.327-.139-1.076-.061-1.32-.346l1.433-1.054c-.051-.453-.296-.82-.521-1.134l1.622-.263c.095-.374.156-.699.561-.867.045.739.254,1.42.881,1.689.091-.442.202-.712.644-.743-.391.655-.339,1.028.159,1.558l.23,1.31c.715.268,1.234.713,1.287,1.319.056.633-.03,1.226-.539,1.566Z"/>
      <path class="cls-2" d="M121.725,89.398c-.012.111-.039.243-.108.27-1.234-.385-2.426-.35-3.495.089-.903.37-1.818,1.061-1.856,2.061l-.343.421c-.603.278-.426,1.142-.356,1.771.069.612-.042.98.212,1.487.261.522.514,1.439,1.208,1.702.529-.053,1.005-.025,1.202.664.255.889,1.178-.151,2.459.422.46.206.937-.764,1.902-.219-.887,1.119-2.682.783-4.365.555-.968-.131-1.442-.431-2.11-1.084-.992-.97-1.586-2.042-1.461-3.585.052-.648-.276-1.599.234-2.135l1.863-1.959c1.365-1.435,3.475-1.441,5.014-.462Z"/>
      <path class="cls-13" d="M121.725,89.398l1.297.57c1.593,1.45,2.379,3.73,1.566,5.831-.2.518-.467.85-.945.823-.006-.07.036-.169.063-.233.508-.34.595-.933.539-1.566-.054-.606-.573-1.051-1.287-1.319l-.23-1.31c-.497-.529-.55-.903-.159-1.558-.442.031-.553.301-.644.743-.628-.269-.836-.95-.881-1.689-.405.168-.466.492-.561.867l-1.622.263-.551-.773c.034-.148-.055-.263-.188-.291,1.069-.439,2.261-.474,3.495-.089.07-.027.097-.159.108-.27Z"/>
      <path class="cls-3" d="M120.649,98.287c-1.282-.573-2.205.467-2.459-.422-.197-.689-.674-.716-1.202-.664-.694-.264-.946-1.181-1.208-1.702.536.014,1.059-1.51.981-2.221.233.132.42.299.639.522.24-.387.337-.634.549-.79.243.285.992.207,1.32.346.702.734.946,1.645,1.361,2.535-.19.408-.508.762-.521,1.224.134.382.538.784.541,1.172Z"/>
      <path class="cls-13" d="M115.923,92.24c.474.193.786.565.838,1.038.078.711-.446,2.235-.981,2.221-.254-.506-.143-.875-.212-1.487-.071-.629-.247-1.494.356-1.771Z"/>
      <path class="cls-16" d="M118.122,89.758c.133.028.222.143.188.291l-.774,1.127c-.3.437-.84.579-1.27.643.038-1,.953-1.691,1.856-2.061Z"/>
    </g>
  </g>
  <path class="cls-3" d="M111.483,134.212c-.084.604-1.023.775-1.162,1.976.751.099,1.345.106,2.236-.05l.124,1.023c-.421-.12-.517.513-.719.658-.846.605-1.905.139-2.719-.168-.943-.917-.878-2.772.266-3.666.639-.5,1.488.028,1.974.228Z"/>
  <path class="cls-8" d="M109.74,140.242c.101.352.159,1.171-.123,1.498-.686.796-3.265,1.044-4.141.17,1.143-.571,2.104-.193,2.643-1.307.252-.522.398-1.111-.19-1.558l-.031-.508c.393-.43,1.617.911,1.844,1.705Z"/>
  <path class="cls-9" d="M112.513,111.995c-.291.608-.968.579-1.584.87-2.073.978-2.479,2.917-1.787,5.093-.51.084-.876-.179-.991-.756-.409-2.043.397-4.127,2.16-5.132.589-.336,1.564-.143,2.202-.074Z"/>
  <path class="cls-8" d="M113.218,136.522c-.145.236-.247.55-.162.808-.175.108-.354.015-.376-.169l-.124-1.023c-.891.156-1.485.149-2.236.05.139-1.201,1.078-1.373,1.162-1.976,1,.411,1.537,1.298,1.735,2.309Z"/>
  <path class="cls-10" d="M106.896,121.087c-.078.328.129.784-.162,1.093-.178.189-.818.502-.897.102-.101-1.087.355-2.284.804-3.159.636-.039.703.477.691.871-.012.382-.31.574-.434,1.093Z"/>
  <path class="cls-13" d="M112.681,137.161c.022.183.201.277.376.169.106.321.164.69-.026,1-.414.676-1.17.706-2.045.44-.692-.21-1.224-.615-1.743-1.119.814.307,1.873.773,2.719.168.202-.145.298-.778.719-.658Z"/>
  <path class="cls-10" d="M123.86,109.791c-.06.292-.407.644-.315.967-.266.116-.524.286-.728.541-1.123,1.403-3.293,1.868-3.152.832.639.214,1.197.017,1.737-.354.402-.276.974-.465,1.089-1.032.035-.173.03-.477.012-.65.64-.243.712-.907.609-1.583-.161-1.057-.597-1.946-1.571-2.281l.023-.303c.66-.062,1.189.465,1.631,1.077.588.814.425,1.865.665,2.786Z"/>
  <path class="cls-11" d="M121.564,105.929l-.023.303c-.831-.286-1.994-.572-2.657.093-.041.042-.11.102-.222.082-1.392.149-2.066,2.136-1.481,3.548.294.711,1.169,1.755,2.204,1.77l2.016.052c-.54.371-1.098.567-1.737.354-1.915-.088-3.218-1.54-3.164-3.514.026-.927.335-1.374.966-1.974,2.175-2.068,3.443-.653,4.097-.715Z"/>
  <path class="cls-14" d="M87.913,120.266c.089-.128.216-.598-.002-.763-.762-.575-1.751-.112-2.122.622-.671-.507-1.612-2.488-1.099-3.155-.02-.14-.034-.29-.014-.418.279-.074.591-.086.889-.054.694.551,1.806-.135,2.551-1.114.973.877,1.533,2.277,1.265,3.697l-.985.521c-.314.166.106.766.31.902-.363.306-.672-.071-.792-.239Z"/>
  <path class="cls-13" d="M84.675,116.553c-.02.128-.006.278.014.418-1.266-.49.228-2.867.865-3.022.611-.149,1.113-.083,1.747.367-1.436-.101-2.406.848-2.626,2.236Z"/>
  <path class="cls-16" d="M90.396,119.175c-.192.065-.423-.024-.46-.168-.056-.22-.046-.422-.019-.592.2-.05.398.052.438.187.061.202.078.411.04.574Z"/>
  <path class="cls-16" d="M81.639,104.051c0,.536.341.903.74,1.302,1.503,1.501.608,3.232,1.839,3.973l-.603,4.806-.335-.017-.127-1.814c-.481-.796-.376-1.402-.511-2.22-.171-1.035-.231-1.868.128-2.931-.431-1.427-1.798-2.384-1.447-3.141l.316.042Z"/>
  <path class="cls-5" d="M151.01,112.602c-.052,1.179-.497,2.792-1.202,3.001-.059-1.093.84-1.582.19-2.44.299-.271.686-.453,1.012-.56Z"/>
  <path class="cls-3" d="M129.33,136.149l.686-.024.395-.73c.431.344.57,1.03.374,1.492-.162.381-.546.812-1.065,1.007-.793.297-1.663.016-2.088-.501-.532-.646-.454-1.604.072-2.21.138-.159.304-.201.421-.186.132.017.34.137.377.351.024.14-.252.327-.387.47-.258.273.12.585.305.591.274.01.522-.246.91-.259Z"/>
  <path class="cls-3" d="M132.554,138.557l-.158,1.504c-.042.416.198.816.518,1.168-.264.349-.569.246-.832.226-.354.015-.815-.088-.97-.331-.298-.467-.287-.967-.172-1.388l.175-.646,1.438-.533Z"/>
  <path class="cls-2" d="M120.378,122.085c-.332.35-.377.927-.177,1.381-1.396.037-1.572-2.127-2.326-2.094l-.473.02-1.119.159c-1.167-1.158-2.447-.332-3.292-.974,1.287-.604,2.721-1.152,3.155-2.481,1.002-3.065-2.077-5.517-.54-5.468,1.573,1.626,2.372,3.939,2.05,6.204-.06.421-.458,1.259.035,1.585.882.583,2.085.78,2.688,1.668Z"/>
  <path class="cls-6" d="M114.345,114.612l.211.323.019.167.172.995c.092.535-.181.702-.331.913-.578-.33-1.555-.456-1.868.331-.214.537.643.903,1.09.763-.138.194-.255.259-.452.375l-1.712-.227c-.277-.594-.677-.928-1.317-1.174l.005-1.885c.001-.576.601-.948.852-1.356,1.174-.447,2.379-.026,3.333.777Z"/>
  <path class="cls-15" d="M117.875,121.372c.442.54-.091.974-.234,1.492-.327,2.762,2.315,3.672,1.307,5.296l-2.951-3.07c1.048.323.062-1.564.944-2.374.441-.405.653-.811.46-1.323l.473-.02Z"/>
  <path class="cls-12" d="M115.408,117.272c-.233.677-.441,1.313-1.047,1.706-1.163.178-2.236.845-2.776-.09.571-.139,1.102-.115,1.601-.41.197-.116.314-.181.452-.375l.779-1.094c.15-.211.423-.378.331-.913l-.172-.995c.894.224.241,1.401.833,2.17Z"/>
  <path class="cls-12" d="M117.402,121.393c.193.512-.018.918-.46,1.323-.882.81.104,2.698-.944,2.374-.498-.519-.562-1.495-.423-2.194l.707-1.344,1.119-.159Z"/>
  <path class="cls-11" d="M111.012,113.835c-.25.409-.85.781-.852,1.356l-.005,1.885c.64.247,1.04.58,1.317,1.174l1.712.227c-.499.295-1.03.271-1.601.41-.475-.822-1.733-.163-2.053-2.584-.164-1.24.458-2.08,1.481-2.47Z"/>
  <path class="cls-12" d="M121.999,121.313c.345.894-1.012,2.132-1.798,2.153-.199-.454-.154-1.031.177-1.381.43-.454.999-.736,1.62-.772Z"/>
  <path class="cls-4" d="M114.894,114.132c-.586.033-.687-.375-.861-.894l-.351-1.173c.987.255.873,1.389,1.212,2.066Z"/>
  <path class="cls-12" d="M114.556,114.934l-.211-.323c.104.088.194.171.211.323Z"/>
  <rect class="cls-2" x="114.641" y="112.243" width=".17" height=".17" transform="translate(-45.825 114.023) rotate(-45)"/>
  <path class="cls-2" d="M93.932,136.196c.358,1.442-.065,2.767-.91,4.041-.396.597-.846,1.151-1.725.981.127-.867.839-1.29,1.199-1.964.849-1.588.24-3.364.83-4.026.187.299.522.633.605.968Z"/>
  <path class="cls-11" d="M91.619,122.568c.638-1.372.942-2.948.621-4.597-.185-.952-.8-1.976-.453-2.895,1.235,2.425,1.583,5.806-.168,7.492Z"/>
  <path class="cls-6" d="M121.541,106.231c.974.336,1.41,1.225,1.571,2.281.103.677.031,1.34-.609,1.583-.13-.171-.245-.36-.34-.709-.183-.673-1.571.747-1.486,1.217.048.265.273.838.591.805.54-.055.908-.422,1.223-.664-.114.567-.686.755-1.089,1.032l-2.016-.052c-1.035-.015-1.909-1.059-2.204-1.77-.585-1.413.089-3.399,1.481-3.548-.273.87-1.208.98-.849,1.518.111.167.268.222.542.114.431-.17.795-.384.81-.754.014-.34-.119-.643-.282-.96.663-.665,1.826-.38,2.657-.093Z"/>
</svg>