<?xml version="1.0" encoding="UTF-8"?>
<svg id="_レイヤー_1" data-name="レイヤー 1" xmlns="http://www.w3.org/2000/svg" width="240" height="240" viewBox="0 0 240 240">
  <defs>
    <style>
      .cls-1 {
        fill: #841f2c;
      }

      .cls-2 {
        fill: #d85c70;
      }

      .cls-3 {
        fill: #f6b5c3;
      }

      .cls-4 {
        fill: #e497a5;
      }

      .cls-5 {
        fill: #e99eac;
      }

      .cls-6 {
        fill: #fbc1ce;
      }

      .cls-7 {
        fill: #b04c5b;
      }

      .cls-8 {
        fill: #fbcdd8;
      }

      .cls-9 {
        fill: #a23d4b;
      }

      .cls-10 {
        fill: #e0909f;
      }

      .cls-11 {
        fill: #f2aab9;
      }

      .cls-12 {
        fill: #c37985;
      }

      .cls-13 {
        fill: #f0a8b6;
      }

      .cls-14 {
        fill: #d58290;
      }

      .cls-15 {
        fill: #be6371;
      }

      .cls-16 {
        fill: #d37080;
      }
    </style>
  </defs>
  <path class="cls-11" d="M131.148,129.926l-.021.476c-.429.35-.116,1.707.294,2.691v.454c-.308.277-.2.635-.196,1.093l.034,3.376-.045,1.787.337,3.896c.132,1.526.452,3.108.952,4.573.197.577.472.843.071,1.637.707-.454,1.235-.34,1.64.241.156.224.503.315.615.209l.372-.353c-.06-1.123.677-2.06.618-3.099l-.119-2.103-.622-4.102-.312-5.488.733.102.199,1.338.052,4.754c.008.771.493,1.222,1.173,1.54-.12,1.462.23,2.884.708,4.265.243.703.824.982,1.483.831.637-.145.997-.792.879-1.579-.1-.67.809-2.117,1.451-1.575l2.68,2.264c.416.352.763.455,1.241.876.171.15.603-.406.45-.681l-.322-.581-.701-2.182-.597-1.522c-.632-.834-.584-1.559-.794-2.483l-1.002-4.417c-.172-.756-.484-1.277-.609-2.113-.15-1.007-1.949-3.426-3.062-2.499-.121,1.626-1.209,2.948-2.128,2.653-.228-.073-.507-.308-.744-.687-.347.057-.509.307-.707.463-.364-1.388-.139-2.391-.891-2.306l.121-.512c.059-.251.017-.563.306-.785.307.204.668.3.852.287.899-.061-.433-2.345.418-3.968.599-.575,1.26.378,1.625.616.551.36.997.761,1.396,1.3l2.637,3.565c.556.752,2.528,7.437,2.451,8.076-.104.863.417,1.485.695,2.175l.909,2.253c.362.897.451,1.934,1.125,2.687.199.098.555.072.709.058.065-.006.184.022.253.034-.114.459.282.684.578.996.9.949,2.032,1.617,2.56,1.11.155-.148.282-.411.32-.742l1.708.343c.163,1.96-1.892,1.149-1.914,2.459-.011.659.574.493.947.645,1.476.604,2.695.771,4.207.262.471-.158.998-.254,1.105-.788l.197-.016c.214.27.63.282.945-.041l2.239-2.299,1.021-1.631c.273-.436.212-1.033.153-1.423.318-.089.672.07.678.342l.017.762-.387,1.218c-.35-.037-.642.144-.727.417-.076.245-.152.571-.082.759.129.343-.173.502-.207.692l-1.398,1.019c-1.095.885-2.149,1.295-3.487,1.64-.715.184-2.135,1.264-3.215.251-.687.283-1.24.409-1.857-.145-.38-.129-1.002-.071-1.547-.043-.862-1.165-2.082-1.573-3.19-2.374-1.715-1.238-2.324-3.011-4.063-2.064-.1,2.403.889,4.673,2.742,6.036.561.412.96,1.279,1.73,1.348,1.405.126,2.97.725,3.27,2.323-.268.549-1.324.689-1.912.887l-1.831.615c-.57.192-1.727-.046-2.333-.235l-2.765-.865c-.8-.25-1.325-.935-2.215-1.182-.947-.262-1.54-1.431-2.219-2.042l-1.75-1.575c-.587-.528-.855-.719-1.613-.902-1.899-.459-1.632-3.619-3.301-2.342l-.806-1.653c-.858-2.263-1.353-4.505-1.653-6.801.024-.147.048-.753.298-.773,1.221-.1.61,1.942,1.842,1.957.296.004.714-.562.591-.955-.26-.831-.108-1.369-.081-2.185l.07-2.136c.058-1.748.478-3.461.117-5.179-.169-.803-.484-1.57-.443-2.448.154-3.307-2.211-5.765-2.541-4.93-.157.398.342,1.418-.274,2.024-.584-1.777-.975-3.322.466-3.588.464.768,1.318,1.533,1.881,2.166,1.108,1.246.633,3.695,1.518,3.549Z"/>
  <path class="cls-5" d="M161.116,150.53c-.065.365-.204.596-.539.943l-1.857,1.924c-.708.734-.928.796-1.954.868-.746.053-1.655.762-2.547.613-1.094.497-2.17.168-2.929-.714-1.634-.146-3.047-.656-4.105-1.886-.434-.505-1.679-.453-1.757.284-.083.792,1.037,1.372,1.59,1.776l2.817,2.058c.619.452,1.76.242,2.329.964.255.324.358.789.232,1.106-.106.267-.572.391-.743.551-1.066.997-2.116,1.071-3.452,1.25-.716.096-1.37.447-2.2.417-2.429-.089-4.568-.955-6.764-1.848-.956-.388-1.653-.759-2.456-1.429-.695-.579-1.441-.842-1.943-1.731-.303-.536-1.45-.632-2.009-.492-1.147-1.261-1.926-2.786-2.667-4.307,1.669-1.277,1.402,1.883,3.301,2.342.758.183,1.026.374,1.613.902l1.75,1.575c.679.611,1.272,1.78,2.219,2.042.891.246,1.416.931,2.215,1.182l2.765.865c.606.19,1.763.427,2.333.235l1.831-.615c.588-.197,1.645-.338,1.912-.887-.301-1.598-1.866-2.197-3.27-2.323-.769-.069-1.169-.935-1.73-1.348-1.853-1.363-2.842-3.633-2.742-6.036,1.739-.947,2.349.826,4.063,2.064,1.108.8,2.328,1.208,3.19,2.374.545-.028,1.167-.086,1.547.043.617.554,1.171.428,1.857.145,1.08,1.013,2.5-.066,3.215-.251,1.337-.344,2.392-.754,3.487-1.64l1.398-1.019Z"/>
  <path class="cls-10" d="M161.832,149.863c.044.861-.683,1.495-1.049,2.243-.413.845-.951,1.203-1.59,1.849l-1.414,1.428c-.487.492-.976.48-1.754.508-.48.017-1.156.98-1.248,1.453-.119.616-.475.797-.857,1.137-1.327,1.183-2.806,2.106-4.618,2.352-.312.042-.464.301-.429.508l-.462-.005c-.03-.209-.203-.233-.361-.239-.218-.008-.364.085-.364.303-.12-.038-.348-.027-.477-.006.04-.165-.063-.263-.241-.262l-2.199.005-1.153-.054-3.372-1.085c-.787-.253-1.294-.541-2.055-.909l-1.421-.687c-.582-.281-1.007-.724-1.56-.874-1.146-.31-1.651-1.54-2.378-2.34.56-.139,1.706-.044,2.009.492.502.888,1.248,1.151,1.943,1.731.803.67,1.501,1.04,2.456,1.429,2.195.892,4.335,1.759,6.764,1.848.83.03,1.484-.321,2.2-.417,1.336-.179,2.386-.253,3.452-1.25.171-.16.637-.284.743-.551.126-.317.023-.782-.232-1.106-.569-.722-1.71-.512-2.329-.964l-2.817-2.058c-.553-.404-1.674-.984-1.59-1.776.078-.737,1.323-.789,1.757-.284,1.058,1.23,2.471,1.74,4.105,1.886.759.882,1.835,1.211,2.929.714.892.148,1.801-.561,2.547-.613,1.027-.073,1.246-.134,1.954-.868l1.857-1.924c.335-.347.474-.578.539-.943.034-.19.336-.349.207-.692l.509.025Z"/>
  <path class="cls-12" d="M83.92,159.666c1.877-.016,3.567.605,5.331,1.357l2.432.451c.716.133,1.538.179,2.064-.137l.717.028c.435.017.843-.008,1.216-.176.171-.077.524-.174.714-.193.817-.083,1.886-.17,2.157-1.063l.671-.009c.356-.005.679-.139.799-.497l.466-.208c.681-.304,1.525-.65,1.654-1.445.372,0,.657-.339.933-.438,1.113-.398,3.068-2.519,3.412-3.415l.237-.62c.98-.223,1.034-1.439,1.932-2.455.25-.283.149-.561.02-.76-.151-.232.071-.506.11-.683.413-.146.662-.527.808-.984l1.429-4.481c.973.157.632-.836,1.366-1.862.172.555-.047,1.151-.157,1.809-.765,4.578-2.598,8.817-5.708,12.257-2.895,3.202-6.509,5.596-10.852,6.126l-4.56-.008c-2.025-.003-3.918-.884-5.739-1.622l-1.451-.971Z"/>
  <path class="cls-3" d="M127.703,142.426l-.298-2.276-.147-4.927c.221.038.563-.041.667-.301.294-.732-.557-6.754-.205-6.225-.065-.097-.296-.161-.421-.143l-.016-.754c.616-.606.117-1.626.274-2.024.329-.835,2.694,1.623,2.541,4.93-.041.878.274,1.645.443,2.448.361,1.718-.059,3.431-.117,5.179l-.07,2.136c-.027.816-.179,1.354.081,2.185.123.393-.295.959-.591.955-1.232-.015-.621-2.057-1.842-1.957-.25.021-.274.626-.298.773Z"/>
  <path class="cls-14" d="M105.026,133.999c.086.454-.257.822-.401,1.268-.442,1.364-.908,2.627-1.943,3.633-.691.671-.81,1.745-1.274,2.523-.356.596-.573.932-.466,1.733l-.653,1c-.379.581-.081,1.382-.038,2.119-.635,1.13-.777,2.262-.766,3.565l-.573,1.09c-.469.893-.902,1.805-1.8,2.052-.084-.892.731-2.131,1.275-3.272.432-.906.549-1.866,1.054-2.794.281-.516.135-1.494-.03-2.001-.123-.377-.517-.314-.702-.244-.818.313-.555,1.773-2.086,2.955l.699-2.364c.036-.12.011-.361-.039-.469.619-.081.576-.622.811-1.16l.942-2.156c1.267-2.9,1.081-8.39.211-8.789-1.012-.464-1.613.972-3.339,1.101.006-.249.167-.453.229-.655l1.132-.402c.352-.129.522-.349.535-.626.544.065.94-.271,1.248-.731l1.121.053,1.12,1.629c-.427,1.267-.433,2.383-.22,3.626l-.091,1.323c-.026.373.609.476.743.316l.491-.583c2.142-1.151,1.177-2.919,2.809-3.741Z"/>
  <path class="cls-8" d="M95.733,143.695c-.39,2.001-1.234,3.107-2.418,4.737l-1.214,1.671-1.673.954-2.498,1.109-2.343.337c-.218.031-.667.012-.727-.131-.326-.779,1.245-.933,1.835-1.912.118-.196-.055-.88-.269-.947l-1.094-.344c1.449.025,2.978.067,4.297-.817,1.2-.804,2.455-1.87,2.967-3.211l1.417-3.708c1.137.176,1.937,1.147,1.72,2.263Z"/>
  <path class="cls-6" d="M79.886,146.433c-.248.052-.648.011-.827.298.394.667.516,1.655,1.085,2.073l1.94,1.426c.527.387.997.366,1.478-.023.259-.209.594-.346.574-.706-.011-.187-.157-.414-.282-.612l1.478.279,1.094.344c.215.068.387.751.269.947-.59.979-2.162,1.133-1.835,1.912.06.143.509.162.727.131l2.343-.337,2.498-1.109,1.673-.954c-.226.311-.401.839-.518,1.21l-.253-.017-2.42,1.099-3.556,1.04c-.756.221-2.074-.4-3.076-.983-.715-.675-1.515-.999-2.53-1.013-.37-.913-1.1-1.448-1.98-1.573-.357.293-.545.562-.755.836-.361-1.375-.548-2.941.474-4.126.748-.868,1.71-.618,2.398-.143Z"/>
  <path class="cls-12" d="M163.11,150.358c-.306,1.307-.624,2.829-1.597,3.963-.452.527-.691.975-1.127,1.558l-.914,1.223c-2.522,2.726-5.908,4.627-9.628,5.169l-4.311.056c-.354-.356-.937-.271-1.417-.283-.042-.047-.117-.059-.147.01-.249-.264-.632-.24-.968-.657.232-.31.499-.202.616-.316l1.153.054c-.135.59,1.288.686,2.44.258.128-.02.357-.032.477.006.093.078.231.2.368.184.154-.018.282-.132.357-.248l.462.005c1.903.02,5.045-1.578,6.55-3.057.258-.254.999-.399,1.162-.689.435-.773,1-1.044,1.551-1.635l2.654-2.851,1.267-2.301c.199-.361.155-.686.05-.944-.056-.138-.012-.357-.006-.502.277-.066.672-.02.819.238.124.217.119.507.19.759Z"/>
  <path class="cls-5" d="M97.362,143.341c-.01.475-.306.96-.079,1.451.05.107.075.348.039.469-.144-.025-.374.058-.438.286-.582,2.079-2.063,3-2.225,3.909-.08.446-1.203.574-1.106,1.582l-1.234,1.203-.242.256c-.458-.083-.777.207-1.21.464l-2.564,1.525c-.449.267-.786.638-1.267.659-2.689.119-4.234,2.839-5.586,1.474-.611-.616-1.29-.903-2.098-1.007l-.653-1.123c.454-.373.98-.969,1.604-.789l3.012.868c2.241.646,3.692-.637,4.922-1.169l2.294-.993c.498-.216.782-.685.8-1.114l.253.017c.909.062,2.05-2.022,2.625-2.657.708-.783,1.048-1.295,1.42-2.334.242-.676,1.218-1.172.985-2.257-.082-.38.42-.799.749-.723Z"/>
  <path class="cls-9" d="M107.421,124.709c-.01-.101-.023-.464-.15-.525-.248-.119-.398.198-.5.286l-1.695,1.472c-.781.678-1.508,1.386-2.465,1.835-.348.163-.525.434-.588.707-.346-.061-.646.182-.879.273-1.204-.146-2.178,1.34-3.771,1.703l.405-1.029c.207-.525.57-.928.701-1.407.884-.035,2.012-.197,2.772-.866l1.285-1.131c.772-.679,1.334-1.341,2.288-1.82l1.039-.823c.259-.205.363-.42.376-.618.018-.27.243-.371.422-.513.176.029.368.009.521-.086.146-.091.212-.291.175-.466.071-.056.208-.133.292-.14.501.078.824-.331,1.239-.676l2.54-2.11c.384,1.247-.495,1.836-1.068,2.623l-2.119,2.909c-.228.312-.452.496-.82.401Z"/>
  <path class="cls-10" d="M107.915,131.205l-.387,2.273c-.1.589-.755,1.217-1.172,1.634-.323.303-.883.29-1.319.381-.343.74-.336,1.502-.504,2.188l-.216.883c-1.113.178-.829,2.102-2.175,4.832l-.615,2.814c-.399,1.823-1.411,3.399-2.106,5.296-.308.842-1.154,1.568-1.744,2.311-.675.851-1.767,1.588-2.694,1.933-.898.335-1.534.985-2.286,1.675-.371.34-1.173.146-1.57.346l-1.126.566c-.554.278-1.081.868-.611,1.451.151.187.584.311.538.642-.781.078-1.425-.599-3.32-1.089l-2.108-.544c-.759-.196-1.244-1.251-2.253-1.052l-.027.759-2.869-2.891c.808.103,1.487.39,2.098,1.007,1.352,1.365,2.897-1.356,5.586-1.474.051.797-.849,1.254-.401,2.007,1.845.437,3.671-.054,5.43-.608.519-.163.928-.301,1.186-.695.866.057,1.582-.553,2.02-1.251.646-.24,1.408-.684,1.61-1.365.03-.1.136-.192.23-.254.898-.247,1.331-1.159,1.8-2.052l.573-1.09c-.011-1.303.132-2.435.766-3.565-.043-.736-.341-1.538.038-2.119l.653-1c-.107-.801.11-1.137.466-1.733.465-.778.583-1.852,1.274-2.523,1.035-1.005,1.501-2.269,1.943-3.633.145-.446.488-.814.401-1.268-.021-.111.003-.318.033-.43.432.048,1.186.012,1.472-.445.208-.333.733-.762.472-1.244-.085-.157.065-.337.075-.461.394.019.64-.28.774-.619l.063.405Z"/>
  <path class="cls-15" d="M107.368,129.035l.333-.016-.553,1.567c-1.193-.064-1.308.66-1.698,1.993l-.169.173c-.495.007-.702.437-.959.808l-1.092,1.577c-.234.338-1.044.032-1.083-.386-.127-1.354.175-2.522.474-3.83-.441-.257-.958-.651-1.48-.676-.837-.04-1.69.534-2.089,1.13-.309.461-.704.796-1.248.731l-1.421.234c.132-.426.354-.861.717-1.134,1.437-.288,2.429-1.467,3.669-1.877.31-.103.404-.302.374-.57.233-.092.534-.334.879-.273,1.073.188,1.884-1.596,2.906-1.062.515,1.338-1.212,2.605-.497,4.465.674.232.743-.631.959-.855l1.977-1.997Z"/>
  <path class="cls-11" d="M91.331,151.295c-.018.428-.302.898-.8,1.114l-2.294.993c-1.229.532-2.681,1.815-4.922,1.169l-3.012-.868c-.623-.18-1.15.416-1.604.789-.7-1.203-1.33-2.439-1.685-3.789.21-.275.398-.543.755-.836.88.125,1.61.66,1.98,1.573,1.015.014,1.814.338,2.53,1.013,1.002.583,2.32,1.204,3.076.983l3.556-1.04,2.42-1.099Z"/>
  <path class="cls-14" d="M138.984,126.333c.034.455.378.801.858.737l1.005,1.305,1.009,1.653,2.427,5.266c1.51,2.43,1.767,8.604,4.244,11.593.21.254.807.365.768.85l-1.537-.275c-.069-.012-.188-.04-.253-.034.023-.805-.706-1.341-1.05-2.088-2.149-4.666-2.013-8.244-3.035-10.595-.457-1.052-.924-2.076-1.463-3.102-.405-.77-.937-1.272-1.423-1.944-.941-1.301-2.384-3.939-3.597-3.821.038-.227-.019-.522-.218-.646-.151-.094-.368-.103-.524-.097-.432-.149-.707-.504-.763-.948.159.019.375.061.569.188l2.984,1.957Z"/>
  <path class="cls-6" d="M160.923,146.216c1.325.762-1.019,3.826-2.764,4.751-.374.198-.669.373-.693.765l-.197.016c-.701.058-1.414.082-2.237-.111-.376-1.248.273-2.385-.649-2.315,1.659-.331,3.134-.79,4.443-2.014.578-.54,1.478-.894,2.097-1.092Z"/>
  <path class="cls-11" d="M97.26,142.821c.043.169.106.349.102.521-.33-.076-.831.343-.749.723.233,1.085-.743,1.58-.985,2.257-.372,1.039-.711,1.551-1.42,2.334-.574.635-1.716,2.719-2.625,2.657.117-.371.292-.899.518-1.21l1.214-1.671c1.184-1.63,2.028-2.736,2.418-4.737.692-.103.521-.938.71-1.431.681-1.78,1.167-4.07.401-4.537-.687-.419-1.393.847-2.144.414l.256-1.471c.104-.052.202-.128.27-.226.022-.032.031-.087.036-.125.808-.054,1.533-.389,2.068-1.142.346-.026.441.178.506.542l.247,1.383c-.504,1.021-.081,1.937-.153,2.866-.076.975-.899,1.957-.67,2.853Z"/>
  <path class="cls-15" d="M115.112,123.154c-.698,2.005-1.464,4.067-1.654,6.323-.058.693-.24,1.12-.436,1.774s.211,1.631-.139,2.274c-.271.499-.221,1.165-.2,1.679-.105.153-.276.362-.256.605.013.154.036.354.262.376.029.502-.117,1-.272,1.472-.395-.038-.517-.491-.758-.799.159-.796-.01-1.997-.109-2.729.134-.036.31-.069.394-.246.048-.1-.097-.268-.178-.347l.205-1.663c.051-.047.144-.13.184-.203.063-.116-.004-.29-.183-.301.144-.398.297-1.21.223-1.641.32-.152.245-.5.246-.765l.002-1.56c.35-.003.394-.203.495-.561l1.055-3.746c.162-.574.174-1.142-.258-1.507-.313-.264-.812-.336-1.255-.234.138-.276.246-.561.451-.662.723-.358,1.757.307,1.856.81.163.831-.718,1.789.327,1.65Z"/>
  <path class="cls-5" d="M97.26,142.821c-.229-.896.595-1.878.67-2.853.072-.929-.351-1.845.153-2.866l-.247-1.383c-.065-.365-.16-.569-.506-.542-.534.754-1.26,1.088-2.068,1.142l.149-1.101c.208-.052.286-.28.254-.474l.144-.003c1.148-.025,1.784-1.358,2.505-1.093.961.352.853,2.962.493,4.977.325,1.375-.393,3.622-1.547,4.197Z"/>
  <path class="cls-10" d="M97.283,144.792c-.227-.491.069-.976.079-1.451.004-.172-.059-.351-.102-.521,1.154-.575,1.872-2.822,1.547-4.197.36-2.015.469-4.624-.493-4.977-.721-.264-1.357,1.068-2.505,1.093l.093-.715.005-.238c1.726-.128,2.327-1.564,3.339-1.101.87.399,1.056,5.889-.211,8.789l-.942,2.156c-.235.538-.192,1.079-.811,1.16Z"/>
  <path class="cls-6" d="M95.733,143.695c.217-1.115-.583-2.087-1.72-2.263-.017-1.134.495-2.189.687-3.291.751.432,1.457-.833,2.144-.414.765.467.28,2.757-.401,4.537-.188.493-.018,1.329-.71,1.431Z"/>
  <path class="cls-3" d="M154.383,149.322c.922-.07.273,1.067.649,2.315.823.193,1.535.168,2.237.111-.107.534-.634.63-1.105.788-1.513.509-2.732.342-4.207-.262-.372-.152-.958.014-.947-.645.022-1.31,2.077-.499,1.914-2.459.502.101.977.248,1.459.151Z"/>
  <path class="cls-11" d="M79.886,146.433l2.273,1.569,1.695.887c.125.198.272.425.282.612.021.36-.315.498-.574.706-.481.388-.952.41-1.478.023l-1.94-1.426c-.569-.418-.691-1.406-1.085-2.073.179-.287.579-.246.827-.298Z"/>
  <path class="cls-14" d="M89.929,160.43c.124-.012.34,0,.445-.05.204.747,1.667.392,3.372.957-.525.316-1.347.27-2.064.137l-2.432-.451c-1.764-.752-3.454-1.373-5.331-1.357l-1.698-1.162.027-.759c1.009-.198,1.494.856,2.253,1.052l2.108.544c1.894.489,2.539,1.167,3.32,1.089Z"/>
  <path class="cls-7" d="M116.335,120.386c-.117.359-.538.801-.688,1.229l-.536,1.539c-1.045.14-.163-.819-.327-1.65-.099-.503-1.133-1.168-1.856-.81-.205.101-.313.387-.451.662-.069.138-.296.246-.317.495-.36.014-.658.263-.972.43.349-1.155,1.56-2.59,2.767-2.443l-.853-.889c.654-.419,1.687.343,2.51.923l.723.513Z"/>
  <path class="cls-16" d="M112.415,137.658l.032.446c.018.26-.023.586.245.714l-.008,2.4c-.185.093-.208.289-.238.482l-.059.377c-.734,1.025-.393,2.019-1.366,1.862.063-.199-.045-.512-.25-.571l-.004-.486c.353.113.461-.107.48-.364.025-.341-.02-.611-.231-.829v-.452c.936.105.151-1.912.643-4.376.24.308.362.76.758.799Z"/>
  <path class="cls-14" d="M143.617,161.082c-.117.114-.384.005-.616.316.335.418.719.393.968.657-2.512-.224-4.816-1.473-6.971-2.941-.712-.485-1.405-.893-1.79-1.587.554.15.978.592,1.56.874l1.421.687c.761.368,1.268.656,2.055.909l3.372,1.085Z"/>
  <path class="cls-5" d="M131.148,129.926c-.885.146-.41-2.303-1.518-3.549-.563-.633-1.417-1.398-1.881-2.166-1.441.266-1.05,1.811-.466,3.588l.016.754c-.091.296-.393.432-.734.348l-.455-2.306c-.015-.077-.14-.183-.22-.177l.041-.539c.747-.16-.343-.708.807-2.056.184-.216.389-.748.666-.519l.55.456c.986.53,1.396,1.318,1.975,2.16.486.707.765,1.292.922,2.229l.298,1.777Z"/>
  <path class="cls-11" d="M127.258,135.222l-.221-3.119-.472-3.202c.341.084.643-.052.734-.348.125-.017.356.046.421.143-.352-.53.499,5.493.205,6.225-.104.259-.446.338-.667.301Z"/>
  <path class="cls-9" d="M125.413,119.855c.379,1.359,2.1.46,3.881,2.47-.486.039-.852-.271-1.295-.484-1.038-.499-3.342-.34-3.516-.15-.061.066-.051.258-.088.346-.255-.542-.998-1.169-.844-1.954.568.042,1.342-.12,1.862-.228Z"/>
  <path class="cls-7" d="M129.294,122.325l.585.671c.018.425.171.821.342,1.218-.571-.013-.674-.531-1.055-.925-.656-.677-1.818-1.198-2.758-1.197-.649,0-1.042.638-1.568.888l-.444-.943c.037-.088.027-.28.088-.346.174-.191,2.478-.35,3.516.15.442.213.809.524,1.295.484Z"/>
  <path class="cls-5" d="M149.294,147.738l1.922,1.089c-.038.331-.166.594-.32.742-.528.507-1.66-.162-2.56-1.11-.296-.313-.692-.537-.578-.996l1.537.275Z"/>
  <path class="cls-10" d="M130.681,125.556c.022.091.014.224.005.316-.034.341.136.65.472.758l.245.668c-.434.171-.084.499-.033.728l1.137,5.106.156,4.908c.231.371.86.599,1.374.574-.142-1.147.136-2.045.234-3.155.051-.576-.192-1.264.265-1.708.319.501.201.919.232,1.465l.312,5.488c-1.403-.097-.357.642-.986,2.022-.208.457.079,1.252-.26,1.702-.249.331-1.491-.162-1.408-.558.133-.633-.175-.976-.217-1.497l-.252-3.097-.095-5.25c-.003-.182-.049-.394-.126-.491-.054-.068-.235-.031-.315.011v-.454c.748.326.399-1.136-.294-2.691l.021-.476-.298-1.777c-.157-.937-.436-1.522-.922-2.229-.579-.842-.989-1.63-1.975-2.16l-.55-.456c-.276-.229-.481.304-.666.519-1.151,1.348-.061,1.896-.807,2.056-.672-.3-.236-1.226-.494-1.587.809-.609.9-1.949,2.041-1.447,2.75,1.209,1.967,2.832,3.204,2.711Z"/>
  <path class="cls-16" d="M130.221,124.214c.13.003.2.267.228.382l.233.961c-1.236.121-.453-1.502-3.204-2.711-1.141-.502-1.232.838-2.041,1.447-.277-.376-.407-.908-.597-1.312.525-.25.919-.888,1.568-.888.94,0,2.102.52,2.758,1.197.381.393.484.912,1.055.925Z"/>
  <path class="cls-7" d="M101.144,128.758c.03.269-.063.468-.374.57-1.24.41-2.232,1.589-3.669,1.877l.272-.745c1.593-.363,2.567-1.849,3.771-1.703Z"/>
  <path class="cls-14" d="M163.11,150.358c-.071-.252-.066-.542-.19-.759-.147-.257-.542-.304-.819-.238l.031-.7.387-1.218c.22-.036.607-.003.717.168.117.184.136,1.626-.126,2.747Z"/>
  <path class="cls-3" d="M161.824,146.339c.059.39.119.987-.153,1.423l-1.021,1.631-2.239,2.299c-.315.323-.731.311-.945.041.024-.392.319-.567.693-.765,1.745-.924,4.089-3.989,2.764-4.751.159-.057.29-.324.545-.214.177.076.284.169.356.337Z"/>
  <path class="cls-16" d="M97.804,132.106c-.013.276-.183.497-.535.626l-1.132.402.246-.794,1.421-.234Z"/>
  <path class="cls-16" d="M112.936,135.225c.001.351.017.694-.248.961-.225-.022-.249-.222-.262-.376-.02-.242.151-.451.256-.605l.253.02Z"/>
  <path class="cls-12" d="M112.936,135.225l-.253-.02c-.021-.515-.071-1.18.2-1.679l.053,1.7Z"/>
  <path class="cls-14" d="M145.532,162.327c-.495.006-1.065.11-1.417-.283.48.012,1.063-.074,1.417.283Z"/>
  <path class="cls-12" d="M112.692,138.818c-.268-.128-.227-.454-.245-.714.292.134.246.448.245.714Z"/>
  <path class="cls-14" d="M95.81,134.741l-.144.003c-.044-.263-.025-.59.237-.718l-.093.715Z"/>
  <path class="cls-10" d="M95.412,135.218c.026-.192.009-.469.254-.474.032.194-.046.421-.254.474Z"/>
  <path class="cls-12" d="M112.446,141.699c.03-.192.053-.389.238-.482,0,.202-.016.408-.238.482Z"/>
  <path class="cls-5" d="M94.956,136.67c.026-.152.11-.254.27-.226-.068.098-.166.174-.27.226Z"/>
  <path class="cls-10" d="M126.11,126.596c-.09.014-.228-.071-.22-.177.08-.006.205.1.22.177Z"/>
  <path class="cls-3" d="M135.5,135.318l-.35-1.334c.198-.156.36-.406.707-.463.237.379.516.614.744.687.919.295,2.007-1.027,2.128-2.653,1.113-.926,2.912,1.493,3.062,2.499.125.836.437,1.357.609,2.113l1.002,4.417c.21.925.162,1.649.794,2.483l.597,1.522.701,2.182.322.581c.153.275-.279.831-.45.681-.478-.421-.825-.524-1.241-.876l-2.68-2.264c-.642-.542-1.551.905-1.451,1.575.118.786-.242,1.433-.879,1.579-.66.15-1.24-.128-1.483-.831-.478-1.38-.828-2.803-.708-4.265-.68-.318-1.165-.77-1.173-1.54l-.052-4.754-.199-1.338Z"/>
  <path class="cls-5" d="M135.079,140.704l.622,4.102.119,2.103c.059,1.039-.678,1.976-.618,3.099l-.372.353c-.112.106-.459.015-.615-.209-.405-.581-.933-.695-1.64-.241.401-.794.126-1.06-.071-1.637-.5-1.465-.82-3.047-.952-4.573l-.337-3.896.045-1.787-.034-3.376c-.005-.458-.112-.815.195-1.093.08-.042.261-.079.315-.011.077.096.122.308.126.491l.095,5.25.252,3.097c.042.521.35.864.217,1.497-.083.395,1.159.889,1.408.558.338-.45.052-1.245.26-1.702.628-1.381-.417-2.119.986-2.022Z"/>
  <path class="cls-5" d="M135.235,123.718c.071.143.177.313.196.47.056.444.331.799.763.948-.013.167.007.384.1.522.14.206.416.243.642.221,1.213-.117,2.656,2.52,3.597,3.821.486.672,1.018,1.174,1.423,1.944.539,1.025,1.006,2.05,1.463,3.102,1.022,2.352.886,5.929,3.035,10.595.344.746,1.073,1.282,1.05,2.088-.154.013-.51.04-.709-.058-.674-.753-.763-1.791-1.125-2.687l-.909-2.253c-.278-.69-.799-1.312-.695-2.175.077-.639-1.895-7.324-2.451-8.076l-2.637-3.565c-.399-.539-.845-.941-1.396-1.3-.365-.238-1.026-1.191-1.625-.616-.851,1.623.481,3.906-.418,3.968-.184.013-.545-.083-.852-.287-.29.222-.247.534-.306.785l-.581-.03.089-.719c.027-.218.129-.405.124-.578-.01-.325-.224-.452-.481-.423.081-.134.115-.29.092-.47l1.208-.393-.79-3.139c-.502-.151-1.073-.888-.528-1.291.258-.19.996-.106,1.008-.631l.273.027c.094.128.279.217.439.201Z"/>
  <path class="cls-5" d="M135.15,133.983l.35,1.334-.733-.102c-.031-.547.087-.965-.232-1.465-.353-.554-.423-1.456-.277-2.073.752-.085.528.919.891,2.306Z"/>
  <path class="cls-5" d="M131.421,133.093c-.41-.984-.723-2.34-.294-2.691.693,1.555,1.042,3.017.294,2.691Z"/>
  <path class="cls-5" d="M162.132,148.662l-.031.7c-.007.145-.05.364.006.502h-.275s-.509-.026-.509-.026c-.07-.188.005-.514.082-.759.085-.273.377-.454.727-.417Z"/>
  <path class="cls-10" d="M134.381,131.165l-.121.512c-.092-.005-.249-.02-.341-.075-.16-.096-.14-.293-.118-.468l.581.03Z"/>
  <path class="cls-14" d="M148.872,161.341c-.034-.207.118-.466.429-.508,1.812-.246,3.291-1.169,4.618-2.352.382-.341.738-.521.857-1.137.092-.474.768-1.436,1.248-1.453.778-.028,1.268-.016,1.754-.508l1.414-1.428c.639-.646,1.177-1.004,1.59-1.849.366-.748,1.093-1.382,1.049-2.243h.275c.105.259.149.584-.05.945l-1.267,2.301-2.654,2.851c-.55.591-1.115.862-1.551,1.635-.163.29-.904.434-1.162.689-1.505,1.48-4.647,3.078-6.55,3.057Z"/>
  <path class="cls-14" d="M147.209,161.394c-1.151.428-2.575.332-2.44-.258l2.199-.005c.178,0,.281.097.241.262Z"/>
  <path class="cls-14" d="M148.411,161.336c-.076.116-.203.23-.357.248-.137.016-.275-.106-.368-.184,0-.218.145-.311.364-.303.158.006.331.03.361.239Z"/>
  <path class="cls-5" d="M109.798,145.194c-.139.967-.503,1.905-.734,2.947l-.28,1.263c-.039.177-.261.451-.11.683-.477.15-.568.735-.863,1.092-.575.696-1.066,1.292-1.089,2.123l-.237.62c-.282-.006-.584.137-.834.396l-1.77,1.831c-.364.376-.747.691-.808,1.189-.276.099-.561.437-.933.438-.421,0-1.675.907-1.654,1.445l-.466.208c-.158.071-.379-.029-.598.055-.137.053-.244.244-.201.442l-.671.009-1.631.444-1.686.161c-.081.008-.141.27-.081.323l-.66-.095-2.569-.265c-.566-.058-1.104-.505-1.548-.122-.106.051-.321.038-.445.05.046-.332-.387-.455-.538-.642-.471-.583.057-1.173.611-1.451l1.126-.566c.397-.199,1.198-.005,1.57-.346.753-.69,1.389-1.341,2.286-1.675-.013.371-.55.622-.703.849-.111.591-.37.821-.84,1.136-.453.304-.736.821-1.328,1.045-.313.118-.401.583-.257.762.083.103,3.327.909,5.075.17l2.706-1.144,1.868-1.206c.314-.202.495-.572.674-.755l3.436-3.503,1.408-1.932c.311-.427.291-1.046.827-1.411l.151-1.256c.51-1.076.955-2.148,1.117-3.226l.681-.085Z"/>
  <path class="cls-14" d="M111.02,143.938l-1.429,4.481c-.146.457-.395.838-.808.984l.28-1.263c.231-1.042.595-1.98.734-2.947.031-.217.183-.405.309-.592.255-.378.235-.933.664-1.235.205.06.313.373.25.571Z"/>
  <path class="cls-10" d="M94.492,160.767l-.029.599-.717-.028c-1.705-.565-3.168-.211-3.372-.957.444-.383.982.064,1.548.122l2.569.265Z"/>
  <path class="cls-14" d="M106.722,153.302c.023-.831.514-1.427,1.089-2.123.295-.357.385-.942.863-1.092.129.199.23.477-.02.76-.898,1.017-.951,2.233-1.932,2.455Z"/>
  <path class="cls-14" d="M106.484,153.922c-.343.896-2.298,3.018-3.412,3.415.061-.498.444-.813.808-1.189l1.77-1.831c.25-.259.551-.402.834-.396Z"/>
  <path class="cls-14" d="M102.139,157.775c-.129.794-.973,1.141-1.654,1.445-.021-.537,1.232-1.444,1.654-1.445Z"/>
  <path class="cls-14" d="M98.55,159.934c-.272.893-1.34.98-2.157,1.063.08-.286.267-.503.526-.618l1.631-.444Z"/>
  <path class="cls-10" d="M96.919,160.378c-.259.115-.446.332-.526.618-.19.019-.543.116-.714.193-.108-.241-.31-.297-.527-.328-.06-.053,0-.315.081-.323l1.686-.161Z"/>
  <path class="cls-14" d="M95.152,160.862c.217.031.419.087.527.328-.374.168-.781.193-1.216.176l.029-.599.66.095Z"/>
  <path class="cls-14" d="M100.02,159.428c-.12.358-.443.493-.799.497-.043-.199.064-.39.201-.442.219-.084.44.016.598-.055Z"/>
  <path class="cls-12" d="M97.112,152.98c-.093.063-.2.154-.23.254-.754.047-1.556.578-1.61,1.365-.437.698-1.154,1.308-2.02,1.251-.35-.23-.752-.245-1.149-.273l1.519-1.28,1.773-1.098c1.659-1.028.647-2.239,1.919-2.671.394-.134.422-.727.186-.947-.191-.178-.527-.415-.896-.249l-1.246.561.037-.279c.537-.566,1.005-1.233,1.229-1.989,1.531-1.182,1.268-2.642,2.086-2.955.184-.071.579-.133.702.244.165.507.311,1.485.03,2.001-.505.928-.622,1.888-1.054,2.794-.545,1.141-1.359,2.381-1.275,3.272Z"/>
  <path class="cls-16" d="M105.281,132.752l-.223.817c-.029.112-.054.319-.033.43-1.631.821-.666,2.589-2.809,3.741l-.491.583c-.134.16-.769.057-.743-.316l.091-1.323c-.213-1.244-.207-2.359.22-3.626l-1.12-1.629-1.121-.053c.399-.595,1.252-1.17,2.089-1.13.521.025,1.039.419,1.48.676-.3,1.308-.601,2.476-.474,3.83.039.419.849.724,1.083.386l1.092-1.577c.257-.371.464-.802.959-.808Z"/>
  <path class="cls-10" d="M97.322,145.261l-.699,2.364c-.224.756-.692,1.423-1.229,1.989-.22-.126-.471-.164-.735-.158.162-.909,1.643-1.83,2.225-3.909.064-.229.294-.311.438-.286Z"/>
  <path class="cls-1" d="M111.289,114.83l.15.285.073.565.191,1.073.255.702c.118.324.331.531.45.767.192.38.428.451.694.728l.853.889c-1.207-.148-2.418,1.288-2.767,2.443-.043.111-.226.264-.17.424-.959.381-1.906,1.95-1.711,2.747l-1.117,1.854-1.612.808c-.141-.493.033-.943.131-1.361l.246-1.053c.321-.004.478-.255.478-.56l-.014-.431c.368.095.593-.088.82-.401l2.119-2.909c.573-.787,1.452-1.376,1.068-2.623l-2.54,2.11c-.415.345-.738.754-1.239.676l3.169-3.363c.174-.183.456-.272.335-.617-.236-.669-.775-.099-1.654-.149,1.183-1.348,1.179-2.632,1.79-2.603Z"/>
  <path class="cls-15" d="M92.102,155.577c-.618-.043-1.145.186-1.82.408-.787.259-2.19-.155-2.034-.719.025-.09.091-.279.274-.339,1.057-.348,1.82-.984,2.752-1.549.406-.246.81-.377.804-.881l.242-.256c0,.031.006.147.105.32,1.044-.275,2.126-.992,2.589-1.955l.343-.713,1.246-.561c.369-.166.705.071.896.249.235.22.207.813-.186.947-1.271.432-.26,1.644-1.919,2.671l-1.773,1.098-1.519,1.28Z"/>
  <path class="cls-14" d="M92.078,152.497c.006.504-.397.635-.804.881-.932.565-1.695,1.201-2.752,1.549-.183.06-.249.249-.274.339-.155.564,1.248.979,2.034.719.675-.223,1.202-.452,1.82-.408.397.028.8.043,1.149.273-.258.394-.667.532-1.186.695-1.759.554-3.585,1.045-5.43.608-.448-.754.452-1.211.401-2.007.481-.021.817-.392,1.267-.659l2.564-1.525c.433-.257.752-.547,1.21-.464Z"/>
  <path class="cls-12" d="M95.014,150.606c-.463.963-1.545,1.68-2.589,1.955-.099-.174-.104-.289-.105-.32l1.234-1.203c.301-.294.988-.405,1.46-.432Z"/>
  <path class="cls-14" d="M95.395,149.614l-.037.279-.343.713c-.472.027-1.159.138-1.46.432-.097-1.007,1.026-1.136,1.106-1.582.264-.007.515.032.735.158Z"/>
  <path class="cls-7" d="M107.421,124.709l.014.431c-.18-.069-.416.009-.462.163-.045.148.007.301-.016.397l-.246,1.053c-.24.045-.444.182-.591.459-.848,1.601-1.243,3.364-.248,2.968.178-.743.688-1.437,1.479-1.732.163.302.055.481.016.588l-1.977,1.997c-.216.224-.286,1.087-.959.855-.715-1.86,1.013-3.127.497-4.465-1.021-.534-1.832,1.25-2.906,1.062.063-.274.24-.544.588-.707.957-.449,1.684-1.157,2.465-1.835l1.695-1.472c.102-.088.252-.405.5-.286.127.061.14.424.15.525Z"/>
  <path class="cls-9" d="M106.711,126.753c-.098.418-.272.868-.131,1.361l1.612-.808c-.177.294-.163.769-.272,1.082l-.219.63-.333.016c.039-.107.146-.286-.016-.588-.791.295-1.301.989-1.479,1.732-.995.396-.6-1.367.248-2.968.147-.277.35-.413.591-.459Z"/>
  <path class="cls-14" d="M108.866,128.288c-.066,1.208-1.152,1.622-1.014,2.512-.135.339-.38.638-.774.619l.071-.833.553-1.567.219-.63.946-.101Z"/>
  <path class="cls-16" d="M107.148,130.586l-.071.833c-.01.124-.16.304-.075.461-.496.329-.971.657-1.552.699.39-1.333.504-2.057,1.698-1.993Z"/>
  <path class="cls-14" d="M105.059,133.568l.223-.817.169-.173c.581-.042,1.056-.37,1.552-.699.261.481-.264.911-.472,1.244-.285.457-1.039.493-1.472.445Z"/>
  <path class="cls-10" d="M136.936,125.879c-.226.022-.502-.015-.642-.221-.093-.138-.113-.355-.1-.522.156-.006.373.003.524.097.199.124.256.418.218.646Z"/>
  <path class="cls-14" d="M112.441,127.405l-.002,1.56c-.258-.067-.522.044-.486.374.014.129.177.28.24.391.074.431-.078,1.243-.223,1.641-.035.098-.279.153-.233.361.022.097.128.158.232.143l-.205,1.663c-.169-.074-.29.043-.276.15l.06.442c.099.732.268,1.933.109,2.729-.492,2.464.294,4.481-.643,4.376l-.067-4.227.143-2.494.244-3.807c.064-.993.164-1.717.064-2.708-.08-.793.444-1.729-.245-2.615l-.849.268c.108-1.116,1.965-2.225.678-2.18l.288-.483c.177.016.327-.148.448-.191.417-.148.936-.085,1.194.326.232.369.302.745-.083,1.266-.124.167.028.704-.05.91-.286.754-.337,1.391-.338,2.105Z"/>
  <path class="cls-16" d="M112.441,127.405c0-.714.052-1.351.338-2.105.078-.205-.074-.742.05-.91.385-.521.314-.897.083-1.266-.258-.412-.778-.475-1.194-.326.195-.293.416-.612.444-.947.021-.249.248-.357.317-.495.443-.101.943-.03,1.255.234.432.365.419.933.258,1.507l-1.055,3.746c-.101.358-.145.557-.495.561Z"/>
  <path class="cls-16" d="M112.439,128.965c0,.264.074.613-.246.765-.063-.111-.226-.262-.24-.391-.036-.329.228-.441.486-.374Z"/>
  <path class="cls-16" d="M111.97,131.875c-.103.015-.21-.045-.232-.143-.046-.208.197-.263.233-.361.179.01.246.185.183.301-.04.073-.133.156-.184.203Z"/>
  <path class="cls-16" d="M111.549,134.131l-.06-.442c-.015-.108.107-.224.276-.15.081.079.226.247.178.347-.084.176-.26.209-.394.246Z"/>
  <path class="cls-15" d="M112.161,121.852c-.028.335-.249.655-.444.947-.121.043-.271.207-.448.191l-.25-.284c-.056-.16.127-.314.17-.424.315-.167.613-.415.972-.43Z"/>
  <path class="cls-4" d="M111.015,141.236v.452c-.283-.024-.394.206-.424.426-.039.285,0,.55.176.766l.004.486c-.429.302-.409.857-.664,1.235-.206-.036-.413-.468-.305-.751.491-1.29.503-2.496.531-3.84.023-1.108.289-2.112.046-3.24l.059-.583c.01-.098-.202-.188-.357-.189l-.016-.558c.328-1.504.947-2.813.247-3.76l-.009-.795c.706-.695-.272-2.341-.393-2.355-.198-.023-.524.164-.639.412l-.914,1.971c-.093.201-.306.262-.442.29l-.063-.405c-.138-.89.948-1.304,1.014-2.512.388-.453.504-.986.853-1.603l.585-1.032.849-.268c.69.886.166,1.822.245,2.615.1.99,0,1.715-.064,2.708l-.244,3.807-.143,2.494.067,4.227Z"/>
  <path class="cls-14" d="M110.766,142.881c-.175-.216-.215-.481-.176-.766.03-.22.142-.45.425-.426.212.218.257.488.231.829-.019.257-.127.477-.48.364Z"/>
  <path class="cls-9" d="M130.639,119.925c.468-.192.859.497,1.109.843l-1.282-.154c-.55.67-.356,1.59.178,1.923.185.243.313.739.784.749l-.034.218-.105.43c-.208.359-.212.694-.163,1.27-.262-.341-.368-.533-.676-.608-.028-.115-.098-.379-.228-.382-.17-.397-.324-.793-.342-1.218.053-.02.209-.151.246-.253-.464-.903-.878-1.746-.927-2.891.617.041.987.259,1.442.073Z"/>
  <path class="cls-16" d="M133.479,130.388l.41.028-.089.719c-.022.174-.042.372.118.468.092.055.249.07.341.075-.146.617-.077,1.52.277,2.073-.457.444-.214,1.132-.265,1.708-.098,1.11-.376,2.009-.234,3.155-.513.025-1.143-.203-1.374-.574l-.156-4.908-1.137-5.106c-.051-.229-.401-.557.033-.728l1.183,3.13c.154.406.438.71.997.735l-.103-.776Z"/>
  <path class="cls-10" d="M134.523,123.49c-.013.525-.751.44-1.008.631-.546.403.026,1.141.528,1.291l.79,3.139-1.208.393c-.168.055-.37.077-.548.088l.021-.49c.181-.324.595-.69.631-1.124l-.592-1.123-.787-3.004.91-.533c.529.023,1.029.271,1.264.732Z"/>
  <path class="cls-10" d="M133.889,130.415l-.41-.028-.157-.678.21-.295c.257-.029.47.098.481.423.005.172-.097.359-.124.578Z"/>
  <path class="cls-16" d="M133.625,128.945c.022.18-.012.335-.092.47l-.21.295c-.201-.181-.258-.393-.246-.677.178-.011.381-.033.548-.088Z"/>
  <path class="cls-2" d="M131.905,126.371l1.193,2.172-.021.49c-.012.284.045.496.246.677l.157.678.103.776c-.559-.026-.844-.329-.997-.735l-1.183-3.13-.245-.668c-.02-.067-.021-.201-.009-.277l.756.017Z"/>
  <path class="cls-7" d="M131.855,123.998c-.022.278-.079.668.046.897-.211-.006-.34.237-.275.366l.195.383.084.726-.756-.017c.024-.15-.009-.352-.138-.451-.074-.057-.248-.054-.326-.03.009-.092.017-.225-.005-.316l-.233-.961c.308.075.414.267.676.608-.049-.576-.044-.911.163-1.27l.566.065Z"/>
  <path class="cls-16" d="M131.149,126.353c-.012.075-.012.209.009.277-.335-.108-.506-.417-.472-.758.078-.024.252-.027.326.03.129.099.162.301.138.451Z"/>
  <path class="cls-11" d="M110.302,130.886l.009.795c-.153-.009-.32.057-.388.183-.049.089-.063.24-.01.391.439,1.236-.497,2.456.151,3.186l.016.558c-.847.432-.074,1.441-.419,3.071l.269.59-.267.565c-.191.404.164,1.008-.081,1.458-.307.564-.089,1.091-.166,1.604l-.299,1.992c-.162,1.078-.607,2.15-1.117,3.226l-.151,1.256c-.536.364-.516.984-.827,1.411l-1.408,1.932-3.436,3.503c-.704-.26-1.154.44-1.672.644-.837.331-1.278.731-2.08,1.155-.89.472-2.623.793-3.613.458-.825-.28-.131-1.463.363-1.827,1.048-.772,2.361-1.367,2.988-2.513.381-.697.422-1.215,1.156-1.804,1.452-1.165,1.796-2.517,2.646-3.686.265-1.525.553-2.809,1.068-4.247l.23-2.164c.08-.749.273-1.402.805-1.844.398.182-.014.673.007.904.124,1.352-.293,2.493-.607,3.71-.46,1.782-.803,4.551-1.74,5.496-.644.65-1.068,1.291-1.528,2.089-.302.523-.721.93-.36,1.616l3.012-.482c.97-.487,1.62-1.556,2.461-2.279l.973-1.884c1.009-1.954,2.126-4.256,2.381-6.365l.28-2.316c.087-.719.07-1.217.065-1.889-.013-1.59.725-3.568-.783-3.191l-.823,3.346c-.108.44-.648.994-1.068.631-.676-.584-1.288-.806-2.062-.429l.037-1.173.216-.883c1.65-.568,1.926.07,2.751-1.62,1.93-3.954,1.244-6.949,3.019-5.174Z"/>
  <path class="cls-13" d="M104.316,138.564l-.037,1.173-.209,1.042c-.533.442-.726,1.095-.805,1.844l-.23,2.164c-.515,1.439-.803,2.722-1.068,4.247-.85,1.169-1.194,2.521-2.646,3.686-.733.589-.775,1.107-1.156,1.804-.627,1.147-1.94,1.741-2.988,2.513-.494.364-1.188,1.547-.363,1.827.99.335,2.723.014,3.613-.458.802-.425,1.242-.824,2.08-1.155.518-.205.968-.904,1.672-.644-.18.183-.361.553-.674.755l-1.868,1.206-2.706,1.144c-1.748.739-4.991-.067-5.075-.17-.144-.179-.056-.644.257-.762.592-.224.875-.741,1.328-1.045.47-.315.729-.545.84-1.136.154-.227.69-.477.703-.849.927-.345,2.019-1.082,2.694-1.933.589-.743,1.435-1.469,1.744-2.311.695-1.897,1.707-3.472,2.106-5.296l.615-2.814c1.345-2.73,1.062-4.654,2.175-4.832Z"/>
  <path class="cls-13" d="M110.107,144.602c-.126.187-.278.375-.309.592l-.681.085.299-1.992c.077-.513-.141-1.04.166-1.604.245-.45-.11-1.054.081-1.458l.267-.565-.269-.59c.345-1.629-.428-2.639.419-3.071.155,0,.367.091.357.189l-.059.583c.244,1.128-.023,2.132-.046,3.24-.028,1.345-.04,2.55-.531,3.84-.107.283.099.715.305.751Z"/>
  <path class="cls-13" d="M110.302,130.886c-1.775-1.775-1.089,1.22-3.019,5.174-.825,1.69-1.101,1.052-2.751,1.62.168-.686.16-1.448.504-2.188.436-.091.996-.078,1.319-.381.417-.416,1.072-1.044,1.172-1.634l.387-2.273c.136-.029.349-.09.442-.29l.914-1.971c.115-.248.442-.436.639-.412.12.014,1.098,1.66.393,2.355Z"/>
  <path class="cls-14" d="M96.882,153.234c-.202.681-.964,1.125-1.61,1.365.055-.787.856-1.318,1.61-1.365Z"/>
  <path class="cls-16" d="M110.304,125.653l-.585,1.032c-.35.617-.466,1.15-.853,1.603l-.946.101c.109-.313.095-.789.272-1.082l1.117-1.854c.201-.333.445-.608.789-.992l.884-.988c1.287-.044-.57,1.064-.678,2.18Z"/>
  <path class="cls-7" d="M111.019,122.706l.25.284-.288.483-.884.988c-.344.384-.589.66-.789.992-.195-.798.752-2.367,1.711-2.747Z"/>
  <path class="cls-9" d="M107.435,125.141c0,.305-.157.555-.478.56.023-.097-.029-.249.016-.397.046-.154.283-.232.462-.163Z"/>
  <path class="cls-13" d="M110.064,135.441c-.648-.73.288-1.95-.151-3.186-.054-.151-.039-.302.01-.391.068-.125.236-.192.388-.183.7.947.081,2.255-.247,3.76Z"/>
  <path class="cls-16" d="M132.571,122.189c.176.155.683.125.688.57l-.91.533.787,3.004.592,1.123c-.036.434-.45.8-.631,1.124l-1.193-2.172-.084-.726c.214.009.369-.221.293-.359l-.213-.389c-.126-.23-.068-.62-.046-.897.011-.136.021-.407-.109-.507-.069-.053-.289-.013-.353.013l.034-.218.012-.977,1.132-.119Z"/>
  <path class="cls-2" d="M132.571,122.189l-1.132.119-.012.977c-.47-.01-.599-.506-.784-.749.266-.304.326-.655.366-1.138.698-.122,1.267.356,1.562.79Z"/>
  <path class="cls-2" d="M131.855,123.998l-.566-.065.105-.43c.063-.025.284-.065.353-.013.13.1.119.371.109.507Z"/>
  <path class="cls-2" d="M131.821,125.644l-.195-.383c-.065-.128.064-.371.275-.366l.213.389c.076.138-.079.368-.293.359Z"/>
  <path class="cls-3" d="M104.071,140.779l.209-1.042c.773-.378,1.385-.156,2.062.429.42.363.959-.191,1.068-.631l.823-3.346c1.508-.377.77,1.601.783,3.191.005.672.022,1.171-.065,1.889l-.28,2.316c-.255,2.108-1.372,4.41-2.381,6.365l-.973,1.884c-.84.722-1.491,1.792-2.461,2.279l-3.012.482c-.36-.686.058-1.094.36-1.616.461-.798.884-1.439,1.528-2.089.937-.945,1.279-3.714,1.74-5.496.315-1.217.731-2.358.607-3.71-.021-.231.391-.722-.007-.904Z"/>
  <g>
    <path class="cls-3" d="M101.262,87.259c.088.201.286.416.517.55,1.714.991,3.129,2.183,4.463,3.487-.438.149-.775.336-1.251.624-.479-.597-.978-.761-1.656-1.099-.288-.144-.69-.768-1.14-.6-.619.23-1.078.155-1.599-.178-.539-.344-.832.262-1.147.526-1.857,1.563-2.419.845-3.989,1.266l-.516-.748c-.415.252-1.104.374-1.486.129-.728-.467-1.269.172-1.717.204-1.028.073-1.59.074-2.45.812-.5.429-1.488.609-1.739,1.289-.059-.01-.517.045-.576.203l-1.291,3.444c-.196.524.179,1.252-.051,1.856-.176.463.205,1.001.595,1.012.62.017.65.588.912.82.823.728,2.18.399,3.124.687,1.759.537,2.788.099,3.209.221.562.162.987.491,1.725.4,1.003-.124,1.836.75,2.698,1.103.91.372,1.856.398,2.624.997-.314.768-1.069.669-1.67.837l-1.877.525c-.619.173-1.076.466-1.795.375-2.284-.289-3.26,1.547-5.151,2.249-.011,1.086-.673,1.262-1.341,1.795-.614.489-.971,1.21-1.679,1.715l-.988,1.439c.685,1.191-.356,2.179.261,3.06.729.361,1.215.612,1.759,1.198l1.837,1.045c1.7-1.572,3.427-1.683,3.484-1.728.109-.086.145-.292.078-.464.421.023.855-.02,1.245-.168.265-.101.538.021.727.158-.722.961-2.238.706-2.133,2.311l1.695.783c1.139.526,8.119-2.182,9.693-4.655.849-.067,1.253-.61,1.649-1.237.99-1.571,4.594-1.768,3.478-3.521.242-.022.575-.259.709-.436.14-.185.069-.715.076-.931l.014-.427-.029-.918.21-.333.894,1.283c.279.419.973,1.037,1.46.634l1.479-1.223c-.544-1.083.237-1.828.548-2.723.805-2.314.613-5.775,1.916-6.011.277-.05.8-.278,1.04.186l1.234,2.38.438,2.708.625,1.824c.34.99,1.059,2.306,2.152,2.548,1.03.228,1.877-.78,2.025-1.708l.89-5.566.498-.721c.281-.99.523-1.957,1.162-2.711.151.174.488.319.382.691.002.053.016.151.035.2-.363.024-.377.345-.52.754l-.428,1.221-.153,3.508c-.023.531-.373.959-.044,1.413l-.006.406c-.948.372-.782,1.392-1.036,2.365-.319,1.225-1.435,3.009-2.612,3.46-1.343.344-1.808-1.469-2.18-2.189-.688-1.33-1.651-2.856-1.673-3.958-.02-1.002-.273-2.218-.595-3.21-2.119-.254-1.788,3.497-2.82,4.558-.557.573-.4,1.207-.563,1.791-.402,1.438-2.004,2.286-2.892,3.358-.397.479-.448.762-1.019.692l-.16-.928-.063-.375c-.029-.172-.462-.249-.646-.002-1.067,1.43-3.22,1.286-2.954,3.021-.234.184-.381.555-.654.683-1.022.312-2.2,1.038-2.245,1.814-.094.057-.258.189-.42.162-.172-.198-.388-.161-.718.018l-1.843.999c-.622.653-1.178.723-1.936,1.033-1.996.815-4.874,1.906-6.613,1.685-2.522-.32-4.688.523-6.929.241-1.591,1.194-1.682,2.705-3.34,2.433-.681.803-1.66.997-2.626,1.261l-2.904.794c-.34.551-.603,1.198-.685,1.828-.729-.865-1.198-1.984-1.23-3.105.232-.265.276-.729.375-1.061.93-.585,1.066-1.518,1.108-2.522.029-.675.833-.819,1.188-1.221.832-.945,2.158-1.799,3.441-1.299,1.994.778,3.951-.114,4.028-.772.044-.374-.041-.711-.33-1.018-.445-.471-.097-1.083-.08-1.547.094-2.485,1.875-3.802,2.538-5.789.289-.866.667-.917,1.29-1.478l2.381-2.147c.358-.323,1.235-1.103.665-1.579-1.188-.992-3.011-.389-3.958.687-2.663.343-5.908,1.691-8.219,1.143l-1.942-.461-1.123-.386-1.342-4.269c.469-.728,1.472-.322,2.083-.61l3.291-1.548c.546-.257.992-.67,1.792-.55.361-.237.613-1.013.648-1.428.059-.715,2.267-2.63,3.742-3.314l-.57-.945,1.58-.416c1.258-1.687,2.984-2.608,4.856-3.561.504-.376.951-1.433,1.786-1.523,2.61-.284,5.082,2.024,5.892,1.306l.369-.691c.093-.175.512-.176.734-.195Z"/>
    <path class="cls-13" d="M162.058,83.411c-.015.074-.045.165-.08.209-1.332.68-1.962,1.896-3.416,2.581l-.438,1.616c-.578,2.131.185,3.001-.488,4.118-.426.708-.506,1.596-.21,2.37.21.549-.184.97-.268,1.46-.169.986-.152,2.162-.539,3.107-.266.138-.995.204-1.007.583.085.273.287.591.237.848-.046.241-.427.341-.611.495-.711.597-.708,1.566-1.074,2.3-.664,1.332-3.48,2.239-2.451,3.171.319.289,1.041.182,1.39.261.578.581,1.259.55,1.999.696,1.265.249,1.114,2.409,1.823,3.072.401.375,1.248-.165,1.481.155.132.181.048.626-.204.737-1.588.703.261,2.997-1.575,5.411-.268.353-.832.649-1.003,1.148l-.778,2.278c-.456,1.335-.863,2.159-2.124,2.799-.609.309-.97.718-1.86.771-.641.038-1.61.614-2.29.202-1.027-.623-2.299-.864-3.516-.726-.344.039-.906-.2-1.174.136l-.438.065-.72-.027c.02-.132.02-.513-.187-.613l-2.107-1.028c-.664-.324-1.169-.588-1.841-.518-.241.025-.624-.118-.902-.295l-3.098-1.981c-1.581-.124-2.208-1.609-3.243-1.746-1.185-1.182-1.709-4.243-.547-5.92.286-.285.797-.409,1.088-.606.237.133.745.128.934.442l-.084.356c-.233-.13-.566-.102-.837-.077-.097-.022-.257-.031-.369.026-.142.073-.203.299-.141.491-.221.129-.448.419-.667.681.121.67.258,1.305.126,1.874-.289,1.25,1.369,1.892,2.238,2.651.476.417.585.737,1.341.9,1.436.31,2.107,1.268,3.412,1.823l4.335,1.844c.591.251.548.402,1.295.407l3.166.021c.235.002.708-.569.967-.355.921.762,2.082.652,2.802-.218.394-.086,1.197-.102,1.356-.543.27-.746.834-1.078,1.215-1.68l2.115-3.343c-.455-1.061.465-2.099-.158-3.942-.205-.608.038-1.291.114-1.855.086-.636-.624-.852-.926-1.092-1.31-1.038-2.468-.608-3.714.216-.528.349-1.737.474-1.466,1.562l.782,1.215-1.027,1.539c-.901-.196-1.657-.008-2.46.086l-1.955.229-2.034-.222c-.306-.033-.739-.15-1.017-.172l-.048-.523c.011-.108.049-.223.1-.291.092-.123.375-.222.58-.129.797.364,1.544.195,2.254.263.471.046.875.111,1.479.06l1.539-.128-1.104-2.197c-.199-.395-1.188-.329-1.465-.586-.653-.605-1.398-.42-2.022-.657-1.1-.419-1.891-.261-2.957-.326-1.235-.075-2.549-.592-3.677.253-1.13-.376-2.93.083-4.589-1.273-.175-.143-.488-.041-.473.238-.11-.226-.287-.447-.161-.679l.155-.287c.324.076.751.196,1.05.469.477.438,1.056.416,1.589.567.995.282,1.684-.011,2.622-.083l3.637-.281c.672-.052,1.085-.207,1.798-.28,2.192-.223,3.46.961,5.004.51.429-.024,1.036.599,1.605.162.484-.371.205-1.032.598-1.47l1.89-2.107c.211-.816.368-1.844,1.298-2.058,1.03-.237,1.146-1.392,1.671-1.867,1.304-1.18,1.513-2.173,1.363-3.856-.128-1.435-.077-2.87-1.038-4.139-.422-.558.427-1.462.565-1.937.232-.798.142-1.726.877-2.295.696-.539.67-1.428,1.042-2.073.421-.367,1.162-1.118,1.661-1.403,1.251-.716,2.606-1.053,3.734-1.805.035.082.183.165.248.215Z"/>
    <path class="cls-6" d="M101.262,87.259c-.221.019-.64.02-.734.195l-.369.691c-.81.718-3.282-1.59-5.892-1.306-.835.091-1.282,1.147-1.786,1.523-1.872.953-3.598,1.874-4.856,3.561l-1.58.416.57.945c-1.475.684-3.683,2.599-3.742,3.314-.034.415-.287,1.191-.648,1.428-.8-.12-1.247.293-1.792.55l-3.291,1.548c-.611.288-1.614-.118-2.083.61l-.715-3.381-.024-2.411c.439.046.929-.441.899-.981-.057-1.031.462-1.709.823-2.5.355-.778.541-.902,1.412-1.122.923-.233,1.82-.989,2.879-1.186l2.411,2.476c1.153-.395,2.32-1.133,2.749-2.274.255-.678-.372-1.689-.355-2.281.397-.674.686-1.097.691-1.972l.01-1.882-3.457-.901c-.01-.393.259-.619.412-.758,6.524.296,12.891,2.334,18.467,5.697Z"/>
    <path class="cls-3" d="M161.81,83.196c-1.128.752-2.482,1.089-3.734,1.805-.499.285-1.239,1.036-1.661,1.403-.372.646-.346,1.534-1.042,2.073-.735.57-.645,1.497-.877,2.295-.138.474-.987,1.379-.565,1.937.961,1.269.91,2.703,1.038,4.139.151,1.684-.058,2.676-1.363,3.856-.525.475-.641,1.63-1.671,1.867-.93.214-1.087,1.242-1.298,2.058l-1.89,2.107c-.393.438-.114,1.099-.598,1.47-.57.437-1.177-.186-1.605-.162-1.544.451-2.812-.733-5.004-.51-.713.072-1.126.228-1.798.28l-3.637.281c-.937.072-1.626.365-2.622.083-.533-.151-1.113-.129-1.589-.567-.298-.274-.725-.394-1.05-.469l.063-1.435c.066-.092.144-.18.237-.216.718.041.637.575.8,1.193.233.881,1.615.751,2.314.515l1.404.235,2.664-1.011c.931.547,2.832.979,3.581.036.772-.973,1.035-2.579,2.876-2.306-.737.721-1.541,1.186-1.696,2.372.486-.03.668-.331.958-.542.394.205.713.253,1.012.126.214-.091.336-.547.567-.787.57-.594,1.386-1.004,2.026-1.528l1.449-1.187c1.275-.68,2.514-1.201,3.243-2.54,1.135-.859,1.126-2.471.14-3.351-2.221-.335-4.267.017-5.985,1.357-.378.295-.877.167-1.174.185l.008-.499c.073-.013.178-.122.237-.167.776-.136,1.048-1.157,2.71-1.369l1.109-1.267c.429-.491,1.221-.547,1.893-.762.22-1.18-.639-1.813-1.465-2.313-1.05-.636-1.713-.541-2.934-.369-.863.122-2.171-.41-2.96.383-.526.529-1.076.844-1.737,1.16l-1.304.623-1.93,1.147-2.684,2.13-1.722,1.612c-.695.65-1.627,2.159-3.295,3.012l-.453.849c-.154.288-.79.221-1.122.144l.017-.182.032-.544c1.14.146,1.508-1.114,2.166-1.856l1.821-2.054c1.64-1.849,3.046-1.889,3.937-3.026.952-1.214,2.834-1.646,3.927-2.685.95-.903,1.606-1.614,2.968-1.956.621-.156,1.164-.393,1.949-.456l2.597-.207c.873-.07,1.534-.888,2.558-.708.168-.627.223-1.281.616-1.605l1.271-.895c.616-.434,1.144-.967,1.818-1.361,1.251-.73,2.358-1.762,3.864-2.064.535-.107,1.082-.061,1.485-.482.279.204.916.255,1.109.702Z"/>
    <path class="cls-14" d="M165.932,95.184l-.268,2.882-2.029,7.048c-.149.519-.336,1.29-.291,1.81.276,3.178,2.651,6.486,2.638,10.791l-.004,1.461c-.009,3-.598,5.915-2.034,8.571-.455.841-1.201,1.446-1.864,1.984-.089-.54.262-1.307.756-1.615.856-.535.721-1.39,1.062-2.067.617-1.225.986-2.142.98-3.523-.006-1.643.349-4.069-.765-4.128-.192-.01-.588.209-.656.495-.248,1.05-.834,1.794-1.317,2.72-.625,1.198-1.017,2.535-1.97,3.56-.391.421-1.042.631-1.193,1.259-.316.15-.547.549-1.224.433-1.118-.192-2.264.264-3.339.118l-2.853-.387-.741.007c-.294-.357-.826-.526-1.215-.298l-.664-.013c.021-.172-.043-.343-.205-.405-.218-.084-.434.087-.568.194l-1.41-.231c.061-.224-.067-.402-.201-.432-.288-.065-.642-.002-.835,0h-.213s-1.672-.66-1.672-.66c-.542-.214-2.899-.358-3.726-1.154-.4-.385-1.002-.662-1.486-.622.006-.296-.217-.512-.511-.511-.311-.235-.727-.201-1.095-.109-.035-.241-.325-.327-.461-.45-.779-.706-1.699-1.418-2.751-1.591-.03-.075-.172-.182-.244-.206-.129-.7-1.086-.889-1.434-1.709,1.587.375,3.224,2.2,5.697,3.186.862.344,1.755.592,2.511,1.138.463.335.834.543,1.367.533l1.022-.02.72.027c-.143.212-.142.507.057.655.24.178.569.219.848.289l.454.364c.1.08.315.091.426-.121l.546.019c.127.164.319.177.503.218l.907.204c.651.737,1.739.392,2.637.526,1.178.176,2.079.359,3.252.08l2.684.51c.522.099.872-.405,1.481-.314,1.522.228,2.935-2.289,2.45-4.09,1.599-1.779.831-4.499,1.9-7.191-.112-.243-.333-.75-.23-.959.542-.856.56-1.686.682-2.711l.182-1.519c-.396-.466-.911-1.253-1.421-1.43-.727-.253-.898-.706-1.382-1.072-.66-.499-1.329-.861-1.735-1.646-.123-.237-.701-.43-.68-.66.023-.251.156-.558.307-.803l1.286-2.081c.597-.965,1.732-1.754,1.739-3.017.005-.971.236-1.643,1.243-1.984,1.926-1.34,1.185-3.139,1.595-4.345.215-.632.695-1.142.686-2.024,1.821.673.864,3.285,2.065,5.017ZM160.595,106.338c.724.543,1.235.244,1.633-.054.564-.422.039-1.023.166-1.446l.795-2.644c.427-1.419,1.256-2.662,1.178-4.253-.024-.489-.537-1.518-1.066-1.011l-1.701,1.629c.267,2.807-2.318,1.987-3.078,4.641-.111.389-.635,1.108-.008,1.578l2.08,1.559Z"/>
    <path class="cls-8" d="M159.698,81.973l-2.15.964c-1.421.231-2.437.718-3.7,1.381-.424.222-1.207.005-1.635.546-.43.544-1.254.669-1.849,1.028-.407.751-.83,1.995-1.807,2.255-1.647.438-3.343.638-4.72,1.751-1.176-.031-2.148.675-2.655,1.64-1.569,1.184-3.916,1.441-4.892,2.296-.468.41-.833.782-1.511.689-.885-.12-1.091.551-1.581,1.041l-2.382,2.382-1.053.902c-.303.259-.725.185-.997.186l-.686.003c-.012-.172-.01-.322-.089-.535,5.607-9.645,15.712-15.447,26.862-16.8,1.77-.215,3.332-.385,4.845.27Z"/>
    <path class="cls-6" d="M75.039,124.454c-.775-1.902-.981-4.041-.969-6.104.169.059.377.011.433-.105.043-.09.115-.387.079-.491-.238-.695.496-.917.711-1.162l1.907-2.172c.687-.782.857-1.401,1.994-1.717,1.06-.294,2.207-1.117,3.411-.96.345.045.729.249,1.03.1.206-.102.34-.621.561-.773.632-.433.732-.943,1.071-1.638.241-.495.821-1.485-.081-1.849-.711-.288-1.799-.247-2.62-.06-.248.056-.586.601-1.036.407-1.104-.476-2.341-.335-3.441-.66-.47-.139-.886-.701-1.396-.612l-.294-1.652,1.123.386,1.942.461c2.311.548,5.556-.799,8.219-1.143.947-1.076,2.77-1.679,3.958-.687.57.476-.306,1.255-.665,1.579l-2.381,2.147c-.623.562-1.001.612-1.29,1.478-.663,1.987-2.445,3.305-2.538,5.789-.018.464-.365,1.076.08,1.547.29.307.374.644.33,1.018-.077.658-2.035,1.55-4.028.772-1.283-.501-2.609.354-3.441,1.299-.355.403-1.16.547-1.188,1.221-.042,1.004-.178,1.937-1.108,2.522-.099.331-.143.796-.375,1.061Z"/>
    <path class="cls-10" d="M165.932,95.184c-1.2-1.732-.244-4.343-2.065-5.017.008.882-.472,1.392-.686,2.024-.41,1.206.332,3.005-1.595,4.345-1.008.341-1.238,1.013-1.243,1.984-.007,1.263-1.143,2.052-1.739,3.017l-1.286,2.081c-.151.245-.285.552-.307.803-.021.23.558.422.68.66.406.785,1.075,1.147,1.735,1.646.484.366.655.82,1.382,1.072.509.177,1.024.964,1.421,1.43l-.182,1.519c-.123,1.025-.14,1.856-.682,2.711-.102.209.118.716.23.959-1.068,2.693-.301,5.412-1.9,7.191.485,1.801-.928,4.318-2.45,4.09-.609-.091-.959.413-1.481.314l-2.684-.51c-1.172.279-2.074.096-3.252-.08-.898-.134-1.986.212-2.637-.526.4-.307.952-.254,1.436-.218.641.048,1.215-.094,1.952-.216l.958.212c1.083-.137,1.983-.181,3.088.022l1.192-1.92c.386-.622.437-1.165,1.057-1.655.651-.515,1.019-1.371,1.49-2.034,1.274-.201,1.769-1.32,1.825-2.56l.096-2.13c.023-.523-.178-.986.055-1.527.302-.702.329-1.425.303-2.096,1.159-.207.051-2.376-1.938-3.355l-2.246-1.106c-.632-.311-1.412-.667-1.506-1.44l.739-1.23c.28-.466.781-.764.683-1.473,1.085.058,1.076-.77,1.502-1.339.696-.929,1.529-1.682,1.284-3.031-.144-.794.644-1.228.758-1.906l.476-2.842c.055-.33.49-.58.659-.793l.231-1.908c.168-1.387.374-2.865,1.483-3.862.297-.267.913-.332.792-.918l.768,1.387c.974,2.703,1.477,5.458,1.604,8.227Z"/>
    <path class="cls-8" d="M82.796,81.562c-.153.139-.422.364-.412.758l3.457.901-.01,1.882c-.005.874-.295,1.298-.691,1.972-.018.592.609,1.604.355,2.281-.429,1.141-1.595,1.879-2.749,2.274l-2.411-2.476c-1.059.196-1.956.953-2.879,1.186-.871.22-1.057.343-1.412,1.122-.361.791-.88,1.469-.823,2.5.03.541-.46,1.027-.899.981-.058-5.779,2.218-13.664,8.475-13.381Z"/>
    <path class="cls-8" d="M126.139,97.327c-.253.052-.566.049-.759.138-.113.052-.655,1.728-.697,3.243l-.077,2.766c-.033,1.198-.119,1.926-1.303,2.379-.723.277-1.257.392-1.968-.162-2.223-1.734.525-3.805-1.722-6.953-.617-.865-2.196-1.465-3.22-.792-1.141.75-1.41,2.405-1.29,3.674.094.995-.225,1.605-.434,2.462-.237.973-.471,1.975-1.852,1.885-.299-1.585-.438-3.347-1.631-3.848.327-2.06,1.107-3.196.529-3.781.908.13,2.312-2.367,5.718-1.163,1.707.603,3.282.762,5.014.081l1.97-.392c.751-.15,1.238.235,1.723.462Z"/>
    <path class="cls-5" d="M108.798,94.052c1.059,1.084,2.086,2.369,2.695,3.745l-1.235.169c-1.783.223-2.153-3.894-5.354-2.449l-.3,1.22c-.787-.666-1.411-.022-2.039-.002-.999.032-2.07-.575-2.923-.95-.25-.11-.127-.532-.192-.666-.121-.249-.666-.062-.884-.16l-1.981-.883c-.587-.262-1.015-.381-1.513-.673-1.3-.062-2.574.186-3.74-.042-.367.054-.96.316-1.312.508-.213.116-.164.512-.085.651-.361.045-1.014.601-1.109,1.001-.257,1.087.238,2.169.77,3.054l1.094-.568c.12.542.48.876,1.042.859.982.34,1.911.474,2.992.347.317.699.937.897,1.658.701,1.764.563,3.161,1.592,4.742,2.503.361.208.899.204.993.657-1.66-.183-2.715-.874-4.228-.98-.451-.642-1.259-.563-1.815-.821-.904-.42-1.526-.683-2.622-.548l-1.135-.62c-1.462.47-2.421.396-3.601-.39-.411-.274-.902-.358-.772-1.178-.783-.31-1.547-1.225-1.276-2.047l.59-1.785c.636-.13.871-1.082,1.496-1.411,3.419-1.797,5.307-.635,7.928-.11.667.133,1.185-.04,1.456.822.695-.063,1.413-.389,2.104-.95.403,1.686,1.86.935,2.08,2.419.271.03.86-.18.898-.368l.452-2.229c1.177-.721,1.481.589,3.117-.044.607-.235,1.078,1.167,2.009,1.217Z"/>
    <path class="cls-6" d="M160.701,82.494c-.403.421-.95.375-1.485.482-1.505.302-2.613,1.333-3.864,2.064-.674.394-1.202.927-1.818,1.361l-1.271.895c-.393.324-.448.978-.616,1.605-1.024-.18-1.685.638-2.558.708l-2.597.207c-.786.063-1.328.3-1.949.456-1.362.342-2.018,1.053-2.968,1.956-1.093,1.039-2.975,1.471-3.927,2.685-.892,1.137-2.298,1.177-3.937,3.026l-1.821,2.054c-.658.742-1.026,2.002-2.166,1.856-.119-.085-.345-.188-.524-.203l-.355-1.69c-.064-.305-.098-.615-.078-.922.272-.001.694.073.997-.186l1.053-.902,2.382-2.382c.49-.49.696-1.161,1.581-1.041.678.092,1.043-.279,1.511-.689.976-.856,3.323-1.113,4.892-2.296.507-.966,1.479-1.672,2.655-1.64,1.377-1.114,3.072-1.313,4.72-1.751.976-.26,1.4-1.504,1.807-2.255.595-.358,1.419-.483,1.849-1.028.427-.541,1.211-.324,1.635-.546,1.264-.663,2.279-1.15,3.7-1.381l2.15-.964c.354.153.699.3,1.003.522Z"/>
    <path class="cls-8" d="M74.07,118.349c.03-5.129,2.972-9.744,2.626-11.693.51-.09.925.472,1.396.612,1.1.325,2.337.184,3.441.66.45.194.788-.351,1.036-.407.821-.187,1.909-.228,2.62.06.901.365.322,1.355.081,1.849-.339.695-.439,1.205-1.071,1.638-.222.152-.356.672-.561.773-.301.149-.685-.056-1.03-.1-1.204-.156-2.351.666-3.411.96-1.137.316-1.307.934-1.994,1.717l-1.907,2.172c-.216.246-.949.468-.711,1.162.036.104-.036.401-.079.491-.056.116-.264.164-.433.105Z"/>
    <path class="cls-13" d="M103.862,117.267c.161.758-1.345,1.402-2.547,2.061-1.194.655-2.255,1.254-3.553,1.738-.478.178-.816.841-1.542.859-.855.022-1.751.749-2.452,1.087-1.129-.361-2.084-.413-2.882.547-.241.29-1.251.068-1.543.298-.606.477-1.098.365-1.711.532l-5.229,1.426-2.064.578c-.883.014-2.921,1.104-3.607,1.906-.153-.178-.567-.348-.464-.741.083-.629.345-1.276.685-1.828l2.904-.794c.967-.264,1.946-.459,2.626-1.261,1.658.273,1.749-1.239,3.34-2.433,2.241.282,4.408-.561,6.929-.241,1.739.221,4.616-.87,6.613-1.685.758-.309,1.314-.38,1.936-1.033l1.843-.999c.33-.179.546-.216.718-.018Z"/>
    <path class="cls-6" d="M126.139,97.327c.353.165.683.15.992.506-.639.754-.881,1.721-1.162,2.711l-.498.721-.89,5.566c-.148.927-.995,1.936-2.025,1.708-1.093-.242-1.812-1.558-2.152-2.548l-.625-1.824-.438-2.708-1.234-2.38c-.241-.464-.763-.236-1.04-.186-1.303.236-1.11,3.697-1.916,6.011-.311.895-1.092,1.64-.548,2.723l-1.479,1.223c-.487.403-1.181-.214-1.46-.634l-.894-1.283-.06-.853.066-1.374.41-2.587c1.192.501,1.332,2.263,1.631,3.848,1.381.09,1.615-.912,1.852-1.885.209-.856.528-1.467.434-2.462-.12-1.269.15-2.924,1.29-3.674,1.024-.674,2.603-.073,3.22.792,2.247,3.147-.501,5.219,1.722,6.953.71.554,1.245.439,1.968.162,1.185-.454,1.27-1.182,1.303-2.379l.077-2.766c.042-1.515.584-3.191.697-3.243.194-.089.507-.086.759-.138Z"/>
    <path class="cls-7" d="M138.115,122.471c-.078.17-.043.424.125.495.121.051.279.025.386.016.484-.039,1.086.238,1.486.622.828.796,3.184.939,3.726,1.154l1.672.662c.087.375-.144.63-.605,1.022l6.492,2.431,1.636.493,3.285.614c.324.061.682-.067.847-.268.118-.144.16-.441.117-.657.632.204,1.314.463,1.788,1.222-1.967.807-4.092.02-5.378.6-4.35-.498-8.536-1.654-12.491-3.544l1.387,2.687,1.155,3.166c.264.724.707,1.308.538,2.107l-2.427-5.266-1.009-1.653-1.005-1.305-.301-.732,1.397.022c.183-.421.059-.718-.244-.926l-2.56-1.755c-.539-.369-1.023-.693-1.113-1.316.368-.092.784-.125,1.095.109ZM144.606,125.781l-.892-.367c-.511-.157-.487.69.093.418.22.331.759.428.799-.052Z"/>
    <path class="cls-7" d="M139.541,126.338l-.557-.005-2.984-1.957c-.195-.128-.41-.169-.569-.188-.02-.156-.126-.327-.196-.47.627-.062,1.113.335,1.662.715l2.644,1.905Z"/>
    <path class="cls-4" d="M110.845,111.965l.16.928c-.294.442-.474.774-1.17.875-.959.139-1.601,1.322-2.269,1.896l-3.757,3.223c-.65.558-1.106.599-1.81.956-.512.26-.885.956-1.554,1.247-1.326.578-2.524,1.125-3.895,1.636l-1.915.714c-.677.253-1.235.791-2.034.845-2.125.142-4.462,1.486-5.437,1.702l-2.749.612-3.464.83c-1.037.248-1.725.306-2.552,1.157-.221.227-.834.374-.746.91-.427-.328-.831-.689-.922-1.197.686-.802,2.724-1.893,3.607-1.906l2.064-.578,5.229-1.426c.613-.167,1.105-.056,1.711-.532.292-.23,1.302-.008,1.543-.298.798-.96,1.753-.908,2.882-.547.701-.337,1.598-1.065,2.452-1.087.726-.018,1.064-.681,1.542-.859,1.297-.484,2.359-1.083,3.553-1.738,1.203-.66,2.709-1.303,2.547-2.061.162.028.325-.104.42-.162l1.087-.657c.596-.36,1.059-.561,1.159-1.157.274-.128.42-.498.654-.683l1.183-.93c.885-.696,1.812-1.735,2.481-1.714Z"/>
    <path class="cls-10" d="M111.493,97.797c.074.167.09.409.222.542-.212-.023-.541-.122-.746.028-.148.108-.276.449-.316.844-.89-.349-1.364-.178-2.015.317-2.035,1.549-2.282,1.758-3.82.941-.935-.496-1.047-1.048-1.61-1.852-.586-.837-2.263-.75-3.117-1.131-1.668-.744-2.992-2.982-6.455-3.38-1.169-.134-2.61.277-3.701.414-.079-.139-.128-.535.085-.651.352-.192.945-.454,1.312-.508,1.166.227,2.44-.02,3.74.042.499.293.926.411,1.513.673l1.981.883c.218.097.763-.089.884.16.065.134-.058.556.192.666.853.375,1.924.982,2.923.95.628-.02,1.252-.664,2.039.002l.3-1.22c3.201-1.445,3.571,2.672,5.354,2.449l1.235-.169Z"/>
    <path class="cls-13" d="M106.242,91.295l2.201,2.152c.203.198.317.385.354.605-.93-.05-1.402-1.452-2.009-1.217-1.636.633-1.941-.677-3.117.044l-.452,2.229c-.038.188-.627.398-.898.368-.22-1.484-1.677-.733-2.08-2.419-.691.561-1.409.887-2.104.95-.271-.862-.79-.689-1.456-.822-2.622-.525-4.51-1.686-7.928.11-.625.329-.86,1.28-1.496,1.411.128-.388.31-.761.297-1.185.251-.68,1.239-.86,1.739-1.289.86-.738,1.422-.74,2.45-.812.448-.032.989-.671,1.717-.204.382.245,1.07.122,1.486-.129l.516.748c1.57-.421,2.132.297,3.989-1.266.314-.264.607-.87,1.147-.526.521.333.98.408,1.599.178.45-.168.853.457,1.14.6.678.339,1.177.502,1.656,1.099.476-.288.813-.476,1.251-.624Z"/>
    <path class="cls-14" d="M111.099,113.648l-1.219,1.258c-.793.835-1.71,1.433-2.549,2.287-.357.363-1.061.369-1.56.53-.534,1.222-1.539,1.678-2.531,2.326-1.015.662-1.988,1.166-3.047,1.743l-3.704,2.017c-.836.455-1.274.682-2.173.841-.513.091-1.255.615-1.851.707l-2.068.32c-1.769.274-3.348.992-5.016,1.41l-1.729.433c-.984.247-1.882.499-2.874.713l-.697.151c-.221.048-.404.528-.173.865l5.019-1.193c.43-.102.702-.02.924.24l-1.213.198c-.395.068-.701.357-1.011.487-.289.121-.754.041-1.041.233-.247.165-.51.547-.281.913.664,1.061,2.73.032,2.568,1.032-2.07.218-4.193-.172-6.241-.937-.476-.178-.701-.51-.978-.723-.089-.537.525-.683.746-.91.826-.851,1.515-.909,2.552-1.157l3.464-.83,2.749-.612c.974-.217,3.311-1.561,5.437-1.702.799-.053,1.356-.592,2.034-.845l1.915-.714c1.372-.512,2.569-1.058,3.895-1.636.669-.291,1.042-.987,1.554-1.247.704-.358,1.16-.398,1.81-.956l3.757-3.223c.668-.573,1.31-1.757,2.269-1.896.696-.101.876-.433,1.17-.875l.093.756Z"/>
    <path class="cls-15" d="M128.367,116.794c-.363,1.49-1.309,2.718-2.954,3.061-.52.109-1.294.271-1.862.228-1.336-.182-2.606-.904-4.103-.626-1.044.194-2.415.303-3.113.929l-.723-.513c-.823-.581-1.856-1.342-2.51-.923-.266-.277-.502-.348-.694-.728,3.112.247,4.086-2.091,6.499-2.177l1.112.846c.895.681,1.93,1.52,3.182,1.44,1.051-.067,2.1-1.142,2.471-1.96.164-.362.135-.382.501-.532,1.371-.561.982-2.398,1.683-2.431.535,1.019-.439,2.321.511,3.386Z"/>
    <path class="cls-4" d="M163.56,85.57c.12.586-.496.651-.792.918-1.109.997-1.315,2.475-1.483,3.862l-.231,1.908c-.169.213-.604.463-.659.793l-.476,2.842c-.114.678-.902,1.112-.758,1.906.245,1.349-.589,2.102-1.284,3.031-.426.57-.417,1.397-1.502,1.339.098.709-.402,1.007-.683,1.473l-.739,1.23c.094.774.874,1.129,1.506,1.44l2.246,1.106c1.989.98,3.097,3.149,1.938,3.355l-.953-1.7c-.136-.238-.251-.452-.398-.508-.518-.196-.999.502-1.363.313-.529-.275-.823-2.087-2.145-2.34-.924-.177-1.863-.486-2.125-1.45l1.055-.939c.323-.764.401-1.551.998-2.226.378-.428,1.554-.851,1.624-1.569.078-.804.362-1.34.557-2.159l1.065-4.469,1.088-2.526c.237-.551-.05-.9.01-1.379l.415-3.291,1.973-2.22c.203-.229-.232-.65-.466-.693.035-.044.065-.135.08-.209.717.548,1.084,1.405,1.502,2.159Z"/>
    <path class="cls-7" d="M110.818,118.199l-3.169,3.363c-.083.007-.221.084-.292.14l-.696.551c-.179.142-.404.243-.422.513-.38-.017-.613.275-.946.514-2.097,1.509-4.297,2.622-6.516,3.671.288.085.394.253.363.381-.561-.02-.962.326-1.473.542l-2.55,1.078-1.058.261c-3.073-.535-5.72,1.329-9.427.722-.577-.094-.935-.351-1.004-.954.31-.13.616-.419,1.011-.487.129.437.682.303,1.023.416,1.45.481,2.785.447,4.104-.363,2.886.095,4.906-1.195,6.99-2.014,2.114-.83,3.213-1.32,5.146-2.813.803-.62,1.914-.9,2.741-1.61,1.036-.89,2.057-1.713,3.165-2.558l1.644-1.254c.424-.324.88-.454,1.368-.099Z"/>
    <path class="cls-12" d="M162.08,129.73c-.746.606-1.691,1.028-2.653,1.131l.866-2.218c1.509-.345,2.684-1.657,2.511-3.239-.046-.423-.554-.499-.828-.481-.334.022-.521.25-.832.5-.657.53-1.51.696-2.167,1.008.151-.628.802-.838,1.193-1.259.953-1.025,1.345-2.363,1.97-3.56.483-.926,1.069-1.67,1.317-2.72.068-.286.464-.505.656-.495,1.114.058.759,2.485.765,4.128.005,1.381-.363,2.298-.98,3.523-.341.677-.206,1.532-1.062,2.067-.494.308-.845,1.075-.756,1.615Z"/>
    <path class="cls-15" d="M159.427,130.861l-1.97.211c-.636.068-1.392.078-2.025.005l-1.739-.199c1.285-.58,3.411.207,5.378-.6-.474-.759-1.156-1.018-1.788-1.222l-1.835-.592-3.899-.846.013-1.022,2.853.387c1.074.146,2.221-.31,3.339-.118.677.116.908-.283,1.224-.433.657-.313,1.51-.479,2.167-1.008.31-.25.498-.479.832-.5.274-.018.781.059.828.481.174,1.581-1.001,2.894-2.511,3.239l-.866,2.218Z"/>
    <path class="cls-15" d="M83.627,128.98c.069.603.428.859,1.004.954,3.707.607,6.354-1.257,9.427-.722-2.409,1.137-5.14,1.52-7.884,1.809l-1.302.137c.162-1-1.903.029-2.568-1.032-.23-.367.034-.749.281-.913.287-.192.752-.111,1.041-.233Z"/>
    <path class="cls-1" d="M106.239,122.766c-.013.198-.118.414-.376.618l-1.039.823c-.953.479-1.516,1.141-2.288,1.82l-1.285,1.131c-.759.668-1.887.83-2.772.866.082-.297.32-.548.661-.692.031-.128-.074-.295-.363-.381,2.219-1.049,4.419-2.162,6.516-3.671.333-.239.565-.531.946-.514Z"/>
    <path class="cls-5" d="M127.991,98.502c.078.212.076.363.089.535l-.258.01-.274-.324c-.02-.049-.034-.146-.035-.2l.479-.022Z"/>
    <path class="cls-11" d="M87.553,93.521c.013.424-.169.798-.297,1.185l-.59,1.785c-.272.822.493,1.737,1.276,2.047-.13.819.361.904.772,1.178,1.18.787,2.139.861,3.601.39l1.135.62c1.096-.134,1.718.128,2.622.548.557.259,1.364.179,1.815.821,1.513.106,2.568.797,4.228.98l.212.023c-.023.132-.013.371.18.468.118.059.291-.141.39-.203.348-.216.689.251.947.349-.049.224-.041.536.1.73.891.132,2.056.158,2.712.825.304.309-.185.612-.35.724-.303.207-.686-.273-.939-.325-2.094-.427-4.332.122-6.101,1.262l-4.767.694c-.957.139-1.01.395-1.587.959-.698.683-2.525,1.235-3.527,2.458-.795.97-2.657,1.156-1.507,4.782.948.886,3.351,1.184,4.415.664.384-.187.798-.197,1.142-.178.068.172.031.378-.078.464-.056.045-1.783.156-3.484,1.728l-1.837-1.045c-.544-.585-1.03-.836-1.759-1.198-.617-.881.424-1.868-.261-3.06l.988-1.439c.708-.505,1.065-1.227,1.679-1.715.669-.532,1.331-.709,1.341-1.795,1.891-.701,2.866-2.538,5.151-2.249.72.091,1.176-.202,1.795-.375l1.877-.525c.601-.168,1.357-.069,1.67-.837-.767-.6-1.714-.625-2.624-.997-.862-.353-1.696-1.227-2.698-1.103-.738.092-1.163-.237-1.725-.4-.421-.122-1.45.316-3.209-.221-.944-.288-2.3.041-3.124-.687-.262-.232-.292-.804-.912-.82-.39-.01-.772-.548-.595-1.012.23-.604-.145-1.332.051-1.856l1.291-3.444c.059-.158.518-.213.576-.203Z"/>
    <path class="cls-5" d="M110.71,106.081l.06.853-.21.333-2.924-.394c-.071-.112-.157-.23-.252-.288-.172-.105-.5-.023-.613.138-.416.597-.785.36-1.344.252-.681-.133-1.379.132-1.968-.572-.525.503-1.124.576-1.775.792-1.745.581-3.368,1.282-5.203,1.429-.655.973-1.739.774-2.685,1.035-1.351.372-2.541,1.254-3.585,2.124l-1.32,1.679c.199.953.904,2.092,1.997,2.019.697-.046,1.365-.375,1.989.306l1.637-.384c.188-.044.365-.103.409-.193.039-.079.006-.247-.043-.344l.555.016.166.446c-.701.278-1.187.611-.922.812-.391.148-.824.191-1.245.168-.345-.019-.759-.009-1.142.178-1.064.52-3.467.222-4.415-.664-1.15-3.626.712-3.813,1.507-4.782,1.002-1.223,2.829-1.776,3.527-2.458.576-.564.629-.819,1.587-.959l4.767-.694c1.769-1.141,4.006-1.689,6.101-1.262.253.052.636.532.939.325.164-.112.653-.415.35-.724-.655-.668-1.82-.693-2.712-.825-.142-.193-.149-.506-.1-.73.383.145.929.293,1.476.49l3.197,1.153c.784.283,1.378.766,2.193.726Z"/>
    <path class="cls-5" d="M127.801,100.046l.025,2.805c.002.168.113.252.269.248-.08.357.006.836-.021,1.19-.573-.198-.925,1.235-.532,2.181l.064.54c-.803.636-.822,2.982-1.072,3.528l-1.549,3.386c-.405.886-1.045,1.173-1.781,1.643-.53.339-1.004.888-1.661.67l-.278.047c.327-1.221-1.707-3.176-2.352-4.316l-1.041-1.838c-.129-.228-.251-.348-.513-.334-.672.036-.507,1.884-1.405,2.53-.449.323-.946.586-.974,1.228-.043.978-.502,1.52-1.217,2.013-.692.478-1.448.414-2.253.114l-.073-.565c.663-.126,1.373-.537,1.712-1.256.356-.754,1.161-1.157,1.459-1.892l1.037-2.56c.203-.502-.024-1.087.012-1.462.067-.691.718-1.06.981-1.6.314-.644,1.097-1.088,1.686-.777.14.647.398,1.622.308,2.267-.14,1,.188,1.378.625,2.123l.962,1.643,1.429,2.191c.19.291.135.764.546.855,1.106.246,2.08-1.178,2.726-2.721l.698-1.667c.341-.814.895-1.386.752-2.394-.158-1.112,1.004-1.757.024-1.838l.006-.406c1.396-1.211.574-3.647.944-5.561.153-.048.376-.029.454-.013Z"/>
    <path class="cls-11" d="M126.396,106.026c.98.081-.182.727-.024,1.838.143,1.008-.411,1.58-.752,2.394l-.698,1.667c-.646,1.542-1.621,2.967-2.726,2.721-.411-.091-.356-.564-.546-.855l-1.429-2.191-.962-1.643c-.437-.745-.765-1.123-.625-2.123.09-.645-.169-1.62-.308-2.267-.589-.311-1.373.133-1.686.777-.263.54-.914.91-.981,1.6-.036.376.191.961-.012,1.462l-1.037,2.56c-.297.734-1.103,1.138-1.459,1.892-.339.719-1.049,1.129-1.712,1.256l-.15-.285-.19-1.182-.093-.756c.571.07.623-.213,1.019-.692.888-1.072,2.491-1.92,2.892-3.358.163-.584.006-1.218.563-1.791,1.033-1.061.701-4.812,2.82-4.558.322.992.574,2.208.595,3.21.022,1.102.985,2.628,1.673,3.958.373.72.837,2.533,2.18,2.189,1.177-.45,2.293-2.235,2.612-3.46.253-.973.087-1.992,1.036-2.365Z"/>
    <path class="cls-6" d="M109.79,109.978c1.116,1.753-2.487,1.95-3.478,3.521-.395.627-.799,1.17-1.649,1.237-1.574,2.473-8.554,5.18-9.693,4.655l-1.695-.783c-.105-1.606,1.411-1.35,2.133-2.311,1.308-.183,2.679-.567,3.873-1.141.646-.311,1.446-.414,2.033-.954.167-.008.432-.083.585-.042.48.335.784-.157,1.237-.478.375-.266.989-.277.902-.861.116-.036.294-.169.441-.157.098.008.236.022.369-.037.125-.055.205-.27.177-.431l.471-.263c-.05.126.018.342.206.365,1.08-.32,2.017-.784,1.916-1.423.714-.356,1.35-.823,2.17-.898Z"/>
    <path class="cls-2" d="M110.589,108.184l-.014.427c-.487.793-1.277.989-2.189,1.26-1.31.39-2.505.804-3.775.926l-2.444.724c-.712.211-1.301.633-1.542,1.417.754.02,1.264-.024,1.799.106l-.077.585-.417.01-1.227.239-.954.028c-.072-.318-.339-.293-.604-.286-.308.008-.449.169-.327.503l-.491.006-.237-.241c.022-.177-.071-.374-.202-.433-.478-.214-2.124.936-3.377-1.102l5.294-1.965c.423-.157,4.772-.726,4.729-1.551.196-.006.525.033.707-.03.109.291.353.312.612.315.246.002.534.001.6-.308,1.521.243,2.693-.754,4.137-.631Z"/>
    <path class="cls-14" d="M110.561,107.266l.029.918c-1.444-.123-2.616.874-4.137.631-.355-.309-.846-.285-1.212-.007-.182.063-.511.024-.707.03-.007-.131.087-.312.133-.424l1.365-.433c.742-.235,1.281-.457,1.605-1.108l2.924.394Z"/>
    <path class="cls-1" d="M109.79,109.978c-.82.075-1.457.542-2.17.898l-2.122,1.059-.471.263-.487-.085c-.329-.404-.163-.933.072-1.315,1.27-.122,2.465-.536,3.775-.926.913-.272,1.703-.467,2.189-1.26-.007.216.064.746-.076.931-.134.177-.467.414-.709.436Z"/>
    <path class="cls-11" d="M127.548,98.724l.274.324-.021.998c-.078-.016-.301-.034-.454.013-.37,1.915.451,4.351-.944,5.561-.329-.454.021-.882.044-1.413l.153-3.508.428-1.221c.143-.409.157-.73.52-.754Z"/>
    <path class="cls-11" d="M99.281,115.156c-1.194.574-2.564.959-3.873,1.141-.189-.137-.462-.258-.727-.158-.265-.201.221-.534.922-.812.268-.106.709-.198.997-.144,1.181.221,2.381-.578,2.68-.027Z"/>
    <path class="cls-13" d="M110.845,111.965c-.669-.021-1.596,1.018-2.481,1.714l-1.183.93c-.266-1.734,1.887-1.59,2.954-3.021.184-.247.617-.17.646.002l.063.375Z"/>
    <path class="cls-13" d="M106.527,115.292c-.1.596-.563.797-1.159,1.157l-1.087.657c.046-.776,1.224-1.501,2.245-1.814Z"/>
    <path class="cls-5" d="M161.978,83.62c.233.043.669.464.466.693l-1.973,2.22-.415,3.291c-.06.479.227.828-.01,1.379l-1.088,2.526-1.065,4.469c-.195.818-.479,1.355-.557,2.159-.07.718-1.246,1.142-1.624,1.569-.597.674-.676,1.462-.998,2.226l-1.055.939c.262.964,1.201,1.274,2.125,1.45,1.322.253,1.617,2.065,2.145,2.34.365.189.845-.509,1.363-.313.147.056.262.27.398.508l.953,1.7c.025.671-.001,1.393-.303,2.096-.233.541-.032,1.005-.055,1.527l-.096,2.13c-.056,1.241-.551,2.36-1.825,2.56-.471.663-.839,1.52-1.49,2.034-.62.491-.671,1.033-1.057,1.655l-1.192,1.92c-1.104-.203-2.005-.159-3.088-.022l-.958-.212c-.738.122-1.312.264-1.952.216.042-.228-.063-.367-.191-.417-.172-.067-.535-.015-.73-.061l-2.934-.695c-.331-.078-.821.115-.886-.303.268-.335.83-.097,1.174-.136,1.217-.138,2.489.104,3.516.726.68.412,1.649-.164,2.29-.202.89-.053,1.25-.461,1.86-.771,1.26-.64,1.668-1.464,2.124-2.799l.778-2.278c.171-.5.734-.795,1.003-1.148,1.836-2.414-.013-4.708,1.575-5.411.252-.112.336-.557.204-.737-.233-.32-1.079.221-1.481-.155-.709-.663-.558-2.823-1.823-3.072-.74-.146-1.421-.115-1.999-.696-.349-.078-1.071.029-1.39-.261-1.029-.932,1.787-1.839,2.451-3.171.366-.734.363-1.703,1.074-2.3.183-.154.565-.253.611-.495.049-.257-.152-.575-.237-.848.012-.379.741-.444,1.007-.583.387-.946.371-2.121.539-3.107.084-.49.478-.911.268-1.46-.296-.774-.216-1.662.21-2.37.673-1.118-.09-1.987.488-4.118l.438-1.616c1.454-.685,2.084-1.901,3.416-2.581Z"/>
    <path class="cls-3" d="M130.852,114.33c.92.228,2.031.67,2.66,1.488,1.415,1.842,2.708,1.112,4.547,2.16,1.848,1.921,3.789.921,4.596,1.636.936.829,2.835.495,3.804.568,1.625.123,3.304.167,4.255-1.127,1.271-.425,2.162-1.45,2.459-2.775-1.301-3.239-3.573-2.089-5.978-1.761l-.685.094-.755-.002c-.752-.002-1.469-.138-2.294-.324l-1.284-.308.073-.404,2.034.222,1.955-.229c.803-.094,1.559-.282,2.46-.086l1.027-1.539-.782-1.215c-.27-1.087.939-1.213,1.466-1.562,1.246-.824,2.405-1.255,3.714-.216.301.239,1.012.456.926,1.092-.076.564-.319,1.247-.114,1.855.623,1.843-.297,2.881.158,3.942l-2.115,3.343c-.381.602-.946.934-1.215,1.68-.159.44-.962.456-1.356.543-.72.87-1.881.981-2.802.218-.258-.214-.731.357-.967.355l-3.166-.021c-.747-.005-.704-.156-1.295-.407l-4.335-1.844c-1.306-.555-1.977-1.513-3.412-1.823-.756-.163-.865-.484-1.341-.9-.869-.76-2.527-1.402-2.238-2.651Z"/>
    <path class="cls-6" d="M132.74,111.335c.703.394,1.141,1.256,1.849,1.743l2.408,1.659c.821.565,1.821.835,2.718,1.34.654.369,1.713.242,2.532.215-.758-1.936-3.236-2.136-3.712-3.527.299-.078.432-.01.558-.018.359.291.959.268,1.412.219l.311-.034c-.105.155-.109.428.06.442l.358.028c.277.022.71.138,1.017.172l-.073.404c-1.027.801,1.92,1.386,2.549,2.381l1.22,1.93c.224.354.177.939.428,1.097.375.235.819.399,1.278.236l2.671-.946c.825-.292,1.236-1.205,1.701-1.932-.228-.513-.465-1.141-.92-1.456-.578-.399-1.384.05-1.97-.032l-1.656-.23c-.268-.037-.345-.349-.283-.509,2.404-.329,4.676-1.478,5.978,1.761-.297,1.325-1.188,2.35-2.459,2.775-.952,1.295-2.63,1.25-4.255,1.127-.97-.073-2.869.261-3.804-.568-.807-.715-2.747.285-4.596-1.636-1.839-1.048-3.132-.318-4.547-2.16-.628-.818-1.739-1.261-2.66-1.488.132-.569-.006-1.203-.126-1.874.219-.263.446-.552.667-.681s.477-.194.51-.518c.272-.025.605-.053.837.077Z"/>
    <path class="cls-1" d="M135.518,102.271l1.183.162-.298.913-1.599.737-3.659,1.408c-.093.036-.171.124-.237.216-.35.065-.744.262-.854.523-.159.377-.095.855-.076,1.198.025.446.014,1.304.54,1.551l3.534,1.661c-.37.086-.582.184-.698.375l-.529-.037c-.189-.314-.697-.309-.934-.442-.37-.375-1.199-.772-1.742-.303s-.409,1.32-.458,1.962l-.233,3.1c-.127.215-.346.5-.21.825.081.194.229.364.47.402.006.059.039.127.062.174l-1.163.563c.488,1.075,1.331,1.747,2.043,2.486-.001.042-.027.09-.021.179-.455.186-.824-.032-1.442-.073.049,1.145.464,1.988.927,2.891-.036.101-.192.232-.246.253l-.585-.671c-1.781-2.01-3.502-1.111-3.881-2.47,1.645-.344,2.592-1.571,2.954-3.061.956-3.93,1.446-8.798.824-12.989-.048-.321.114-.561.257-.671.033.128.219.181.322.151l-.073.544c-.053.387.1.775.358.976.975.761,2.36-.441,3.646-1.309l1.816-1.224Z"/>
    <path class="cls-10" d="M135.913,109.142c1.274.424,3.449.247,3.827.362l2.228.68c.911.278,3.305.558,2.486,1.632-.234.307-.426.542-.333.907-.71-.069-1.457.101-2.254-.263-.205-.094-.488.006-.58.129-.051.068-.089.183-.1.291l-.37.053-.311.034c.225-.542-.756-.711-2.003-.694l-.462.013.013-.371c.654.176,1.63-.252,1.965-.905-.335-.766-1.366-.943-2.107-1.018l-2.189-.223-2.138-.356c-.163-.027-.349-.063-.532-.009-.519-.478-1.258-.748-1.948-.775l-.254-.52c-.016-.28.298-.381.473-.238,1.659,1.356,3.459.897,4.589,1.273Z"/>
    <path class="cls-5" d="M144.121,112.723c-.094-.365.098-.6.333-.907.82-1.074-1.575-1.354-2.486-1.632l-2.228-.68c-.378-.115-2.553.062-3.827-.362,1.127-.845,2.442-.328,3.677-.253,1.066.065,1.857-.093,2.957.326.624.238,1.369.053,2.022.657.277.257,1.267.191,1.465.586l1.104,2.197-1.539.128c-.604.05-1.008-.015-1.479-.06Z"/>
    <path class="cls-3" d="M133.354,111.016c-.014.044-.011.323.074.337.115.019.407-.015.524-.079.018.308.285.476.566.479.064.12.186.285.197.409.041.457.341.736.823.917l3.04,1.142c.083-.84-1.06-1.118-.902-1.591.045-.135.185-.265.363-.345l.462-.013.59.474c-.126.009-.26-.06-.558.018.476,1.392,2.954,1.592,3.712,3.527-.818.027-1.878.154-2.532-.215-.897-.506-1.897-.775-2.718-1.34l-2.408-1.659c-.707-.487-1.145-1.35-1.849-1.743l.084-.356.529.037Z"/>
    <path class="cls-14" d="M131.891,110.537c-.291.196-.802.32-1.088.606-1.161,1.676-.638,4.738.547,5.92.247.247.445.901.506,1.279l-.224.031c-.547-.623-1.102-1.301-1.852-1.675-.023-.047-.056-.115-.062-.174.029-.405.077-.926-.26-1.227l.233-3.1c.048-.642-.086-1.492.458-1.962s1.372-.073,1.742.303Z"/>
    <path class="cls-4" d="M138.593,121.084c.154.392.605.401,1.01.648l1.352.825c.212.13.477.081.623.215.109.1.148.317.128.49-.532.01-.903-.198-1.367-.533-.756-.547-1.65-.795-2.511-1.138-2.473-.987-4.11-2.811-5.697-3.186l-.274-.065c-.061-.378-.259-1.032-.506-1.279,1.035.136,1.662,1.622,3.243,1.746l3.098,1.981c.278.178.661.32.902.295Z"/>
    <path class="cls-7" d="M130.69,107.429c-.126.232.051.453.161.679l.254.52c.299.613,1.272.973,1.948.775.183-.054.369-.018.532.009-.026.949,2.148.319,2.957,1.937l-1.786-.107c-.096-.093-.256-.221-.375-.215-.207.009-.321.188-.428.247-.117.064-.41.098-.524.079-.085-.014-.088-.293-.074-.337.116-.191.328-.289.698-.375l-3.534-1.661c-.526-.247-.515-1.105-.54-1.551.204.191.492.181.712,0Z"/>
    <path class="cls-4" d="M143.886,123.206c.065.418.555.224.886.303l2.934.695c.194.046.558-.007.73.061.127.05.233.189.191.417-.484-.036-1.036-.089-1.436.218l-.907-.204c.034-.141.028-.402-.158-.494-.126-.062-.353.132-.345.276l-.546-.019c.011-.249-.097-.404-.315-.421-.216-.017-.477-.027-.565.179-.28-.07-.609-.112-.848-.289-.199-.148-.201-.443-.057-.655l.438-.065Z"/>
    <path class="cls-5" d="M142.728,123.243l-1.022.02c.02-.173-.02-.39-.128-.49-.146-.134-.41-.085-.623-.215l-1.352-.825c-.405-.247-.856-.256-1.01-.648.672-.069,1.177.195,1.841.518l2.107,1.028c.206.101.206.481.187.613Z"/>
    <path class="cls-10" d="M130.845,107.142l-.155.287c-.22.181-.509.191-.712,0-.019-.343-.083-.821.076-1.198.11-.261.504-.458.854-.523l-.063,1.435Z"/>
    <path class="cls-3" d="M131.903,111.258c-.033.323-.288.388-.51.518-.062-.193-.001-.419.141-.491.112-.058.272-.049.369-.026Z"/>
    <path class="cls-3" d="M141.186,112.88l.048.523-.358-.028c-.169-.013-.165-.286-.06-.442l.37-.053Z"/>
    <path class="cls-6" d="M131.145,105.491l3.659-1.408,1.599-.737,1.426-.699c.349,0,.66-.101.974-.213.194-.069.556-.05.768.051,1.314-.233,2.326-1.245,3.416-2.165.468-.395,1.083-.642,1.09-1.271l1.246-.79c.297-.018.796.11,1.174-.185,1.718-1.34,3.764-1.692,5.985-1.357.985.88.995,2.491-.14,3.351-.729,1.339-1.968,1.86-3.243,2.54l-1.449,1.187c-.639.524-1.456.934-2.026,1.528-.231.24-.352.695-.567.787-.299.127-.618.079-1.012-.126-.29.211-.472.512-.958.542.156-1.186.959-1.65,1.696-2.372-1.841-.273-2.104,1.333-2.876,2.306-.748.944-2.65.512-3.581-.036l-2.664,1.011-1.404-.235c-.699.235-2.081.365-2.314-.515-.164-.617-.082-1.152-.8-1.193Z"/>
    <path class="cls-13" d="M145.569,97.593c.077-.944.907-1.495,1.907-1.708l1.443-1.464c-.345-1.106-1.14-1.392-2.173-1.384-2.029.015-4.135-.011-4.904,1.337l-1.193.239c-.726,1.011-1.712,1.638-2.936,1.878-.161.211-.178.634-.186.81-.385.112-1.226.086-1.516.576-.815,1.38-1.99,2.289-3.098,3.398l-1.557,1.559c-.374.374-.762.606-1.252.351-.111-.141-.262-.255-.437-.336l.005-.274c.333.078.968.144,1.122-.144l.453-.849c1.669-.853,2.6-2.362,3.295-3.012l1.722-1.612,2.684-2.13,1.93-1.147,1.304-.623c.661-.316,1.211-.631,1.737-1.16.79-.793,2.097-.261,2.96-.383,1.22-.172,1.884-.268,2.934.369.826.5,1.685,1.133,1.465,2.313-.673.215-1.464.271-1.893.762l-1.109,1.267c-1.662.212-1.934,1.233-2.71,1.369Z"/>
    <path class="cls-4" d="M145.569,97.593c-.06.045-.164.154-.237.167-.716.123-1.128.789-1.627,1.196l-4.132,3.529c-.213-.101-.575-.12-.768-.051l.005-.571.997-.663c.346-.23.77-.378.917-.824.316.092.525-.07.794-.325l2.113-2.009,1.84-1.755c.583-.556,1.333-1.177,1.542-1.956-.624-.612-1.458-.066-1.902-.174-.743-.181-1.229.09-1.712.11-.97.04-1.2.09-1.882.871-.28.321-2.927,1.265-2.899,1.963-.382-.067-.733.093-1.089.198.008-.175.025-.598.186-.81,1.225-.24,2.21-.867,2.936-1.878l1.193-.239c.769-1.349,2.875-1.322,4.904-1.337,1.033-.008,1.828.278,2.173,1.384l-1.443,1.464c-1,.213-1.83.764-1.907,1.708Z"/>
    <path class="cls-13" d="M145.331,97.76l-.008.499-1.246.79-.374-.094c.499-.406.911-1.073,1.627-1.196Z"/>
    <path class="cls-12" d="M160.595,106.338l-2.08-1.559c-.627-.47-.103-1.189.008-1.578.759-2.654,3.345-1.834,3.078-4.641l1.701-1.629c.529-.507,1.042.521,1.066,1.011.078,1.59-.752,2.834-1.178,4.253l-.795,2.644c-.127.423.397,1.024-.166,1.446-.398.298-.909.597-1.633.054Z"/>
    <path class="cls-16" d="M133.565,120.114c.072.025.214.131.244.206.186.487.839.748,1.302,1.114.482.38.881.709,1.449.477.136.123.427.21.461.45.09.623.574.947,1.113,1.316l2.56,1.755c.304.208.428.505.244.926l-1.397-.022-2.644-1.905c-.549-.379-1.034-.777-1.662-.715-.16.016-.344-.072-.439-.201.138.034.283-.131.219-.271-.981-.767-2.101-1.411-2.646-2.43-.224-.418-.518-.832-.565-1.459.795.085,1.232.588,1.761.757Z"/>
    <path class="cls-16" d="M139.541,126.338l.301.732c-.48.064-.823-.282-.858-.737l.557.005Z"/>
    <path class="cls-9" d="M146.018,125.637c-.085.158-.097.393-.002.519.084.111.245.178.424.22l1.743.411,3.366.832,3.899.846,1.835.592c.043.216.002.513-.117.657-.165.2-.523.328-.847.268l-3.285-.614-1.636-.493-6.492-2.431c.461-.392.692-.647.605-1.022h.213s.294.217.294.217Z"/>
    <path class="cls-7" d="M146.76,125.851l1.41.231c.107.332.498.206.773.211l.664.013c.265.391.855.619,1.215.298l.741-.007-.013,1.022-3.366-.832-1.743-.411c-.179-.042-.341-.109-.424-.22-.095-.126-.083-.361.002-.519.221.136.479.171.742.214Z"/>
    <path class="cls-15" d="M131.633,118.371l.224-.031.274.065c.348.82,1.305,1.009,1.434,1.709-.529-.169-.965-.671-1.761-.757.047.627.341,1.041.565,1.459l-.621-.049c-.25-.346-.641-1.035-1.109-.843-.006-.089.02-.137.021-.179l.042-1.255.93-.119Z"/>
    <path class="cls-15" d="M136.559,121.912c-.568.232-.967-.097-1.449-.477-.464-.366-1.116-.627-1.302-1.114,1.052.173,1.972.885,2.751,1.591Z"/>
    <path class="cls-10" d="M145.234,124.457c-.111.213-.326.201-.426.121l-.454-.364c.088-.205.349-.196.565-.179.218.017.327.172.315.421Z"/>
    <path class="cls-15" d="M150.821,126.603c-.361.321-.95.093-1.215-.298.389-.228.922-.059,1.215.298Z"/>
    <path class="cls-15" d="M146.76,125.851c-.262-.043-.521-.078-.742-.214l-.294-.218c.193-.001.547-.064.835,0,.134.03.262.208.201.432Z"/>
    <path class="cls-15" d="M148.942,126.293c-.274-.005-.666.121-.773-.211.134-.108.35-.278.568-.194.162.062.225.234.205.405Z"/>
    <path class="cls-15" d="M138.627,122.982c-.107.009-.265.035-.386-.016-.168-.071-.203-.325-.125-.495.294-.001.517.215.511.511Z"/>
    <path class="cls-10" d="M146.283,124.695c-.185-.042-.377-.055-.503-.218-.008-.144.219-.338.345-.276.186.092.192.353.158.494Z"/>
    <path class="cls-10" d="M128.766,99.034c-.02.306.014.617.078.922-.584.17-.238.868-.313,1.202l-.435,1.941c-.156.004-.267-.08-.269-.248l-.025-2.805.021-.998.258-.01.686-.003Z"/>
    <path class="cls-14" d="M111.715,98.339c.579.585-.202,1.721-.529,3.781l-.41,2.587c-.785.125-1.489-.181-2.363-.236-.918-1.052-2.183-1.616-3.272-2.461l-2.298-1.783c-.41-.318-1.111-.602-1.341-.968-.073-.116-.072-.363-.247-.427-.128-.047-.237-.053-.351-.059l-.49-.023.083-.319-2.884-1.819-2.168-.956c-1.248-.551-2.648-.996-3.843-.166-.528.367-.174,1.741.47,1.816.692.08,1.196.068,1.385.872l3.614.887,2.038.904c.359.435,1.074.914,1.756,1.041l.622.77c.772.241,1.237.668,1.511,1.291l-.67.027-.212-.023c-.093-.453-.631-.449-.993-.657-1.58-.911-2.978-1.94-4.742-2.503-.721.196-1.341-.002-1.658-.701-1.081.127-2.01-.008-2.992-.347-.561.017-.922-.317-1.042-.859l-1.094.568c-.531-.886-1.027-1.967-.77-3.054.095-.4.747-.956,1.109-1.001,1.091-.137,2.532-.549,3.701-.414,3.463.398,4.788,2.636,6.455,3.38.854.381,2.531.295,3.117,1.131.562.804.675,1.355,1.61,1.852,1.538.817,1.785.609,3.82-.941.651-.495,1.125-.666,2.015-.317.04-.394.168-.735.316-.844.204-.15.534-.051.746-.028Z"/>
    <path class="cls-2" d="M129.199,101.646c.067.319.144.622.492.746l-.017.182-.005.274c-.055.09-.136.22-.221.285-.143.11-.305.35-.257.671.622,4.191.132,9.059-.824,12.989-.95-1.065.024-2.368-.511-3.386l.888-4.801-.033-.563c-.009-.151-.261-.251-.498-.16l.475-4.282c.095-.856.414-1.718-.158-2.444.075-.334-.271-1.032.313-1.202l.355,1.69Z"/>
    <path class="cls-13" d="M129.723,101.848l-.032.544c-.348-.125-.425-.427-.492-.746.179.015.405.118.524.203Z"/>
    <path class="cls-2" d="M100.413,98.75l.49.023c-.036.177.048.389.187.449.134.057.278.054.412.037.23.366.931.65,1.341.968l2.298,1.783c1.089.845,2.355,1.409,3.272,2.461.874.055,1.577.362,2.363.236l-.066,1.374c-.815.04-1.409-.443-2.193-.726l-3.197-1.153c-.547-.197-1.093-.345-1.476-.49-.258-.098-.599-.565-.947-.349l.1-.292c-.274-.622-.739-1.049-1.511-1.291l-.622-.77c-.682-.127-1.397-.607-1.756-1.041-.106-.129-.077-.513-.425-.61-.429-.12-.727-.313-.933-.635-.166-.258-.349-.846.108-1.064.913.261,1.357,1.035,2.555,1.091Z"/>
    <path class="cls-9" d="M144.606,125.781c-.04.479-.58.383-.799.052-.58.272-.604-.575-.093-.418l.892.367Z"/>
    <path class="cls-15" d="M111.289,114.83c-.612-.029-.607,1.255-1.79,2.603l-3.568,2.909c-4.675,3.431-9.96,5.787-15.543,6.982-.066-.227-.389-.35-.711-.283l-3.615.749c-.255.053-.572-.004-.731-.125-.167-.128-.112-.42.049-.578,1.669-.418,3.248-1.136,5.016-1.41l2.068-.32c.596-.092,1.338-.617,1.851-.707.899-.159,1.337-.385,2.173-.841l3.704-2.017c1.059-.577,2.032-1.081,3.047-1.743.992-.647,1.997-1.104,2.531-2.326.499-.161,1.204-.167,1.56-.53.839-.853,1.756-1.452,2.549-2.287l1.219-1.258.19,1.182Z"/>
    <path class="cls-9" d="M110.818,118.199c-.488-.355-.943-.225-1.368.099l-1.644,1.254c-1.108.845-2.129,1.668-3.165,2.558-.827.71-1.938.99-2.741,1.61-1.932,1.494-3.031,1.983-5.146,2.813-2.083.818-4.104,2.108-6.99,2.014-1.319.809-2.654.843-4.104.363-.342-.113-.895.021-1.023-.416l1.213-.198,4.536-.971c5.582-1.195,10.867-3.551,15.543-6.982l3.568-2.909c.879.05,1.418-.519,1.654.149.122.345-.161.434-.335.617Z"/>
    <path class="cls-12" d="M90.388,127.324l-4.536.971c-.222-.259-.494-.342-.924-.24l-5.019,1.193c-.231-.337-.048-.817.173-.865l.697-.151c.992-.214,1.89-.466,2.874-.713l1.729-.433c-.162.158-.216.451-.049.578.159.121.476.178.731.125l3.615-.749c.322-.067.645.056.711.283Z"/>
    <path class="cls-14" d="M128.213,107.883c-.179,1.615-.304,3.354-1.05,4.942-.233.495-.851.661-.673,1.547.086.428-.319,1.092-.317,1.467-.366.15-.337.17-.501.532-.356-.139-.731.011-1.015.361-.806.996-2.491,1.267-3.057.231-1.132-.273-1.983-1.002-2.545-2.09-.528.07-1.258.01-1.714.364l-1.437,1.118c-.669.52-.981.921-1.84,1.1-.74.154-1.399.29-2.107-.001l-.255-.702,1.673.237c.885.138,1.322-1.041,1.885-1.408.748-.487.72-.843.929-1.621.246-.918,1.557-.538,2.163-.297,2.041.812,2.022,2.771,2.914,2.62l.278-.047c-.044,1.433,3.174-.187,4.048-1.923l1.663-3.301.332-1.849c.127-.709.094-1.523.019-2.154l-.064-.54c.205-.049.381-.215.404-.514l.128-1.666c.027-.354-.059-.833.021-1.19l.435-1.941c.571.725.253,1.588.158,2.444l-.475,4.282Z"/>
    <path class="cls-12" d="M125.673,116.371c-.371.818-1.42,1.893-2.471,1.96-1.252.08-2.288-.76-3.182-1.44l-1.112-.846c-2.413.086-3.387,2.424-6.499,2.177-.119-.236-.333-.443-.45-.767.708.292,1.368.155,2.107.001.858-.179,1.171-.58,1.84-1.1l1.437-1.118c.456-.354,1.186-.294,1.714-.364.562,1.088,1.413,1.817,2.545,2.09.566,1.036,2.251.765,3.057-.231.283-.35.658-.5,1.015-.361Z"/>
    <path class="cls-12" d="M127.856,113.407c-.701.033-.312,1.87-1.683,2.431-.001-.375.403-1.039.317-1.467-.178-.886.44-1.052.673-1.547.746-1.587.871-3.327,1.05-4.942.236-.091.489.009.498.16l.033.563-.888,4.801Z"/>
    <path class="cls-1" d="M106.662,122.254l.696-.551c.037.175-.029.375-.175.466-.153.095-.344.115-.521.086Z"/>
    <path class="cls-5" d="M102.997,103.071l-.1.292c-.099.061-.271.262-.39.203-.193-.096-.203-.336-.18-.468l.67-.027Z"/>
    <path class="cls-10" d="M107.637,106.872c-.324.651-.864.873-1.605,1.108l-1.365.433-.598-.039c-.517-.531-2.215-.193-2.612.488l-.719.008c-2.494.029-4.995,1.14-7.457,2.005-.801.282-1.333,1.459-2.241,1.714-.424.119-.676.349-.669.696.006.275.256.58.606.734l1.65.725c.715.314,1.577.101,2.256.121.048.097.081.265.043.344-.045.09-.222.149-.409.193l-1.637.384c-.623-.681-1.292-.352-1.989-.306-1.094.072-1.798-1.066-1.997-2.019l1.32-1.679c1.044-.87,2.234-1.752,3.585-2.124.946-.26,2.03-.061,2.685-1.035,1.835-.147,3.458-.848,5.203-1.429.651-.217,1.25-.29,1.775-.792.589.704,1.287.439,1.968.572.559.109.927.345,1.344-.252.112-.161.441-.243.613-.138.096.058.182.176.252.288Z"/>
    <path class="cls-14" d="M100.737,108.871c.047.135-.048.391-.299.452l-1.905.462c-2.657.645-4.402.822-6.603,3.415l1.494.763c.736.376,1.543.01,2.256.034.887.029,1.647.235,2.41-.108l.237.241c-.066.427-.665.504-.768.413-.082-.073-.253-.256-.34-.191-.155.116-.154.417-.115.505l-.471-.121c-.158-.188-.39-.29-.581-.269-.307.034-.49.206-.614.414l-.555-.016c-.679-.019-1.541.194-2.256-.121l-1.65-.725c-.35-.154-.6-.458-.606-.734-.008-.347.245-.577.669-.696.908-.256,1.441-1.433,2.241-1.714,2.462-.866,4.963-1.976,7.457-2.005Z"/>
    <path class="cls-10" d="M96.632,114.736l-.031.448c-.288-.054-.729.038-.997.144l-.166-.446c.124-.208.307-.381.614-.414.191-.021.423.081.581.269Z"/>
    <path class="cls-10" d="M121.266,116.283c-.892.151-.873-1.808-2.914-2.62-.605-.241-1.917-.62-2.163.297-.208.778-.181,1.134-.929,1.621-.563.367-.999,1.545-1.885,1.408l-1.673-.237-.191-1.073c.805.3,1.561.364,2.253-.114.715-.494,1.173-1.035,1.217-2.013.028-.642.525-.905.974-1.228.898-.646.733-2.493,1.405-2.53.261-.014.383.106.513.334l1.041,1.838c.646,1.14,2.679,3.095,2.352,4.316Z"/>
    <path class="cls-10" d="M121.544,116.236c.657.218,1.131-.331,1.661-.67.735-.47,1.376-.757,1.781-1.643l1.549-3.386c.25-.546.269-2.892,1.072-3.528.075.631.108,1.445-.019,2.154l-.332,1.849-1.663,3.301c-.874,1.736-4.092,3.356-4.048,1.923Z"/>
    <path class="cls-10" d="M128.075,104.289l-.128,1.666c-.023.3-.199.466-.404.514-.393-.946-.041-2.379.532-2.181Z"/>
    <path class="cls-9" d="M104.611,110.797c-.235.382-.401.911-.072,1.315l-.059.553c-.148-.013-.326.121-.441.157-.374.014-.855.089-1.137.347l-.478-.123c-.535-.13-1.045-.086-1.799-.106.242-.785.83-1.206,1.542-1.417l2.444-.724Z"/>
    <path class="cls-5" d="M100.702,113.879c.109.211.38.334.612.323-.587.54-1.387.643-2.033.954-.299-.551-1.5.249-2.68.027l.031-.448.471.121.352-.007c.154-.003.228-.16.104-.308.103.092.701.014.768-.413l.491-.006c.355-.004.644-.027.931-.216l.954-.028Z"/>
    <path class="cls-3" d="M107.62,110.876c.1.639-.837,1.103-1.916,1.423-.188-.023-.256-.239-.206-.365l2.122-1.059Z"/>
    <path class="cls-3" d="M104.038,112.821c.087.584-.527.596-.902.861-.452.32-.756.813-1.237.478l.03-.52.417-.01c.102-.002.218-.012.361-.07.125-.051.158-.274.195-.393.282-.258.763-.332,1.137-.347Z"/>
    <path class="cls-10" d="M101.929,113.64l-.03.52c-.154-.041-.418.034-.585.042-.232.011-.503-.113-.612-.323l1.227-.239Z"/>
    <path class="cls-3" d="M105.026,112.197c.027.161-.053.376-.177.431-.132.058-.271.045-.369.037l.059-.553.487.085Z"/>
    <path class="cls-16" d="M104.666,108.414c-.046.113-.139.293-.133.424.043.825-4.306,1.394-4.729,1.551l-5.294,1.965c1.253,2.038,2.899.887,3.377,1.102.131.059.224.256.202.433-.763.343-1.524.137-2.41.108-.713-.023-1.519.342-2.256-.034l-1.494-.763c2.201-2.593,3.946-2.77,6.603-3.415l1.905-.462c.251-.061.346-.318.299-.452l.719-.008c.355.489.84-.097,1.21-.145.575-.075,1.084.186,1.401-.343l.598.039Z"/>
    <path class="cls-16" d="M106.452,108.815c-.066.309-.354.31-.6.308-.259-.003-.503-.024-.612-.315.366-.278.857-.302,1.212.007Z"/>
    <path class="cls-14" d="M99.748,113.907c-.288.189-.576.212-.931.216-.122-.334.019-.494.327-.503.266-.007.532-.031.604.286Z"/>
    <path class="cls-10" d="M102.901,113.168c-.036.119-.07.342-.195.393-.143.058-.259.067-.361.07l.077-.585.478.123Z"/>
    <path class="cls-7" d="M131.748,120.768l.621.049c.545,1.019,1.665,1.663,2.646,2.43.064.139-.081.305-.219.271l-.273-.027c-.235-.461-.735-.708-1.264-.732-.005-.445-.513-.415-.688-.57-.295-.435-.864-.912-1.562-.79-.039.482-.1.833-.366,1.138-.534-.333-.728-1.254-.178-1.923l1.282.154Z"/>
    <path class="cls-8" d="M145.756,114.61c-.049.171.009.414.145.468.194.079.505.015.582-.107.049-.076.037-.277.028-.359l.685-.094c-.061.16.016.472.283.509l1.656.23c.586.082,1.392-.367,1.97.032.455.315.692.943.92,1.456-.465.727-.876,1.64-1.701,1.932l-2.671.946c-.459.162-.903-.001-1.278-.236-.251-.158-.204-.743-.428-1.097l-1.22-1.93c-.629-.995-3.576-1.58-2.549-2.381l1.284.308c.825.187,1.542.323,2.294.324Z"/>
    <path class="cls-6" d="M146.511,114.612c.009.083.021.283-.028.359-.078.122-.388.186-.582.107-.135-.055-.194-.297-.145-.468l.755.002Z"/>
    <path class="cls-13" d="M140.505,112.966c-.453.049-1.054.072-1.412-.219l-.59-.474c1.247-.017,2.227.151,2.003.694Z"/>
    <path class="cls-2" d="M140.722,100.377c-.147.446-.571.593-.917.824-.133-.421.168-.891.515-1.241-.407-.59-.978-.071-1.335.127l-2.191,1.213c-.552.306-.857.689-1.276.971l-1.816,1.224c-1.287.868-2.671,2.07-3.646,1.309-.258-.202-.411-.59-.358-.976l.258-.038c.021.266.224.448.405.494.762.191,2.14-.509,2.237-1.471l-.008-.156c.517.034.806-.374,1.262-.702l1.793-1.29c.886-1.183,2.053-1.79,3.152-2.614,1.032-.774,1.677-1.701,3.042-2.084.591-.166,1.675-.735,2.166-.013.453.666-.324,1.175-.692,1.543l-2.055,2.054c-.276.276-.445.552-.536.827Z"/>
    <path class="cls-10" d="M138.617,97.102c.029.722-2.629.993-4.037,3.677-.984.29-1.698,1.004-1.991,1.877l.008.156c-1.096.592-1.407.788-2.642.977l-.258.038.073-.544.336-.1c.489.255.878.023,1.252-.351l1.557-1.559c1.107-1.109,2.282-2.018,3.098-3.398.29-.49,1.131-.464,1.516-.576.356-.104.708-.265,1.089-.198Z"/>
    <path class="cls-7" d="M139.805,101.201l-.997.663c-.155.103-.503-.026-.708.153-.175.153-.236.423-.271.631l-1.426.699.298-.913-1.183-.162c.419-.282.724-.665,1.276-.971l2.191-1.213c.357-.198.928-.716,1.335-.127-.347.35-.648.82-.515,1.241Z"/>
    <path class="cls-9" d="M131.633,118.371l-.93.119-.042,1.255c-.712-.739-1.555-1.411-2.043-2.486l1.163-.563c.749.374,1.305,1.052,1.852,1.675Z"/>
    <path class="cls-9" d="M129.719,116.522c-.241-.037-.389-.207-.47-.402-.136-.324.082-.61.21-.825.337.301.289.821.26,1.227Z"/>
    <path class="cls-3" d="M130.106,103.184l-.336.1c-.102.03-.289-.023-.322-.151.085-.065.165-.195.221-.285.175.081.326.195.437.336Z"/>
    <path class="cls-16" d="M138.053,111.914c-.502-.135-1.124-.257-1.624-.162-.023-.098-.083-.285.113-.403-.808-1.619-2.983-.988-2.957-1.937l2.138.356,2.189.223c.74.076,1.772.253,2.107,1.018-.335.653-1.31,1.081-1.965.905Z"/>
    <path class="cls-13" d="M138.053,111.914l-.013.371c-.178.081-.318.21-.363.345-.158.473.985.751.902,1.591l-3.04-1.142c-.483-.181-.783-.461-.823-.917.321.091.647.245,1.021.193.262-.037.487-.47.692-.602.501-.095,1.123.027,1.624.162Z"/>
    <path class="cls-16" d="M133.053,109.402c-.676.198-1.649-.162-1.948-.775.69.027,1.429.297,1.948.775Z"/>
    <path class="cls-10" d="M136.542,111.349c-.196.118-.136.305-.113.403-.205.133-.43.565-.692.602-.374.053-.7-.101-1.021-.193-.011-.125-.134-.289-.197-.409.166-.112.235-.307.237-.51l1.786.107Z"/>
    <path class="cls-16" d="M134.755,111.242c-.002.204-.071.398-.237.51-.282-.002-.548-.17-.566-.479.107-.058.22-.237.428-.247.119-.005.279.122.375.215Z"/>
    <path class="cls-3" d="M143.704,98.956l.374.094c-.007.629-.622.876-1.09,1.271-1.091.92-2.102,1.932-3.416,2.165l4.132-3.529Z"/>
    <path class="cls-14" d="M138.809,101.864l-.005.571c-.314.112-.625.212-.974.213.035-.208.096-.477.271-.631.205-.179.553-.05.708-.153Z"/>
    <path class="cls-14" d="M140.722,100.377c.091-.275.26-.552.536-.827l2.055-2.054c.367-.367,1.145-.876.692-1.543-.491-.722-1.576-.153-2.166.013-1.365.383-2.011,1.31-3.042,2.084-1.099.825-2.265,1.431-3.152,2.614l-1.793,1.29c-.456.328-.744.737-1.262.702.293-.874,1.007-1.588,1.991-1.877,1.408-2.684,4.066-2.955,4.037-3.677-.028-.698,2.619-1.642,2.899-1.963.682-.781.912-.831,1.882-.871.483-.02.969-.291,1.712-.11.444.108,1.278-.439,1.902.174-.209.779-.959,1.4-1.542,1.956l-1.84,1.755-2.113,2.009c-.269.255-.478.417-.794.325Z"/>
    <path class="cls-16" d="M100.413,98.75c-1.198-.056-1.642-.829-2.555-1.091-.457.219-.274.806-.108,1.064.207.322.505.515.933.635.348.097.319.481.425.61l-2.038-.904-3.614-.887c-.189-.803-.693-.792-1.385-.872-.644-.074-.998-1.449-.47-1.816,1.195-.83,2.595-.385,3.843.166l2.168.956,2.884,1.819-.083.319Z"/>
    <path class="cls-16" d="M101.502,99.258c-.134.017-.278.02-.412-.037-.138-.059-.223-.271-.187-.449.114.005.223.012.351.059.175.064.175.311.247.427Z"/>
    <path class="cls-14" d="M104.068,108.375c-.317.529-.826.267-1.401.343-.37.048-.855.634-1.21.145.396-.68,2.095-1.018,2.612-.488Z"/>
    <path class="cls-10" d="M97.559,114.542c.124.148.051.305-.104.308l-.352.007c-.039-.089-.04-.389.115-.505.087-.065.259.118.34.191Z"/>
    <path class="cls-14" d="M132.597,102.813c-.097.962-1.475,1.662-2.237,1.471-.181-.046-.384-.227-.405-.494,1.234-.189,1.546-.385,2.642-.977Z"/>
  </g>
</svg>